M48
; DRILL file {KiCad (6.0.2-0)} date Thursday, March 24, 2022 at 01:34:36 PM
; FORMAT={-:-/ absolute / inch / decimal}
; #@! TF.CreationDate,2022-03-24T13:34:36-04:00
; #@! TF.GenerationSoftware,Kicad,Pcbnew,(6.0.2-0)
; #@! TF.FileFunction,Plated,1,2,PTH
FMAT,2
INCH
; #@! TA.AperFunction,Plated,PTH,ViaDrill
T1C0.0157
; #@! TA.AperFunction,Plated,PTH,ComponentDrill
T2C0.0307
; #@! TA.AperFunction,Plated,PTH,ComponentDrill
T3C0.0320
; #@! TA.AperFunction,Plated,PTH,ComponentDrill
T4C0.0354
; #@! TA.AperFunction,Plated,PTH,ComponentDrill
T5C0.0394
; #@! TA.AperFunction,Plated,PTH,ComponentDrill
T6C0.0400
; #@! TA.AperFunction,Plated,PTH,ComponentDrill
T7C0.0433
; #@! TA.AperFunction,Plated,PTH,ComponentDrill
T8C0.0827
%
G90
G05
T1
X6.4978Y-3.9493
X6.5884Y-3.2468
X6.6818Y-4.5452
X6.7884Y-4.6229
X6.9052Y-4.1424
X7.1745Y-2.3195
T2
X5.8153Y-3.8487
X5.8153Y-4.1613
X5.9153Y-3.8387
X5.9153Y-4.1513
X6.0153Y-3.8487
X6.0153Y-4.1613
X6.1153Y-3.8387
X6.1153Y-4.1513
X6.2153Y-3.8487
X6.2153Y-4.1613
X6.3153Y-3.8387
X6.3153Y-4.1513
X6.4153Y-3.8487
X6.4153Y-4.1613
X6.5153Y-3.8387
X6.5153Y-4.1513
T3
X5.817Y-3.2444
X5.917Y-3.2444
X6.3886Y-3.2494
X6.4153Y-3.745
X6.4886Y-3.2494
X6.5153Y-3.745
T4
X5.089Y-3.1601
X5.089Y-3.2979
X5.1953Y-3.2344
X5.2953Y-3.1844
X5.3953Y-3.2344
X5.546Y-3.1611
X5.546Y-3.2979
X6.747Y-3.1581
X6.747Y-3.3058
X6.9103Y-3.2544
X7.0103Y-3.2044
X7.1103Y-3.2544
X7.241Y-3.1611
X7.241Y-3.2959
T5
X5.1674Y-3.4064
X5.1674Y-3.5836
X5.1674Y-3.8989
X5.1674Y-4.0761
X5.4233Y-3.4064
X5.4233Y-3.5836
X5.4233Y-3.8989
X5.4233Y-4.0761
X5.739Y-3.4064
X5.739Y-3.5836
X5.9949Y-3.4064
X5.9949Y-3.5836
X6.3107Y-3.4064
X6.3107Y-3.5836
X6.5666Y-3.4064
X6.5666Y-3.5836
X6.8824Y-3.4064
X6.8824Y-3.5836
X6.8824Y-3.8989
X6.8824Y-4.0761
X6.8824Y-4.3914
X6.8824Y-4.5686
X7.1383Y-3.4064
X7.1383Y-3.5836
X7.1383Y-3.8989
X7.1383Y-4.0761
X7.1383Y-4.3914
X7.1383Y-4.5686
T6
X5.135Y-4.36
X5.135Y-4.56
X5.145Y-4.26
X5.145Y-4.46
X5.145Y-4.66
X5.235Y-4.36
X5.235Y-4.56
X5.245Y-4.26
X5.245Y-4.46
X5.245Y-4.66
X5.4422Y-1.7023
X5.4422Y-1.8023
X5.5422Y-1.6873
X5.5422Y-1.7873
X5.5454Y-3.8102
X5.5454Y-4.0102
X5.5603Y-3.7102
X5.5603Y-3.9102
X5.5603Y-4.1102
X5.6422Y-1.7023
X5.6422Y-1.8023
X5.6454Y-3.8102
X5.6454Y-4.0102
X5.6603Y-3.7102
X5.6603Y-3.9102
X5.6603Y-4.1102
X5.7422Y-1.6873
X5.7422Y-1.7873
X5.8422Y-1.7023
X5.8422Y-1.8023
X6.4658Y-1.7023
X6.4658Y-1.8023
X6.5658Y-1.6873
X6.5658Y-1.7873
X6.6477Y-3.8102
X6.6477Y-4.0102
X6.6627Y-3.7102
X6.6627Y-3.9102
X6.6627Y-4.1102
X6.6658Y-1.7023
X6.6658Y-1.8023
X6.7477Y-3.8102
X6.7477Y-4.0102
X6.7627Y-3.7102
X6.7627Y-3.9102
X6.7627Y-4.1102
X6.7658Y-1.6873
X6.7658Y-1.7873
X6.8658Y-1.7023
X6.8658Y-1.8023
T7
X5.19Y-4.8131
X5.19Y-5.1478
X5.19Y-5.2659
X5.19Y-5.3581
X5.19Y-5.6928
X5.19Y-5.8109
X5.2669Y-2.3656
X5.2669Y-2.9956
X5.3653Y-2.3656
X5.3653Y-2.9956
X5.4637Y-2.3656
X5.4637Y-2.9956
X5.572Y-4.8131
X5.572Y-5.1478
X5.572Y-5.2659
X5.572Y-5.3581
X5.572Y-5.6928
X5.572Y-5.8109
X5.76Y-4.2681
X5.76Y-4.6028
X5.76Y-4.7209
X5.954Y-4.8131
X5.954Y-5.1478
X5.954Y-5.2659
X5.954Y-5.3581
X5.954Y-5.6928
X5.954Y-5.8109
X6.0519Y-2.9956
X6.0544Y-2.3656
X6.145Y-4.2681
X6.145Y-4.6028
X6.145Y-4.7209
X6.1503Y-2.9956
X6.1528Y-2.3656
X6.2487Y-2.9956
X6.2512Y-2.3656
X6.336Y-4.8131
X6.336Y-5.1478
X6.336Y-5.2659
X6.336Y-5.3581
X6.336Y-5.6928
X6.336Y-5.8109
X6.525Y-4.2681
X6.525Y-4.6028
X6.525Y-4.7209
X6.718Y-4.8131
X6.718Y-5.1478
X6.718Y-5.2659
X6.718Y-5.3581
X6.718Y-5.6928
X6.718Y-5.8109
X6.8419Y-2.3656
X6.8419Y-2.9956
X6.9403Y-2.3656
X6.9403Y-2.9956
X7.0387Y-2.3656
X7.0387Y-2.9956
X7.1Y-4.8131
X7.1Y-5.1478
X7.1Y-5.2659
X7.1Y-5.3581
X7.1Y-5.6928
X7.1Y-5.8109
T8
X5.1881Y-2.09
X5.1881Y-2.72
X5.5425Y-2.09
X5.5425Y-2.72
X5.9731Y-2.72
X5.9756Y-2.09
X6.3275Y-2.72
X6.33Y-2.09
X6.7631Y-2.09
X6.7631Y-2.72
X7.1175Y-2.09
X7.1175Y-2.72
T0
M30
