%TF.GenerationSoftware,KiCad,Pcbnew,(6.0.2-0)*%
%TF.CreationDate,2022-03-24T13:34:33-04:00*%
%TF.ProjectId,dots-test,646f7473-2d74-4657-9374-2e6b69636164,rev?*%
%TF.SameCoordinates,Original*%
%TF.FileFunction,Soldermask,Bot*%
%TF.FilePolarity,Negative*%
%FSLAX46Y46*%
G04 Gerber Fmt 4.6, Leading zero omitted, Abs format (unit mm)*
G04 Created by KiCad (PCBNEW (6.0.2-0)) date 2022-03-24 13:34:33*
%MOMM*%
%LPD*%
G01*
G04 APERTURE LIST*
G04 Aperture macros list*
%AMRoundRect*
0 Rectangle with rounded corners*
0 $1 Rounding radius*
0 $2 $3 $4 $5 $6 $7 $8 $9 X,Y pos of 4 corners*
0 Add a 4 corners polygon primitive as box body*
4,1,4,$2,$3,$4,$5,$6,$7,$8,$9,$2,$3,0*
0 Add four circle primitives for the rounded corners*
1,1,$1+$1,$2,$3*
1,1,$1+$1,$4,$5*
1,1,$1+$1,$6,$7*
1,1,$1+$1,$8,$9*
0 Add four rect primitives between the rounded corners*
20,1,$1+$1,$2,$3,$4,$5,0*
20,1,$1+$1,$4,$5,$6,$7,0*
20,1,$1+$1,$6,$7,$8,$9,0*
20,1,$1+$1,$8,$9,$2,$3,0*%
%AMFreePoly0*
4,1,25,0.472219,0.907196,0.484342,0.896842,0.896842,0.484342,0.925349,0.428394,0.926600,0.412500,0.926600,-0.412500,0.907196,-0.472219,0.896842,-0.484342,0.484342,-0.896842,0.428394,-0.925349,0.412500,-0.926600,-0.412500,-0.926600,-0.472219,-0.907196,-0.484342,-0.896842,-0.896842,-0.484342,-0.925349,-0.428394,-0.926600,-0.412500,-0.926600,0.412500,-0.907196,0.472219,-0.896842,0.484342,
-0.484342,0.896842,-0.428394,0.925349,-0.412500,0.926600,0.412500,0.926600,0.472219,0.907196,0.472219,0.907196,$1*%
%AMFreePoly1*
4,1,25,0.389919,0.742596,0.402042,0.732242,0.732242,0.402042,0.760749,0.346094,0.762000,0.330200,0.762000,-0.330200,0.742596,-0.389919,0.732242,-0.402042,0.402042,-0.732242,0.346094,-0.760749,0.330200,-0.762000,-0.330200,-0.762000,-0.389919,-0.742596,-0.402042,-0.732242,-0.732242,-0.402042,-0.760749,-0.346094,-0.762000,-0.330200,-0.762000,0.330200,-0.742596,0.389919,-0.732242,0.402042,
-0.402042,0.732242,-0.346094,0.760749,-0.330200,0.762000,0.330200,0.762000,0.389919,0.742596,0.389919,0.742596,$1*%
%AMFreePoly2*
4,1,25,0.529619,1.021996,0.541742,1.011642,1.011642,0.541742,1.040149,0.485794,1.041400,0.469900,1.041400,-0.469900,1.021996,-0.529619,1.011642,-0.541742,0.541742,-1.011642,0.485794,-1.040149,0.469900,-1.041400,-0.469900,-1.041400,-0.529619,-1.021996,-0.541742,-1.011642,-1.011642,-0.541742,-1.040149,-0.485794,-1.041400,-0.469900,-1.041400,0.469900,-1.021996,0.529619,-1.011642,0.541742,
-0.541742,1.011642,-0.485794,1.040149,-0.469900,1.041400,0.469900,1.041400,0.529619,1.021996,0.529619,1.021996,$1*%
G04 Aperture macros list end*
%ADD10RoundRect,0.101600X-0.825000X0.825000X-0.825000X-0.825000X0.825000X-0.825000X0.825000X0.825000X0*%
%ADD11FreePoly0,270.000000*%
%ADD12C,2.997200*%
%ADD13C,2.082800*%
%ADD14C,1.853200*%
%ADD15C,1.803200*%
%ADD16C,1.703200*%
%ADD17FreePoly1,0.000000*%
%ADD18FreePoly2,0.000000*%
%ADD19FreePoly2,270.000000*%
%ADD20FreePoly2,90.000000*%
%ADD21RoundRect,0.101600X0.565000X-0.565000X0.565000X0.565000X-0.565000X0.565000X-0.565000X-0.565000X0*%
%ADD22C,1.333200*%
G04 APERTURE END LIST*
D10*
%TO.C,LAYER_POT*%
X153781500Y-60086000D03*
D11*
X156281500Y-60086000D03*
X158781500Y-60086000D03*
D12*
X151781500Y-53086000D03*
X160781500Y-53086000D03*
%TD*%
D13*
%TO.C,D1*%
X147751300Y-82407000D03*
X150291300Y-82407000D03*
%TD*%
D10*
%TO.C,FX2_POT*%
X173784000Y-76088000D03*
D11*
X176284000Y-76088000D03*
X178784000Y-76088000D03*
D12*
X171784000Y-69088000D03*
X180784000Y-69088000D03*
%TD*%
D14*
%TO.C,GATE_OUT_LOOP_START*%
X156083000Y-108411000D03*
X156083000Y-116911000D03*
X156083000Y-119911000D03*
%TD*%
D15*
%TO.C,EFX2_ON*%
X174812000Y-86523000D03*
X181312000Y-86523000D03*
X174812000Y-91023000D03*
X181312000Y-91023000D03*
%TD*%
D14*
%TO.C,CV1_DRY*%
X131826000Y-122254000D03*
X131826000Y-130754000D03*
X131826000Y-133754000D03*
%TD*%
D15*
%TO.C,R3*%
X183921000Y-83717000D03*
X183921000Y-80292000D03*
%TD*%
D14*
%TO.C,CV7_EFX1_ON*%
X160934400Y-122254000D03*
X160934400Y-130754000D03*
X160934400Y-133754000D03*
%TD*%
D15*
%TO.C,PLAY*%
X160291700Y-86523000D03*
X166791700Y-86523000D03*
X160291700Y-91023000D03*
X166791700Y-91023000D03*
%TD*%
%TO.C,R5*%
X140868000Y-83767000D03*
X140868000Y-80292000D03*
%TD*%
%TO.C,RESET*%
X174812000Y-111542000D03*
X181312000Y-111542000D03*
X174812000Y-116042000D03*
X181312000Y-116042000D03*
%TD*%
D14*
%TO.C,GATE_IN_PLAY*%
X165735000Y-108411000D03*
X165735000Y-116911000D03*
X165735000Y-119911000D03*
%TD*%
D10*
%TO.C,DECAY_POT*%
X153718000Y-76088000D03*
D11*
X156218000Y-76088000D03*
X158718000Y-76088000D03*
D12*
X151718000Y-69088000D03*
X160718000Y-69088000D03*
%TD*%
D16*
%TO.C,LED2*%
X175522000Y-82661000D03*
X180602000Y-82661000D03*
X178062000Y-81391000D03*
%TD*%
D15*
%TO.C,EFX_1_ON*%
X131251000Y-86523000D03*
X137751000Y-86523000D03*
X131251000Y-91023000D03*
X137751000Y-91023000D03*
%TD*%
D14*
%TO.C,CV8_EFX2_ON*%
X160934400Y-136097000D03*
X160934400Y-144597000D03*
X160934400Y-147597000D03*
%TD*%
D10*
%TO.C,DRY_POT*%
X133779000Y-60086000D03*
D11*
X136279000Y-60086000D03*
X138779000Y-60086000D03*
D12*
X131779000Y-53086000D03*
X140779000Y-53086000D03*
%TD*%
D14*
%TO.C,CV4_DECAY*%
X141528800Y-136097000D03*
X141528800Y-144597000D03*
X141528800Y-147597000D03*
%TD*%
D15*
%TO.C,EFX1_SEL*%
X131251000Y-99032500D03*
X137751000Y-99032500D03*
X131251000Y-103532500D03*
X137751000Y-103532500D03*
%TD*%
%TO.C,R4*%
X171373000Y-80217000D03*
X171373000Y-83967000D03*
%TD*%
D16*
%TO.C,LED1*%
X131961000Y-82153000D03*
X137041000Y-82153000D03*
X134501000Y-80883000D03*
%TD*%
D14*
%TO.C,CV5_FX1_PARAM*%
X151231600Y-122254000D03*
X151231600Y-130754000D03*
X151231600Y-133754000D03*
%TD*%
D15*
%TO.C,EFX2_SEL*%
X174812000Y-99032500D03*
X181312000Y-99032500D03*
X174812000Y-103532500D03*
X181312000Y-103532500D03*
%TD*%
D14*
%TO.C,AUDIO_OUT_R*%
X180340000Y-136097000D03*
X180340000Y-144597000D03*
X180340000Y-147597000D03*
%TD*%
D15*
%TO.C,RECORD*%
X145771300Y-86523000D03*
X152271300Y-86523000D03*
X145771300Y-91023000D03*
X152271300Y-91023000D03*
%TD*%
D14*
%TO.C,GATE_IN_RECORD*%
X146304000Y-108411000D03*
X146304000Y-116911000D03*
X146304000Y-119911000D03*
%TD*%
%TO.C,AUDIO_OUT_L*%
X170637200Y-136097000D03*
X170637200Y-144597000D03*
X170637200Y-147597000D03*
%TD*%
D17*
%TO.C,C2*%
X162949000Y-95123000D03*
X165489000Y-95123000D03*
%TD*%
D13*
%TO.C,D2*%
X162271700Y-82534000D03*
X164811700Y-82534000D03*
%TD*%
D14*
%TO.C,AUDIO_IN_R*%
X170637200Y-122254000D03*
X170637200Y-130754000D03*
X170637200Y-133754000D03*
%TD*%
D10*
%TO.C,WET_POT*%
X133779000Y-76088000D03*
D11*
X136279000Y-76088000D03*
X138779000Y-76088000D03*
D12*
X131779000Y-69088000D03*
X140779000Y-69088000D03*
%TD*%
D18*
%TO.C,U1*%
X171772000Y-104398000D03*
X171392000Y-101858000D03*
X171772000Y-99318000D03*
X171392000Y-96778000D03*
X171772000Y-94238000D03*
X169232000Y-94238000D03*
X168852000Y-96778000D03*
X169232000Y-99318000D03*
X168852000Y-101858000D03*
X169232000Y-104398000D03*
D19*
X174392000Y-43238000D03*
X171852000Y-42858000D03*
X169312000Y-43238000D03*
X166772000Y-42858000D03*
X164232000Y-43238000D03*
X164232000Y-45778000D03*
X166772000Y-45398000D03*
X169312000Y-45778000D03*
X171852000Y-45398000D03*
X174392000Y-45778000D03*
X148392000Y-43238000D03*
X145852000Y-42858000D03*
X143312000Y-43238000D03*
X140772000Y-42858000D03*
X138232000Y-43238000D03*
X138232000Y-45778000D03*
X140772000Y-45398000D03*
X143312000Y-45778000D03*
X145852000Y-45398000D03*
X148392000Y-45778000D03*
D18*
X143772000Y-104398000D03*
X143392000Y-101858000D03*
X143772000Y-99318000D03*
X143392000Y-96778000D03*
X143772000Y-94238000D03*
X141232000Y-94238000D03*
X140852000Y-96778000D03*
X141232000Y-99318000D03*
X140852000Y-101858000D03*
X141232000Y-104398000D03*
%TD*%
D14*
%TO.C,AUDIO_IN_L*%
X180340000Y-122254000D03*
X180340000Y-130754000D03*
X180340000Y-133754000D03*
%TD*%
%TO.C,CV2_WET*%
X131826000Y-136097000D03*
X131826000Y-144597000D03*
X131826000Y-147597000D03*
%TD*%
D10*
%TO.C,FX1_POT*%
X173784000Y-60086000D03*
D11*
X176284000Y-60086000D03*
X178784000Y-60086000D03*
D12*
X171784000Y-53086000D03*
X180784000Y-53086000D03*
%TD*%
D14*
%TO.C,CV3_LAYERS*%
X141528800Y-122254000D03*
X141528800Y-130754000D03*
X141528800Y-133754000D03*
%TD*%
%TO.C,CV6_FX2_PARAM*%
X151231600Y-136097000D03*
X151231600Y-144597000D03*
X151231600Y-147597000D03*
%TD*%
D15*
%TO.C,R6*%
X129261000Y-80267000D03*
X129261000Y-83767000D03*
%TD*%
D20*
%TO.C,C1*%
X132969000Y-115824000D03*
X130429000Y-115824000D03*
X133223000Y-113284000D03*
X130683000Y-113284000D03*
X132969000Y-110744000D03*
X130429000Y-110744000D03*
X133223000Y-118364000D03*
X130683000Y-118364000D03*
X133223000Y-108204000D03*
X130683000Y-108204000D03*
%TD*%
D21*
%TO.C,U2*%
X165489000Y-105443000D03*
D22*
X162949000Y-105698000D03*
X160409000Y-105443000D03*
X157869000Y-105698000D03*
X155329000Y-105443000D03*
X152789000Y-105698000D03*
X150249000Y-105443000D03*
X147709000Y-105698000D03*
X147709000Y-97758000D03*
X150249000Y-97503000D03*
X152789000Y-97758000D03*
X155329000Y-97503000D03*
X157869000Y-97758000D03*
X160409000Y-97503000D03*
X162949000Y-97758000D03*
X165489000Y-97503000D03*
%TD*%
M02*
