%TF.GenerationSoftware,KiCad,Pcbnew,(6.0.2-0)*%
%TF.CreationDate,2022-03-24T13:34:33-04:00*%
%TF.ProjectId,dots-test,646f7473-2d74-4657-9374-2e6b69636164,rev?*%
%TF.SameCoordinates,Original*%
%TF.FileFunction,Legend,Bot*%
%TF.FilePolarity,Positive*%
%FSLAX46Y46*%
G04 Gerber Fmt 4.6, Leading zero omitted, Abs format (unit mm)*
G04 Created by KiCad (PCBNEW (6.0.2-0)) date 2022-03-24 13:34:33*
%MOMM*%
%LPD*%
G01*
G04 APERTURE LIST*
%ADD10C,0.091440*%
%ADD11C,0.114300*%
%ADD12C,0.228600*%
%ADD13C,0.071120*%
%ADD14C,0.300000*%
%ADD15C,0.093472*%
%ADD16C,0.254000*%
%ADD17C,0.203200*%
%ADD18C,0.152400*%
%ADD19C,0.127000*%
%ADD20C,0.200000*%
G04 APERTURE END LIST*
D10*
%TO.C,C1*%
X134725301Y-120853925D02*
X135075821Y-120353182D01*
X135326192Y-120853925D02*
X135326192Y-119802365D01*
X134925598Y-119802365D01*
X134825449Y-119852440D01*
X134775375Y-119902514D01*
X134725301Y-120002662D01*
X134725301Y-120152885D01*
X134775375Y-120253034D01*
X134825449Y-120303108D01*
X134925598Y-120353182D01*
X135326192Y-120353182D01*
X134274632Y-120303108D02*
X133924112Y-120303108D01*
X133773889Y-120853925D02*
X134274632Y-120853925D01*
X134274632Y-119802365D01*
X133773889Y-119802365D01*
X133323221Y-120853925D02*
X133323221Y-119802365D01*
X133072849Y-119802365D01*
X132922626Y-119852440D01*
X132822478Y-119952588D01*
X132772404Y-120052737D01*
X132722329Y-120253034D01*
X132722329Y-120403257D01*
X132772404Y-120603554D01*
X132822478Y-120703702D01*
X132922626Y-120803851D01*
X133072849Y-120853925D01*
X133323221Y-120853925D01*
X132271661Y-120152885D02*
X131470472Y-120453331D01*
X132271661Y-120753777D01*
X130368838Y-120853925D02*
X130719358Y-120353182D01*
X130969729Y-120853925D02*
X130969729Y-119802365D01*
X130569135Y-119802365D01*
X130468986Y-119852440D01*
X130418912Y-119902514D01*
X130368838Y-120002662D01*
X130368838Y-120152885D01*
X130418912Y-120253034D01*
X130468986Y-120303108D01*
X130569135Y-120353182D01*
X130969729Y-120353182D01*
X129918169Y-120303108D02*
X129567649Y-120303108D01*
X129417426Y-120853925D02*
X129918169Y-120853925D01*
X129918169Y-119802365D01*
X129417426Y-119802365D01*
X128966758Y-120853925D02*
X128966758Y-119802365D01*
X128716386Y-119802365D01*
X128566164Y-119852440D01*
X128466015Y-119952588D01*
X128415941Y-120052737D01*
X128365866Y-120253034D01*
X128365866Y-120403257D01*
X128415941Y-120603554D01*
X128466015Y-120703702D01*
X128566164Y-120803851D01*
X128716386Y-120853925D01*
X128966758Y-120853925D01*
D11*
X135920752Y-112246725D02*
X135982437Y-112215882D01*
X136074966Y-112215882D01*
X136167495Y-112246725D01*
X136229180Y-112308410D01*
X136260023Y-112370096D01*
X136290866Y-112493467D01*
X136290866Y-112585996D01*
X136260023Y-112709367D01*
X136229180Y-112771053D01*
X136167495Y-112832739D01*
X136074966Y-112863582D01*
X136013280Y-112863582D01*
X135920752Y-112832739D01*
X135889909Y-112801896D01*
X135889909Y-112585996D01*
X136013280Y-112585996D01*
X135612323Y-112863582D02*
X135612323Y-112215882D01*
X135242209Y-112863582D01*
X135242209Y-112215882D01*
X134933780Y-112863582D02*
X134933780Y-112215882D01*
X134779566Y-112215882D01*
X134687037Y-112246725D01*
X134625352Y-112308410D01*
X134594509Y-112370096D01*
X134563666Y-112493467D01*
X134563666Y-112585996D01*
X134594509Y-112709367D01*
X134625352Y-112771053D01*
X134687037Y-112832739D01*
X134779566Y-112863582D01*
X134933780Y-112863582D01*
D12*
X135809990Y-117047059D02*
X134823018Y-117047059D01*
D13*
X132990038Y-106260053D02*
X132990038Y-105442173D01*
X132678465Y-105442173D01*
X132600572Y-105481120D01*
X132561625Y-105520066D01*
X132522678Y-105597960D01*
X132522678Y-105714800D01*
X132561625Y-105792693D01*
X132600572Y-105831640D01*
X132678465Y-105870586D01*
X132990038Y-105870586D01*
X132016372Y-105442173D02*
X131860585Y-105442173D01*
X131782692Y-105481120D01*
X131704798Y-105559013D01*
X131665852Y-105714800D01*
X131665852Y-105987426D01*
X131704798Y-106143213D01*
X131782692Y-106221106D01*
X131860585Y-106260053D01*
X132016372Y-106260053D01*
X132094265Y-106221106D01*
X132172158Y-106143213D01*
X132211105Y-105987426D01*
X132211105Y-105714800D01*
X132172158Y-105559013D01*
X132094265Y-105481120D01*
X132016372Y-105442173D01*
X131393225Y-105442173D02*
X131198492Y-106260053D01*
X131042705Y-105675853D01*
X130886918Y-106260053D01*
X130692185Y-105442173D01*
X130380612Y-105831640D02*
X130107985Y-105831640D01*
X129991145Y-106260053D02*
X130380612Y-106260053D01*
X130380612Y-105442173D01*
X129991145Y-105442173D01*
X129173265Y-106260053D02*
X129445892Y-105870586D01*
X129640625Y-106260053D02*
X129640625Y-105442173D01*
X129329052Y-105442173D01*
X129251158Y-105481120D01*
X129212212Y-105520066D01*
X129173265Y-105597960D01*
X129173265Y-105714800D01*
X129212212Y-105792693D01*
X129251158Y-105831640D01*
X129329052Y-105870586D01*
X129640625Y-105870586D01*
D12*
X133644431Y-107296589D02*
X133644431Y-108283560D01*
X134137917Y-107790074D02*
X133150945Y-107790074D01*
D11*
X135948036Y-114768209D02*
X136009721Y-114737366D01*
X136102250Y-114737366D01*
X136194779Y-114768209D01*
X136256464Y-114829894D01*
X136287307Y-114891580D01*
X136318150Y-115014951D01*
X136318150Y-115107480D01*
X136287307Y-115230851D01*
X136256464Y-115292537D01*
X136194779Y-115354223D01*
X136102250Y-115385066D01*
X136040564Y-115385066D01*
X135948036Y-115354223D01*
X135917193Y-115323380D01*
X135917193Y-115107480D01*
X136040564Y-115107480D01*
X135639607Y-115385066D02*
X135639607Y-114737366D01*
X135269493Y-115385066D01*
X135269493Y-114737366D01*
X134961064Y-115385066D02*
X134961064Y-114737366D01*
X134806850Y-114737366D01*
X134714321Y-114768209D01*
X134652636Y-114829894D01*
X134621793Y-114891580D01*
X134590950Y-115014951D01*
X134590950Y-115107480D01*
X134621793Y-115230851D01*
X134652636Y-115292537D01*
X134714321Y-115354223D01*
X134806850Y-115385066D01*
X134961064Y-115385066D01*
X135893470Y-109725247D02*
X135955155Y-109694404D01*
X136047684Y-109694404D01*
X136140213Y-109725247D01*
X136201898Y-109786932D01*
X136232741Y-109848618D01*
X136263584Y-109971989D01*
X136263584Y-110064518D01*
X136232741Y-110187889D01*
X136201898Y-110249575D01*
X136140213Y-110311261D01*
X136047684Y-110342104D01*
X135985998Y-110342104D01*
X135893470Y-110311261D01*
X135862627Y-110280418D01*
X135862627Y-110064518D01*
X135985998Y-110064518D01*
X135585041Y-110342104D02*
X135585041Y-109694404D01*
X135214927Y-110342104D01*
X135214927Y-109694404D01*
X134906498Y-110342104D02*
X134906498Y-109694404D01*
X134752284Y-109694404D01*
X134659755Y-109725247D01*
X134598070Y-109786932D01*
X134567227Y-109848618D01*
X134536384Y-109971989D01*
X134536384Y-110064518D01*
X134567227Y-110187889D01*
X134598070Y-110249575D01*
X134659755Y-110311261D01*
X134752284Y-110342104D01*
X134906498Y-110342104D01*
D14*
%TO.C,G\u002A\u002A\u002A*%
X157425571Y-93091000D02*
X157570714Y-93018428D01*
X157788428Y-93018428D01*
X158006142Y-93091000D01*
X158151285Y-93236142D01*
X158223857Y-93381285D01*
X158296428Y-93671571D01*
X158296428Y-93889285D01*
X158223857Y-94179571D01*
X158151285Y-94324714D01*
X158006142Y-94469857D01*
X157788428Y-94542428D01*
X157643285Y-94542428D01*
X157425571Y-94469857D01*
X157353000Y-94397285D01*
X157353000Y-93889285D01*
X157643285Y-93889285D01*
X156482142Y-93018428D02*
X156482142Y-93381285D01*
X156845000Y-93236142D02*
X156482142Y-93381285D01*
X156119285Y-93236142D01*
X156699857Y-93671571D02*
X156482142Y-93381285D01*
X156264428Y-93671571D01*
X155321000Y-93018428D02*
X155321000Y-93381285D01*
X155683857Y-93236142D02*
X155321000Y-93381285D01*
X154958142Y-93236142D01*
X155538714Y-93671571D02*
X155321000Y-93381285D01*
X155103285Y-93671571D01*
X154159857Y-93018428D02*
X154159857Y-93381285D01*
X154522714Y-93236142D02*
X154159857Y-93381285D01*
X153797000Y-93236142D01*
X154377571Y-93671571D02*
X154159857Y-93381285D01*
X153942142Y-93671571D01*
D15*
%TO.C,U2*%
X166154710Y-103939312D02*
X167107138Y-103939312D01*
X167219188Y-103995338D01*
X167275213Y-104051363D01*
X167331238Y-104163413D01*
X167331238Y-104387514D01*
X167275213Y-104499564D01*
X167219188Y-104555589D01*
X167107138Y-104611614D01*
X166154710Y-104611614D01*
X166266761Y-105115840D02*
X166210736Y-105171866D01*
X166154710Y-105283916D01*
X166154710Y-105564042D01*
X166210736Y-105676092D01*
X166266761Y-105732117D01*
X166378811Y-105788142D01*
X166490861Y-105788142D01*
X166658937Y-105732117D01*
X167331238Y-105059815D01*
X167331238Y-105788142D01*
D16*
%TO.C,D1*%
X150596100Y-83702400D02*
X150596100Y-83245200D01*
X150596100Y-81111600D02*
X150596100Y-81619600D01*
X150582300Y-81106100D02*
G75*
G03*
X149021300Y-80375000I-1560986J-1300897D01*
G01*
X149021300Y-84439000D02*
G75*
G03*
X150572500Y-83719600I36J2032003D01*
G01*
X147257000Y-83415200D02*
G75*
G03*
X149021300Y-84439000I1764241J1008196D01*
G01*
X149021300Y-80375000D02*
G75*
G03*
X147228400Y-81450800I60J-2032000D01*
G01*
%TO.C,D2*%
X165116500Y-81238600D02*
X165116500Y-81746600D01*
X165116500Y-83829400D02*
X165116500Y-83372200D01*
X165102700Y-81233100D02*
G75*
G03*
X163541700Y-80502000I-1560986J-1300897D01*
G01*
X163541700Y-84566000D02*
G75*
G03*
X165092900Y-83846600I36J2032003D01*
G01*
X163541700Y-80502000D02*
G75*
G03*
X161748800Y-81577800I60J-2032000D01*
G01*
X161777400Y-83542200D02*
G75*
G03*
X163541700Y-84566000I1764241J1008196D01*
G01*
D17*
%TO.C,U1*%
X176297000Y-47493000D02*
X162327000Y-47493000D01*
X145487000Y-92333000D02*
X145487000Y-106303000D01*
X136327000Y-47493000D02*
X136327000Y-41143000D01*
X150297000Y-47493000D02*
X136327000Y-47493000D01*
X173487000Y-106303000D02*
X167137000Y-106303000D01*
X139137000Y-106303000D02*
X139137000Y-92333000D01*
X162327000Y-47493000D02*
X162327000Y-41143000D01*
X173487000Y-92333000D02*
X173487000Y-106303000D01*
X136327000Y-41143000D02*
X150297000Y-41143000D01*
X176297000Y-41143000D02*
X176297000Y-47493000D01*
X162327000Y-41143000D02*
X176297000Y-41143000D01*
X167137000Y-92333000D02*
X173487000Y-92333000D01*
X150297000Y-41143000D02*
X150297000Y-47493000D01*
X139137000Y-92333000D02*
X145487000Y-92333000D01*
X167137000Y-106303000D02*
X167137000Y-92333000D01*
X145487000Y-106303000D02*
X139137000Y-106303000D01*
D18*
%TO.C,C1*%
X133731000Y-106934000D02*
X129921000Y-106934000D01*
X129921000Y-106934000D02*
X129286000Y-107569000D01*
X134366000Y-107569000D02*
X133731000Y-106934000D01*
%TO.C,G\u002A\u002A\u002A*%
G36*
X152686472Y-103932708D02*
G01*
X152443110Y-104769794D01*
X152251651Y-105211317D01*
X151867472Y-105936556D01*
X151403471Y-106670430D01*
X150893529Y-107356383D01*
X150448642Y-107904916D01*
X150689438Y-108078456D01*
X151196406Y-108458495D01*
X151759810Y-108909814D01*
X152302151Y-109371316D01*
X152783069Y-109808585D01*
X153162204Y-110187203D01*
X153671183Y-110802268D01*
X154173543Y-111622570D01*
X154515581Y-112482031D01*
X154694918Y-113372086D01*
X154695221Y-113391480D01*
X154709180Y-114284173D01*
X154555989Y-115209727D01*
X154508530Y-115386390D01*
X154292805Y-116008603D01*
X154007191Y-116560123D01*
X153623592Y-117088310D01*
X153113913Y-117640522D01*
X153093266Y-117661024D01*
X152356844Y-118299140D01*
X151586178Y-118781575D01*
X150754777Y-119122018D01*
X149836152Y-119334156D01*
X149719555Y-119349762D01*
X149267014Y-119380036D01*
X148734837Y-119382970D01*
X148185142Y-119360646D01*
X147680046Y-119315146D01*
X147281665Y-119248550D01*
X147103059Y-119195162D01*
X146772727Y-119072453D01*
X146381396Y-118909131D01*
X145980474Y-118725849D01*
X145802717Y-118639539D01*
X145459941Y-118460929D01*
X145176328Y-118285403D01*
X144908175Y-118081074D01*
X144611779Y-117816055D01*
X144243438Y-117458459D01*
X143903082Y-117127006D01*
X143648977Y-116894638D01*
X143478044Y-116761866D01*
X143373850Y-116715980D01*
X143319960Y-116744270D01*
X143215409Y-116899408D01*
X142993088Y-117171512D01*
X142710552Y-117481361D01*
X142406506Y-117786969D01*
X142119655Y-118046350D01*
X141964549Y-118167916D01*
X141477373Y-118485452D01*
X140908543Y-118788392D01*
X140319737Y-119045724D01*
X139772632Y-119226437D01*
X139522825Y-119281199D01*
X138928542Y-119356075D01*
X138267711Y-119382388D01*
X137597912Y-119360974D01*
X136976726Y-119292669D01*
X136461731Y-119178313D01*
X135767116Y-118926505D01*
X134914332Y-118491707D01*
X134126748Y-117928236D01*
X133371914Y-117215479D01*
X133206138Y-117042076D01*
X132988319Y-116822513D01*
X132834176Y-116677738D01*
X132769536Y-116632734D01*
X132712261Y-116701591D01*
X132567910Y-116875717D01*
X132359038Y-117127903D01*
X132107912Y-117431273D01*
X131913308Y-117662573D01*
X131519463Y-118097307D01*
X131163910Y-118431658D01*
X130811767Y-118696607D01*
X130428151Y-118923134D01*
X130314830Y-118980154D01*
X130119563Y-119055223D01*
X129900469Y-119097998D01*
X129608943Y-119116139D01*
X129196378Y-119117310D01*
X128975725Y-119112161D01*
X128602353Y-119090028D01*
X128298069Y-119055435D01*
X128113268Y-119013225D01*
X127879656Y-118917406D01*
X127879656Y-117150176D01*
X128580492Y-117160306D01*
X128851897Y-117160390D01*
X129166570Y-117139317D01*
X129406430Y-117084124D01*
X129628519Y-116985283D01*
X129645581Y-116975802D01*
X129865700Y-116816927D01*
X130161390Y-116558664D01*
X130503441Y-116230012D01*
X130862640Y-115859975D01*
X131209776Y-115477553D01*
X131510918Y-115117392D01*
X134003099Y-115117392D01*
X134259692Y-115441367D01*
X134344012Y-115545205D01*
X134963392Y-116180210D01*
X135662819Y-116704201D01*
X136412256Y-117097650D01*
X137181662Y-117341026D01*
X137802671Y-117436608D01*
X138466121Y-117435004D01*
X139101168Y-117303653D01*
X139758242Y-117036597D01*
X140186724Y-116780376D01*
X140683106Y-116372721D01*
X141109674Y-115902706D01*
X141417930Y-115417638D01*
X141468916Y-115308342D01*
X141534444Y-115104708D01*
X144613350Y-115104708D01*
X144780514Y-115339468D01*
X144882672Y-115468068D01*
X145143666Y-115747214D01*
X145472652Y-116062712D01*
X145825355Y-116374512D01*
X146157502Y-116642565D01*
X146424817Y-116826824D01*
X146602143Y-116921722D01*
X146950016Y-117081744D01*
X147297480Y-117217364D01*
X147407165Y-117252338D01*
X147905621Y-117361680D01*
X148461022Y-117423236D01*
X149001931Y-117431581D01*
X149456913Y-117381294D01*
X150134852Y-117162452D01*
X150783738Y-116794009D01*
X151350967Y-116304833D01*
X151815183Y-115717397D01*
X152155033Y-115054173D01*
X152349160Y-114337636D01*
X152373633Y-114155403D01*
X152386804Y-113391480D01*
X152246504Y-112658811D01*
X151948697Y-111947092D01*
X151489352Y-111246021D01*
X150864432Y-110545292D01*
X150545188Y-110236934D01*
X150218522Y-109937178D01*
X149933738Y-109691120D01*
X149729072Y-109532856D01*
X149644708Y-109476533D01*
X149454442Y-109367088D01*
X149337967Y-109347476D01*
X149250410Y-109405782D01*
X149223604Y-109436636D01*
X149096625Y-109589163D01*
X148880552Y-109851925D01*
X148587133Y-110210530D01*
X148228121Y-110650581D01*
X147815266Y-111157685D01*
X147360320Y-111717448D01*
X146875032Y-112315476D01*
X145651589Y-113824294D01*
X144613350Y-115104708D01*
X141534444Y-115104708D01*
X141700911Y-114587400D01*
X141784822Y-113824294D01*
X141722715Y-113050674D01*
X141516656Y-112298191D01*
X141168709Y-111598498D01*
X140957837Y-111304244D01*
X140677491Y-110971493D01*
X140351988Y-110623615D01*
X140003779Y-110281018D01*
X139655318Y-109964114D01*
X139329059Y-109693314D01*
X139047453Y-109489028D01*
X138832955Y-109371666D01*
X138708017Y-109361640D01*
X138675585Y-109393945D01*
X138542374Y-109546022D01*
X138321028Y-109808209D01*
X138023144Y-110166465D01*
X137660320Y-110606748D01*
X137244153Y-111115017D01*
X136786240Y-111677229D01*
X136298180Y-112279343D01*
X134003099Y-115117392D01*
X131510918Y-115117392D01*
X131515638Y-115111747D01*
X131773306Y-114786414D01*
X131284122Y-113558001D01*
X131005581Y-112876494D01*
X130609149Y-111977261D01*
X130245232Y-111243117D01*
X129913364Y-110673145D01*
X129613082Y-110266430D01*
X129533040Y-110179652D01*
X129190410Y-109879540D01*
X128808542Y-109630919D01*
X128435119Y-109461456D01*
X128117826Y-109398820D01*
X127879656Y-109398820D01*
X127879656Y-107444974D01*
X128201607Y-107444974D01*
X128565008Y-107478723D01*
X129034819Y-107581828D01*
X129498230Y-107732736D01*
X129875977Y-107909457D01*
X129896220Y-107921749D01*
X130133661Y-108093258D01*
X130422290Y-108335871D01*
X130704204Y-108601226D01*
X130815953Y-108718316D01*
X131069547Y-109025635D01*
X131316803Y-109392050D01*
X131568893Y-109838245D01*
X131836992Y-110384907D01*
X132132274Y-111052718D01*
X132465914Y-111862365D01*
X132598025Y-112190355D01*
X132758850Y-112587093D01*
X132889055Y-112905309D01*
X132977815Y-113118594D01*
X133014309Y-113200537D01*
X133014946Y-113200557D01*
X133077732Y-113133223D01*
X133231687Y-112952009D01*
X133462724Y-112674287D01*
X133756756Y-112317430D01*
X134099696Y-111898810D01*
X134477457Y-111435798D01*
X134875953Y-110945767D01*
X135281096Y-110446088D01*
X135678800Y-109954133D01*
X136054978Y-109487276D01*
X136395543Y-109062886D01*
X136686408Y-108698337D01*
X136913486Y-108411001D01*
X137062691Y-108218249D01*
X137119935Y-108137453D01*
X137091417Y-108088565D01*
X136954059Y-107952034D01*
X136727996Y-107756416D01*
X136440336Y-107526099D01*
X136108099Y-107262035D01*
X135221595Y-106473198D01*
X134499652Y-105689332D01*
X133943934Y-104912388D01*
X133556106Y-104144318D01*
X133482081Y-103939806D01*
X133422880Y-103706106D01*
X133387336Y-103434723D01*
X133370002Y-103081639D01*
X133367865Y-102857683D01*
X135272781Y-102857683D01*
X135304316Y-103273584D01*
X135479915Y-103914108D01*
X135813125Y-104539719D01*
X136308007Y-105157402D01*
X136968621Y-105774137D01*
X137104684Y-105886528D01*
X137424733Y-106146794D01*
X137713722Y-106376738D01*
X137922198Y-106536807D01*
X138237984Y-106769787D01*
X138739565Y-106138600D01*
X139035209Y-105749481D01*
X139536606Y-104970396D01*
X139880179Y-104234241D01*
X140068224Y-103533784D01*
X140103039Y-102861791D01*
X139986921Y-102211029D01*
X139819757Y-101810687D01*
X139489559Y-101362582D01*
X139058599Y-101008697D01*
X138553889Y-100755495D01*
X138002442Y-100609438D01*
X137431267Y-100576989D01*
X136867376Y-100664610D01*
X136337781Y-100878764D01*
X135869494Y-101225913D01*
X135803743Y-101291279D01*
X135543725Y-101605569D01*
X135380329Y-101939212D01*
X135295900Y-102340490D01*
X135272781Y-102857683D01*
X133367865Y-102857683D01*
X133365434Y-102602833D01*
X133368499Y-102195920D01*
X133383362Y-101823599D01*
X133415464Y-101541485D01*
X133470135Y-101306042D01*
X133552709Y-101073736D01*
X133642715Y-100869912D01*
X134035987Y-100236967D01*
X134556402Y-99682244D01*
X135175529Y-99232300D01*
X135864940Y-98913695D01*
X135879430Y-98908841D01*
X136256922Y-98819904D01*
X136746557Y-98754412D01*
X137294459Y-98714905D01*
X137846753Y-98703923D01*
X138349565Y-98724006D01*
X138749019Y-98777696D01*
X138782917Y-98785255D01*
X139320693Y-98954666D01*
X139880176Y-99208800D01*
X140397683Y-99514828D01*
X140809531Y-99839921D01*
X141123524Y-100162939D01*
X141560951Y-100737422D01*
X141864260Y-101349672D01*
X142049474Y-102035934D01*
X142132619Y-102832452D01*
X142132453Y-102861791D01*
X142129073Y-103460801D01*
X142039574Y-104109257D01*
X141846816Y-104751551D01*
X141537600Y-105445659D01*
X141455282Y-105599919D01*
X141232339Y-105976944D01*
X140951378Y-106418253D01*
X140642925Y-106877774D01*
X140337508Y-107309436D01*
X140065651Y-107667167D01*
X139853418Y-107931836D01*
X140581374Y-108460731D01*
X140643598Y-108506200D01*
X141422329Y-109122059D01*
X142123211Y-109763389D01*
X142730476Y-110411963D01*
X143228354Y-111049554D01*
X143601074Y-111657934D01*
X143832866Y-112218877D01*
X143905540Y-112442961D01*
X143981772Y-112627646D01*
X144032095Y-112690496D01*
X144044646Y-112682257D01*
X144150194Y-112574241D01*
X144338045Y-112358020D01*
X144593615Y-112052055D01*
X144902323Y-111674802D01*
X145249587Y-111244722D01*
X145620825Y-110780272D01*
X146001455Y-110299912D01*
X146376896Y-109822099D01*
X146732564Y-109365294D01*
X147053879Y-108947954D01*
X147326258Y-108588538D01*
X147535120Y-108305505D01*
X147665882Y-108117314D01*
X147703962Y-108042423D01*
X147697934Y-108037063D01*
X147588925Y-107946679D01*
X147378762Y-107776103D01*
X147094963Y-107547581D01*
X146765044Y-107283361D01*
X146263764Y-106866675D01*
X145518501Y-106162999D01*
X144926781Y-105474456D01*
X144480646Y-104787899D01*
X144172139Y-104090179D01*
X143993303Y-103368146D01*
X143962744Y-102961825D01*
X145904928Y-102961825D01*
X145993267Y-103586910D01*
X146200209Y-104173834D01*
X146537410Y-104733098D01*
X147017029Y-105284802D01*
X147651223Y-105849048D01*
X147716249Y-105901384D01*
X148028204Y-106149689D01*
X148320066Y-106378125D01*
X148536046Y-106542942D01*
X148846951Y-106773860D01*
X149367862Y-106111256D01*
X149464342Y-105984125D01*
X149757518Y-105558069D01*
X150049283Y-105086295D01*
X150288729Y-104649609D01*
X150369512Y-104487575D01*
X150521683Y-104167524D01*
X150615651Y-103921486D01*
X150665369Y-103694520D01*
X150684790Y-103431683D01*
X150687869Y-103078037D01*
X150686504Y-102868238D01*
X150672585Y-102543048D01*
X150634125Y-102303156D01*
X150559567Y-102092063D01*
X150437356Y-101853274D01*
X150269079Y-101591055D01*
X149852652Y-101155281D01*
X149350075Y-100835658D01*
X148789962Y-100637294D01*
X148200926Y-100565297D01*
X147611579Y-100624776D01*
X147050535Y-100820840D01*
X146546407Y-101158597D01*
X146452960Y-101244181D01*
X146166423Y-101579396D01*
X145989084Y-101950668D01*
X145906676Y-102398107D01*
X145904928Y-102961825D01*
X143962744Y-102961825D01*
X143936182Y-102608652D01*
X143937813Y-102466777D01*
X144010254Y-101683854D01*
X144196332Y-101008449D01*
X144504668Y-100417273D01*
X144943887Y-99887033D01*
X145301986Y-99564071D01*
X145896480Y-99170364D01*
X146558505Y-98900342D01*
X147311981Y-98745203D01*
X148180827Y-98696149D01*
X148819193Y-98721783D01*
X149579637Y-98841634D01*
X150251369Y-99070360D01*
X150866923Y-99419933D01*
X151458835Y-99902325D01*
X151666603Y-100111328D01*
X152155059Y-100759109D01*
X152505396Y-101485525D01*
X152713492Y-102270187D01*
X152774124Y-103078037D01*
X152775225Y-103092710D01*
X152686472Y-103932708D01*
G37*
G36*
X182164064Y-68593578D02*
G01*
X181920702Y-69430664D01*
X181729243Y-69872186D01*
X181345064Y-70597426D01*
X180881063Y-71331300D01*
X180371121Y-72017252D01*
X179926234Y-72565785D01*
X180167030Y-72739326D01*
X180673998Y-73119365D01*
X181237402Y-73570683D01*
X181779743Y-74032186D01*
X182260661Y-74469455D01*
X182639796Y-74848073D01*
X183148775Y-75463137D01*
X183651135Y-76283440D01*
X183993173Y-77142900D01*
X184172510Y-78032956D01*
X184172813Y-78052349D01*
X184186772Y-78945042D01*
X184033581Y-79870597D01*
X183986122Y-80047260D01*
X183770397Y-80669472D01*
X183484783Y-81220993D01*
X183101184Y-81749180D01*
X182591505Y-82301392D01*
X182570858Y-82321894D01*
X181834436Y-82960009D01*
X181063770Y-83442445D01*
X180232369Y-83782888D01*
X179313744Y-83995026D01*
X179197147Y-84010631D01*
X178744606Y-84040906D01*
X178212429Y-84043840D01*
X177662734Y-84021516D01*
X177157638Y-83976015D01*
X176759257Y-83909420D01*
X176580651Y-83856032D01*
X176250318Y-83733322D01*
X175858988Y-83570001D01*
X175458066Y-83386719D01*
X175280309Y-83300408D01*
X174937533Y-83121798D01*
X174653920Y-82946272D01*
X174385767Y-82741943D01*
X174089371Y-82476924D01*
X173721030Y-82119328D01*
X173380674Y-81787876D01*
X173126569Y-81555507D01*
X172955636Y-81422735D01*
X172851442Y-81376849D01*
X172797552Y-81405140D01*
X172693001Y-81560277D01*
X172470680Y-81832381D01*
X172188144Y-82142231D01*
X171884098Y-82447839D01*
X171597247Y-82707219D01*
X171442141Y-82828786D01*
X170954965Y-83146321D01*
X170386135Y-83449261D01*
X169797329Y-83706594D01*
X169250224Y-83887307D01*
X169000417Y-83942069D01*
X168406134Y-84016945D01*
X167745303Y-84043257D01*
X167075504Y-84021843D01*
X166454318Y-83953539D01*
X165939323Y-83839182D01*
X165244708Y-83587375D01*
X164391924Y-83152576D01*
X163604340Y-82589105D01*
X162849506Y-81876349D01*
X162683730Y-81702946D01*
X162465911Y-81483383D01*
X162311768Y-81338607D01*
X162247128Y-81293604D01*
X162189853Y-81362461D01*
X162045502Y-81536587D01*
X161836630Y-81788772D01*
X161585504Y-82092143D01*
X161390900Y-82323443D01*
X160997055Y-82758176D01*
X160641502Y-83092527D01*
X160289358Y-83357476D01*
X159905742Y-83584003D01*
X159792422Y-83641023D01*
X159597155Y-83716093D01*
X159378061Y-83758867D01*
X159086535Y-83777009D01*
X158673970Y-83778179D01*
X158453317Y-83773031D01*
X158079945Y-83750898D01*
X157775661Y-83716305D01*
X157590860Y-83674094D01*
X157357248Y-83578276D01*
X157357248Y-81811045D01*
X158058084Y-81821176D01*
X158329489Y-81821260D01*
X158644162Y-81800187D01*
X158884022Y-81744993D01*
X159106111Y-81646153D01*
X159123173Y-81636671D01*
X159343292Y-81477797D01*
X159638982Y-81219533D01*
X159981033Y-80890882D01*
X160340232Y-80520844D01*
X160687368Y-80138422D01*
X160988509Y-79778262D01*
X163480691Y-79778262D01*
X163737284Y-80102237D01*
X163821604Y-80206075D01*
X164440984Y-80841080D01*
X165140411Y-81365071D01*
X165889848Y-81758519D01*
X166659254Y-82001895D01*
X167280263Y-82097478D01*
X167943713Y-82095873D01*
X168578760Y-81964522D01*
X169235834Y-81697467D01*
X169664316Y-81441245D01*
X170160698Y-81033591D01*
X170587266Y-80563575D01*
X170895522Y-80078507D01*
X170946508Y-79969212D01*
X171012036Y-79765578D01*
X174090942Y-79765578D01*
X174258106Y-80000338D01*
X174360264Y-80128937D01*
X174621258Y-80408084D01*
X174950244Y-80723582D01*
X175302947Y-81035381D01*
X175635094Y-81303435D01*
X175902409Y-81487693D01*
X176079735Y-81582592D01*
X176427608Y-81742614D01*
X176775072Y-81878234D01*
X176884757Y-81913207D01*
X177383213Y-82022550D01*
X177938613Y-82084105D01*
X178479523Y-82092451D01*
X178934505Y-82042164D01*
X179612444Y-81823322D01*
X180261330Y-81454879D01*
X180828558Y-80965703D01*
X181292775Y-80378266D01*
X181632625Y-79715043D01*
X181826752Y-78998505D01*
X181851225Y-78816273D01*
X181864396Y-78052349D01*
X181724096Y-77319680D01*
X181426289Y-76607962D01*
X180966944Y-75906890D01*
X180342024Y-75206162D01*
X180022780Y-74897804D01*
X179696114Y-74598047D01*
X179411330Y-74351989D01*
X179206664Y-74193726D01*
X179122300Y-74137402D01*
X178932034Y-74027958D01*
X178815559Y-74008345D01*
X178728002Y-74066651D01*
X178701196Y-74097505D01*
X178574217Y-74250032D01*
X178358144Y-74512795D01*
X178064725Y-74871399D01*
X177705713Y-75311450D01*
X177292858Y-75818555D01*
X176837912Y-76378318D01*
X176352624Y-76976346D01*
X175129182Y-78485163D01*
X174090942Y-79765578D01*
X171012036Y-79765578D01*
X171178503Y-79248270D01*
X171262414Y-78485163D01*
X171200307Y-77711543D01*
X170994248Y-76959061D01*
X170646301Y-76259367D01*
X170435429Y-75965113D01*
X170155083Y-75632363D01*
X169829580Y-75284484D01*
X169481371Y-74941888D01*
X169132910Y-74624984D01*
X168806651Y-74354184D01*
X168525045Y-74149897D01*
X168310547Y-74032536D01*
X168185609Y-74022509D01*
X168153177Y-74054814D01*
X168019966Y-74206892D01*
X167798620Y-74469079D01*
X167500736Y-74827335D01*
X167137912Y-75267618D01*
X166721745Y-75775886D01*
X166263832Y-76338099D01*
X165775772Y-76940213D01*
X163480691Y-79778262D01*
X160988509Y-79778262D01*
X160993230Y-79772616D01*
X161250898Y-79447284D01*
X160761714Y-78218871D01*
X160483173Y-77537364D01*
X160086741Y-76638131D01*
X159722824Y-75903986D01*
X159390956Y-75334015D01*
X159090674Y-74927300D01*
X159010632Y-74840522D01*
X158668002Y-74540410D01*
X158286134Y-74291788D01*
X157912711Y-74122325D01*
X157595418Y-74059689D01*
X157357248Y-74059689D01*
X157357248Y-72105843D01*
X157679199Y-72105843D01*
X158042600Y-72139593D01*
X158512411Y-72242698D01*
X158975822Y-72393605D01*
X159353569Y-72570327D01*
X159373812Y-72582619D01*
X159611253Y-72754127D01*
X159899882Y-72996740D01*
X160181796Y-73262095D01*
X160293545Y-73379186D01*
X160547139Y-73686504D01*
X160794395Y-74052919D01*
X161046485Y-74499115D01*
X161314584Y-75045776D01*
X161609866Y-75713588D01*
X161943506Y-76523234D01*
X162075617Y-76851225D01*
X162236442Y-77247963D01*
X162366647Y-77566179D01*
X162455407Y-77779463D01*
X162491901Y-77861406D01*
X162492538Y-77861427D01*
X162555324Y-77794092D01*
X162709279Y-77612878D01*
X162940316Y-77335157D01*
X163234348Y-76978300D01*
X163577288Y-76559680D01*
X163955049Y-76096668D01*
X164353545Y-75606636D01*
X164758688Y-75106957D01*
X165156392Y-74615003D01*
X165532570Y-74148145D01*
X165873135Y-73723756D01*
X166164000Y-73359207D01*
X166391078Y-73071870D01*
X166540283Y-72879118D01*
X166597527Y-72798323D01*
X166569009Y-72749435D01*
X166431651Y-72612903D01*
X166205588Y-72417285D01*
X165917928Y-72186969D01*
X165585691Y-71922904D01*
X164699187Y-71134068D01*
X163977244Y-70350201D01*
X163421526Y-69573257D01*
X163033698Y-68805187D01*
X162959673Y-68600675D01*
X162900472Y-68366975D01*
X162864928Y-68095593D01*
X162847594Y-67742509D01*
X162845457Y-67518552D01*
X164750373Y-67518552D01*
X164781908Y-67934453D01*
X164957507Y-68574977D01*
X165290717Y-69200589D01*
X165785599Y-69818271D01*
X166446213Y-70435007D01*
X166582276Y-70547397D01*
X166902325Y-70807664D01*
X167191314Y-71037608D01*
X167399790Y-71197676D01*
X167715576Y-71430657D01*
X168217157Y-70799470D01*
X168512801Y-70410350D01*
X169014198Y-69631265D01*
X169357770Y-68895110D01*
X169545816Y-68194653D01*
X169580631Y-67522660D01*
X169464513Y-66871899D01*
X169297349Y-66471556D01*
X168967151Y-66023452D01*
X168536191Y-65669567D01*
X168031481Y-65416365D01*
X167480034Y-65270308D01*
X166908859Y-65237859D01*
X166344968Y-65325480D01*
X165815373Y-65539634D01*
X165347086Y-65886783D01*
X165281335Y-65952148D01*
X165021317Y-66266438D01*
X164857921Y-66600082D01*
X164773492Y-67001360D01*
X164750373Y-67518552D01*
X162845457Y-67518552D01*
X162843026Y-67263703D01*
X162846091Y-66856789D01*
X162860954Y-66484469D01*
X162893056Y-66202355D01*
X162947727Y-65966912D01*
X163030301Y-65734606D01*
X163120307Y-65530781D01*
X163513579Y-64897837D01*
X164033994Y-64343114D01*
X164653121Y-63893170D01*
X165342532Y-63574565D01*
X165357022Y-63569710D01*
X165734514Y-63480774D01*
X166224149Y-63415282D01*
X166772051Y-63375774D01*
X167324345Y-63364792D01*
X167827157Y-63384876D01*
X168226611Y-63438566D01*
X168260509Y-63446125D01*
X168798285Y-63615536D01*
X169357768Y-63869670D01*
X169875275Y-64175698D01*
X170287123Y-64500791D01*
X170601116Y-64823809D01*
X171038543Y-65398291D01*
X171341852Y-66010542D01*
X171527066Y-66696804D01*
X171610211Y-67493321D01*
X171610045Y-67522660D01*
X171606665Y-68121670D01*
X171517166Y-68770127D01*
X171324408Y-69412420D01*
X171015192Y-70106528D01*
X170932874Y-70260789D01*
X170709931Y-70637814D01*
X170428970Y-71079123D01*
X170120517Y-71538644D01*
X169815100Y-71970306D01*
X169543243Y-72328037D01*
X169331010Y-72592706D01*
X170058966Y-73121601D01*
X170121190Y-73167069D01*
X170899921Y-73782928D01*
X171600803Y-74424259D01*
X172208068Y-75072833D01*
X172705946Y-75710423D01*
X173078666Y-76318804D01*
X173310458Y-76879747D01*
X173383132Y-77103830D01*
X173459364Y-77288516D01*
X173509687Y-77351366D01*
X173522238Y-77343126D01*
X173627786Y-77235110D01*
X173815637Y-77018890D01*
X174071207Y-76712924D01*
X174379915Y-76335672D01*
X174727179Y-75905591D01*
X175098417Y-75441142D01*
X175479047Y-74960781D01*
X175854488Y-74482969D01*
X176210156Y-74026163D01*
X176531471Y-73608823D01*
X176803850Y-73249408D01*
X177012712Y-72966375D01*
X177143474Y-72778184D01*
X177181554Y-72703293D01*
X177175526Y-72697932D01*
X177066517Y-72607548D01*
X176856354Y-72436972D01*
X176572555Y-72208451D01*
X176242636Y-71944231D01*
X175741356Y-71527545D01*
X174996093Y-70823868D01*
X174404373Y-70135326D01*
X173958238Y-69448769D01*
X173649731Y-68751048D01*
X173470895Y-68029015D01*
X173440336Y-67622695D01*
X175382520Y-67622695D01*
X175470859Y-68247779D01*
X175677801Y-68834704D01*
X176015002Y-69393968D01*
X176494620Y-69945672D01*
X177128815Y-70509918D01*
X177193841Y-70562253D01*
X177505796Y-70810558D01*
X177797658Y-71038995D01*
X178013638Y-71203811D01*
X178324543Y-71434730D01*
X178845454Y-70772126D01*
X178941934Y-70644994D01*
X179235110Y-70218938D01*
X179526875Y-69747164D01*
X179766321Y-69310478D01*
X179847104Y-69148444D01*
X179999275Y-68828394D01*
X180093243Y-68582356D01*
X180142961Y-68355389D01*
X180162382Y-68092553D01*
X180165461Y-67738906D01*
X180164096Y-67529107D01*
X180150177Y-67203918D01*
X180111717Y-66964025D01*
X180037159Y-66752932D01*
X179914948Y-66514144D01*
X179746671Y-66251925D01*
X179330244Y-65816151D01*
X178827667Y-65496528D01*
X178267554Y-65298163D01*
X177678518Y-65226167D01*
X177089171Y-65285646D01*
X176528127Y-65481710D01*
X176023999Y-65819467D01*
X175930552Y-65905050D01*
X175644015Y-66240266D01*
X175466676Y-66611537D01*
X175384268Y-67058976D01*
X175382520Y-67622695D01*
X173440336Y-67622695D01*
X173413774Y-67269522D01*
X173415405Y-67127646D01*
X173487846Y-66344723D01*
X173673923Y-65669319D01*
X173982260Y-65078142D01*
X174421479Y-64547902D01*
X174779578Y-64224941D01*
X175374072Y-63831234D01*
X176036097Y-63561211D01*
X176789573Y-63406073D01*
X177658419Y-63357019D01*
X178296785Y-63382653D01*
X179057229Y-63502504D01*
X179728961Y-63731230D01*
X180344515Y-64080803D01*
X180936427Y-64563194D01*
X181144195Y-64772197D01*
X181632651Y-65419979D01*
X181982988Y-66146394D01*
X182191084Y-66931057D01*
X182251716Y-67738906D01*
X182252817Y-67753580D01*
X182164064Y-68593578D01*
G37*
G36*
X168036262Y-86556338D02*
G01*
X168238399Y-86587015D01*
X168315776Y-86632265D01*
X168261636Y-86670629D01*
X168077572Y-86704318D01*
X167806077Y-86717214D01*
X167575892Y-86708191D01*
X167373755Y-86677514D01*
X167296378Y-86632265D01*
X167350518Y-86593900D01*
X167534582Y-86560211D01*
X167806077Y-86547315D01*
X168036262Y-86556338D01*
G37*
G36*
X152771422Y-127463812D02*
G01*
X152528060Y-128300898D01*
X152336601Y-128742420D01*
X151952422Y-129467660D01*
X151488421Y-130201534D01*
X150978479Y-130887486D01*
X150533591Y-131436020D01*
X150774388Y-131609560D01*
X151281356Y-131989599D01*
X151844760Y-132440917D01*
X152387101Y-132902420D01*
X152868018Y-133339689D01*
X153247154Y-133718307D01*
X153756133Y-134333372D01*
X154258493Y-135153674D01*
X154600530Y-136013134D01*
X154779868Y-136903190D01*
X154780171Y-136922584D01*
X154794130Y-137815276D01*
X154640939Y-138740831D01*
X154593479Y-138917494D01*
X154377755Y-139539706D01*
X154092141Y-140091227D01*
X153708542Y-140619414D01*
X153198863Y-141171626D01*
X153178216Y-141192128D01*
X152441794Y-141830243D01*
X151671128Y-142312679D01*
X150839727Y-142653122D01*
X149921102Y-142865260D01*
X149804505Y-142880865D01*
X149351964Y-142911140D01*
X148819787Y-142914074D01*
X148270092Y-142891750D01*
X147764996Y-142846249D01*
X147366615Y-142779654D01*
X147188008Y-142726266D01*
X146857676Y-142603556D01*
X146466345Y-142440235D01*
X146065424Y-142256953D01*
X145887666Y-142170642D01*
X145544891Y-141992032D01*
X145261278Y-141816506D01*
X144993125Y-141612177D01*
X144696729Y-141347158D01*
X144328388Y-140989562D01*
X143988031Y-140658110D01*
X143733926Y-140425742D01*
X143562994Y-140292969D01*
X143458800Y-140247083D01*
X143404910Y-140275374D01*
X143300359Y-140430511D01*
X143078037Y-140702616D01*
X142795502Y-141012465D01*
X142491456Y-141318073D01*
X142204605Y-141577453D01*
X142049498Y-141699020D01*
X141562323Y-142016555D01*
X140993493Y-142319495D01*
X140404687Y-142576828D01*
X139857582Y-142757541D01*
X139607774Y-142812303D01*
X139013492Y-142887179D01*
X138352661Y-142913491D01*
X137682862Y-142892077D01*
X137061675Y-142823773D01*
X136546681Y-142709416D01*
X135852066Y-142457609D01*
X134999282Y-142022810D01*
X134211698Y-141459339D01*
X133456864Y-140746583D01*
X133291088Y-140573180D01*
X133073269Y-140353617D01*
X132919126Y-140208841D01*
X132854486Y-140163838D01*
X132797211Y-140232695D01*
X132652860Y-140406821D01*
X132443988Y-140659006D01*
X132192862Y-140962377D01*
X131998258Y-141193677D01*
X131604413Y-141628410D01*
X131248860Y-141962761D01*
X130896716Y-142227710D01*
X130513100Y-142454238D01*
X130399780Y-142511257D01*
X130204513Y-142586327D01*
X129985419Y-142629101D01*
X129693893Y-142647243D01*
X129281328Y-142648413D01*
X129060675Y-142643265D01*
X128687303Y-142621132D01*
X128383019Y-142586539D01*
X128198217Y-142544329D01*
X127964605Y-142448510D01*
X127964605Y-140681279D01*
X128665441Y-140691410D01*
X128936847Y-140691494D01*
X129251520Y-140670421D01*
X129491380Y-140615227D01*
X129713469Y-140516387D01*
X129730531Y-140506905D01*
X129950650Y-140348031D01*
X130246340Y-140089767D01*
X130588391Y-139761116D01*
X130947590Y-139391079D01*
X131294726Y-139008656D01*
X131595867Y-138648496D01*
X134088049Y-138648496D01*
X134344642Y-138972471D01*
X134428962Y-139076309D01*
X135048342Y-139711314D01*
X135747769Y-140235305D01*
X136497206Y-140628753D01*
X137266612Y-140872129D01*
X137887621Y-140967712D01*
X138551071Y-140966107D01*
X139186118Y-140834756D01*
X139843192Y-140567701D01*
X140271674Y-140311479D01*
X140768056Y-139903825D01*
X141194624Y-139433810D01*
X141502880Y-138948741D01*
X141553866Y-138839446D01*
X141619394Y-138635812D01*
X144698300Y-138635812D01*
X144865464Y-138870572D01*
X144967622Y-138999171D01*
X145228615Y-139278318D01*
X145557601Y-139593816D01*
X145910305Y-139905616D01*
X146242452Y-140173669D01*
X146509767Y-140357927D01*
X146687093Y-140452826D01*
X147034966Y-140612848D01*
X147382430Y-140748468D01*
X147492115Y-140783442D01*
X147990571Y-140892784D01*
X148545971Y-140954339D01*
X149086880Y-140962685D01*
X149541863Y-140912398D01*
X150219802Y-140693556D01*
X150868688Y-140325113D01*
X151435916Y-139835937D01*
X151900133Y-139248501D01*
X152239983Y-138585277D01*
X152434110Y-137868739D01*
X152458583Y-137686507D01*
X152471754Y-136922584D01*
X152331454Y-136189915D01*
X152033647Y-135478196D01*
X151574302Y-134777124D01*
X150949382Y-134076396D01*
X150630138Y-133768038D01*
X150303472Y-133468282D01*
X150018688Y-133222223D01*
X149814022Y-133063960D01*
X149729658Y-133007636D01*
X149539392Y-132898192D01*
X149422917Y-132878579D01*
X149335360Y-132936885D01*
X149308553Y-132967739D01*
X149181575Y-133120267D01*
X148965502Y-133383029D01*
X148672083Y-133741633D01*
X148313071Y-134181684D01*
X147900216Y-134688789D01*
X147445270Y-135248552D01*
X146959982Y-135846580D01*
X145736540Y-137355397D01*
X144698300Y-138635812D01*
X141619394Y-138635812D01*
X141785860Y-138118504D01*
X141869772Y-137355397D01*
X141807665Y-136581777D01*
X141601606Y-135829295D01*
X141253659Y-135129602D01*
X141042787Y-134835347D01*
X140762441Y-134502597D01*
X140436937Y-134154718D01*
X140088729Y-133812122D01*
X139740268Y-133495218D01*
X139414009Y-133224418D01*
X139132403Y-133020132D01*
X138917905Y-132902770D01*
X138792967Y-132892743D01*
X138760535Y-132925048D01*
X138627324Y-133077126D01*
X138405978Y-133339313D01*
X138108094Y-133697569D01*
X137745270Y-134137852D01*
X137329103Y-134646121D01*
X136871190Y-135208333D01*
X136383130Y-135810447D01*
X134088049Y-138648496D01*
X131595867Y-138648496D01*
X131600588Y-138642850D01*
X131858256Y-138317518D01*
X131369072Y-137089105D01*
X131090531Y-136407598D01*
X130694099Y-135508365D01*
X130330181Y-134774220D01*
X129998314Y-134204249D01*
X129698032Y-133797534D01*
X129617990Y-133710756D01*
X129275360Y-133410644D01*
X128893492Y-133162022D01*
X128520069Y-132992559D01*
X128202775Y-132929923D01*
X127964605Y-132929923D01*
X127964605Y-130976077D01*
X128286557Y-130976077D01*
X128649958Y-131009827D01*
X129119769Y-131112932D01*
X129583180Y-131263839D01*
X129960926Y-131440561D01*
X129981170Y-131452853D01*
X130218611Y-131624361D01*
X130507240Y-131866974D01*
X130789154Y-132132329D01*
X130900902Y-132249420D01*
X131154497Y-132556739D01*
X131401752Y-132923153D01*
X131653843Y-133369349D01*
X131921942Y-133916011D01*
X132217224Y-134583822D01*
X132550863Y-135393469D01*
X132682975Y-135721459D01*
X132843800Y-136118197D01*
X132974005Y-136436413D01*
X133062765Y-136649698D01*
X133099259Y-136731640D01*
X133099896Y-136731661D01*
X133162682Y-136664326D01*
X133316637Y-136483112D01*
X133547674Y-136205391D01*
X133841706Y-135848534D01*
X134184646Y-135429914D01*
X134562407Y-134966902D01*
X134960902Y-134476870D01*
X135366046Y-133977192D01*
X135763750Y-133485237D01*
X136139928Y-133018379D01*
X136480493Y-132593990D01*
X136771358Y-132229441D01*
X136998436Y-131942104D01*
X137147641Y-131749352D01*
X137204885Y-131668557D01*
X137176366Y-131619669D01*
X137039009Y-131483137D01*
X136812946Y-131287520D01*
X136525286Y-131057203D01*
X136193049Y-130793138D01*
X135306545Y-130004302D01*
X134584602Y-129220436D01*
X134028884Y-128443491D01*
X133641056Y-127675421D01*
X133567031Y-127470909D01*
X133507830Y-127237209D01*
X133472286Y-126965827D01*
X133454952Y-126612743D01*
X133452815Y-126388786D01*
X135357731Y-126388786D01*
X135389265Y-126804687D01*
X135564865Y-127445211D01*
X135898075Y-128070823D01*
X136392957Y-128688505D01*
X137053571Y-129305241D01*
X137189634Y-129417631D01*
X137509683Y-129677898D01*
X137798672Y-129907842D01*
X138007148Y-130067911D01*
X138322934Y-130300891D01*
X138824515Y-129669704D01*
X139120159Y-129280585D01*
X139621556Y-128501499D01*
X139965128Y-127765345D01*
X140153173Y-127064887D01*
X140187988Y-126392894D01*
X140071870Y-125742133D01*
X139904707Y-125341790D01*
X139574508Y-124893686D01*
X139143549Y-124539801D01*
X138638839Y-124286599D01*
X138087391Y-124140542D01*
X137516217Y-124108093D01*
X136952326Y-124195714D01*
X136422731Y-124409868D01*
X135954444Y-124757017D01*
X135888693Y-124822382D01*
X135628675Y-125136672D01*
X135465279Y-125470316D01*
X135380850Y-125871594D01*
X135357731Y-126388786D01*
X133452815Y-126388786D01*
X133450384Y-126133937D01*
X133453449Y-125727023D01*
X133468312Y-125354703D01*
X133500413Y-125072589D01*
X133555085Y-124837146D01*
X133637659Y-124604840D01*
X133727664Y-124401016D01*
X134120937Y-123768071D01*
X134641352Y-123213348D01*
X135260479Y-122763404D01*
X135949890Y-122444799D01*
X135964379Y-122439944D01*
X136341872Y-122351008D01*
X136831507Y-122285516D01*
X137379409Y-122246009D01*
X137931703Y-122235027D01*
X138434515Y-122255110D01*
X138833969Y-122308800D01*
X138867866Y-122316359D01*
X139405643Y-122485770D01*
X139965126Y-122739904D01*
X140482633Y-123045932D01*
X140894481Y-123371025D01*
X141208474Y-123694043D01*
X141645901Y-124268525D01*
X141949209Y-124880776D01*
X142134424Y-125567038D01*
X142217569Y-126363556D01*
X142217403Y-126392894D01*
X142214023Y-126991904D01*
X142124524Y-127640361D01*
X141931766Y-128282654D01*
X141622549Y-128976762D01*
X141540231Y-129131023D01*
X141317289Y-129508048D01*
X141036328Y-129949357D01*
X140727875Y-130408878D01*
X140422457Y-130840540D01*
X140150601Y-131198271D01*
X139938368Y-131462940D01*
X140666324Y-131991835D01*
X140728548Y-132037303D01*
X141507278Y-132653163D01*
X142208161Y-133294493D01*
X142815426Y-133943067D01*
X143313304Y-134580658D01*
X143686024Y-135189038D01*
X143917816Y-135749981D01*
X143990490Y-135974064D01*
X144066722Y-136158750D01*
X144117045Y-136221600D01*
X144129595Y-136213360D01*
X144235144Y-136105344D01*
X144422994Y-135889124D01*
X144678565Y-135583158D01*
X144987273Y-135205906D01*
X145334537Y-134775826D01*
X145705775Y-134311376D01*
X146086405Y-133831015D01*
X146461846Y-133353203D01*
X146817514Y-132896398D01*
X147138829Y-132479058D01*
X147411208Y-132119642D01*
X147620070Y-131836609D01*
X147750832Y-131648418D01*
X147788912Y-131573527D01*
X147782884Y-131568167D01*
X147673875Y-131477782D01*
X147463712Y-131307206D01*
X147179913Y-131078685D01*
X146849994Y-130814465D01*
X146348714Y-130397779D01*
X145603451Y-129694102D01*
X145011731Y-129005560D01*
X144565595Y-128319003D01*
X144257089Y-127621282D01*
X144078253Y-126899250D01*
X144047694Y-126492929D01*
X145989878Y-126492929D01*
X146078217Y-127118013D01*
X146285158Y-127704938D01*
X146622359Y-128264202D01*
X147101978Y-128815906D01*
X147736173Y-129380152D01*
X147801199Y-129432487D01*
X148113153Y-129680792D01*
X148405015Y-129909229D01*
X148620996Y-130074045D01*
X148931901Y-130304964D01*
X149452812Y-129642360D01*
X149549292Y-129515228D01*
X149842467Y-129089172D01*
X150134233Y-128617398D01*
X150373679Y-128180712D01*
X150454462Y-128018678D01*
X150606633Y-127698628D01*
X150700601Y-127452590D01*
X150750319Y-127225623D01*
X150769740Y-126962787D01*
X150772819Y-126609140D01*
X150771454Y-126399341D01*
X150757535Y-126074152D01*
X150719074Y-125834259D01*
X150644517Y-125623167D01*
X150522306Y-125384378D01*
X150354029Y-125122159D01*
X149937602Y-124686385D01*
X149435025Y-124366762D01*
X148874912Y-124168398D01*
X148285876Y-124096401D01*
X147696529Y-124155880D01*
X147135485Y-124351944D01*
X146631357Y-124689701D01*
X146537910Y-124775284D01*
X146251373Y-125110500D01*
X146074034Y-125481771D01*
X145991626Y-125929210D01*
X145989878Y-126492929D01*
X144047694Y-126492929D01*
X144021132Y-126139756D01*
X144022762Y-125997880D01*
X144095204Y-125214957D01*
X144281281Y-124539553D01*
X144589618Y-123948376D01*
X145028837Y-123418136D01*
X145386936Y-123095175D01*
X145981430Y-122701468D01*
X146643455Y-122431446D01*
X147396931Y-122276307D01*
X148265777Y-122227253D01*
X148904143Y-122252887D01*
X149664587Y-122372738D01*
X150336319Y-122601464D01*
X150951873Y-122951037D01*
X151543784Y-123433428D01*
X151751552Y-123642431D01*
X152240009Y-124290213D01*
X152590346Y-125016628D01*
X152798442Y-125801291D01*
X152859074Y-126609140D01*
X152860175Y-126623814D01*
X152771422Y-127463812D01*
G37*
G36*
X180409924Y-62915181D02*
G01*
X180128149Y-62891297D01*
X179910790Y-62845004D01*
X179755074Y-62757516D01*
X179602901Y-62606620D01*
X179574738Y-62574340D01*
X179407290Y-62304775D01*
X179359254Y-61999470D01*
X179363918Y-61901054D01*
X179614104Y-61901054D01*
X179616960Y-62048478D01*
X179657093Y-62323342D01*
X179763470Y-62502597D01*
X179959979Y-62637079D01*
X180187605Y-62720201D01*
X180459383Y-62761362D01*
X180718452Y-62761362D01*
X180718452Y-61147315D01*
X180374791Y-61147315D01*
X180194763Y-61162812D01*
X179883039Y-61293977D01*
X179684054Y-61545440D01*
X179614104Y-61901054D01*
X179363918Y-61901054D01*
X179368197Y-61810766D01*
X179467997Y-61435414D01*
X179684860Y-61176187D01*
X180026807Y-61025912D01*
X180501858Y-60977415D01*
X180973301Y-60977415D01*
X180973301Y-62951054D01*
X180409924Y-62915181D01*
G37*
G36*
X154555989Y-44616416D02*
G01*
X154508530Y-44793079D01*
X154292805Y-45415292D01*
X154007191Y-45966812D01*
X153623592Y-46494999D01*
X153113913Y-47047211D01*
X153093266Y-47067713D01*
X152356844Y-47705829D01*
X151586178Y-48188264D01*
X150754777Y-48528707D01*
X149836152Y-48740845D01*
X149719555Y-48756450D01*
X149267014Y-48786725D01*
X148734837Y-48789659D01*
X148185142Y-48767335D01*
X147680046Y-48721835D01*
X147281665Y-48655239D01*
X147103059Y-48601851D01*
X146772727Y-48479142D01*
X146381396Y-48315820D01*
X145980474Y-48132538D01*
X145802717Y-48046228D01*
X145459941Y-47867618D01*
X145176328Y-47692092D01*
X144908175Y-47487763D01*
X144611779Y-47222744D01*
X144243438Y-46865148D01*
X143903082Y-46533695D01*
X143648977Y-46301327D01*
X143478044Y-46168555D01*
X143373850Y-46122669D01*
X143319960Y-46150959D01*
X143215409Y-46306097D01*
X142993088Y-46578201D01*
X142710552Y-46888050D01*
X142406506Y-47193658D01*
X142119655Y-47453039D01*
X141964549Y-47574605D01*
X141477373Y-47892141D01*
X140908543Y-48195081D01*
X140319737Y-48452413D01*
X139772632Y-48633126D01*
X139522825Y-48687888D01*
X138928542Y-48762764D01*
X138267711Y-48789077D01*
X137597912Y-48767662D01*
X136976726Y-48699358D01*
X136461731Y-48585002D01*
X135767116Y-48333194D01*
X134914332Y-47898396D01*
X134126748Y-47334925D01*
X133371914Y-46622168D01*
X133206138Y-46448765D01*
X132988319Y-46229202D01*
X132834176Y-46084427D01*
X132769536Y-46039423D01*
X132712261Y-46108280D01*
X132567910Y-46282406D01*
X132359038Y-46534592D01*
X132107912Y-46837962D01*
X131913308Y-47069262D01*
X131519463Y-47503996D01*
X131163910Y-47838347D01*
X130811767Y-48103296D01*
X130428151Y-48329823D01*
X130314830Y-48386842D01*
X130119563Y-48461912D01*
X129900469Y-48504687D01*
X129608943Y-48522828D01*
X129196378Y-48523999D01*
X128975725Y-48518850D01*
X128602353Y-48496717D01*
X128298069Y-48462124D01*
X128113268Y-48419914D01*
X127879656Y-48324095D01*
X127879656Y-46556865D01*
X128580492Y-46566995D01*
X128851897Y-46567079D01*
X129166570Y-46546006D01*
X129406430Y-46490813D01*
X129628519Y-46391972D01*
X129645581Y-46382491D01*
X129865700Y-46223616D01*
X130161390Y-45965353D01*
X130503441Y-45636701D01*
X130862640Y-45266664D01*
X131209776Y-44884241D01*
X131510918Y-44524081D01*
X134003099Y-44524081D01*
X134259692Y-44848056D01*
X134344012Y-44951894D01*
X134963392Y-45586899D01*
X135662819Y-46110890D01*
X136412256Y-46504339D01*
X137181662Y-46747715D01*
X137802671Y-46843297D01*
X138466121Y-46841693D01*
X139101168Y-46710342D01*
X139758242Y-46443286D01*
X140186724Y-46187065D01*
X140683106Y-45779410D01*
X141109674Y-45309395D01*
X141417930Y-44824327D01*
X141468916Y-44715031D01*
X141534444Y-44511397D01*
X144613350Y-44511397D01*
X144780514Y-44746157D01*
X144882672Y-44874757D01*
X145143666Y-45153903D01*
X145472652Y-45469401D01*
X145825355Y-45781201D01*
X146157502Y-46049254D01*
X146424817Y-46233513D01*
X146602143Y-46328411D01*
X146950016Y-46488433D01*
X147297480Y-46624053D01*
X147407165Y-46659027D01*
X147905621Y-46768369D01*
X148461022Y-46829924D01*
X149001931Y-46838270D01*
X149456913Y-46787983D01*
X150134852Y-46569141D01*
X150783738Y-46200698D01*
X151350967Y-45711522D01*
X151815183Y-45124086D01*
X152155033Y-44460862D01*
X152349160Y-43744325D01*
X152373633Y-43562092D01*
X152386804Y-42798169D01*
X152246504Y-42065500D01*
X151948697Y-41353781D01*
X151489352Y-40652710D01*
X150864432Y-39951981D01*
X150545188Y-39643623D01*
X150218522Y-39343867D01*
X149933738Y-39097808D01*
X149729072Y-38939545D01*
X149644708Y-38883222D01*
X149454442Y-38773777D01*
X149337967Y-38754165D01*
X149250410Y-38812471D01*
X149223604Y-38843325D01*
X149096625Y-38995852D01*
X148880552Y-39258614D01*
X148587133Y-39617218D01*
X148228121Y-40057270D01*
X147815266Y-40564374D01*
X147360320Y-41124137D01*
X146875032Y-41722165D01*
X145651589Y-43230983D01*
X144613350Y-44511397D01*
X141534444Y-44511397D01*
X141700911Y-43994089D01*
X141784822Y-43230983D01*
X141722715Y-42457363D01*
X141516656Y-41704880D01*
X141168709Y-41005187D01*
X140957837Y-40710933D01*
X140677491Y-40378182D01*
X140351988Y-40030303D01*
X140003779Y-39687707D01*
X139655318Y-39370803D01*
X139329059Y-39100003D01*
X139047453Y-38895717D01*
X138832955Y-38778355D01*
X138708017Y-38768329D01*
X138675585Y-38800634D01*
X138542374Y-38952711D01*
X138321028Y-39214898D01*
X138023144Y-39573154D01*
X137660320Y-40013437D01*
X137244153Y-40521706D01*
X136786240Y-41083918D01*
X136298180Y-41686032D01*
X134003099Y-44524081D01*
X131510918Y-44524081D01*
X131515638Y-44518436D01*
X131773306Y-44193103D01*
X131284122Y-42964690D01*
X131005581Y-42283183D01*
X130609149Y-41383950D01*
X130245232Y-40649806D01*
X129913364Y-40079834D01*
X129613082Y-39673119D01*
X129533040Y-39586341D01*
X129190410Y-39286229D01*
X128808542Y-39037608D01*
X128435119Y-38868145D01*
X128117826Y-38805509D01*
X128032900Y-38802150D01*
X127909365Y-38747986D01*
X127879656Y-38591300D01*
X127879656Y-38377092D01*
X131141204Y-38423234D01*
X131503223Y-39102833D01*
X131601306Y-39296245D01*
X131786879Y-39689953D01*
X132001503Y-40169480D01*
X132225818Y-40691263D01*
X132440464Y-41211740D01*
X132614487Y-41641919D01*
X132775802Y-42030230D01*
X132894170Y-42294459D01*
X132979924Y-42453269D01*
X133043397Y-42525319D01*
X133094921Y-42529270D01*
X133144829Y-42483781D01*
X133159541Y-42465794D01*
X133273460Y-42325845D01*
X133475534Y-42077178D01*
X133751218Y-41737709D01*
X134085965Y-41325353D01*
X134465229Y-40858024D01*
X134874463Y-40353637D01*
X136474957Y-38380760D01*
X141292984Y-38380760D01*
X142076107Y-39124071D01*
X142171460Y-39215787D01*
X142756591Y-39839464D01*
X143240156Y-40465532D01*
X143604725Y-41069173D01*
X143832866Y-41625566D01*
X143905468Y-41849668D01*
X143981444Y-42034340D01*
X144031398Y-42097185D01*
X144033335Y-42095992D01*
X144108515Y-42014949D01*
X144274724Y-41820422D01*
X144517753Y-41529519D01*
X144823394Y-41159351D01*
X145177438Y-40727026D01*
X145565676Y-40249656D01*
X147046204Y-38423234D01*
X151936704Y-38378128D01*
X152845900Y-39292654D01*
X153122560Y-39575248D01*
X153461660Y-39943375D01*
X153719902Y-40261658D01*
X153926412Y-40567040D01*
X154110317Y-40896467D01*
X154159830Y-40994599D01*
X154512624Y-41884139D01*
X154696005Y-42782250D01*
X154696256Y-42798169D01*
X154710338Y-43691990D01*
X154555989Y-44616416D01*
G37*
G36*
X165000946Y-62480836D02*
G01*
X164775976Y-62757497D01*
X164619573Y-62849599D01*
X164276709Y-62929657D01*
X163917608Y-62898712D01*
X163614564Y-62756807D01*
X163424905Y-62542209D01*
X163293593Y-62200926D01*
X163280929Y-61877907D01*
X163504523Y-61877907D01*
X163547330Y-62259020D01*
X163736023Y-62579982D01*
X163827034Y-62657734D01*
X164099736Y-62756822D01*
X164392593Y-62727423D01*
X164641828Y-62570224D01*
X164781503Y-62380384D01*
X164889235Y-62019327D01*
X164834106Y-61618398D01*
X164729364Y-61394313D01*
X164513535Y-61206284D01*
X164195709Y-61147315D01*
X163960260Y-61176177D01*
X163715704Y-61324827D01*
X163558703Y-61614181D01*
X163504523Y-61877907D01*
X163280929Y-61877907D01*
X163278758Y-61822538D01*
X163380829Y-61455455D01*
X163600240Y-61148086D01*
X163824664Y-61008230D01*
X164162668Y-60940023D01*
X164506950Y-60986914D01*
X164792004Y-61148861D01*
X164977051Y-61388931D01*
X165101967Y-61748075D01*
X165107536Y-62019327D01*
X165109771Y-62128203D01*
X165000946Y-62480836D01*
G37*
G36*
X173825487Y-62541266D02*
G01*
X173897331Y-62770432D01*
X173923507Y-62874628D01*
X173891562Y-62940013D01*
X173808885Y-62900950D01*
X173711440Y-62778401D01*
X173635360Y-62606044D01*
X173591061Y-62472893D01*
X173516405Y-62379930D01*
X173372841Y-62343129D01*
X173109902Y-62336612D01*
X172891074Y-62340054D01*
X172728640Y-62367272D01*
X172649689Y-62442645D01*
X172605956Y-62590488D01*
X172537326Y-62790942D01*
X172435715Y-62914254D01*
X172333969Y-62900179D01*
X172340062Y-62812501D01*
X172394337Y-62596451D01*
X172488249Y-62286081D01*
X172577843Y-62018050D01*
X172818186Y-62018050D01*
X172820721Y-62026373D01*
X172918871Y-62065748D01*
X173115441Y-62081763D01*
X173216372Y-62080897D01*
X173349497Y-62060658D01*
X173396562Y-61986197D01*
X173367762Y-61822059D01*
X173273290Y-61532789D01*
X173133814Y-61123449D01*
X172976035Y-61538893D01*
X172917960Y-61696290D01*
X172846232Y-61908181D01*
X172818186Y-62018050D01*
X172577843Y-62018050D01*
X172612373Y-61914749D01*
X172733061Y-61576260D01*
X172851517Y-61276208D01*
X172945173Y-61093297D01*
X173027556Y-61002157D01*
X173112196Y-60977415D01*
X173174455Y-60989719D01*
X173257030Y-61060615D01*
X173347097Y-61217313D01*
X173458489Y-61485440D01*
X173605034Y-61890626D01*
X173637977Y-61986197D01*
X173719328Y-62222204D01*
X173825487Y-62541266D01*
G37*
G36*
X182079114Y-45062474D02*
G01*
X181835752Y-45899560D01*
X181644293Y-46341083D01*
X181260114Y-47066322D01*
X180796113Y-47800196D01*
X180286171Y-48486149D01*
X179841284Y-49034682D01*
X180082080Y-49208222D01*
X180589048Y-49588261D01*
X181152453Y-50039580D01*
X181694793Y-50501082D01*
X182175711Y-50938351D01*
X182554846Y-51316969D01*
X183063825Y-51932034D01*
X183566185Y-52752336D01*
X183908223Y-53611796D01*
X184087560Y-54501852D01*
X184087863Y-54521246D01*
X184101822Y-55413939D01*
X183948631Y-56339493D01*
X183901172Y-56516156D01*
X183685447Y-57138369D01*
X183399833Y-57689889D01*
X183016235Y-58218076D01*
X182506555Y-58770288D01*
X182485908Y-58790790D01*
X181749486Y-59428905D01*
X180978820Y-59911341D01*
X180147419Y-60251784D01*
X179228794Y-60463922D01*
X179112197Y-60479527D01*
X178659656Y-60509802D01*
X178127479Y-60512736D01*
X177577784Y-60490412D01*
X177072688Y-60444912D01*
X176674307Y-60378316D01*
X176495701Y-60324928D01*
X176165369Y-60202218D01*
X175774038Y-60038897D01*
X175373116Y-59855615D01*
X175195359Y-59769305D01*
X174852583Y-59590695D01*
X174568970Y-59415169D01*
X174300817Y-59210840D01*
X174004422Y-58945820D01*
X173636080Y-58588225D01*
X173295724Y-58256772D01*
X173041619Y-58024404D01*
X172870686Y-57891632D01*
X172766493Y-57845746D01*
X172712602Y-57874036D01*
X172608051Y-58029173D01*
X172385730Y-58301278D01*
X172103194Y-58611127D01*
X171799148Y-58916735D01*
X171512297Y-59176116D01*
X171357191Y-59297682D01*
X170870015Y-59615218D01*
X170301185Y-59918158D01*
X169712379Y-60175490D01*
X169165274Y-60356203D01*
X168915467Y-60410965D01*
X168321184Y-60485841D01*
X167660353Y-60512154D01*
X166990554Y-60490739D01*
X166369368Y-60422435D01*
X165854373Y-60308078D01*
X165159758Y-60056271D01*
X164306974Y-59621472D01*
X163519390Y-59058002D01*
X162764556Y-58345245D01*
X162598780Y-58171842D01*
X162380961Y-57952279D01*
X162226818Y-57807504D01*
X162162178Y-57762500D01*
X162104903Y-57831357D01*
X161960552Y-58005483D01*
X161751680Y-58257669D01*
X161500554Y-58561039D01*
X161305950Y-58792339D01*
X160912105Y-59227072D01*
X160556552Y-59561423D01*
X160204409Y-59826372D01*
X159820793Y-60052900D01*
X159707472Y-60109919D01*
X159512205Y-60184989D01*
X159293111Y-60227764D01*
X159001585Y-60245905D01*
X158589020Y-60247076D01*
X158368367Y-60241927D01*
X157994995Y-60219794D01*
X157690711Y-60185201D01*
X157505910Y-60142991D01*
X157272298Y-60047172D01*
X157272298Y-58279942D01*
X157973134Y-58290072D01*
X158244539Y-58290156D01*
X158559212Y-58269083D01*
X158799072Y-58213890D01*
X159021161Y-58115049D01*
X159038223Y-58105568D01*
X159258342Y-57946693D01*
X159554032Y-57688429D01*
X159896083Y-57359778D01*
X160255282Y-56989741D01*
X160602419Y-56607318D01*
X160903559Y-56247158D01*
X163395741Y-56247158D01*
X163652334Y-56571133D01*
X163736654Y-56674971D01*
X164356034Y-57309976D01*
X165055462Y-57833967D01*
X165804898Y-58227415D01*
X166574304Y-58470792D01*
X167195313Y-58566374D01*
X167858764Y-58564770D01*
X168493810Y-58433419D01*
X169150884Y-58166363D01*
X169579366Y-57910142D01*
X170075748Y-57502487D01*
X170502316Y-57032472D01*
X170810572Y-56547404D01*
X170861558Y-56438108D01*
X170927086Y-56234474D01*
X174005992Y-56234474D01*
X174173156Y-56469234D01*
X174275314Y-56597834D01*
X174536308Y-56876980D01*
X174865294Y-57192478D01*
X175217997Y-57504278D01*
X175550144Y-57772331D01*
X175817459Y-57956589D01*
X175994785Y-58051488D01*
X176342659Y-58211510D01*
X176690123Y-58347130D01*
X176799807Y-58382104D01*
X177298263Y-58491446D01*
X177853664Y-58553001D01*
X178394573Y-58561347D01*
X178849555Y-58511060D01*
X179527494Y-58292218D01*
X180176380Y-57923775D01*
X180743609Y-57434599D01*
X181207825Y-56847163D01*
X181547675Y-56183939D01*
X181741803Y-55467402D01*
X181766275Y-55285169D01*
X181779446Y-54521246D01*
X181639146Y-53788577D01*
X181341340Y-53076858D01*
X180881994Y-52375787D01*
X180257075Y-51675058D01*
X179937830Y-51366700D01*
X179611165Y-51066944D01*
X179326380Y-50820885D01*
X179121714Y-50662622D01*
X179037350Y-50606299D01*
X178847084Y-50496854D01*
X178730609Y-50477241D01*
X178643053Y-50535548D01*
X178616246Y-50566402D01*
X178489268Y-50718929D01*
X178273194Y-50981691D01*
X177979776Y-51340295D01*
X177620763Y-51780347D01*
X177207909Y-52287451D01*
X176752962Y-52847214D01*
X176267674Y-53445242D01*
X175044231Y-54954060D01*
X174005992Y-56234474D01*
X170927086Y-56234474D01*
X171093553Y-55717166D01*
X171177464Y-54954060D01*
X171115357Y-54180439D01*
X170909298Y-53427957D01*
X170561351Y-52728264D01*
X170350479Y-52434010D01*
X170070134Y-52101259D01*
X169744630Y-51753380D01*
X169396421Y-51410784D01*
X169047961Y-51093880D01*
X168721701Y-50823080D01*
X168440096Y-50618794D01*
X168225597Y-50501432D01*
X168100659Y-50491406D01*
X168068228Y-50523711D01*
X167935017Y-50675788D01*
X167713670Y-50937975D01*
X167415786Y-51296231D01*
X167052962Y-51736514D01*
X166636795Y-52244783D01*
X166178882Y-52806995D01*
X165690822Y-53409109D01*
X163395741Y-56247158D01*
X160903559Y-56247158D01*
X160908280Y-56241512D01*
X161165948Y-55916180D01*
X160676764Y-54687767D01*
X160398223Y-54006260D01*
X160001791Y-53107027D01*
X159637874Y-52372883D01*
X159306007Y-51802911D01*
X159005724Y-51396196D01*
X158925682Y-51309418D01*
X158583052Y-51009306D01*
X158201184Y-50760684D01*
X157827761Y-50591222D01*
X157510468Y-50528586D01*
X157272298Y-50528586D01*
X157272298Y-48574739D01*
X157594249Y-48574739D01*
X157957650Y-48608489D01*
X158427461Y-48711594D01*
X158890872Y-48862502D01*
X159268619Y-49039223D01*
X159288862Y-49051515D01*
X159526303Y-49223024D01*
X159814932Y-49465637D01*
X160096846Y-49730992D01*
X160208595Y-49848082D01*
X160462189Y-50155401D01*
X160709445Y-50521816D01*
X160961535Y-50968011D01*
X161229634Y-51514673D01*
X161524916Y-52182484D01*
X161858556Y-52992131D01*
X161990667Y-53320121D01*
X162151492Y-53716859D01*
X162281697Y-54035075D01*
X162370458Y-54248360D01*
X162406951Y-54330303D01*
X162407588Y-54330323D01*
X162470374Y-54262989D01*
X162624329Y-54081775D01*
X162855366Y-53804053D01*
X163149398Y-53447196D01*
X163492338Y-53028576D01*
X163870099Y-52565564D01*
X164268595Y-52075533D01*
X164673738Y-51575854D01*
X165071442Y-51083899D01*
X165447620Y-50617041D01*
X165788185Y-50192652D01*
X166079050Y-49828103D01*
X166306128Y-49540767D01*
X166455333Y-49348015D01*
X166512577Y-49267219D01*
X166484059Y-49218331D01*
X166346701Y-49081800D01*
X166120638Y-48886182D01*
X165832979Y-48655865D01*
X165500742Y-48391801D01*
X164614238Y-47602964D01*
X163892294Y-46819098D01*
X163336576Y-46042154D01*
X162948749Y-45274083D01*
X162874723Y-45069572D01*
X162815523Y-44835871D01*
X162779978Y-44564489D01*
X162762644Y-44211405D01*
X162760507Y-43987448D01*
X164665423Y-43987448D01*
X164696958Y-44403350D01*
X164872557Y-45043874D01*
X165205767Y-45669485D01*
X165700649Y-46287167D01*
X166361263Y-46903903D01*
X166497326Y-47016294D01*
X166817375Y-47276560D01*
X167106364Y-47506504D01*
X167314840Y-47666573D01*
X167630626Y-47899553D01*
X168132207Y-47268366D01*
X168427852Y-46879247D01*
X168929248Y-46100162D01*
X169272821Y-45364007D01*
X169460866Y-44663549D01*
X169495681Y-43991557D01*
X169379563Y-43340795D01*
X169212399Y-42940453D01*
X168882201Y-42492348D01*
X168451241Y-42138463D01*
X167946532Y-41885261D01*
X167395084Y-41739204D01*
X166823909Y-41706755D01*
X166260018Y-41794376D01*
X165730424Y-42008530D01*
X165262136Y-42355679D01*
X165196385Y-42421045D01*
X164936367Y-42735334D01*
X164772971Y-43068978D01*
X164688542Y-43470256D01*
X164665423Y-43987448D01*
X162760507Y-43987448D01*
X162758076Y-43732599D01*
X162761141Y-43325686D01*
X162776004Y-42953365D01*
X162808106Y-42671251D01*
X162862777Y-42435808D01*
X162945351Y-42203502D01*
X163035357Y-41999678D01*
X163428629Y-41366733D01*
X163949044Y-40812010D01*
X164568171Y-40362066D01*
X165257582Y-40043461D01*
X165272072Y-40038607D01*
X165649565Y-39949670D01*
X166139199Y-39884178D01*
X166687101Y-39844671D01*
X167239395Y-39833689D01*
X167742207Y-39853772D01*
X168141661Y-39907462D01*
X168175559Y-39915021D01*
X168713335Y-40084432D01*
X169272818Y-40338566D01*
X169790325Y-40644594D01*
X170202173Y-40969687D01*
X170516167Y-41292705D01*
X170953593Y-41867188D01*
X171256902Y-42479438D01*
X171442116Y-43165700D01*
X171525261Y-43962218D01*
X171525095Y-43991557D01*
X171521715Y-44590566D01*
X171432216Y-45239023D01*
X171239458Y-45881317D01*
X170930242Y-46575424D01*
X170847924Y-46729685D01*
X170624981Y-47106710D01*
X170344020Y-47548019D01*
X170035568Y-48007540D01*
X169730150Y-48439202D01*
X169458293Y-48796933D01*
X169246061Y-49061602D01*
X169974017Y-49590497D01*
X170036240Y-49635966D01*
X170814971Y-50251825D01*
X171515853Y-50893155D01*
X172123118Y-51541729D01*
X172620996Y-52179320D01*
X172993716Y-52787700D01*
X173225508Y-53348643D01*
X173298182Y-53572727D01*
X173374414Y-53757412D01*
X173424737Y-53820262D01*
X173437288Y-53812022D01*
X173542836Y-53704006D01*
X173730687Y-53487786D01*
X173986257Y-53181821D01*
X174294965Y-52804568D01*
X174642229Y-52374488D01*
X175013467Y-51910038D01*
X175394098Y-51429678D01*
X175769538Y-50951865D01*
X176125206Y-50495060D01*
X176446521Y-50077720D01*
X176718900Y-49718304D01*
X176927762Y-49435271D01*
X177058524Y-49247080D01*
X177096604Y-49172189D01*
X177090576Y-49166829D01*
X176981567Y-49076445D01*
X176771404Y-48905869D01*
X176487605Y-48677347D01*
X176157686Y-48413127D01*
X175656406Y-47996441D01*
X174911144Y-47292765D01*
X174319423Y-46604222D01*
X173873288Y-45917665D01*
X173564781Y-45219945D01*
X173385945Y-44497912D01*
X173355386Y-44091591D01*
X175297570Y-44091591D01*
X175385910Y-44716675D01*
X175592851Y-45303600D01*
X175930052Y-45862864D01*
X176409671Y-46414568D01*
X177043866Y-46978814D01*
X177108892Y-47031150D01*
X177420846Y-47279455D01*
X177712708Y-47507891D01*
X177928688Y-47672707D01*
X178239593Y-47903626D01*
X178760504Y-47241022D01*
X178856985Y-47113891D01*
X179150160Y-46687834D01*
X179441925Y-46216060D01*
X179681371Y-45779374D01*
X179762154Y-45617341D01*
X179914326Y-45297290D01*
X180008293Y-45051252D01*
X180058011Y-44824285D01*
X180077433Y-44561449D01*
X180080512Y-44207803D01*
X180079146Y-43998003D01*
X180065227Y-43672814D01*
X180026767Y-43432922D01*
X179952209Y-43221829D01*
X179829998Y-42983040D01*
X179661721Y-42720821D01*
X179245294Y-42285047D01*
X178742717Y-41965424D01*
X178182604Y-41767060D01*
X177593568Y-41695063D01*
X177004221Y-41754542D01*
X176443177Y-41950606D01*
X175939049Y-42288363D01*
X175845602Y-42373946D01*
X175559065Y-42709162D01*
X175381727Y-43080434D01*
X175299318Y-43527873D01*
X175297570Y-44091591D01*
X173355386Y-44091591D01*
X173328824Y-43738418D01*
X173330455Y-43596543D01*
X173402896Y-42813619D01*
X173588974Y-42138215D01*
X173897310Y-41547039D01*
X174336529Y-41016799D01*
X174694628Y-40693837D01*
X175289123Y-40300130D01*
X175951148Y-40030108D01*
X176704623Y-39874969D01*
X177573469Y-39825915D01*
X178211835Y-39851549D01*
X178972279Y-39971400D01*
X179644011Y-40200126D01*
X180259565Y-40549699D01*
X180851477Y-41032091D01*
X181059245Y-41241094D01*
X181547701Y-41888875D01*
X181898038Y-42615290D01*
X182106135Y-43399953D01*
X182166766Y-44207803D01*
X182167867Y-44222476D01*
X182079114Y-45062474D01*
G37*
G36*
X138265152Y-145783870D02*
G01*
X138778044Y-145854298D01*
X139254249Y-145987382D01*
X139744763Y-146191789D01*
X140039259Y-146344139D01*
X140727247Y-146826578D01*
X141294088Y-147424261D01*
X141730661Y-148126281D01*
X142027843Y-148921729D01*
X142135849Y-149325241D01*
X140042638Y-149325241D01*
X139859389Y-148946700D01*
X139576328Y-148513098D01*
X139156446Y-148130194D01*
X138652674Y-147853219D01*
X138094601Y-147687455D01*
X137511816Y-147638182D01*
X136933908Y-147710679D01*
X136390468Y-147910227D01*
X135911083Y-148242107D01*
X135799959Y-148350896D01*
X135551937Y-148656727D01*
X135401186Y-148942967D01*
X135286385Y-149282766D01*
X134291352Y-149306787D01*
X133296319Y-149330807D01*
X133356746Y-148927850D01*
X133510278Y-148289456D01*
X133831439Y-147594280D01*
X134293752Y-146987190D01*
X134888017Y-146482874D01*
X135195085Y-146287311D01*
X135638832Y-146065448D01*
X136106560Y-145915762D01*
X136645998Y-145824317D01*
X137304872Y-145777176D01*
X137664575Y-145767432D01*
X138265152Y-145783870D01*
G37*
G36*
X152771422Y-56870501D02*
G01*
X152528060Y-57707587D01*
X152336601Y-58149109D01*
X151952422Y-58874349D01*
X151488421Y-59608223D01*
X150978479Y-60294175D01*
X150533591Y-60842708D01*
X150774388Y-61016249D01*
X151281356Y-61396288D01*
X151844760Y-61847606D01*
X152387101Y-62309109D01*
X152868018Y-62746378D01*
X153247154Y-63124996D01*
X153756133Y-63740061D01*
X154258493Y-64560363D01*
X154600530Y-65419823D01*
X154779868Y-66309879D01*
X154780171Y-66329272D01*
X154794130Y-67221965D01*
X154640939Y-68147520D01*
X154593479Y-68324183D01*
X154377755Y-68946395D01*
X154092141Y-69497916D01*
X153708542Y-70026103D01*
X153198863Y-70578315D01*
X153178216Y-70598817D01*
X152441794Y-71236932D01*
X151671128Y-71719368D01*
X150839727Y-72059811D01*
X149921102Y-72271949D01*
X149804505Y-72287554D01*
X149351964Y-72317829D01*
X148819787Y-72320763D01*
X148270092Y-72298439D01*
X147764996Y-72252938D01*
X147366615Y-72186343D01*
X147188008Y-72132955D01*
X146857676Y-72010245D01*
X146466345Y-71846924D01*
X146065424Y-71663642D01*
X145887666Y-71577331D01*
X145544891Y-71398721D01*
X145261278Y-71223195D01*
X144993125Y-71018866D01*
X144696729Y-70753847D01*
X144328388Y-70396251D01*
X143988031Y-70064799D01*
X143733926Y-69832430D01*
X143562994Y-69699658D01*
X143458800Y-69653772D01*
X143404910Y-69682063D01*
X143300359Y-69837200D01*
X143078037Y-70109304D01*
X142795502Y-70419154D01*
X142491456Y-70724762D01*
X142204605Y-70984142D01*
X142049498Y-71105709D01*
X141562323Y-71423244D01*
X140993493Y-71726184D01*
X140404687Y-71983517D01*
X139857582Y-72164230D01*
X139607774Y-72218992D01*
X139013492Y-72293868D01*
X138352661Y-72320180D01*
X137682862Y-72298766D01*
X137061675Y-72230462D01*
X136546681Y-72116105D01*
X135852066Y-71864298D01*
X134999282Y-71429499D01*
X134211698Y-70866028D01*
X133456864Y-70153272D01*
X133291088Y-69979869D01*
X133073269Y-69760306D01*
X132919126Y-69615530D01*
X132854486Y-69570527D01*
X132797211Y-69639384D01*
X132652860Y-69813510D01*
X132443988Y-70065695D01*
X132192862Y-70369066D01*
X131998258Y-70600366D01*
X131604413Y-71035099D01*
X131248860Y-71369450D01*
X130896716Y-71634399D01*
X130513100Y-71860927D01*
X130399780Y-71917946D01*
X130204513Y-71993016D01*
X129985419Y-72035790D01*
X129693893Y-72053932D01*
X129281328Y-72055102D01*
X129060675Y-72049954D01*
X128687303Y-72027821D01*
X128383019Y-71993228D01*
X128198217Y-71951018D01*
X127964605Y-71855199D01*
X127964605Y-70087968D01*
X128665441Y-70098099D01*
X128936847Y-70098183D01*
X129251520Y-70077110D01*
X129491380Y-70021916D01*
X129713469Y-69923076D01*
X129730531Y-69913594D01*
X129950650Y-69754720D01*
X130246340Y-69496456D01*
X130588391Y-69167805D01*
X130947590Y-68797768D01*
X131294726Y-68415345D01*
X131595867Y-68055185D01*
X134088049Y-68055185D01*
X134344642Y-68379160D01*
X134428962Y-68482998D01*
X135048342Y-69118003D01*
X135747769Y-69641994D01*
X136497206Y-70035442D01*
X137266612Y-70278818D01*
X137887621Y-70374401D01*
X138551071Y-70372796D01*
X139186118Y-70241445D01*
X139843192Y-69974390D01*
X140271674Y-69718168D01*
X140768056Y-69310514D01*
X141194624Y-68840499D01*
X141502880Y-68355430D01*
X141553866Y-68246135D01*
X141619394Y-68042501D01*
X144698300Y-68042501D01*
X144865464Y-68277261D01*
X144967622Y-68405860D01*
X145228615Y-68685007D01*
X145557601Y-69000505D01*
X145910305Y-69312304D01*
X146242452Y-69580358D01*
X146509767Y-69764616D01*
X146687093Y-69859515D01*
X147034966Y-70019537D01*
X147382430Y-70155157D01*
X147492115Y-70190131D01*
X147990571Y-70299473D01*
X148545971Y-70361028D01*
X149086880Y-70369374D01*
X149541863Y-70319087D01*
X150219802Y-70100245D01*
X150868688Y-69731802D01*
X151435916Y-69242626D01*
X151900133Y-68655190D01*
X152239983Y-67991966D01*
X152434110Y-67275428D01*
X152458583Y-67093196D01*
X152471754Y-66329272D01*
X152331454Y-65596603D01*
X152033647Y-64884885D01*
X151574302Y-64183813D01*
X150949382Y-63483085D01*
X150630138Y-63174727D01*
X150303472Y-62874971D01*
X150018688Y-62628912D01*
X149814022Y-62470649D01*
X149729658Y-62414325D01*
X149539392Y-62304881D01*
X149422917Y-62285268D01*
X149335360Y-62343574D01*
X149308553Y-62374428D01*
X149181575Y-62526955D01*
X148965502Y-62789718D01*
X148672083Y-63148322D01*
X148313071Y-63588373D01*
X147900216Y-64095478D01*
X147445270Y-64655241D01*
X146959982Y-65253269D01*
X145736540Y-66762086D01*
X144698300Y-68042501D01*
X141619394Y-68042501D01*
X141785860Y-67525193D01*
X141869772Y-66762086D01*
X141807665Y-65988466D01*
X141601606Y-65235984D01*
X141253659Y-64536291D01*
X141042787Y-64242036D01*
X140762441Y-63909286D01*
X140436937Y-63561407D01*
X140088729Y-63218811D01*
X139740268Y-62901907D01*
X139414009Y-62631107D01*
X139132403Y-62426821D01*
X138917905Y-62309459D01*
X138792967Y-62299432D01*
X138760535Y-62331737D01*
X138627324Y-62483815D01*
X138405978Y-62746002D01*
X138108094Y-63104258D01*
X137745270Y-63544541D01*
X137329103Y-64052809D01*
X136871190Y-64615022D01*
X136383130Y-65217136D01*
X134088049Y-68055185D01*
X131595867Y-68055185D01*
X131600588Y-68049539D01*
X131858256Y-67724207D01*
X131369072Y-66495794D01*
X131090531Y-65814287D01*
X130694099Y-64915054D01*
X130330181Y-64180909D01*
X129998314Y-63610938D01*
X129698032Y-63204223D01*
X129617990Y-63117445D01*
X129275360Y-62817333D01*
X128893492Y-62568711D01*
X128520069Y-62399248D01*
X128202775Y-62336612D01*
X127964605Y-62336612D01*
X127964605Y-60382766D01*
X128286557Y-60382766D01*
X128649958Y-60416516D01*
X129119769Y-60519621D01*
X129583180Y-60670528D01*
X129960926Y-60847250D01*
X129981170Y-60859542D01*
X130218611Y-61031050D01*
X130507240Y-61273663D01*
X130789154Y-61539018D01*
X130900902Y-61656109D01*
X131154497Y-61963427D01*
X131401752Y-62329842D01*
X131653843Y-62776038D01*
X131921942Y-63322699D01*
X132217224Y-63990511D01*
X132550863Y-64800157D01*
X132682975Y-65128148D01*
X132843800Y-65524886D01*
X132974005Y-65843102D01*
X133062765Y-66056387D01*
X133099259Y-66138329D01*
X133099896Y-66138350D01*
X133162682Y-66071015D01*
X133316637Y-65889801D01*
X133547674Y-65612080D01*
X133841706Y-65255223D01*
X134184646Y-64836603D01*
X134562407Y-64373591D01*
X134960902Y-63883559D01*
X135366046Y-63383881D01*
X135763750Y-62891926D01*
X136139928Y-62425068D01*
X136480493Y-62000679D01*
X136771358Y-61636130D01*
X136998436Y-61348793D01*
X137147641Y-61156041D01*
X137204885Y-61075246D01*
X137176366Y-61026358D01*
X137039009Y-60889826D01*
X136812946Y-60694209D01*
X136525286Y-60463892D01*
X136193049Y-60199827D01*
X135306545Y-59410991D01*
X134584602Y-58627124D01*
X134028884Y-57850180D01*
X133641056Y-57082110D01*
X133567031Y-56877598D01*
X133507830Y-56643898D01*
X133472286Y-56372516D01*
X133454952Y-56019432D01*
X133452815Y-55795475D01*
X135357731Y-55795475D01*
X135389265Y-56211376D01*
X135564865Y-56851900D01*
X135898075Y-57477512D01*
X136392957Y-58095194D01*
X137053571Y-58711930D01*
X137189634Y-58824320D01*
X137509683Y-59084587D01*
X137798672Y-59314531D01*
X138007148Y-59474600D01*
X138322934Y-59707580D01*
X138824515Y-59076393D01*
X139120159Y-58687274D01*
X139621556Y-57908188D01*
X139965128Y-57172034D01*
X140153173Y-56471576D01*
X140187988Y-55799583D01*
X140071870Y-55148822D01*
X139904707Y-54748479D01*
X139574508Y-54300375D01*
X139143549Y-53946490D01*
X138638839Y-53693288D01*
X138087391Y-53547231D01*
X137516217Y-53514782D01*
X136952326Y-53602403D01*
X136422731Y-53816557D01*
X135954444Y-54163706D01*
X135888693Y-54229071D01*
X135628675Y-54543361D01*
X135465279Y-54877005D01*
X135380850Y-55278283D01*
X135357731Y-55795475D01*
X133452815Y-55795475D01*
X133450384Y-55540626D01*
X133453449Y-55133712D01*
X133468312Y-54761392D01*
X133500413Y-54479278D01*
X133555085Y-54243835D01*
X133637659Y-54011529D01*
X133727664Y-53807705D01*
X134120937Y-53174760D01*
X134641352Y-52620037D01*
X135260479Y-52170093D01*
X135949890Y-51851488D01*
X135964379Y-51846633D01*
X136341872Y-51757697D01*
X136831507Y-51692205D01*
X137379409Y-51652698D01*
X137931703Y-51641715D01*
X138434515Y-51661799D01*
X138833969Y-51715489D01*
X138867866Y-51723048D01*
X139405643Y-51892459D01*
X139965126Y-52146593D01*
X140482633Y-52452621D01*
X140894481Y-52777714D01*
X141208474Y-53100732D01*
X141645901Y-53675214D01*
X141949209Y-54287465D01*
X142134424Y-54973727D01*
X142217569Y-55770245D01*
X142217403Y-55799583D01*
X142214023Y-56398593D01*
X142124524Y-57047050D01*
X141931766Y-57689343D01*
X141622549Y-58383451D01*
X141540231Y-58537712D01*
X141317289Y-58914737D01*
X141036328Y-59356046D01*
X140727875Y-59815567D01*
X140422457Y-60247229D01*
X140150601Y-60604960D01*
X139938368Y-60869629D01*
X140666324Y-61398524D01*
X140728548Y-61443992D01*
X141507278Y-62059851D01*
X142208161Y-62701182D01*
X142815426Y-63349756D01*
X143313304Y-63987347D01*
X143686024Y-64595727D01*
X143917816Y-65156670D01*
X143990490Y-65380753D01*
X144066722Y-65565439D01*
X144117045Y-65628289D01*
X144129595Y-65620049D01*
X144235144Y-65512033D01*
X144422994Y-65295813D01*
X144678565Y-64989847D01*
X144987273Y-64612595D01*
X145334537Y-64182515D01*
X145705775Y-63718065D01*
X146086405Y-63237704D01*
X146461846Y-62759892D01*
X146817514Y-62303087D01*
X147138829Y-61885747D01*
X147411208Y-61526331D01*
X147620070Y-61243298D01*
X147750832Y-61055107D01*
X147788912Y-60980216D01*
X147782884Y-60974856D01*
X147673875Y-60884471D01*
X147463712Y-60713895D01*
X147179913Y-60485374D01*
X146849994Y-60221154D01*
X146348714Y-59804468D01*
X145603451Y-59100791D01*
X145011731Y-58412249D01*
X144565595Y-57725692D01*
X144257089Y-57027971D01*
X144078253Y-56305939D01*
X144047694Y-55899618D01*
X145989878Y-55899618D01*
X146078217Y-56524702D01*
X146285158Y-57111627D01*
X146622359Y-57670891D01*
X147101978Y-58222595D01*
X147736173Y-58786841D01*
X147801199Y-58839176D01*
X148113153Y-59087481D01*
X148405015Y-59315918D01*
X148620996Y-59480734D01*
X148931901Y-59711653D01*
X149452812Y-59049049D01*
X149549292Y-58921917D01*
X149842467Y-58495861D01*
X150134233Y-58024087D01*
X150373679Y-57587401D01*
X150454462Y-57425367D01*
X150606633Y-57105317D01*
X150700601Y-56859279D01*
X150750319Y-56632312D01*
X150769740Y-56369476D01*
X150772819Y-56015829D01*
X150771454Y-55806030D01*
X150757535Y-55480841D01*
X150719074Y-55240948D01*
X150644517Y-55029856D01*
X150522306Y-54791067D01*
X150354029Y-54528848D01*
X149937602Y-54093074D01*
X149435025Y-53773451D01*
X148874912Y-53575086D01*
X148285876Y-53503090D01*
X147696529Y-53562569D01*
X147135485Y-53758633D01*
X146631357Y-54096390D01*
X146537910Y-54181973D01*
X146251373Y-54517189D01*
X146074034Y-54888460D01*
X145991626Y-55335899D01*
X145989878Y-55899618D01*
X144047694Y-55899618D01*
X144021132Y-55546445D01*
X144022762Y-55404569D01*
X144095204Y-54621646D01*
X144281281Y-53946242D01*
X144589618Y-53355065D01*
X145028837Y-52824825D01*
X145386936Y-52501864D01*
X145981430Y-52108157D01*
X146643455Y-51838135D01*
X147396931Y-51682996D01*
X148265777Y-51633942D01*
X148904143Y-51659576D01*
X149664587Y-51779427D01*
X150336319Y-52008153D01*
X150951873Y-52357726D01*
X151543784Y-52840117D01*
X151751552Y-53049120D01*
X152240009Y-53696902D01*
X152590346Y-54423317D01*
X152798442Y-55207980D01*
X152859074Y-56015829D01*
X152860175Y-56030503D01*
X152771422Y-56870501D01*
G37*
G36*
X176776399Y-60977993D02*
G01*
X177105912Y-60991698D01*
X177325550Y-61020995D01*
X177405408Y-61062365D01*
X177402840Y-61073513D01*
X177304606Y-61125978D01*
X177108084Y-61147315D01*
X176810759Y-61147315D01*
X176810759Y-62039288D01*
X176809751Y-62274314D01*
X176800814Y-62602868D01*
X176779377Y-62803593D01*
X176741524Y-62903915D01*
X176683334Y-62931261D01*
X176649759Y-62924201D01*
X176602823Y-62861642D01*
X176574148Y-62711587D01*
X176559816Y-62446612D01*
X176555910Y-62039288D01*
X176555910Y-61147315D01*
X176258585Y-61147315D01*
X176219565Y-61146581D01*
X176035939Y-61118514D01*
X175961261Y-61062365D01*
X175966176Y-61051416D01*
X176082667Y-61012650D01*
X176331688Y-60986810D01*
X176683334Y-60977415D01*
X176776399Y-60977993D01*
G37*
G36*
X166995764Y-62492245D02*
G01*
X166755499Y-62780710D01*
X166524705Y-62886853D01*
X166192030Y-62927483D01*
X165809639Y-62866670D01*
X165508465Y-62675710D01*
X165321722Y-62363386D01*
X165262554Y-61969656D01*
X165512431Y-61969656D01*
X165515485Y-62080226D01*
X165571933Y-62345370D01*
X165720945Y-62552848D01*
X165893877Y-62681949D01*
X166192030Y-62761362D01*
X166356230Y-62741752D01*
X166627630Y-62595996D01*
X166806896Y-62329933D01*
X166871629Y-61969656D01*
X166855524Y-61749728D01*
X166738734Y-61420932D01*
X166515140Y-61217188D01*
X166192030Y-61147315D01*
X166010277Y-61166802D01*
X165738554Y-61308123D01*
X165570177Y-61578680D01*
X165512431Y-61969656D01*
X165262554Y-61969656D01*
X165257900Y-61938685D01*
X165313583Y-61581222D01*
X165493180Y-61253850D01*
X165769128Y-61029715D01*
X166112890Y-60930924D01*
X166495929Y-60979585D01*
X166796441Y-61154434D01*
X167008669Y-61435570D01*
X167116519Y-61779220D01*
X167115291Y-61969656D01*
X167114161Y-62144930D01*
X166995764Y-62492245D01*
G37*
G36*
X175604709Y-61032074D02*
G01*
X175802286Y-61223216D01*
X175876311Y-61489879D01*
X175857605Y-61653803D01*
X175766756Y-61797764D01*
X175570947Y-61905488D01*
X175238058Y-62002787D01*
X175022315Y-62060535D01*
X174769244Y-62159722D01*
X174638959Y-62275969D01*
X174602064Y-62428975D01*
X174677159Y-62600145D01*
X174885683Y-62718014D01*
X175195079Y-62761362D01*
X175255393Y-62759414D01*
X175453557Y-62695124D01*
X175604175Y-62507049D01*
X175737394Y-62328647D01*
X175856664Y-62253181D01*
X175927726Y-62288943D01*
X175917129Y-62442800D01*
X175844881Y-62594357D01*
X175689619Y-62782599D01*
X175476484Y-62888369D01*
X175154237Y-62931261D01*
X174835551Y-62885994D01*
X174554475Y-62723416D01*
X174395104Y-62454640D01*
X174382144Y-62323299D01*
X174482173Y-62107167D01*
X174727471Y-61928409D01*
X175102662Y-61801225D01*
X175338181Y-61735982D01*
X175593237Y-61606950D01*
X175691803Y-61453430D01*
X175627371Y-61281860D01*
X175611817Y-61264899D01*
X175417856Y-61166735D01*
X175161382Y-61144695D01*
X174915233Y-61195835D01*
X174752249Y-61317214D01*
X174726436Y-61353352D01*
X174603348Y-61457464D01*
X174485059Y-61493720D01*
X174432164Y-61439054D01*
X174476256Y-61295081D01*
X174645668Y-61110955D01*
X174897402Y-60978070D01*
X174985872Y-60953192D01*
X175320322Y-60935662D01*
X175604709Y-61032074D01*
G37*
G36*
X176201594Y-84394920D02*
G01*
X176395715Y-84556413D01*
X176470960Y-84776534D01*
X176470065Y-84807598D01*
X176427170Y-84921656D01*
X176338898Y-84890715D01*
X176231567Y-84720893D01*
X176156714Y-84611208D01*
X175978015Y-84514706D01*
X175776061Y-84518861D01*
X175598215Y-84607330D01*
X175491838Y-84763771D01*
X175504294Y-84971841D01*
X175544087Y-85030770D01*
X175703921Y-85174472D01*
X175930678Y-85327003D01*
X176007309Y-85373233D01*
X176283813Y-85584039D01*
X176428903Y-85804709D01*
X176470960Y-86074506D01*
X176469820Y-86136309D01*
X176446627Y-86224995D01*
X176364674Y-86271530D01*
X176186917Y-86289495D01*
X175876311Y-86292465D01*
X175875734Y-86292465D01*
X175570822Y-86281204D01*
X175360234Y-86251093D01*
X175281662Y-86207515D01*
X175321692Y-86173032D01*
X175489572Y-86136674D01*
X175743873Y-86122566D01*
X175929361Y-86115312D01*
X176152075Y-86082527D01*
X176261894Y-86032263D01*
X176270823Y-85951310D01*
X176174071Y-85789660D01*
X175969834Y-85606986D01*
X175686533Y-85432894D01*
X175682366Y-85430754D01*
X175432651Y-85233161D01*
X175299497Y-84985349D01*
X175285298Y-84728327D01*
X175392448Y-84503105D01*
X175623343Y-84350692D01*
X175646402Y-84343114D01*
X175936016Y-84315879D01*
X176201594Y-84394920D01*
G37*
G36*
X163121633Y-62617022D02*
G01*
X163099624Y-62809233D01*
X163062367Y-62905162D01*
X163006411Y-62931261D01*
X162956244Y-62918357D01*
X162896621Y-62807819D01*
X162878987Y-62559795D01*
X162878987Y-62188329D01*
X162439977Y-62146146D01*
X162235244Y-62116438D01*
X161963666Y-62009748D01*
X161817974Y-61817728D01*
X161791090Y-61631887D01*
X161968939Y-61631887D01*
X162114438Y-61826913D01*
X162279134Y-61935615D01*
X162581662Y-61996813D01*
X162878987Y-61996813D01*
X162878987Y-61147315D01*
X162552353Y-61147315D01*
X162303785Y-61178722D01*
X162085129Y-61302666D01*
X161975002Y-61457965D01*
X161968939Y-61631887D01*
X161791090Y-61631887D01*
X161774639Y-61518169D01*
X161805557Y-61314864D01*
X161950227Y-61121990D01*
X162225050Y-61012208D01*
X162643039Y-60977415D01*
X163133836Y-60977415D01*
X163133836Y-61954338D01*
X163133593Y-61996813D01*
X163131843Y-62302080D01*
X163121633Y-62617022D01*
G37*
G36*
X148540138Y-145763153D02*
G01*
X149087731Y-145802160D01*
X149530738Y-145880760D01*
X149952887Y-146016669D01*
X150687955Y-146374023D01*
X151342789Y-146851502D01*
X151890747Y-147427965D01*
X152305188Y-148082273D01*
X152322175Y-148117018D01*
X152472931Y-148455351D01*
X152592314Y-148773477D01*
X152655780Y-149006679D01*
X152707237Y-149325241D01*
X150662429Y-149325241D01*
X150408186Y-148874748D01*
X150085361Y-148420499D01*
X149631718Y-148036700D01*
X149074379Y-147782953D01*
X148404991Y-147654168D01*
X148304402Y-147646716D01*
X147704577Y-147682114D01*
X147146662Y-147845064D01*
X146659352Y-148120095D01*
X146271345Y-148491739D01*
X146011334Y-148944526D01*
X145865938Y-149325241D01*
X144900556Y-149325241D01*
X144739418Y-149325344D01*
X144347992Y-149320760D01*
X144096909Y-149292393D01*
X143963901Y-149219099D01*
X143926700Y-149079735D01*
X143963039Y-148853156D01*
X144050651Y-148518218D01*
X144056156Y-148497839D01*
X144337198Y-147779139D01*
X144757265Y-147149081D01*
X145303822Y-146619873D01*
X145964328Y-146203724D01*
X146726245Y-145912845D01*
X146874531Y-145876775D01*
X147373070Y-145801152D01*
X147948429Y-145763048D01*
X148540138Y-145763153D01*
G37*
G36*
X161177828Y-60977338D02*
G01*
X161420272Y-61124327D01*
X161563474Y-61341215D01*
X161572709Y-61603166D01*
X161560556Y-61643543D01*
X161485974Y-61761952D01*
X161336796Y-61862435D01*
X161082241Y-61961495D01*
X160691528Y-62075637D01*
X160496284Y-62139273D01*
X160365137Y-62231362D01*
X160330492Y-62365507D01*
X160363869Y-62549429D01*
X160520688Y-62708787D01*
X160808638Y-62761362D01*
X160808841Y-62761361D01*
X161076820Y-62706459D01*
X161273471Y-62565315D01*
X161349890Y-62373019D01*
X161364620Y-62316550D01*
X161477314Y-62251663D01*
X161573300Y-62289716D01*
X161599845Y-62416601D01*
X161532698Y-62587513D01*
X161380908Y-62755196D01*
X161127285Y-62883693D01*
X160800827Y-62934934D01*
X160484934Y-62894277D01*
X160245542Y-62761362D01*
X160190847Y-62699630D01*
X160080787Y-62447338D01*
X160116618Y-62197829D01*
X160284362Y-61989835D01*
X160570044Y-61862085D01*
X160676218Y-61838067D01*
X160993819Y-61750636D01*
X161188366Y-61660765D01*
X161296420Y-61552891D01*
X161299399Y-61548079D01*
X161330786Y-61383953D01*
X161236658Y-61254832D01*
X161058676Y-61172157D01*
X160838499Y-61147369D01*
X160617789Y-61191908D01*
X160438206Y-61317214D01*
X160314200Y-61439321D01*
X160201366Y-61477839D01*
X160160592Y-61372855D01*
X160233601Y-61210832D01*
X160418603Y-61055000D01*
X160661684Y-60951570D01*
X160870868Y-60925085D01*
X161177828Y-60977338D01*
G37*
G36*
X171869152Y-84394920D02*
G01*
X172063274Y-84556413D01*
X172138518Y-84776534D01*
X172137624Y-84807598D01*
X172094729Y-84921656D01*
X172006456Y-84890715D01*
X171899126Y-84720893D01*
X171824272Y-84611208D01*
X171645574Y-84514706D01*
X171443620Y-84518861D01*
X171265773Y-84607330D01*
X171159397Y-84763771D01*
X171171853Y-84971841D01*
X171211646Y-85030770D01*
X171371480Y-85174472D01*
X171598237Y-85327003D01*
X171674868Y-85373233D01*
X171951371Y-85584039D01*
X172096462Y-85804709D01*
X172138518Y-86074506D01*
X172137379Y-86136309D01*
X172114185Y-86224995D01*
X172032232Y-86271530D01*
X171854475Y-86289495D01*
X171543870Y-86292465D01*
X171543293Y-86292465D01*
X171238380Y-86281204D01*
X171027793Y-86251093D01*
X170949221Y-86207515D01*
X170989250Y-86173032D01*
X171157130Y-86136674D01*
X171411431Y-86122566D01*
X171596920Y-86115312D01*
X171819634Y-86082527D01*
X171929452Y-86032263D01*
X171938381Y-85951310D01*
X171841630Y-85789660D01*
X171637393Y-85606986D01*
X171354092Y-85432894D01*
X171349924Y-85430754D01*
X171100210Y-85233161D01*
X170967056Y-84985349D01*
X170952857Y-84728327D01*
X171060007Y-84503105D01*
X171290902Y-84350692D01*
X171313960Y-84343114D01*
X171603574Y-84315879D01*
X171869152Y-84394920D01*
G37*
G36*
X169406975Y-84420467D02*
G01*
X169600246Y-84570149D01*
X169674973Y-84776534D01*
X169671254Y-84831437D01*
X169614279Y-84925954D01*
X169517888Y-84886338D01*
X169420124Y-84720893D01*
X169418114Y-84715666D01*
X169301388Y-84553914D01*
X169092829Y-84508519D01*
X168905406Y-84533641D01*
X168727618Y-84645856D01*
X168679019Y-84810377D01*
X168766154Y-84985430D01*
X168995568Y-85129244D01*
X169087513Y-85167740D01*
X169227851Y-85261579D01*
X169218498Y-85330940D01*
X169054839Y-85358017D01*
X168919850Y-85375395D01*
X168726011Y-85505037D01*
X168655575Y-85740291D01*
X168707604Y-85934904D01*
X168864974Y-86081688D01*
X169074871Y-86134363D01*
X169283129Y-86081130D01*
X169435581Y-85910191D01*
X169528573Y-85767105D01*
X169638181Y-85697816D01*
X169705497Y-85740359D01*
X169698010Y-85867077D01*
X169615333Y-86026953D01*
X169475584Y-86167639D01*
X169245914Y-86272398D01*
X168976036Y-86281034D01*
X168730556Y-86191953D01*
X168538092Y-86030417D01*
X168427258Y-85821688D01*
X168426669Y-85591029D01*
X168564941Y-85363701D01*
X168628623Y-85296073D01*
X168678357Y-85190607D01*
X168607416Y-85098450D01*
X168538989Y-85012829D01*
X168486639Y-84798554D01*
X168525292Y-84577040D01*
X168649991Y-84426558D01*
X168850275Y-84354538D01*
X169141529Y-84343319D01*
X169406975Y-84420467D01*
G37*
G36*
X182079114Y-115655785D02*
G01*
X181835752Y-116492871D01*
X181644293Y-116934394D01*
X181260114Y-117659633D01*
X180796113Y-118393507D01*
X180286171Y-119079460D01*
X179841284Y-119627993D01*
X180082080Y-119801533D01*
X180589048Y-120181572D01*
X181152453Y-120632891D01*
X181694793Y-121094393D01*
X182175711Y-121531662D01*
X182554846Y-121910280D01*
X183063825Y-122525345D01*
X183566185Y-123345647D01*
X183908223Y-124205108D01*
X184087560Y-125095163D01*
X184087863Y-125114557D01*
X184101822Y-126007250D01*
X183948631Y-126932804D01*
X183901172Y-127109467D01*
X183685447Y-127731680D01*
X183399833Y-128283200D01*
X183016235Y-128811387D01*
X182506555Y-129363599D01*
X182485908Y-129384101D01*
X181749486Y-130022216D01*
X180978820Y-130504652D01*
X180147419Y-130845095D01*
X179228794Y-131057233D01*
X179112197Y-131072838D01*
X178659656Y-131103113D01*
X178127479Y-131106047D01*
X177577784Y-131083723D01*
X177072688Y-131038223D01*
X176674307Y-130971627D01*
X176495701Y-130918239D01*
X176165369Y-130795529D01*
X175774038Y-130632208D01*
X175373116Y-130448926D01*
X175195359Y-130362616D01*
X174852583Y-130184006D01*
X174568970Y-130008480D01*
X174300817Y-129804151D01*
X174004422Y-129539131D01*
X173636080Y-129181536D01*
X173295724Y-128850083D01*
X173041619Y-128617715D01*
X172870686Y-128484943D01*
X172766493Y-128439057D01*
X172712602Y-128467347D01*
X172608051Y-128622485D01*
X172385730Y-128894589D01*
X172103194Y-129204438D01*
X171799148Y-129510046D01*
X171512297Y-129769427D01*
X171357191Y-129890993D01*
X170870015Y-130208529D01*
X170301185Y-130511469D01*
X169712379Y-130768801D01*
X169165274Y-130949514D01*
X168915467Y-131004276D01*
X168321184Y-131079152D01*
X167660353Y-131105465D01*
X166990554Y-131084050D01*
X166369368Y-131015746D01*
X165854373Y-130901389D01*
X165159758Y-130649582D01*
X164306974Y-130214783D01*
X163519390Y-129651313D01*
X162764556Y-128938556D01*
X162598780Y-128765153D01*
X162380961Y-128545590D01*
X162226818Y-128400815D01*
X162162178Y-128355811D01*
X162104903Y-128424668D01*
X161960552Y-128598794D01*
X161751680Y-128850980D01*
X161500554Y-129154350D01*
X161305950Y-129385650D01*
X160912105Y-129820383D01*
X160556552Y-130154734D01*
X160204409Y-130419683D01*
X159820793Y-130646211D01*
X159707472Y-130703230D01*
X159512205Y-130778300D01*
X159293111Y-130821075D01*
X159001585Y-130839216D01*
X158589020Y-130840387D01*
X158368367Y-130835238D01*
X157994995Y-130813105D01*
X157690711Y-130778512D01*
X157505910Y-130736302D01*
X157272298Y-130640483D01*
X157272298Y-128873253D01*
X157973134Y-128883383D01*
X158244539Y-128883467D01*
X158559212Y-128862394D01*
X158799072Y-128807201D01*
X159021161Y-128708360D01*
X159038223Y-128698879D01*
X159258342Y-128540004D01*
X159554032Y-128281740D01*
X159896083Y-127953089D01*
X160255282Y-127583052D01*
X160602419Y-127200629D01*
X160903559Y-126840469D01*
X163395741Y-126840469D01*
X163652334Y-127164444D01*
X163736654Y-127268282D01*
X164356034Y-127903287D01*
X165055462Y-128427278D01*
X165804898Y-128820727D01*
X166574304Y-129064103D01*
X167195313Y-129159685D01*
X167858764Y-129158081D01*
X168493810Y-129026730D01*
X169150884Y-128759674D01*
X169579366Y-128503453D01*
X170075748Y-128095798D01*
X170502316Y-127625783D01*
X170810572Y-127140715D01*
X170861558Y-127031419D01*
X170927086Y-126827785D01*
X174005992Y-126827785D01*
X174173156Y-127062545D01*
X174275314Y-127191145D01*
X174536308Y-127470291D01*
X174865294Y-127785789D01*
X175217997Y-128097589D01*
X175550144Y-128365642D01*
X175817459Y-128549901D01*
X175994785Y-128644799D01*
X176342659Y-128804821D01*
X176690123Y-128940441D01*
X176799807Y-128975415D01*
X177298263Y-129084757D01*
X177853664Y-129146312D01*
X178394573Y-129154658D01*
X178849555Y-129104371D01*
X179527494Y-128885529D01*
X180176380Y-128517086D01*
X180743609Y-128027910D01*
X181207825Y-127440474D01*
X181547675Y-126777250D01*
X181741803Y-126060713D01*
X181766275Y-125878480D01*
X181779446Y-125114557D01*
X181639146Y-124381888D01*
X181341340Y-123670169D01*
X180881994Y-122969098D01*
X180257075Y-122268369D01*
X179937830Y-121960011D01*
X179611165Y-121660255D01*
X179326380Y-121414196D01*
X179121714Y-121255933D01*
X179037350Y-121199610D01*
X178847084Y-121090165D01*
X178730609Y-121070552D01*
X178643053Y-121128859D01*
X178616246Y-121159713D01*
X178489268Y-121312240D01*
X178273194Y-121575002D01*
X177979776Y-121933606D01*
X177620763Y-122373658D01*
X177207909Y-122880762D01*
X176752962Y-123440525D01*
X176267674Y-124038553D01*
X175044231Y-125547371D01*
X174005992Y-126827785D01*
X170927086Y-126827785D01*
X171093553Y-126310477D01*
X171177464Y-125547371D01*
X171115357Y-124773750D01*
X170909298Y-124021268D01*
X170561351Y-123321575D01*
X170350479Y-123027321D01*
X170070134Y-122694570D01*
X169744630Y-122346691D01*
X169396421Y-122004095D01*
X169047961Y-121687191D01*
X168721701Y-121416391D01*
X168440096Y-121212105D01*
X168225597Y-121094743D01*
X168100659Y-121084717D01*
X168068228Y-121117022D01*
X167935017Y-121269099D01*
X167713670Y-121531286D01*
X167415786Y-121889542D01*
X167052962Y-122329825D01*
X166636795Y-122838094D01*
X166178882Y-123400306D01*
X165690822Y-124002420D01*
X163395741Y-126840469D01*
X160903559Y-126840469D01*
X160908280Y-126834823D01*
X161165948Y-126509491D01*
X160676764Y-125281078D01*
X160398223Y-124599571D01*
X160001791Y-123700338D01*
X159637874Y-122966194D01*
X159306007Y-122396222D01*
X159005724Y-121989507D01*
X158925682Y-121902729D01*
X158583052Y-121602617D01*
X158201184Y-121353995D01*
X157827761Y-121184533D01*
X157510468Y-121121897D01*
X157272298Y-121121897D01*
X157272298Y-119168050D01*
X157594249Y-119168050D01*
X157957650Y-119201800D01*
X158427461Y-119304905D01*
X158890872Y-119455813D01*
X159268619Y-119632534D01*
X159288862Y-119644826D01*
X159526303Y-119816335D01*
X159814932Y-120058948D01*
X160096846Y-120324303D01*
X160208595Y-120441393D01*
X160462189Y-120748712D01*
X160709445Y-121115127D01*
X160961535Y-121561322D01*
X161229634Y-122107984D01*
X161524916Y-122775795D01*
X161858556Y-123585442D01*
X161990667Y-123913432D01*
X162151492Y-124310170D01*
X162281697Y-124628386D01*
X162370458Y-124841671D01*
X162406951Y-124923614D01*
X162407588Y-124923634D01*
X162470374Y-124856300D01*
X162624329Y-124675086D01*
X162855366Y-124397364D01*
X163149398Y-124040507D01*
X163492338Y-123621887D01*
X163870099Y-123158875D01*
X164268595Y-122668844D01*
X164673738Y-122169165D01*
X165071442Y-121677210D01*
X165447620Y-121210352D01*
X165788185Y-120785963D01*
X166079050Y-120421414D01*
X166306128Y-120134078D01*
X166455333Y-119941326D01*
X166512577Y-119860530D01*
X166484059Y-119811642D01*
X166346701Y-119675111D01*
X166120638Y-119479493D01*
X165832979Y-119249176D01*
X165500742Y-118985112D01*
X164614238Y-118196275D01*
X163892294Y-117412409D01*
X163336576Y-116635465D01*
X162948749Y-115867394D01*
X162874723Y-115662883D01*
X162815523Y-115429183D01*
X162779978Y-115157800D01*
X162762644Y-114804716D01*
X162760507Y-114580760D01*
X164665423Y-114580760D01*
X164696958Y-114996661D01*
X164872557Y-115637185D01*
X165205767Y-116262796D01*
X165700649Y-116880478D01*
X166361263Y-117497214D01*
X166497326Y-117609605D01*
X166817375Y-117869871D01*
X167106364Y-118099815D01*
X167314840Y-118259884D01*
X167630626Y-118492864D01*
X168132207Y-117861677D01*
X168427852Y-117472558D01*
X168929248Y-116693473D01*
X169272821Y-115957318D01*
X169460866Y-115256860D01*
X169495681Y-114584868D01*
X169379563Y-113934106D01*
X169212399Y-113533764D01*
X168882201Y-113085659D01*
X168451241Y-112731774D01*
X167946532Y-112478572D01*
X167395084Y-112332515D01*
X166823909Y-112300066D01*
X166260018Y-112387687D01*
X165730424Y-112601841D01*
X165262136Y-112948990D01*
X165196385Y-113014356D01*
X164936367Y-113328646D01*
X164772971Y-113662289D01*
X164688542Y-114063567D01*
X164665423Y-114580760D01*
X162760507Y-114580760D01*
X162758076Y-114325910D01*
X162761141Y-113918997D01*
X162776004Y-113546676D01*
X162808106Y-113264562D01*
X162862777Y-113029119D01*
X162945351Y-112796813D01*
X163035357Y-112592989D01*
X163428629Y-111960044D01*
X163949044Y-111405321D01*
X164568171Y-110955377D01*
X165257582Y-110636772D01*
X165272072Y-110631918D01*
X165649565Y-110542981D01*
X166139199Y-110477489D01*
X166687101Y-110437982D01*
X167239395Y-110427000D01*
X167742207Y-110447083D01*
X168141661Y-110500773D01*
X168175559Y-110508332D01*
X168713335Y-110677743D01*
X169272818Y-110931877D01*
X169790325Y-111237905D01*
X170202173Y-111562998D01*
X170516167Y-111886016D01*
X170953593Y-112460499D01*
X171256902Y-113072749D01*
X171442116Y-113759011D01*
X171525261Y-114555529D01*
X171525095Y-114584868D01*
X171521715Y-115183877D01*
X171432216Y-115832334D01*
X171239458Y-116474628D01*
X170930242Y-117168735D01*
X170847924Y-117322996D01*
X170624981Y-117700021D01*
X170344020Y-118141330D01*
X170035568Y-118600851D01*
X169730150Y-119032513D01*
X169458293Y-119390244D01*
X169246061Y-119654913D01*
X169974017Y-120183808D01*
X170036240Y-120229277D01*
X170814971Y-120845136D01*
X171515853Y-121486466D01*
X172123118Y-122135040D01*
X172620996Y-122772631D01*
X172993716Y-123381011D01*
X173225508Y-123941954D01*
X173298182Y-124166038D01*
X173374414Y-124350723D01*
X173424737Y-124413573D01*
X173437288Y-124405333D01*
X173542836Y-124297317D01*
X173730687Y-124081097D01*
X173986257Y-123775132D01*
X174294965Y-123397879D01*
X174642229Y-122967799D01*
X175013467Y-122503349D01*
X175394098Y-122022989D01*
X175769538Y-121545176D01*
X176125206Y-121088371D01*
X176446521Y-120671031D01*
X176718900Y-120311615D01*
X176927762Y-120028582D01*
X177058524Y-119840391D01*
X177096604Y-119765500D01*
X177090576Y-119760140D01*
X176981567Y-119669756D01*
X176771404Y-119499180D01*
X176487605Y-119270658D01*
X176157686Y-119006438D01*
X175656406Y-118589752D01*
X174911144Y-117886076D01*
X174319423Y-117197533D01*
X173873288Y-116510976D01*
X173564781Y-115813256D01*
X173385945Y-115091223D01*
X173355386Y-114684902D01*
X175297570Y-114684902D01*
X175385910Y-115309986D01*
X175592851Y-115896911D01*
X175930052Y-116456175D01*
X176409671Y-117007879D01*
X177043866Y-117572125D01*
X177108892Y-117624461D01*
X177420846Y-117872766D01*
X177712708Y-118101202D01*
X177928688Y-118266018D01*
X178239593Y-118496937D01*
X178760504Y-117834333D01*
X178856985Y-117707202D01*
X179150160Y-117281145D01*
X179441925Y-116809371D01*
X179681371Y-116372685D01*
X179762154Y-116210652D01*
X179914326Y-115890601D01*
X180008293Y-115644563D01*
X180058011Y-115417596D01*
X180077433Y-115154760D01*
X180080512Y-114801114D01*
X180079146Y-114591315D01*
X180065227Y-114266125D01*
X180026767Y-114026233D01*
X179952209Y-113815140D01*
X179829998Y-113576351D01*
X179661721Y-113314132D01*
X179245294Y-112878358D01*
X178742717Y-112558735D01*
X178182604Y-112360371D01*
X177593568Y-112288374D01*
X177004221Y-112347853D01*
X176443177Y-112543917D01*
X175939049Y-112881674D01*
X175845602Y-112967257D01*
X175559065Y-113302473D01*
X175381727Y-113673745D01*
X175299318Y-114121184D01*
X175297570Y-114684902D01*
X173355386Y-114684902D01*
X173328824Y-114331729D01*
X173330455Y-114189854D01*
X173402896Y-113406930D01*
X173588974Y-112731526D01*
X173897310Y-112140350D01*
X174336529Y-111610110D01*
X174694628Y-111287148D01*
X175289123Y-110893441D01*
X175951148Y-110623419D01*
X176704623Y-110468280D01*
X177573469Y-110419226D01*
X178211835Y-110444860D01*
X178972279Y-110564711D01*
X179644011Y-110793437D01*
X180259565Y-111143010D01*
X180851477Y-111625402D01*
X181059245Y-111834405D01*
X181547701Y-112482186D01*
X181898038Y-113208601D01*
X182106135Y-113993264D01*
X182166766Y-114801114D01*
X182167867Y-114815787D01*
X182079114Y-115655785D01*
G37*
G36*
X173154417Y-84329244D02*
G01*
X173392667Y-84467804D01*
X173536798Y-84742131D01*
X173555361Y-84875367D01*
X173481109Y-84933268D01*
X173389794Y-84889194D01*
X173284248Y-84742131D01*
X173175832Y-84605543D01*
X172927219Y-84524591D01*
X172793769Y-84518463D01*
X172664419Y-84565766D01*
X172599171Y-84716832D01*
X172582329Y-84818130D01*
X172620736Y-85004078D01*
X172777659Y-85177745D01*
X173075258Y-85369512D01*
X173266883Y-85501103D01*
X173501223Y-85789590D01*
X173582666Y-86126563D01*
X173581873Y-86152526D01*
X173554768Y-86227448D01*
X173463058Y-86269657D01*
X173271673Y-86288285D01*
X172945542Y-86292465D01*
X172915664Y-86292386D01*
X172601473Y-86280154D01*
X172387474Y-86250319D01*
X172308418Y-86207515D01*
X172362558Y-86169151D01*
X172546622Y-86135462D01*
X172818117Y-86122566D01*
X173052398Y-86119215D01*
X173231436Y-86098080D01*
X173310228Y-86045686D01*
X173327816Y-85948715D01*
X173262839Y-85791263D01*
X173055293Y-85630153D01*
X172832321Y-85492864D01*
X172565793Y-85272797D01*
X172378894Y-85050687D01*
X172308418Y-84864264D01*
X172312092Y-84805283D01*
X172418764Y-84552806D01*
X172641052Y-84373095D01*
X172935810Y-84304639D01*
X173154417Y-84329244D01*
G37*
G36*
X172008645Y-60978934D02*
G01*
X172067885Y-61005659D01*
X172105811Y-61087995D01*
X172127103Y-61254508D01*
X172136445Y-61533767D01*
X172138518Y-61954338D01*
X172136851Y-62270930D01*
X172127052Y-62598734D01*
X172105556Y-62800764D01*
X172069066Y-62902960D01*
X172014281Y-62931261D01*
X171953324Y-62897725D01*
X171910809Y-62776020D01*
X171883321Y-62538910D01*
X171865619Y-62159178D01*
X171841194Y-61387095D01*
X171345230Y-62159178D01*
X171241093Y-62318594D01*
X170995391Y-62664003D01*
X170812798Y-62865706D01*
X170686869Y-62931261D01*
X170653933Y-62929568D01*
X170594641Y-62902583D01*
X170556806Y-62820185D01*
X170535671Y-62653756D01*
X170526479Y-62374680D01*
X170524472Y-61954338D01*
X170526464Y-61606596D01*
X170536675Y-61291654D01*
X170558683Y-61099444D01*
X170595941Y-61003514D01*
X170651896Y-60977415D01*
X170674073Y-60980083D01*
X170726656Y-61030114D01*
X170758819Y-61165160D01*
X170774922Y-61413465D01*
X170779321Y-61803269D01*
X170779321Y-62629122D01*
X171298798Y-61803269D01*
X171439940Y-61583547D01*
X171680041Y-61241676D01*
X171857416Y-61042198D01*
X171978397Y-60977415D01*
X172008645Y-60978934D01*
G37*
G36*
X169791195Y-62915181D02*
G01*
X169509420Y-62891297D01*
X169292060Y-62845004D01*
X169136345Y-62757516D01*
X168984172Y-62606620D01*
X168956009Y-62574340D01*
X168788561Y-62304775D01*
X168740525Y-61999470D01*
X168745189Y-61901054D01*
X168995375Y-61901054D01*
X168998231Y-62048478D01*
X169038364Y-62323342D01*
X169144741Y-62502597D01*
X169341250Y-62637079D01*
X169568876Y-62720201D01*
X169840654Y-62761362D01*
X170099722Y-62761362D01*
X170099722Y-61147315D01*
X169756062Y-61147315D01*
X169576033Y-61162812D01*
X169264310Y-61293977D01*
X169065325Y-61545440D01*
X168995375Y-61901054D01*
X168745189Y-61901054D01*
X168749468Y-61810766D01*
X168849268Y-61435414D01*
X169066131Y-61176187D01*
X169408078Y-61025912D01*
X169883129Y-60977415D01*
X170354572Y-60977415D01*
X170354572Y-62951054D01*
X169791195Y-62915181D01*
G37*
G36*
X182164064Y-139186889D02*
G01*
X181920702Y-140023975D01*
X181729243Y-140465497D01*
X181345064Y-141190737D01*
X180881063Y-141924611D01*
X180371121Y-142610563D01*
X179926234Y-143159096D01*
X180167030Y-143332637D01*
X180673998Y-143712676D01*
X181237402Y-144163994D01*
X181779743Y-144625497D01*
X182260661Y-145062766D01*
X182639796Y-145441384D01*
X183061805Y-145944184D01*
X183537972Y-146672591D01*
X183895398Y-147431683D01*
X184120611Y-148191411D01*
X184200139Y-148921729D01*
X184201395Y-149325241D01*
X181945395Y-149325241D01*
X181844041Y-148581930D01*
X181806747Y-148349879D01*
X181578348Y-147546864D01*
X181199101Y-146803666D01*
X180660279Y-146102002D01*
X180620200Y-146058378D01*
X180374970Y-145809740D01*
X180079762Y-145532247D01*
X179763294Y-145250361D01*
X179454285Y-144988538D01*
X179181454Y-144771240D01*
X178973517Y-144622924D01*
X178859195Y-144568050D01*
X178796450Y-144627750D01*
X178638643Y-144805378D01*
X178398598Y-145086236D01*
X178088703Y-145455559D01*
X177721346Y-145898580D01*
X177308915Y-146400531D01*
X176863797Y-146946646D01*
X174932579Y-149325241D01*
X171313418Y-149325241D01*
X171259625Y-148746451D01*
X171252420Y-148673837D01*
X171116222Y-147931108D01*
X170863301Y-147258828D01*
X170477061Y-146622261D01*
X169940905Y-145986676D01*
X169763337Y-145806339D01*
X169451620Y-145510194D01*
X169126716Y-145221179D01*
X168815634Y-144961545D01*
X168545381Y-144753547D01*
X168342966Y-144619437D01*
X168235398Y-144581468D01*
X168176127Y-144638816D01*
X168020096Y-144814931D01*
X167781539Y-145094664D01*
X167473140Y-145462857D01*
X167107585Y-145904356D01*
X166697560Y-146404004D01*
X166255750Y-146946646D01*
X164360925Y-149282766D01*
X162664270Y-149304241D01*
X160967615Y-149325715D01*
X160637328Y-148497217D01*
X160597211Y-148397241D01*
X160275914Y-147640454D01*
X159952143Y-146950357D01*
X159638421Y-146351052D01*
X159347268Y-145866638D01*
X159091204Y-145521217D01*
X159011408Y-145434679D01*
X158668537Y-145134163D01*
X158286496Y-144885280D01*
X157912914Y-144715678D01*
X157595418Y-144653000D01*
X157357248Y-144653000D01*
X157357248Y-142699154D01*
X157679199Y-142699154D01*
X158042600Y-142732904D01*
X158512411Y-142836009D01*
X158975822Y-142986916D01*
X159353569Y-143163638D01*
X159373812Y-143175930D01*
X159611253Y-143347438D01*
X159899882Y-143590051D01*
X160181796Y-143855406D01*
X160293545Y-143972497D01*
X160547139Y-144279815D01*
X160794395Y-144646230D01*
X161046485Y-145092426D01*
X161314584Y-145639087D01*
X161609866Y-146306899D01*
X161943506Y-147116545D01*
X162075617Y-147444536D01*
X162236442Y-147841274D01*
X162366647Y-148159490D01*
X162455407Y-148372774D01*
X162491901Y-148454717D01*
X162492538Y-148454738D01*
X162555324Y-148387403D01*
X162709279Y-148206189D01*
X162940316Y-147928468D01*
X163234348Y-147571611D01*
X163577288Y-147152991D01*
X163955049Y-146689979D01*
X164353545Y-146199947D01*
X164758688Y-145700268D01*
X165156392Y-145208314D01*
X165532570Y-144741456D01*
X165873135Y-144317067D01*
X166164000Y-143952518D01*
X166391078Y-143665181D01*
X166540283Y-143472429D01*
X166597527Y-143391634D01*
X166569009Y-143342746D01*
X166431651Y-143206214D01*
X166205588Y-143010597D01*
X165917928Y-142780280D01*
X165585691Y-142516215D01*
X164699187Y-141727379D01*
X163977244Y-140943512D01*
X163421526Y-140166568D01*
X163033698Y-139398498D01*
X162959673Y-139193986D01*
X162900472Y-138960286D01*
X162864928Y-138688904D01*
X162847594Y-138335820D01*
X162845457Y-138111863D01*
X164750373Y-138111863D01*
X164781908Y-138527764D01*
X164957507Y-139168288D01*
X165290717Y-139793900D01*
X165785599Y-140411582D01*
X166446213Y-141028318D01*
X166582276Y-141140708D01*
X166902325Y-141400975D01*
X167191314Y-141630919D01*
X167399790Y-141790987D01*
X167715576Y-142023968D01*
X168217157Y-141392781D01*
X168512801Y-141003661D01*
X169014198Y-140224576D01*
X169357770Y-139488422D01*
X169545816Y-138787964D01*
X169580631Y-138115971D01*
X169464513Y-137465210D01*
X169297349Y-137064867D01*
X168967151Y-136616763D01*
X168536191Y-136262878D01*
X168031481Y-136009676D01*
X167480034Y-135863619D01*
X166908859Y-135831170D01*
X166344968Y-135918791D01*
X165815373Y-136132945D01*
X165347086Y-136480094D01*
X165281335Y-136545459D01*
X165021317Y-136859749D01*
X164857921Y-137193393D01*
X164773492Y-137594671D01*
X164750373Y-138111863D01*
X162845457Y-138111863D01*
X162843026Y-137857014D01*
X162846091Y-137450100D01*
X162860954Y-137077780D01*
X162893056Y-136795666D01*
X162947727Y-136560223D01*
X163030301Y-136327917D01*
X163120307Y-136124093D01*
X163513579Y-135491148D01*
X164033994Y-134936425D01*
X164653121Y-134486481D01*
X165342532Y-134167876D01*
X165357022Y-134163021D01*
X165734514Y-134074085D01*
X166224149Y-134008593D01*
X166772051Y-133969086D01*
X167324345Y-133958103D01*
X167827157Y-133978187D01*
X168226611Y-134031877D01*
X168260509Y-134039436D01*
X168798285Y-134208847D01*
X169357768Y-134462981D01*
X169875275Y-134769009D01*
X170287123Y-135094102D01*
X170601116Y-135417120D01*
X171038543Y-135991602D01*
X171341852Y-136603853D01*
X171527066Y-137290115D01*
X171610211Y-138086632D01*
X171610045Y-138115971D01*
X171606665Y-138714981D01*
X171517166Y-139363438D01*
X171324408Y-140005731D01*
X171015192Y-140699839D01*
X170932874Y-140854100D01*
X170709931Y-141231125D01*
X170428970Y-141672434D01*
X170120517Y-142131955D01*
X169815100Y-142563617D01*
X169543243Y-142921348D01*
X169331010Y-143186017D01*
X170058966Y-143714912D01*
X170121190Y-143760380D01*
X170899921Y-144376239D01*
X171600803Y-145017570D01*
X172208068Y-145666144D01*
X172705946Y-146303735D01*
X173078666Y-146912115D01*
X173310458Y-147473058D01*
X173383132Y-147697141D01*
X173459364Y-147881827D01*
X173509687Y-147944677D01*
X173522238Y-147936437D01*
X173627786Y-147828421D01*
X173815637Y-147612201D01*
X174071207Y-147306235D01*
X174379915Y-146928983D01*
X174727179Y-146498903D01*
X175098417Y-146034453D01*
X175479047Y-145554092D01*
X175854488Y-145076280D01*
X176210156Y-144619475D01*
X176531471Y-144202135D01*
X176803850Y-143842719D01*
X177012712Y-143559686D01*
X177143474Y-143371495D01*
X177181554Y-143296604D01*
X177175526Y-143291244D01*
X177066517Y-143200859D01*
X176856354Y-143030283D01*
X176572555Y-142801762D01*
X176242636Y-142537542D01*
X175741356Y-142120856D01*
X174996093Y-141417179D01*
X174404373Y-140728637D01*
X173958238Y-140042080D01*
X173649731Y-139344359D01*
X173470895Y-138622326D01*
X173440336Y-138216006D01*
X175382520Y-138216006D01*
X175470859Y-138841090D01*
X175677801Y-139428015D01*
X176015002Y-139987279D01*
X176494620Y-140538983D01*
X177128815Y-141103229D01*
X177193841Y-141155564D01*
X177505796Y-141403869D01*
X177797658Y-141632306D01*
X178013638Y-141797122D01*
X178324543Y-142028041D01*
X178845454Y-141365437D01*
X178941934Y-141238305D01*
X179235110Y-140812249D01*
X179526875Y-140340475D01*
X179766321Y-139903789D01*
X179847104Y-139741755D01*
X179999275Y-139421705D01*
X180093243Y-139175667D01*
X180142961Y-138948700D01*
X180162382Y-138685864D01*
X180165461Y-138332217D01*
X180164096Y-138122418D01*
X180150177Y-137797229D01*
X180111717Y-137557336D01*
X180037159Y-137346243D01*
X179914948Y-137107455D01*
X179746671Y-136845236D01*
X179330244Y-136409462D01*
X178827667Y-136089839D01*
X178267554Y-135891474D01*
X177678518Y-135819478D01*
X177089171Y-135878957D01*
X176528127Y-136075021D01*
X176023999Y-136412778D01*
X175930552Y-136498361D01*
X175644015Y-136833577D01*
X175466676Y-137204848D01*
X175384268Y-137652287D01*
X175382520Y-138216006D01*
X173440336Y-138216006D01*
X173413774Y-137862833D01*
X173415405Y-137720957D01*
X173487846Y-136938034D01*
X173673923Y-136262630D01*
X173982260Y-135671453D01*
X174421479Y-135141213D01*
X174779578Y-134818252D01*
X175374072Y-134424545D01*
X176036097Y-134154522D01*
X176789573Y-133999384D01*
X177658419Y-133950330D01*
X178296785Y-133975964D01*
X179057229Y-134095815D01*
X179728961Y-134324541D01*
X180344515Y-134674114D01*
X180936427Y-135156505D01*
X181144195Y-135365508D01*
X181632651Y-136013290D01*
X181982988Y-136739705D01*
X182191084Y-137524368D01*
X182251716Y-138332217D01*
X182252817Y-138346891D01*
X182164064Y-139186889D01*
G37*
G36*
X182079114Y-92124682D02*
G01*
X181835752Y-92961768D01*
X181644293Y-93403290D01*
X181260114Y-94128529D01*
X180796113Y-94862403D01*
X180286171Y-95548356D01*
X179841284Y-96096889D01*
X180082080Y-96270430D01*
X180589048Y-96650468D01*
X181152453Y-97101787D01*
X181694793Y-97563290D01*
X182175711Y-98000559D01*
X182554846Y-98379177D01*
X183063825Y-98994241D01*
X183566185Y-99814543D01*
X183908223Y-100674004D01*
X184087560Y-101564059D01*
X184087863Y-101583453D01*
X184101822Y-102476146D01*
X183948631Y-103401700D01*
X183901172Y-103578364D01*
X183685447Y-104200576D01*
X183399833Y-104752096D01*
X183016235Y-105280284D01*
X182506555Y-105832496D01*
X182485908Y-105852998D01*
X181749486Y-106491113D01*
X180978820Y-106973548D01*
X180147419Y-107313991D01*
X179228794Y-107526130D01*
X179112197Y-107541735D01*
X178659656Y-107572009D01*
X178127479Y-107574944D01*
X177577784Y-107552620D01*
X177072688Y-107507119D01*
X176674307Y-107440523D01*
X176495701Y-107387136D01*
X176165369Y-107264426D01*
X175774038Y-107101104D01*
X175373116Y-106917822D01*
X175195359Y-106831512D01*
X174852583Y-106652902D01*
X174568970Y-106477376D01*
X174300817Y-106273047D01*
X174004422Y-106008028D01*
X173636080Y-105650432D01*
X173295724Y-105318980D01*
X173041619Y-105086611D01*
X172870686Y-104953839D01*
X172766493Y-104907953D01*
X172712602Y-104936243D01*
X172608051Y-105091381D01*
X172385730Y-105363485D01*
X172103194Y-105673334D01*
X171799148Y-105978942D01*
X171512297Y-106238323D01*
X171357191Y-106359889D01*
X170870015Y-106677425D01*
X170301185Y-106980365D01*
X169712379Y-107237698D01*
X169165274Y-107418411D01*
X168915467Y-107473173D01*
X168321184Y-107548049D01*
X167660353Y-107574361D01*
X166990554Y-107552947D01*
X166369368Y-107484643D01*
X165854373Y-107370286D01*
X165159758Y-107118478D01*
X164306974Y-106683680D01*
X163519390Y-106120209D01*
X162764556Y-105407452D01*
X162598780Y-105234049D01*
X162380961Y-105014487D01*
X162226818Y-104869711D01*
X162162178Y-104824708D01*
X162104903Y-104893564D01*
X161960552Y-105067690D01*
X161751680Y-105319876D01*
X161500554Y-105623246D01*
X161305950Y-105854546D01*
X160912105Y-106289280D01*
X160556552Y-106623631D01*
X160204409Y-106888580D01*
X159820793Y-107115107D01*
X159707472Y-107172127D01*
X159512205Y-107247197D01*
X159293111Y-107289971D01*
X159001585Y-107308112D01*
X158589020Y-107309283D01*
X158368367Y-107304135D01*
X157994995Y-107282002D01*
X157690711Y-107247409D01*
X157505910Y-107205198D01*
X157272298Y-107109379D01*
X157272298Y-105342149D01*
X157973134Y-105352280D01*
X158244539Y-105352363D01*
X158559212Y-105331290D01*
X158799072Y-105276097D01*
X159021161Y-105177256D01*
X159038223Y-105167775D01*
X159258342Y-105008900D01*
X159554032Y-104750637D01*
X159896083Y-104421986D01*
X160255282Y-104051948D01*
X160602419Y-103669526D01*
X160903560Y-103309365D01*
X163395741Y-103309365D01*
X163652334Y-103633340D01*
X163736654Y-103737178D01*
X164356034Y-104372184D01*
X165055462Y-104896175D01*
X165804898Y-105289623D01*
X166574304Y-105532999D01*
X167195313Y-105628581D01*
X167858764Y-105626977D01*
X168493810Y-105495626D01*
X169150884Y-105228570D01*
X169579366Y-104972349D01*
X170075748Y-104564694D01*
X170502316Y-104094679D01*
X170810572Y-103609611D01*
X170861558Y-103500316D01*
X170927087Y-103296681D01*
X174005992Y-103296681D01*
X174173156Y-103531442D01*
X174275314Y-103660041D01*
X174536308Y-103939188D01*
X174865294Y-104254685D01*
X175217997Y-104566485D01*
X175550144Y-104834539D01*
X175817459Y-105018797D01*
X175994785Y-105113696D01*
X176342659Y-105273718D01*
X176690123Y-105409337D01*
X176799807Y-105444311D01*
X177298263Y-105553653D01*
X177853664Y-105615209D01*
X178394573Y-105623554D01*
X178849555Y-105573267D01*
X179527494Y-105354425D01*
X180176380Y-104985982D01*
X180743609Y-104496806D01*
X181207825Y-103909370D01*
X181547675Y-103246147D01*
X181741803Y-102529609D01*
X181766275Y-102347376D01*
X181779446Y-101583453D01*
X181639146Y-100850784D01*
X181341340Y-100139066D01*
X180881994Y-99437994D01*
X180257075Y-98737266D01*
X179937830Y-98428907D01*
X179611165Y-98129151D01*
X179326380Y-97883093D01*
X179121714Y-97724830D01*
X179037350Y-97668506D01*
X178847084Y-97559062D01*
X178730609Y-97539449D01*
X178643053Y-97597755D01*
X178616246Y-97628609D01*
X178489268Y-97781136D01*
X178273194Y-98043899D01*
X177979776Y-98402503D01*
X177620763Y-98842554D01*
X177207909Y-99349658D01*
X176752962Y-99909422D01*
X176267674Y-100507449D01*
X175044231Y-102016267D01*
X174005992Y-103296681D01*
X170927087Y-103296681D01*
X171093553Y-102779374D01*
X171177464Y-102016267D01*
X171115357Y-101242647D01*
X170909298Y-100490164D01*
X170561351Y-99790471D01*
X170350479Y-99496217D01*
X170070134Y-99163467D01*
X169744630Y-98815588D01*
X169396421Y-98472991D01*
X169047961Y-98156088D01*
X168721701Y-97885287D01*
X168440096Y-97681001D01*
X168225597Y-97563640D01*
X168100659Y-97553613D01*
X168068228Y-97585918D01*
X167935017Y-97737995D01*
X167713670Y-98000183D01*
X167415786Y-98358439D01*
X167052962Y-98798722D01*
X166636795Y-99306990D01*
X166178882Y-99869202D01*
X165690822Y-100471317D01*
X163395741Y-103309365D01*
X160903560Y-103309365D01*
X160908280Y-103303720D01*
X161165948Y-102978387D01*
X160676764Y-101749975D01*
X160398223Y-101068468D01*
X160001791Y-100169234D01*
X159637874Y-99435090D01*
X159306007Y-98865118D01*
X159005724Y-98458404D01*
X158925682Y-98371626D01*
X158583052Y-98071513D01*
X158201184Y-97822892D01*
X157827761Y-97653429D01*
X157510468Y-97590793D01*
X157272298Y-97590793D01*
X157272298Y-95636947D01*
X157594249Y-95636947D01*
X157957650Y-95670697D01*
X158427461Y-95773802D01*
X158890872Y-95924709D01*
X159268619Y-96101430D01*
X159288862Y-96113723D01*
X159526303Y-96285231D01*
X159814932Y-96527844D01*
X160096846Y-96793199D01*
X160208595Y-96910290D01*
X160462189Y-97217608D01*
X160709445Y-97584023D01*
X160961535Y-98030219D01*
X161229634Y-98576880D01*
X161524916Y-99244692D01*
X161858556Y-100054338D01*
X161990667Y-100382328D01*
X162151492Y-100779066D01*
X162281697Y-101097283D01*
X162370458Y-101310567D01*
X162406951Y-101392510D01*
X162407588Y-101392530D01*
X162470374Y-101325196D01*
X162624329Y-101143982D01*
X162855366Y-100866261D01*
X163149398Y-100509404D01*
X163492338Y-100090783D01*
X163870099Y-99627771D01*
X164268595Y-99137740D01*
X164673738Y-98638061D01*
X165071442Y-98146107D01*
X165447620Y-97679249D01*
X165788185Y-97254859D01*
X166079050Y-96890310D01*
X166306128Y-96602974D01*
X166455333Y-96410222D01*
X166512577Y-96329426D01*
X166484059Y-96280538D01*
X166346701Y-96144007D01*
X166120638Y-95948389D01*
X165832979Y-95718073D01*
X165500742Y-95454008D01*
X164614238Y-94665171D01*
X163892294Y-93881305D01*
X163336576Y-93104361D01*
X162948749Y-92336291D01*
X162874723Y-92131779D01*
X162815523Y-91898079D01*
X162779978Y-91626697D01*
X162762644Y-91273612D01*
X162760507Y-91049656D01*
X164665423Y-91049656D01*
X164696958Y-91465557D01*
X164872557Y-92106081D01*
X165205767Y-92731693D01*
X165700649Y-93349375D01*
X166361263Y-93966110D01*
X166497326Y-94078501D01*
X166817375Y-94338768D01*
X167106364Y-94568712D01*
X167314840Y-94728780D01*
X167630626Y-94961761D01*
X168132207Y-94330574D01*
X168427852Y-93941454D01*
X168929248Y-93162369D01*
X169272821Y-92426214D01*
X169460866Y-91725757D01*
X169495681Y-91053764D01*
X169379563Y-90403002D01*
X169212399Y-90002660D01*
X168882201Y-89554555D01*
X168451241Y-89200671D01*
X167946532Y-88947469D01*
X167395084Y-88801412D01*
X166823909Y-88768962D01*
X166260018Y-88856583D01*
X165730424Y-89070737D01*
X165262136Y-89417887D01*
X165196385Y-89483252D01*
X164936367Y-89797542D01*
X164772971Y-90131185D01*
X164688542Y-90532463D01*
X164665423Y-91049656D01*
X162760507Y-91049656D01*
X162758076Y-90794806D01*
X162761141Y-90387893D01*
X162776004Y-90015572D01*
X162808106Y-89733458D01*
X162862777Y-89498016D01*
X162945351Y-89265709D01*
X163035357Y-89061885D01*
X163428629Y-88428941D01*
X163949044Y-87874217D01*
X164568171Y-87424274D01*
X165257582Y-87105668D01*
X165272072Y-87100814D01*
X165649565Y-87011878D01*
X166139199Y-86946385D01*
X166687101Y-86906878D01*
X167239395Y-86895896D01*
X167742207Y-86915980D01*
X168141661Y-86969669D01*
X168175559Y-86977229D01*
X168713335Y-87146640D01*
X169272818Y-87400774D01*
X169790325Y-87706802D01*
X170202173Y-88031894D01*
X170516167Y-88354912D01*
X170953593Y-88929395D01*
X171256902Y-89541645D01*
X171442116Y-90227907D01*
X171525261Y-91024425D01*
X171525095Y-91053764D01*
X171521715Y-91652774D01*
X171432216Y-92301230D01*
X171239458Y-92943524D01*
X170930242Y-93637632D01*
X170847924Y-93791892D01*
X170624981Y-94168918D01*
X170344020Y-94610226D01*
X170035568Y-95069747D01*
X169730150Y-95501409D01*
X169458293Y-95859141D01*
X169246061Y-96123810D01*
X169974017Y-96652705D01*
X170036240Y-96698173D01*
X170814971Y-97314032D01*
X171515853Y-97955362D01*
X172123118Y-98603936D01*
X172620996Y-99241527D01*
X172993716Y-99849908D01*
X173225508Y-100410850D01*
X173298182Y-100634934D01*
X173374414Y-100819620D01*
X173424737Y-100882469D01*
X173437288Y-100874230D01*
X173542836Y-100766214D01*
X173730687Y-100549994D01*
X173986257Y-100244028D01*
X174294965Y-99866776D01*
X174642229Y-99436695D01*
X175013467Y-98972245D01*
X175394098Y-98491885D01*
X175769538Y-98014073D01*
X176125206Y-97557267D01*
X176446521Y-97139927D01*
X176718900Y-96780511D01*
X176927762Y-96497478D01*
X177058524Y-96309287D01*
X177096604Y-96234396D01*
X177090576Y-96229036D01*
X176981567Y-96138652D01*
X176771404Y-95968076D01*
X176487605Y-95739555D01*
X176157686Y-95475334D01*
X175656406Y-95058648D01*
X174911144Y-94354972D01*
X174319423Y-93666430D01*
X173873288Y-92979872D01*
X173564781Y-92282152D01*
X173385945Y-91560119D01*
X173355386Y-91153798D01*
X175297570Y-91153798D01*
X175385910Y-91778883D01*
X175592851Y-92365808D01*
X175930052Y-92925071D01*
X176409671Y-93476775D01*
X177043866Y-94041021D01*
X177108892Y-94093357D01*
X177420846Y-94341662D01*
X177712708Y-94570098D01*
X177928688Y-94734915D01*
X178239593Y-94965834D01*
X178760504Y-94303230D01*
X178856985Y-94176098D01*
X179150160Y-93750042D01*
X179441925Y-93278268D01*
X179681371Y-92841582D01*
X179762154Y-92679548D01*
X179914326Y-92359497D01*
X180008293Y-92113459D01*
X180058011Y-91886493D01*
X180077433Y-91623657D01*
X180080512Y-91270010D01*
X180079146Y-91060211D01*
X180065227Y-90735022D01*
X180026767Y-90495129D01*
X179952209Y-90284036D01*
X179829998Y-90045247D01*
X179661721Y-89783029D01*
X179245294Y-89347255D01*
X178742717Y-89027631D01*
X178182604Y-88829267D01*
X177593568Y-88757270D01*
X177004221Y-88816750D01*
X176443177Y-89012813D01*
X175939049Y-89350570D01*
X175845602Y-89436154D01*
X175559065Y-89771369D01*
X175381727Y-90142641D01*
X175299318Y-90590080D01*
X175297570Y-91153798D01*
X173355386Y-91153798D01*
X173328824Y-90800625D01*
X173330455Y-90658750D01*
X173402896Y-89875827D01*
X173588974Y-89200422D01*
X173897310Y-88609246D01*
X174336529Y-88079006D01*
X174694628Y-87756045D01*
X175289123Y-87362338D01*
X175951148Y-87092315D01*
X176704623Y-86937177D01*
X177573469Y-86888122D01*
X178211835Y-86913757D01*
X178972279Y-87033608D01*
X179644011Y-87262334D01*
X180259565Y-87611907D01*
X180851477Y-88094298D01*
X181059245Y-88303301D01*
X181547701Y-88951083D01*
X181898038Y-89677498D01*
X182106135Y-90462160D01*
X182166766Y-91270010D01*
X182167867Y-91284684D01*
X182079114Y-92124682D01*
G37*
G36*
X152686472Y-80401605D02*
G01*
X152443110Y-81238691D01*
X152251651Y-81680213D01*
X151867472Y-82405452D01*
X151403471Y-83139326D01*
X150893529Y-83825279D01*
X150448642Y-84373812D01*
X150689438Y-84547353D01*
X151196406Y-84927392D01*
X151759810Y-85378710D01*
X152302151Y-85840213D01*
X152783069Y-86277482D01*
X153162204Y-86656100D01*
X153671183Y-87271164D01*
X154173543Y-88091466D01*
X154515581Y-88950927D01*
X154694918Y-89840982D01*
X154695221Y-89860376D01*
X154709180Y-90753069D01*
X154555989Y-91678623D01*
X154508530Y-91855287D01*
X154292805Y-92477499D01*
X154007191Y-93029020D01*
X153623592Y-93557207D01*
X153113913Y-94109419D01*
X153093266Y-94129921D01*
X152356844Y-94768036D01*
X151586178Y-95250471D01*
X150754777Y-95590914D01*
X149836152Y-95803053D01*
X149719555Y-95818658D01*
X149267014Y-95848932D01*
X148734837Y-95851867D01*
X148185142Y-95829543D01*
X147680046Y-95784042D01*
X147281665Y-95717446D01*
X147103059Y-95664059D01*
X146772727Y-95541349D01*
X146381396Y-95378027D01*
X145980474Y-95194746D01*
X145802717Y-95108435D01*
X145459941Y-94929825D01*
X145176328Y-94754299D01*
X144908175Y-94549970D01*
X144611779Y-94284951D01*
X144243438Y-93927355D01*
X143903082Y-93595903D01*
X143648977Y-93363534D01*
X143478044Y-93230762D01*
X143373850Y-93184876D01*
X143319960Y-93213166D01*
X143215409Y-93368304D01*
X142993088Y-93640408D01*
X142710552Y-93950257D01*
X142406506Y-94255866D01*
X142119655Y-94515246D01*
X141964549Y-94636812D01*
X141477373Y-94954348D01*
X140908543Y-95257288D01*
X140319737Y-95514621D01*
X139772632Y-95695334D01*
X139522825Y-95750096D01*
X138928542Y-95824972D01*
X138267711Y-95851284D01*
X137597912Y-95829870D01*
X136976726Y-95761566D01*
X136461731Y-95647209D01*
X135767116Y-95395402D01*
X134914332Y-94960603D01*
X134126748Y-94397132D01*
X133371914Y-93684375D01*
X133206138Y-93510972D01*
X132988319Y-93291410D01*
X132834176Y-93146634D01*
X132769536Y-93101631D01*
X132712261Y-93170487D01*
X132567910Y-93344614D01*
X132359038Y-93596799D01*
X132107912Y-93900169D01*
X131913308Y-94131470D01*
X131519463Y-94566203D01*
X131163910Y-94900554D01*
X130811767Y-95165503D01*
X130428151Y-95392030D01*
X130314830Y-95449050D01*
X130119563Y-95524120D01*
X129900469Y-95566894D01*
X129608943Y-95585035D01*
X129196378Y-95586206D01*
X128975725Y-95581058D01*
X128602353Y-95558925D01*
X128298069Y-95524332D01*
X128113268Y-95482121D01*
X127879656Y-95386302D01*
X127879656Y-93619072D01*
X128580492Y-93629203D01*
X128851897Y-93629286D01*
X129166570Y-93608214D01*
X129406430Y-93553020D01*
X129628519Y-93454179D01*
X129645581Y-93444698D01*
X129865700Y-93285823D01*
X130161390Y-93027560D01*
X130503441Y-92698909D01*
X130862640Y-92328871D01*
X131209776Y-91946449D01*
X131510917Y-91586289D01*
X134003099Y-91586289D01*
X134259692Y-91910263D01*
X134344012Y-92014102D01*
X134963392Y-92649107D01*
X135662819Y-93173098D01*
X136412256Y-93566546D01*
X137181662Y-93809922D01*
X137802671Y-93905504D01*
X138466121Y-93903900D01*
X139101168Y-93772549D01*
X139758242Y-93505493D01*
X140186724Y-93249272D01*
X140683106Y-92841617D01*
X141109674Y-92371602D01*
X141417930Y-91886534D01*
X141468916Y-91777239D01*
X141534445Y-91573604D01*
X144613350Y-91573604D01*
X144780514Y-91808365D01*
X144882672Y-91936964D01*
X145143666Y-92216111D01*
X145472652Y-92531608D01*
X145825355Y-92843408D01*
X146157502Y-93111462D01*
X146424817Y-93295720D01*
X146602143Y-93390619D01*
X146950016Y-93550641D01*
X147297480Y-93686260D01*
X147407165Y-93721234D01*
X147905621Y-93830576D01*
X148461022Y-93892132D01*
X149001931Y-93900477D01*
X149456913Y-93850190D01*
X150134852Y-93631348D01*
X150783738Y-93262905D01*
X151350967Y-92773729D01*
X151815183Y-92186293D01*
X152155033Y-91523070D01*
X152349160Y-90806532D01*
X152373633Y-90624299D01*
X152386804Y-89860376D01*
X152246504Y-89127707D01*
X151948697Y-88415989D01*
X151489352Y-87714917D01*
X150864432Y-87014189D01*
X150545188Y-86705831D01*
X150218522Y-86406074D01*
X149933738Y-86160016D01*
X149729072Y-86001753D01*
X149644708Y-85945429D01*
X149454442Y-85835985D01*
X149337967Y-85816372D01*
X149250410Y-85874678D01*
X149223604Y-85905532D01*
X149096625Y-86058059D01*
X148880552Y-86320822D01*
X148587133Y-86679426D01*
X148228121Y-87119477D01*
X147815266Y-87626581D01*
X147360320Y-88186345D01*
X146875032Y-88784373D01*
X145651589Y-90293190D01*
X144613350Y-91573604D01*
X141534445Y-91573604D01*
X141700911Y-91056297D01*
X141784822Y-90293190D01*
X141722715Y-89519570D01*
X141516656Y-88767087D01*
X141168709Y-88067394D01*
X140957837Y-87773140D01*
X140677491Y-87440390D01*
X140351988Y-87092511D01*
X140003779Y-86749914D01*
X139655318Y-86433011D01*
X139329059Y-86162210D01*
X139047453Y-85957924D01*
X138832955Y-85840563D01*
X138708017Y-85830536D01*
X138675585Y-85862841D01*
X138542374Y-86014918D01*
X138321028Y-86277106D01*
X138023144Y-86635362D01*
X137660320Y-87075645D01*
X137244153Y-87583913D01*
X136786240Y-88146125D01*
X136298180Y-88748240D01*
X134003099Y-91586289D01*
X131510917Y-91586289D01*
X131515638Y-91580643D01*
X131773306Y-91255310D01*
X131284122Y-90026898D01*
X131005581Y-89345391D01*
X130609149Y-88446157D01*
X130245232Y-87712013D01*
X129913364Y-87142042D01*
X129613082Y-86735327D01*
X129533040Y-86648549D01*
X129190410Y-86348436D01*
X128808542Y-86099815D01*
X128435119Y-85930352D01*
X128117826Y-85867716D01*
X127879656Y-85867716D01*
X127879656Y-83913870D01*
X128201607Y-83913870D01*
X128565008Y-83947620D01*
X129034819Y-84050725D01*
X129498230Y-84201632D01*
X129875977Y-84378353D01*
X129896220Y-84390646D01*
X130133661Y-84562154D01*
X130422290Y-84804767D01*
X130704204Y-85070122D01*
X130815953Y-85187213D01*
X131069547Y-85494531D01*
X131316803Y-85860946D01*
X131568893Y-86307142D01*
X131836992Y-86853803D01*
X132132274Y-87521615D01*
X132465914Y-88331261D01*
X132598025Y-88659251D01*
X132758850Y-89055989D01*
X132889055Y-89374206D01*
X132977815Y-89587490D01*
X133014309Y-89669433D01*
X133014946Y-89669453D01*
X133077732Y-89602119D01*
X133231687Y-89420905D01*
X133462724Y-89143184D01*
X133756756Y-88786327D01*
X134099696Y-88367706D01*
X134477457Y-87904695D01*
X134875953Y-87414663D01*
X135281096Y-86914984D01*
X135678800Y-86423030D01*
X136054978Y-85956172D01*
X136395543Y-85531782D01*
X136686408Y-85167233D01*
X136913486Y-84879897D01*
X137062691Y-84687145D01*
X137119935Y-84606350D01*
X137091417Y-84557461D01*
X136954059Y-84420930D01*
X136727996Y-84225312D01*
X136440336Y-83994996D01*
X136108099Y-83730931D01*
X135221595Y-82942094D01*
X134499652Y-82158228D01*
X133943934Y-81381284D01*
X133556106Y-80613214D01*
X133482081Y-80408702D01*
X133422880Y-80175002D01*
X133387336Y-79903620D01*
X133370002Y-79550536D01*
X133367865Y-79326579D01*
X135272781Y-79326579D01*
X135304316Y-79742480D01*
X135479915Y-80383004D01*
X135813125Y-81008616D01*
X136308007Y-81626298D01*
X136968621Y-82243033D01*
X137104684Y-82355424D01*
X137424733Y-82615691D01*
X137713722Y-82845635D01*
X137922198Y-83005703D01*
X138237984Y-83238684D01*
X138739565Y-82607497D01*
X139035209Y-82218377D01*
X139536606Y-81439292D01*
X139880179Y-80703137D01*
X140068224Y-80002680D01*
X140103039Y-79330687D01*
X139986921Y-78679926D01*
X139819757Y-78279583D01*
X139489559Y-77831478D01*
X139058599Y-77477594D01*
X138553889Y-77224392D01*
X138002442Y-77078335D01*
X137431267Y-77045885D01*
X136867376Y-77133506D01*
X136337781Y-77347660D01*
X135869494Y-77694810D01*
X135803743Y-77760175D01*
X135543725Y-78074465D01*
X135380329Y-78408109D01*
X135295900Y-78809386D01*
X135272781Y-79326579D01*
X133367865Y-79326579D01*
X133365434Y-79071729D01*
X133368499Y-78664816D01*
X133383362Y-78292496D01*
X133415464Y-78010381D01*
X133470135Y-77774939D01*
X133552709Y-77542632D01*
X133642715Y-77338808D01*
X134035987Y-76705864D01*
X134556402Y-76151140D01*
X135175529Y-75701197D01*
X135864940Y-75382591D01*
X135879430Y-75377737D01*
X136256922Y-75288801D01*
X136746557Y-75223309D01*
X137294459Y-75183801D01*
X137846753Y-75172819D01*
X138349565Y-75192903D01*
X138749019Y-75246593D01*
X138782917Y-75254152D01*
X139320693Y-75423563D01*
X139880176Y-75677697D01*
X140397683Y-75983725D01*
X140809531Y-76308817D01*
X141123524Y-76631835D01*
X141560951Y-77206318D01*
X141864260Y-77818568D01*
X142049474Y-78504830D01*
X142132619Y-79301348D01*
X142132453Y-79330687D01*
X142129073Y-79929697D01*
X142039574Y-80578153D01*
X141846816Y-81220447D01*
X141537600Y-81914555D01*
X141455282Y-82068815D01*
X141232339Y-82445841D01*
X140951378Y-82887150D01*
X140642925Y-83346671D01*
X140337508Y-83778332D01*
X140065651Y-84136064D01*
X139853418Y-84400733D01*
X140581374Y-84929628D01*
X140643598Y-84975096D01*
X141422329Y-85590955D01*
X142123211Y-86232285D01*
X142730476Y-86880859D01*
X143228354Y-87518450D01*
X143601074Y-88126831D01*
X143832866Y-88687773D01*
X143905540Y-88911857D01*
X143981772Y-89096543D01*
X144032095Y-89159392D01*
X144044646Y-89151153D01*
X144150194Y-89043137D01*
X144338045Y-88826917D01*
X144593615Y-88520951D01*
X144902323Y-88143699D01*
X145249587Y-87713618D01*
X145620825Y-87249168D01*
X146001455Y-86768808D01*
X146376896Y-86290996D01*
X146732564Y-85834190D01*
X147053879Y-85416850D01*
X147326258Y-85057434D01*
X147535120Y-84774402D01*
X147665882Y-84586210D01*
X147703962Y-84511319D01*
X147697934Y-84505959D01*
X147588925Y-84415575D01*
X147378762Y-84244999D01*
X147094963Y-84016478D01*
X146765044Y-83752257D01*
X146263764Y-83335571D01*
X145518501Y-82631895D01*
X144926781Y-81943353D01*
X144480646Y-81256796D01*
X144172139Y-80559075D01*
X143993303Y-79837042D01*
X143962744Y-79430721D01*
X145904928Y-79430721D01*
X145993267Y-80055806D01*
X146200209Y-80642731D01*
X146537410Y-81201994D01*
X147017029Y-81753699D01*
X147651223Y-82317945D01*
X147716249Y-82370280D01*
X148028204Y-82618585D01*
X148320066Y-82847021D01*
X148536046Y-83011838D01*
X148846951Y-83242757D01*
X149367862Y-82580153D01*
X149464342Y-82453021D01*
X149757518Y-82026965D01*
X150049283Y-81555191D01*
X150288729Y-81118505D01*
X150369512Y-80956471D01*
X150521683Y-80636420D01*
X150615651Y-80390382D01*
X150665369Y-80163416D01*
X150684790Y-79900580D01*
X150687869Y-79546933D01*
X150686504Y-79337134D01*
X150672585Y-79011945D01*
X150634125Y-78772052D01*
X150559567Y-78560959D01*
X150437356Y-78322170D01*
X150269079Y-78059952D01*
X149852652Y-77624178D01*
X149350075Y-77304554D01*
X148789962Y-77106190D01*
X148200926Y-77034193D01*
X147611579Y-77093673D01*
X147050535Y-77289736D01*
X146546407Y-77627493D01*
X146452960Y-77713077D01*
X146166423Y-78048292D01*
X145989084Y-78419564D01*
X145906676Y-78867003D01*
X145904928Y-79430721D01*
X143962744Y-79430721D01*
X143936182Y-79077548D01*
X143937813Y-78935673D01*
X144010254Y-78152750D01*
X144196332Y-77477346D01*
X144504668Y-76886169D01*
X144943887Y-76355929D01*
X145301986Y-76032968D01*
X145896480Y-75639261D01*
X146558505Y-75369238D01*
X147311981Y-75214100D01*
X148180827Y-75165045D01*
X148819193Y-75190680D01*
X149579637Y-75310531D01*
X150251369Y-75539257D01*
X150866923Y-75888830D01*
X151458835Y-76371221D01*
X151666603Y-76580224D01*
X152155059Y-77228006D01*
X152505396Y-77954421D01*
X152713492Y-78739083D01*
X152774124Y-79546933D01*
X152775225Y-79561607D01*
X152686472Y-80401605D01*
G37*
G36*
X179163006Y-62120097D02*
G01*
X179121461Y-62398073D01*
X179042236Y-62581755D01*
X178902183Y-62731702D01*
X178701533Y-62859158D01*
X178346124Y-62940777D01*
X177979379Y-62885512D01*
X177653246Y-62694893D01*
X177516867Y-62541330D01*
X177362321Y-62191128D01*
X177346605Y-61875956D01*
X177599200Y-61875956D01*
X177627257Y-62207045D01*
X177736227Y-62493175D01*
X177921173Y-62679658D01*
X178216556Y-62764074D01*
X178518993Y-62715968D01*
X178758440Y-62537531D01*
X178758824Y-62537042D01*
X178894267Y-62255862D01*
X178939933Y-61916607D01*
X178895663Y-61586618D01*
X178761296Y-61333233D01*
X178586288Y-61212319D01*
X178303639Y-61145508D01*
X178017288Y-61176318D01*
X177797217Y-61306678D01*
X177656993Y-61554595D01*
X177599200Y-61875956D01*
X177346605Y-61875956D01*
X177342622Y-61796069D01*
X177464486Y-61402164D01*
X177497140Y-61344504D01*
X177740901Y-61092362D01*
X178058480Y-60959314D01*
X178407106Y-60948100D01*
X178744011Y-61061457D01*
X179026425Y-61302127D01*
X179057446Y-61343061D01*
X179146683Y-61510318D01*
X179180083Y-61718579D01*
X179173732Y-61916607D01*
X179170068Y-62030866D01*
X179163006Y-62120097D01*
G37*
G36*
X170492700Y-86554168D02*
G01*
X170713951Y-86585010D01*
X170821796Y-86632265D01*
X170806363Y-86669289D01*
X170652429Y-86704693D01*
X170359585Y-86717214D01*
X170125040Y-86708054D01*
X169922331Y-86677410D01*
X169844873Y-86632265D01*
X169884903Y-86597781D01*
X170052783Y-86561423D01*
X170307084Y-86547315D01*
X170492700Y-86554168D01*
G37*
G36*
X168063809Y-60992693D02*
G01*
X168104889Y-61070971D01*
X168129960Y-61239705D01*
X168142472Y-61525344D01*
X168145876Y-61954338D01*
X168145876Y-62931261D01*
X167593702Y-62931261D01*
X167326217Y-62921095D01*
X167119546Y-62890703D01*
X167041528Y-62846311D01*
X167070192Y-62815711D01*
X167223982Y-62776642D01*
X167466278Y-62761362D01*
X167891027Y-62761362D01*
X167891027Y-61869388D01*
X167892035Y-61634363D01*
X167900972Y-61305808D01*
X167922409Y-61105083D01*
X167960262Y-61004761D01*
X168018452Y-60977415D01*
X168063809Y-60992693D01*
G37*
G36*
X165967364Y-85724231D02*
G01*
X165816681Y-85771698D01*
X165554906Y-85782766D01*
X165547762Y-85782766D01*
X165283749Y-85787308D01*
X165146944Y-85816090D01*
X165095528Y-85891922D01*
X165087682Y-86037616D01*
X165061421Y-86216484D01*
X164960258Y-86292465D01*
X164870824Y-86239942D01*
X164832833Y-86037616D01*
X164832826Y-86034445D01*
X164807529Y-85856585D01*
X164747883Y-85782766D01*
X164708804Y-85768390D01*
X164662933Y-85655341D01*
X164672517Y-85596722D01*
X164747883Y-85527917D01*
X165087682Y-85527917D01*
X165776886Y-85527917D01*
X165625573Y-85271763D01*
X165469250Y-85031821D01*
X165284026Y-84783302D01*
X165093792Y-84550994D01*
X165090737Y-85039455D01*
X165087682Y-85527917D01*
X164747883Y-85527917D01*
X164747965Y-85527916D01*
X164791524Y-85449088D01*
X164821608Y-85238308D01*
X164832833Y-84933268D01*
X164833062Y-84820614D01*
X164840330Y-84554511D01*
X164866678Y-84410086D01*
X164923945Y-84350532D01*
X165023970Y-84339047D01*
X165064333Y-84343376D01*
X165206568Y-84419995D01*
X165384517Y-84607840D01*
X165618619Y-84927127D01*
X165768795Y-85149487D01*
X165941828Y-85434520D01*
X165975613Y-85527917D01*
X166008549Y-85618969D01*
X165967364Y-85724231D01*
G37*
G36*
X166722401Y-84326773D02*
G01*
X166963989Y-84468542D01*
X167115897Y-84684580D01*
X167147876Y-84826834D01*
X167115505Y-84934831D01*
X167023839Y-84910391D01*
X166913010Y-84742131D01*
X166890237Y-84696612D01*
X166762794Y-84582573D01*
X166531829Y-84550994D01*
X166336997Y-84564857D01*
X166243217Y-84639587D01*
X166208207Y-84822772D01*
X166206578Y-84840414D01*
X166213434Y-85017486D01*
X166299850Y-85137804D01*
X166505531Y-85259719D01*
X166820206Y-85453179D01*
X167058275Y-85708074D01*
X167178563Y-86021952D01*
X167232666Y-86292465D01*
X166584923Y-86292465D01*
X166547456Y-86292345D01*
X166231132Y-86279898D01*
X166016348Y-86250132D01*
X165937181Y-86207515D01*
X165991321Y-86169151D01*
X166175385Y-86135462D01*
X166446880Y-86122566D01*
X166484843Y-86122468D01*
X166767240Y-86109894D01*
X166914324Y-86071029D01*
X166956579Y-85998450D01*
X166921749Y-85900059D01*
X166800535Y-85735814D01*
X166647784Y-85590516D01*
X166522329Y-85527917D01*
X166503893Y-85523207D01*
X166378277Y-85447271D01*
X166198548Y-85307991D01*
X166131048Y-85245563D01*
X165964003Y-84981360D01*
X165953953Y-84715898D01*
X166094882Y-84482038D01*
X166380774Y-84312641D01*
X166459654Y-84293942D01*
X166722401Y-84326773D01*
G37*
G36*
X174968622Y-85960031D02*
G01*
X174794377Y-86186278D01*
X174734470Y-86224071D01*
X174467968Y-86290271D01*
X174182961Y-86252611D01*
X173960588Y-86117757D01*
X173959030Y-86116022D01*
X173845466Y-85893312D01*
X173776553Y-85570015D01*
X173763374Y-85339266D01*
X174007415Y-85339266D01*
X174017930Y-85615849D01*
X174065882Y-85841453D01*
X174162766Y-85981975D01*
X174337983Y-86093885D01*
X174541159Y-86097635D01*
X174705976Y-85958982D01*
X174816528Y-85693195D01*
X174856913Y-85315542D01*
X174850197Y-85151501D01*
X174772694Y-84804575D01*
X174615593Y-84585105D01*
X174387861Y-84508519D01*
X174248761Y-84534228D01*
X174109427Y-84667626D01*
X174031605Y-84930237D01*
X174007415Y-85339266D01*
X173763374Y-85339266D01*
X173755974Y-85209702D01*
X173787411Y-84875948D01*
X173874548Y-84632327D01*
X173967213Y-84514241D01*
X174225440Y-84338944D01*
X174507045Y-84307486D01*
X174771998Y-84418483D01*
X174980269Y-84670550D01*
X175060639Y-84884744D01*
X175108575Y-85253643D01*
X175103165Y-85315542D01*
X175075629Y-85630612D01*
X174968622Y-85960031D01*
G37*
D19*
%TO.C,U2*%
X146824000Y-104648000D02*
X146824000Y-98298000D01*
X166374000Y-104648000D02*
X166374000Y-98298000D01*
D20*
X165589000Y-106508000D02*
G75*
G03*
X165589000Y-106508000I-100000J0D01*
G01*
%TD*%
M02*
