%TF.GenerationSoftware,KiCad,Pcbnew,(6.0.2-0)*%
%TF.CreationDate,2022-03-24T13:34:33-04:00*%
%TF.ProjectId,dots-test,646f7473-2d74-4657-9374-2e6b69636164,rev?*%
%TF.SameCoordinates,Original*%
%TF.FileFunction,Legend,Top*%
%TF.FilePolarity,Positive*%
%FSLAX46Y46*%
G04 Gerber Fmt 4.6, Leading zero omitted, Abs format (unit mm)*
G04 Created by KiCad (PCBNEW (6.0.2-0)) date 2022-03-24 13:34:33*
%MOMM*%
%LPD*%
G01*
G04 APERTURE LIST*
%ADD10C,0.078516*%
%ADD11C,0.097536*%
%ADD12C,0.074778*%
%ADD13C,0.114301*%
%ADD14C,0.114300*%
%ADD15C,0.300000*%
%ADD16C,0.203200*%
%ADD17C,0.050800*%
%ADD18C,0.254000*%
%ADD19C,0.127000*%
%ADD20C,0.152400*%
%ADD21C,0.250000*%
%ADD22C,0.304800*%
G04 APERTURE END LIST*
D10*
%TO.C,LAYER_POT*%
X153228452Y-50993080D02*
X152757841Y-50993080D01*
X152757841Y-50004796D01*
X153510819Y-50710714D02*
X153981430Y-50710714D01*
X153416697Y-50993080D02*
X153746125Y-50004796D01*
X154075553Y-50993080D01*
X154593225Y-50522469D02*
X154593225Y-50993080D01*
X154263797Y-50004796D02*
X154593225Y-50522469D01*
X154922653Y-50004796D01*
X155252081Y-50475408D02*
X155581509Y-50475408D01*
X155722693Y-50993080D02*
X155252081Y-50993080D01*
X155252081Y-50004796D01*
X155722693Y-50004796D01*
X156710977Y-50993080D02*
X156381549Y-50522469D01*
X156146243Y-50993080D02*
X156146243Y-50004796D01*
X156522732Y-50004796D01*
X156616854Y-50051858D01*
X156663915Y-50098919D01*
X156710977Y-50193041D01*
X156710977Y-50334224D01*
X156663915Y-50428347D01*
X156616854Y-50475408D01*
X156522732Y-50522469D01*
X156146243Y-50522469D01*
X156899221Y-51087203D02*
X157652199Y-51087203D01*
X157887505Y-50993080D02*
X157887505Y-50004796D01*
X158263994Y-50004796D01*
X158358117Y-50051858D01*
X158405178Y-50098919D01*
X158452239Y-50193041D01*
X158452239Y-50334224D01*
X158405178Y-50428347D01*
X158358117Y-50475408D01*
X158263994Y-50522469D01*
X157887505Y-50522469D01*
X159064034Y-50004796D02*
X159252278Y-50004796D01*
X159346401Y-50051858D01*
X159440523Y-50145980D01*
X159487584Y-50334224D01*
X159487584Y-50663652D01*
X159440523Y-50851897D01*
X159346401Y-50946019D01*
X159252278Y-50993080D01*
X159064034Y-50993080D01*
X158969911Y-50946019D01*
X158875789Y-50851897D01*
X158828728Y-50663652D01*
X158828728Y-50334224D01*
X158875789Y-50145980D01*
X158969911Y-50051858D01*
X159064034Y-50004796D01*
X159769951Y-50004796D02*
X160334685Y-50004796D01*
X160052318Y-50993080D02*
X160052318Y-50004796D01*
D11*
%TO.C,D1*%
X149206618Y-80352648D02*
X149206618Y-79840584D01*
X149328538Y-79840584D01*
X149401690Y-79864968D01*
X149450458Y-79913736D01*
X149474842Y-79962504D01*
X149499226Y-80060040D01*
X149499226Y-80133192D01*
X149474842Y-80230728D01*
X149450458Y-80279496D01*
X149401690Y-80328264D01*
X149328538Y-80352648D01*
X149206618Y-80352648D01*
X149986906Y-80352648D02*
X149694298Y-80352648D01*
X149840602Y-80352648D02*
X149840602Y-79840584D01*
X149791834Y-79913736D01*
X149743066Y-79962504D01*
X149694298Y-79986888D01*
D10*
%TO.C,FX2_POT*%
X173089769Y-66477408D02*
X172760341Y-66477408D01*
X172760341Y-66995080D02*
X172760341Y-66006796D01*
X173230952Y-66006796D01*
X173513319Y-66006796D02*
X174172175Y-66995080D01*
X174172175Y-66006796D02*
X173513319Y-66995080D01*
X174501603Y-66100919D02*
X174548664Y-66053858D01*
X174642786Y-66006796D01*
X174878092Y-66006796D01*
X174972214Y-66053858D01*
X175019275Y-66100919D01*
X175066337Y-66195041D01*
X175066337Y-66289163D01*
X175019275Y-66430347D01*
X174454542Y-66995080D01*
X175066337Y-66995080D01*
X175254581Y-67089203D02*
X176007559Y-67089203D01*
X176242865Y-66995080D02*
X176242865Y-66006796D01*
X176619354Y-66006796D01*
X176713477Y-66053858D01*
X176760538Y-66100919D01*
X176807599Y-66195041D01*
X176807599Y-66336224D01*
X176760538Y-66430347D01*
X176713477Y-66477408D01*
X176619354Y-66524469D01*
X176242865Y-66524469D01*
X177419394Y-66006796D02*
X177607638Y-66006796D01*
X177701761Y-66053858D01*
X177795883Y-66147980D01*
X177842944Y-66336224D01*
X177842944Y-66665652D01*
X177795883Y-66853897D01*
X177701761Y-66948019D01*
X177607638Y-66995080D01*
X177419394Y-66995080D01*
X177325271Y-66948019D01*
X177231149Y-66853897D01*
X177184088Y-66665652D01*
X177184088Y-66336224D01*
X177231149Y-66147980D01*
X177325271Y-66053858D01*
X177419394Y-66006796D01*
X178125311Y-66006796D02*
X178690045Y-66006796D01*
X178407678Y-66995080D02*
X178407678Y-66006796D01*
D12*
%TO.C,GATE_OUT_LOOP_START*%
X161369927Y-117664789D02*
X161280287Y-117619968D01*
X161145826Y-117619968D01*
X161011366Y-117664789D01*
X160921726Y-117754429D01*
X160876906Y-117844069D01*
X160832086Y-118023349D01*
X160832086Y-118157810D01*
X160876906Y-118337090D01*
X160921726Y-118426730D01*
X161011366Y-118516370D01*
X161145826Y-118561190D01*
X161235466Y-118561190D01*
X161369927Y-118516370D01*
X161414747Y-118471550D01*
X161414747Y-118157810D01*
X161235466Y-118157810D01*
X161773308Y-118292270D02*
X162221509Y-118292270D01*
X161683667Y-118561190D02*
X161997408Y-117619968D01*
X162311149Y-118561190D01*
X162490429Y-117619968D02*
X163028270Y-117619968D01*
X162759350Y-118561190D02*
X162759350Y-117619968D01*
X163342011Y-118068169D02*
X163655752Y-118068169D01*
X163790212Y-118561190D02*
X163342011Y-118561190D01*
X163342011Y-117619968D01*
X163790212Y-117619968D01*
X163969492Y-118650831D02*
X164686614Y-118650831D01*
X165089995Y-117619968D02*
X165269275Y-117619968D01*
X165358915Y-117664789D01*
X165448555Y-117754429D01*
X165493375Y-117933709D01*
X165493375Y-118247450D01*
X165448555Y-118426730D01*
X165358915Y-118516370D01*
X165269275Y-118561190D01*
X165089995Y-118561190D01*
X165000354Y-118516370D01*
X164910714Y-118426730D01*
X164865894Y-118247450D01*
X164865894Y-117933709D01*
X164910714Y-117754429D01*
X165000354Y-117664789D01*
X165089995Y-117619968D01*
X165896756Y-117619968D02*
X165896756Y-118381910D01*
X165941576Y-118471550D01*
X165986397Y-118516370D01*
X166076037Y-118561190D01*
X166255317Y-118561190D01*
X166344957Y-118516370D01*
X166389777Y-118471550D01*
X166434597Y-118381910D01*
X166434597Y-117619968D01*
X166748338Y-117619968D02*
X167286179Y-117619968D01*
X167017259Y-118561190D02*
X167017259Y-117619968D01*
X167375819Y-118650831D02*
X168092941Y-118650831D01*
X168765242Y-118561190D02*
X168317041Y-118561190D01*
X168317041Y-117619968D01*
X169258263Y-117619968D02*
X169437544Y-117619968D01*
X169527184Y-117664789D01*
X169616824Y-117754429D01*
X169661644Y-117933709D01*
X169661644Y-118247450D01*
X169616824Y-118426730D01*
X169527184Y-118516370D01*
X169437544Y-118561190D01*
X169258263Y-118561190D01*
X169168623Y-118516370D01*
X169078983Y-118426730D01*
X169034163Y-118247450D01*
X169034163Y-117933709D01*
X169078983Y-117754429D01*
X169168623Y-117664789D01*
X169258263Y-117619968D01*
X170244306Y-117619968D02*
X170423586Y-117619968D01*
X170513226Y-117664789D01*
X170602866Y-117754429D01*
X170647686Y-117933709D01*
X170647686Y-118247450D01*
X170602866Y-118426730D01*
X170513226Y-118516370D01*
X170423586Y-118561190D01*
X170244306Y-118561190D01*
X170154665Y-118516370D01*
X170065025Y-118426730D01*
X170020205Y-118247450D01*
X170020205Y-117933709D01*
X170065025Y-117754429D01*
X170154665Y-117664789D01*
X170244306Y-117619968D01*
X171051067Y-118561190D02*
X171051067Y-117619968D01*
X171409628Y-117619968D01*
X171499268Y-117664789D01*
X171544088Y-117709609D01*
X171588908Y-117799249D01*
X171588908Y-117933709D01*
X171544088Y-118023349D01*
X171499268Y-118068169D01*
X171409628Y-118112989D01*
X171051067Y-118112989D01*
X171768189Y-118650831D02*
X172485310Y-118650831D01*
X172664591Y-118516370D02*
X172799051Y-118561190D01*
X173023151Y-118561190D01*
X173112792Y-118516370D01*
X173157612Y-118471550D01*
X173202432Y-118381910D01*
X173202432Y-118292270D01*
X173157612Y-118202630D01*
X173112792Y-118157810D01*
X173023151Y-118112989D01*
X172843871Y-118068169D01*
X172754231Y-118023349D01*
X172709411Y-117978529D01*
X172664591Y-117888889D01*
X172664591Y-117799249D01*
X172709411Y-117709609D01*
X172754231Y-117664789D01*
X172843871Y-117619968D01*
X173067972Y-117619968D01*
X173202432Y-117664789D01*
X173471352Y-117619968D02*
X174009194Y-117619968D01*
X173740273Y-118561190D02*
X173740273Y-117619968D01*
X174278114Y-118292270D02*
X174726315Y-118292270D01*
X174188474Y-118561190D02*
X174502215Y-117619968D01*
X174815955Y-118561190D01*
X175667537Y-118561190D02*
X175353796Y-118112989D01*
X175129696Y-118561190D02*
X175129696Y-117619968D01*
X175488257Y-117619968D01*
X175577897Y-117664789D01*
X175622717Y-117709609D01*
X175667537Y-117799249D01*
X175667537Y-117933709D01*
X175622717Y-118023349D01*
X175577897Y-118068169D01*
X175488257Y-118112989D01*
X175129696Y-118112989D01*
X175936458Y-117619968D02*
X176474299Y-117619968D01*
X176205378Y-118561190D02*
X176205378Y-117619968D01*
D13*
%TO.C,EFX2_ON*%
X173967424Y-83872409D02*
X174352660Y-83872409D01*
X174517761Y-84477780D02*
X173967424Y-84477780D01*
X173967424Y-83322072D01*
X174517761Y-83322072D01*
X175398300Y-83872409D02*
X175013064Y-83872409D01*
X175013064Y-84477780D02*
X175013064Y-83322072D01*
X175563401Y-83322072D01*
X175893604Y-83322072D02*
X176664076Y-84477780D01*
X176664076Y-83322072D02*
X175893604Y-84477780D01*
X177049312Y-83432139D02*
X177104345Y-83377106D01*
X177214413Y-83322072D01*
X177489581Y-83322072D01*
X177599649Y-83377106D01*
X177654683Y-83432139D01*
X177709716Y-83542207D01*
X177709716Y-83652274D01*
X177654683Y-83817375D01*
X176994278Y-84477780D01*
X177709716Y-84477780D01*
X177929851Y-84587847D02*
X178810391Y-84587847D01*
X179305694Y-83322072D02*
X179525829Y-83322072D01*
X179635896Y-83377106D01*
X179745964Y-83487173D01*
X179800997Y-83707308D01*
X179800997Y-84092544D01*
X179745964Y-84312679D01*
X179635896Y-84422746D01*
X179525829Y-84477780D01*
X179305694Y-84477780D01*
X179195627Y-84422746D01*
X179085559Y-84312679D01*
X179030525Y-84092544D01*
X179030525Y-83707308D01*
X179085559Y-83487173D01*
X179195627Y-83377106D01*
X179305694Y-83322072D01*
X180296301Y-84477780D02*
X180296301Y-83322072D01*
X180956705Y-84477780D01*
X180956705Y-83322072D01*
D12*
%TO.C,CV1_DRY*%
X137157747Y-132314550D02*
X137112927Y-132359370D01*
X136978466Y-132404190D01*
X136888826Y-132404190D01*
X136754366Y-132359370D01*
X136664726Y-132269730D01*
X136619906Y-132180090D01*
X136575086Y-132000810D01*
X136575086Y-131866349D01*
X136619906Y-131687069D01*
X136664726Y-131597429D01*
X136754366Y-131507789D01*
X136888826Y-131462968D01*
X136978466Y-131462968D01*
X137112927Y-131507789D01*
X137157747Y-131552609D01*
X137426667Y-131462968D02*
X137740408Y-132404190D01*
X138054149Y-131462968D01*
X138860910Y-132404190D02*
X138323069Y-132404190D01*
X138591990Y-132404190D02*
X138591990Y-131462968D01*
X138502350Y-131597429D01*
X138412709Y-131687069D01*
X138323069Y-131731889D01*
X139040191Y-132493831D02*
X139757312Y-132493831D01*
X139981413Y-132404190D02*
X139981413Y-131462968D01*
X140205513Y-131462968D01*
X140339974Y-131507789D01*
X140429614Y-131597429D01*
X140474434Y-131687069D01*
X140519254Y-131866349D01*
X140519254Y-132000810D01*
X140474434Y-132180090D01*
X140429614Y-132269730D01*
X140339974Y-132359370D01*
X140205513Y-132404190D01*
X139981413Y-132404190D01*
X141460476Y-132404190D02*
X141146735Y-131955989D01*
X140922635Y-132404190D02*
X140922635Y-131462968D01*
X141281196Y-131462968D01*
X141370836Y-131507789D01*
X141415656Y-131552609D01*
X141460476Y-131642249D01*
X141460476Y-131776709D01*
X141415656Y-131866349D01*
X141370836Y-131911169D01*
X141281196Y-131955989D01*
X140922635Y-131955989D01*
X142043137Y-131955989D02*
X142043137Y-132404190D01*
X141729397Y-131462968D02*
X142043137Y-131955989D01*
X142356878Y-131462968D01*
D11*
%TO.C,R3*%
X183111648Y-81564073D02*
X182867808Y-81734761D01*
X183111648Y-81856681D02*
X182599584Y-81856681D01*
X182599584Y-81661609D01*
X182623968Y-81612841D01*
X182648352Y-81588457D01*
X182697120Y-81564073D01*
X182770272Y-81564073D01*
X182819040Y-81588457D01*
X182843424Y-81612841D01*
X182867808Y-81661609D01*
X182867808Y-81856681D01*
X182599584Y-81393385D02*
X182599584Y-81076393D01*
X182794656Y-81247081D01*
X182794656Y-81173929D01*
X182819040Y-81125161D01*
X182843424Y-81100777D01*
X182892192Y-81076393D01*
X183014112Y-81076393D01*
X183062880Y-81100777D01*
X183087264Y-81125161D01*
X183111648Y-81173929D01*
X183111648Y-81320233D01*
X183087264Y-81369001D01*
X183062880Y-81393385D01*
D12*
%TO.C,CV7_EFX1_ON*%
X166266147Y-132314550D02*
X166221327Y-132359370D01*
X166086866Y-132404190D01*
X165997226Y-132404190D01*
X165862766Y-132359370D01*
X165773126Y-132269730D01*
X165728306Y-132180090D01*
X165683486Y-132000810D01*
X165683486Y-131866349D01*
X165728306Y-131687069D01*
X165773126Y-131597429D01*
X165862766Y-131507789D01*
X165997226Y-131462968D01*
X166086866Y-131462968D01*
X166221327Y-131507789D01*
X166266147Y-131552609D01*
X166535067Y-131462968D02*
X166848808Y-132404190D01*
X167162549Y-131462968D01*
X167386649Y-131462968D02*
X168014131Y-131462968D01*
X167610750Y-132404190D01*
X168148591Y-132493831D02*
X168865712Y-132493831D01*
X169089813Y-131911169D02*
X169403553Y-131911169D01*
X169538014Y-132404190D02*
X169089813Y-132404190D01*
X169089813Y-131462968D01*
X169538014Y-131462968D01*
X170255135Y-131911169D02*
X169941395Y-131911169D01*
X169941395Y-132404190D02*
X169941395Y-131462968D01*
X170389596Y-131462968D01*
X170658516Y-131462968D02*
X171285997Y-132404190D01*
X171285997Y-131462968D02*
X170658516Y-132404190D01*
X172137579Y-132404190D02*
X171599738Y-132404190D01*
X171868659Y-132404190D02*
X171868659Y-131462968D01*
X171779019Y-131597429D01*
X171689378Y-131687069D01*
X171599738Y-131731889D01*
X172316860Y-132493831D02*
X173033981Y-132493831D01*
X173437362Y-131462968D02*
X173616642Y-131462968D01*
X173706283Y-131507789D01*
X173795923Y-131597429D01*
X173840743Y-131776709D01*
X173840743Y-132090450D01*
X173795923Y-132269730D01*
X173706283Y-132359370D01*
X173616642Y-132404190D01*
X173437362Y-132404190D01*
X173347722Y-132359370D01*
X173258082Y-132269730D01*
X173213262Y-132090450D01*
X173213262Y-131776709D01*
X173258082Y-131597429D01*
X173347722Y-131507789D01*
X173437362Y-131462968D01*
X174244124Y-132404190D02*
X174244124Y-131462968D01*
X174781965Y-132404190D01*
X174781965Y-131462968D01*
D13*
%TO.C,PLAY*%
X159447124Y-84477780D02*
X159447124Y-83322072D01*
X159887393Y-83322072D01*
X159997461Y-83377106D01*
X160052495Y-83432139D01*
X160107528Y-83542207D01*
X160107528Y-83707308D01*
X160052495Y-83817375D01*
X159997461Y-83872409D01*
X159887393Y-83927443D01*
X159447124Y-83927443D01*
X161153169Y-84477780D02*
X160602832Y-84477780D01*
X160602832Y-83322072D01*
X161483371Y-84147578D02*
X162033708Y-84147578D01*
X161373304Y-84477780D02*
X161758540Y-83322072D01*
X162143776Y-84477780D01*
X162749147Y-83927443D02*
X162749147Y-84477780D01*
X162363911Y-83322072D02*
X162749147Y-83927443D01*
X163134383Y-83322072D01*
D11*
%TO.C,R5*%
X140058648Y-81564073D02*
X139814808Y-81734761D01*
X140058648Y-81856681D02*
X139546584Y-81856681D01*
X139546584Y-81661609D01*
X139570968Y-81612841D01*
X139595352Y-81588457D01*
X139644120Y-81564073D01*
X139717272Y-81564073D01*
X139766040Y-81588457D01*
X139790424Y-81612841D01*
X139814808Y-81661609D01*
X139814808Y-81856681D01*
X139546584Y-81100777D02*
X139546584Y-81344617D01*
X139790424Y-81369001D01*
X139766040Y-81344617D01*
X139741656Y-81295849D01*
X139741656Y-81173929D01*
X139766040Y-81125161D01*
X139790424Y-81100777D01*
X139839192Y-81076393D01*
X139961112Y-81076393D01*
X140009880Y-81100777D01*
X140034264Y-81125161D01*
X140058648Y-81173929D01*
X140058648Y-81295849D01*
X140034264Y-81344617D01*
X140009880Y-81369001D01*
D13*
%TO.C,RESET*%
X174627828Y-109496780D02*
X174242592Y-108946443D01*
X173967424Y-109496780D02*
X173967424Y-108341072D01*
X174407693Y-108341072D01*
X174517761Y-108396106D01*
X174572795Y-108451139D01*
X174627828Y-108561207D01*
X174627828Y-108726308D01*
X174572795Y-108836375D01*
X174517761Y-108891409D01*
X174407693Y-108946443D01*
X173967424Y-108946443D01*
X175123132Y-108891409D02*
X175508368Y-108891409D01*
X175673469Y-109496780D02*
X175123132Y-109496780D01*
X175123132Y-108341072D01*
X175673469Y-108341072D01*
X176113739Y-109441746D02*
X176278840Y-109496780D01*
X176554008Y-109496780D01*
X176664076Y-109441746D01*
X176719109Y-109386712D01*
X176774143Y-109276645D01*
X176774143Y-109166578D01*
X176719109Y-109056510D01*
X176664076Y-109001476D01*
X176554008Y-108946443D01*
X176333873Y-108891409D01*
X176223806Y-108836375D01*
X176168772Y-108781342D01*
X176113739Y-108671274D01*
X176113739Y-108561207D01*
X176168772Y-108451139D01*
X176223806Y-108396106D01*
X176333873Y-108341072D01*
X176609042Y-108341072D01*
X176774143Y-108396106D01*
X177269447Y-108891409D02*
X177654683Y-108891409D01*
X177819784Y-109496780D02*
X177269447Y-109496780D01*
X177269447Y-108341072D01*
X177819784Y-108341072D01*
X178149986Y-108341072D02*
X178810391Y-108341072D01*
X178480188Y-109496780D02*
X178480188Y-108341072D01*
D12*
%TO.C,GATE_IN_PLAY*%
X171021927Y-117664789D02*
X170932287Y-117619968D01*
X170797826Y-117619968D01*
X170663366Y-117664789D01*
X170573726Y-117754429D01*
X170528906Y-117844069D01*
X170484086Y-118023349D01*
X170484086Y-118157810D01*
X170528906Y-118337090D01*
X170573726Y-118426730D01*
X170663366Y-118516370D01*
X170797826Y-118561190D01*
X170887466Y-118561190D01*
X171021927Y-118516370D01*
X171066747Y-118471550D01*
X171066747Y-118157810D01*
X170887466Y-118157810D01*
X171425308Y-118292270D02*
X171873509Y-118292270D01*
X171335667Y-118561190D02*
X171649408Y-117619968D01*
X171963149Y-118561190D01*
X172142429Y-117619968D02*
X172680270Y-117619968D01*
X172411350Y-118561190D02*
X172411350Y-117619968D01*
X172994011Y-118068169D02*
X173307752Y-118068169D01*
X173442212Y-118561190D02*
X172994011Y-118561190D01*
X172994011Y-117619968D01*
X173442212Y-117619968D01*
X173621492Y-118650831D02*
X174338614Y-118650831D01*
X174562714Y-118561190D02*
X174562714Y-117619968D01*
X175010915Y-118561190D02*
X175010915Y-117619968D01*
X175548756Y-118561190D01*
X175548756Y-117619968D01*
X175772857Y-118650831D02*
X176489978Y-118650831D01*
X176714079Y-118561190D02*
X176714079Y-117619968D01*
X177072640Y-117619968D01*
X177162280Y-117664789D01*
X177207100Y-117709609D01*
X177251920Y-117799249D01*
X177251920Y-117933709D01*
X177207100Y-118023349D01*
X177162280Y-118068169D01*
X177072640Y-118112989D01*
X176714079Y-118112989D01*
X178103502Y-118561190D02*
X177655301Y-118561190D01*
X177655301Y-117619968D01*
X178372422Y-118292270D02*
X178820623Y-118292270D01*
X178282782Y-118561190D02*
X178596523Y-117619968D01*
X178910263Y-118561190D01*
X179403285Y-118112989D02*
X179403285Y-118561190D01*
X179089544Y-117619968D02*
X179403285Y-118112989D01*
X179717025Y-117619968D01*
D10*
%TO.C,DECAY_POT*%
X152694341Y-66995080D02*
X152694341Y-66006796D01*
X152929646Y-66006796D01*
X153070830Y-66053858D01*
X153164952Y-66147980D01*
X153212013Y-66242102D01*
X153259074Y-66430347D01*
X153259074Y-66571530D01*
X153212013Y-66759775D01*
X153164952Y-66853897D01*
X153070830Y-66948019D01*
X152929646Y-66995080D01*
X152694341Y-66995080D01*
X153682625Y-66477408D02*
X154012053Y-66477408D01*
X154153236Y-66995080D02*
X153682625Y-66995080D01*
X153682625Y-66006796D01*
X154153236Y-66006796D01*
X155141520Y-66900958D02*
X155094459Y-66948019D01*
X154953275Y-66995080D01*
X154859153Y-66995080D01*
X154717970Y-66948019D01*
X154623847Y-66853897D01*
X154576786Y-66759775D01*
X154529725Y-66571530D01*
X154529725Y-66430347D01*
X154576786Y-66242102D01*
X154623847Y-66147980D01*
X154717970Y-66053858D01*
X154859153Y-66006796D01*
X154953275Y-66006796D01*
X155094459Y-66053858D01*
X155141520Y-66100919D01*
X155518009Y-66712714D02*
X155988621Y-66712714D01*
X155423887Y-66995080D02*
X155753315Y-66006796D01*
X156082743Y-66995080D01*
X156600415Y-66524469D02*
X156600415Y-66995080D01*
X156270987Y-66006796D02*
X156600415Y-66524469D01*
X156929843Y-66006796D01*
X157023966Y-67089203D02*
X157776944Y-67089203D01*
X158012250Y-66995080D02*
X158012250Y-66006796D01*
X158388739Y-66006796D01*
X158482861Y-66053858D01*
X158529922Y-66100919D01*
X158576983Y-66195041D01*
X158576983Y-66336224D01*
X158529922Y-66430347D01*
X158482861Y-66477408D01*
X158388739Y-66524469D01*
X158012250Y-66524469D01*
X159188778Y-66006796D02*
X159377023Y-66006796D01*
X159471145Y-66053858D01*
X159565267Y-66147980D01*
X159612329Y-66336224D01*
X159612329Y-66665652D01*
X159565267Y-66853897D01*
X159471145Y-66948019D01*
X159377023Y-66995080D01*
X159188778Y-66995080D01*
X159094656Y-66948019D01*
X159000534Y-66853897D01*
X158953473Y-66665652D01*
X158953473Y-66336224D01*
X159000534Y-66147980D01*
X159094656Y-66053858D01*
X159188778Y-66006796D01*
X159894695Y-66006796D02*
X160459429Y-66006796D01*
X160177062Y-66995080D02*
X160177062Y-66006796D01*
D14*
%TO.C,LED2*%
X181755795Y-81507416D02*
X181205461Y-81507416D01*
X181205461Y-80351716D01*
X182141028Y-80902050D02*
X182526261Y-80902050D01*
X182691361Y-81507416D02*
X182141028Y-81507416D01*
X182141028Y-80351716D01*
X182691361Y-80351716D01*
X183186661Y-81507416D02*
X183186661Y-80351716D01*
X183461828Y-80351716D01*
X183626928Y-80406750D01*
X183736995Y-80516816D01*
X183792028Y-80626883D01*
X183847061Y-80847016D01*
X183847061Y-81012116D01*
X183792028Y-81232250D01*
X183736995Y-81342316D01*
X183626928Y-81452383D01*
X183461828Y-81507416D01*
X183186661Y-81507416D01*
X184287328Y-80461783D02*
X184342361Y-80406750D01*
X184452428Y-80351716D01*
X184727595Y-80351716D01*
X184837661Y-80406750D01*
X184892695Y-80461783D01*
X184947728Y-80571850D01*
X184947728Y-80681916D01*
X184892695Y-80847016D01*
X184232295Y-81507416D01*
X184947728Y-81507416D01*
D13*
%TO.C,EFX_1_ON*%
X130406424Y-83872409D02*
X130791660Y-83872409D01*
X130956761Y-84477780D02*
X130406424Y-84477780D01*
X130406424Y-83322072D01*
X130956761Y-83322072D01*
X131837300Y-83872409D02*
X131452064Y-83872409D01*
X131452064Y-84477780D02*
X131452064Y-83322072D01*
X132002401Y-83322072D01*
X132332604Y-83322072D02*
X133103076Y-84477780D01*
X133103076Y-83322072D02*
X132332604Y-84477780D01*
X133268177Y-84587847D02*
X134148716Y-84587847D01*
X135029256Y-84477780D02*
X134368851Y-84477780D01*
X134699053Y-84477780D02*
X134699053Y-83322072D01*
X134588986Y-83487173D01*
X134478919Y-83597240D01*
X134368851Y-83652274D01*
X135249391Y-84587847D02*
X136129930Y-84587847D01*
X136625233Y-83322072D02*
X136845368Y-83322072D01*
X136955436Y-83377106D01*
X137065503Y-83487173D01*
X137120537Y-83707308D01*
X137120537Y-84092544D01*
X137065503Y-84312679D01*
X136955436Y-84422746D01*
X136845368Y-84477780D01*
X136625233Y-84477780D01*
X136515166Y-84422746D01*
X136405099Y-84312679D01*
X136350065Y-84092544D01*
X136350065Y-83707308D01*
X136405099Y-83487173D01*
X136515166Y-83377106D01*
X136625233Y-83322072D01*
X137615840Y-84477780D02*
X137615840Y-83322072D01*
X138276245Y-84477780D01*
X138276245Y-83322072D01*
D12*
%TO.C,CV8_EFX2_ON*%
X166266147Y-146157550D02*
X166221327Y-146202370D01*
X166086866Y-146247190D01*
X165997226Y-146247190D01*
X165862766Y-146202370D01*
X165773126Y-146112730D01*
X165728306Y-146023090D01*
X165683486Y-145843810D01*
X165683486Y-145709349D01*
X165728306Y-145530069D01*
X165773126Y-145440429D01*
X165862766Y-145350789D01*
X165997226Y-145305968D01*
X166086866Y-145305968D01*
X166221327Y-145350789D01*
X166266147Y-145395609D01*
X166535067Y-145305968D02*
X166848808Y-146247190D01*
X167162549Y-145305968D01*
X167610750Y-145709349D02*
X167521109Y-145664529D01*
X167476289Y-145619709D01*
X167431469Y-145530069D01*
X167431469Y-145485249D01*
X167476289Y-145395609D01*
X167521109Y-145350789D01*
X167610750Y-145305968D01*
X167790030Y-145305968D01*
X167879670Y-145350789D01*
X167924490Y-145395609D01*
X167969310Y-145485249D01*
X167969310Y-145530069D01*
X167924490Y-145619709D01*
X167879670Y-145664529D01*
X167790030Y-145709349D01*
X167610750Y-145709349D01*
X167521109Y-145754169D01*
X167476289Y-145798989D01*
X167431469Y-145888630D01*
X167431469Y-146067910D01*
X167476289Y-146157550D01*
X167521109Y-146202370D01*
X167610750Y-146247190D01*
X167790030Y-146247190D01*
X167879670Y-146202370D01*
X167924490Y-146157550D01*
X167969310Y-146067910D01*
X167969310Y-145888630D01*
X167924490Y-145798989D01*
X167879670Y-145754169D01*
X167790030Y-145709349D01*
X168148591Y-146336831D02*
X168865712Y-146336831D01*
X169089813Y-145754169D02*
X169403553Y-145754169D01*
X169538014Y-146247190D02*
X169089813Y-146247190D01*
X169089813Y-145305968D01*
X169538014Y-145305968D01*
X170255135Y-145754169D02*
X169941395Y-145754169D01*
X169941395Y-146247190D02*
X169941395Y-145305968D01*
X170389596Y-145305968D01*
X170658516Y-145305968D02*
X171285997Y-146247190D01*
X171285997Y-145305968D02*
X170658516Y-146247190D01*
X171599738Y-145395609D02*
X171644558Y-145350789D01*
X171734198Y-145305968D01*
X171958299Y-145305968D01*
X172047939Y-145350789D01*
X172092759Y-145395609D01*
X172137579Y-145485249D01*
X172137579Y-145574889D01*
X172092759Y-145709349D01*
X171554918Y-146247190D01*
X172137579Y-146247190D01*
X172316860Y-146336831D02*
X173033981Y-146336831D01*
X173437362Y-145305968D02*
X173616642Y-145305968D01*
X173706283Y-145350789D01*
X173795923Y-145440429D01*
X173840743Y-145619709D01*
X173840743Y-145933450D01*
X173795923Y-146112730D01*
X173706283Y-146202370D01*
X173616642Y-146247190D01*
X173437362Y-146247190D01*
X173347722Y-146202370D01*
X173258082Y-146112730D01*
X173213262Y-145933450D01*
X173213262Y-145619709D01*
X173258082Y-145440429D01*
X173347722Y-145350789D01*
X173437362Y-145305968D01*
X174244124Y-146247190D02*
X174244124Y-145305968D01*
X174781965Y-146247190D01*
X174781965Y-145305968D01*
D10*
%TO.C,DRY_POT*%
X132755341Y-50993080D02*
X132755341Y-50004796D01*
X132990646Y-50004796D01*
X133131830Y-50051858D01*
X133225952Y-50145980D01*
X133273013Y-50240102D01*
X133320074Y-50428347D01*
X133320074Y-50569530D01*
X133273013Y-50757775D01*
X133225952Y-50851897D01*
X133131830Y-50946019D01*
X132990646Y-50993080D01*
X132755341Y-50993080D01*
X134308358Y-50993080D02*
X133978930Y-50522469D01*
X133743625Y-50993080D02*
X133743625Y-50004796D01*
X134120114Y-50004796D01*
X134214236Y-50051858D01*
X134261297Y-50098919D01*
X134308358Y-50193041D01*
X134308358Y-50334224D01*
X134261297Y-50428347D01*
X134214236Y-50475408D01*
X134120114Y-50522469D01*
X133743625Y-50522469D01*
X134920153Y-50522469D02*
X134920153Y-50993080D01*
X134590725Y-50004796D02*
X134920153Y-50522469D01*
X135249581Y-50004796D01*
X135343703Y-51087203D02*
X136096682Y-51087203D01*
X136331987Y-50993080D02*
X136331987Y-50004796D01*
X136708477Y-50004796D01*
X136802599Y-50051858D01*
X136849660Y-50098919D01*
X136896721Y-50193041D01*
X136896721Y-50334224D01*
X136849660Y-50428347D01*
X136802599Y-50475408D01*
X136708477Y-50522469D01*
X136331987Y-50522469D01*
X137508516Y-50004796D02*
X137696761Y-50004796D01*
X137790883Y-50051858D01*
X137885005Y-50145980D01*
X137932066Y-50334224D01*
X137932066Y-50663652D01*
X137885005Y-50851897D01*
X137790883Y-50946019D01*
X137696761Y-50993080D01*
X137508516Y-50993080D01*
X137414394Y-50946019D01*
X137320271Y-50851897D01*
X137273210Y-50663652D01*
X137273210Y-50334224D01*
X137320271Y-50145980D01*
X137414394Y-50051858D01*
X137508516Y-50004796D01*
X138214433Y-50004796D02*
X138779167Y-50004796D01*
X138496800Y-50993080D02*
X138496800Y-50004796D01*
D12*
%TO.C,CV4_DECAY*%
X146860547Y-146157550D02*
X146815727Y-146202370D01*
X146681266Y-146247190D01*
X146591626Y-146247190D01*
X146457166Y-146202370D01*
X146367526Y-146112730D01*
X146322706Y-146023090D01*
X146277886Y-145843810D01*
X146277886Y-145709349D01*
X146322706Y-145530069D01*
X146367526Y-145440429D01*
X146457166Y-145350789D01*
X146591626Y-145305968D01*
X146681266Y-145305968D01*
X146815727Y-145350789D01*
X146860547Y-145395609D01*
X147129467Y-145305968D02*
X147443208Y-146247190D01*
X147756949Y-145305968D01*
X148474070Y-145619709D02*
X148474070Y-146247190D01*
X148249970Y-145261148D02*
X148025869Y-145933450D01*
X148608531Y-145933450D01*
X148742991Y-146336831D02*
X149460112Y-146336831D01*
X149684213Y-146247190D02*
X149684213Y-145305968D01*
X149908313Y-145305968D01*
X150042774Y-145350789D01*
X150132414Y-145440429D01*
X150177234Y-145530069D01*
X150222054Y-145709349D01*
X150222054Y-145843810D01*
X150177234Y-146023090D01*
X150132414Y-146112730D01*
X150042774Y-146202370D01*
X149908313Y-146247190D01*
X149684213Y-146247190D01*
X150625435Y-145754169D02*
X150939175Y-145754169D01*
X151073636Y-146247190D02*
X150625435Y-146247190D01*
X150625435Y-145305968D01*
X151073636Y-145305968D01*
X152014858Y-146157550D02*
X151970038Y-146202370D01*
X151835577Y-146247190D01*
X151745937Y-146247190D01*
X151611477Y-146202370D01*
X151521837Y-146112730D01*
X151477017Y-146023090D01*
X151432197Y-145843810D01*
X151432197Y-145709349D01*
X151477017Y-145530069D01*
X151521837Y-145440429D01*
X151611477Y-145350789D01*
X151745937Y-145305968D01*
X151835577Y-145305968D01*
X151970038Y-145350789D01*
X152014858Y-145395609D01*
X152373419Y-145978270D02*
X152821619Y-145978270D01*
X152283778Y-146247190D02*
X152597519Y-145305968D01*
X152911260Y-146247190D01*
X153404281Y-145798989D02*
X153404281Y-146247190D01*
X153090540Y-145305968D02*
X153404281Y-145798989D01*
X153718021Y-145305968D01*
D13*
%TO.C,EFX1_SEL*%
X130406424Y-96381909D02*
X130791660Y-96381909D01*
X130956761Y-96987280D02*
X130406424Y-96987280D01*
X130406424Y-95831572D01*
X130956761Y-95831572D01*
X131837300Y-96381909D02*
X131452064Y-96381909D01*
X131452064Y-96987280D02*
X131452064Y-95831572D01*
X132002401Y-95831572D01*
X132332604Y-95831572D02*
X133103076Y-96987280D01*
X133103076Y-95831572D02*
X132332604Y-96987280D01*
X134148716Y-96987280D02*
X133488312Y-96987280D01*
X133818514Y-96987280D02*
X133818514Y-95831572D01*
X133708447Y-95996673D01*
X133598379Y-96106740D01*
X133488312Y-96161774D01*
X134368851Y-97097347D02*
X135249391Y-97097347D01*
X135469525Y-96932246D02*
X135634627Y-96987280D01*
X135909795Y-96987280D01*
X136019863Y-96932246D01*
X136074896Y-96877212D01*
X136129930Y-96767145D01*
X136129930Y-96657078D01*
X136074896Y-96547010D01*
X136019863Y-96491976D01*
X135909795Y-96436943D01*
X135689660Y-96381909D01*
X135579593Y-96326875D01*
X135524559Y-96271842D01*
X135469525Y-96161774D01*
X135469525Y-96051707D01*
X135524559Y-95941639D01*
X135579593Y-95886606D01*
X135689660Y-95831572D01*
X135964829Y-95831572D01*
X136129930Y-95886606D01*
X136625233Y-96381909D02*
X137010469Y-96381909D01*
X137175571Y-96987280D02*
X136625233Y-96987280D01*
X136625233Y-95831572D01*
X137175571Y-95831572D01*
X138221211Y-96987280D02*
X137670874Y-96987280D01*
X137670874Y-95831572D01*
D11*
%TO.C,R4*%
X172570648Y-82690614D02*
X172326808Y-82861302D01*
X172570648Y-82983222D02*
X172058584Y-82983222D01*
X172058584Y-82788150D01*
X172082968Y-82739382D01*
X172107352Y-82714998D01*
X172156120Y-82690614D01*
X172229272Y-82690614D01*
X172278040Y-82714998D01*
X172302424Y-82739382D01*
X172326808Y-82788150D01*
X172326808Y-82983222D01*
X172229272Y-82251702D02*
X172570648Y-82251702D01*
X172034200Y-82373622D02*
X172399960Y-82495542D01*
X172399960Y-82178550D01*
D14*
%TO.C,LED1*%
X138194795Y-80999416D02*
X137644461Y-80999416D01*
X137644461Y-79843716D01*
X138580028Y-80394050D02*
X138965261Y-80394050D01*
X139130361Y-80999416D02*
X138580028Y-80999416D01*
X138580028Y-79843716D01*
X139130361Y-79843716D01*
X139625661Y-80999416D02*
X139625661Y-79843716D01*
X139900828Y-79843716D01*
X140065928Y-79898750D01*
X140175995Y-80008816D01*
X140231028Y-80118883D01*
X140286061Y-80339016D01*
X140286061Y-80504116D01*
X140231028Y-80724250D01*
X140175995Y-80834316D01*
X140065928Y-80944383D01*
X139900828Y-80999416D01*
X139625661Y-80999416D01*
X141386728Y-80999416D02*
X140726328Y-80999416D01*
X141056528Y-80999416D02*
X141056528Y-79843716D01*
X140946461Y-80008816D01*
X140836395Y-80118883D01*
X140726328Y-80173916D01*
D12*
%TO.C,CV5_FX1_PARAM*%
X156563347Y-132314550D02*
X156518527Y-132359370D01*
X156384066Y-132404190D01*
X156294426Y-132404190D01*
X156159966Y-132359370D01*
X156070326Y-132269730D01*
X156025506Y-132180090D01*
X155980686Y-132000810D01*
X155980686Y-131866349D01*
X156025506Y-131687069D01*
X156070326Y-131597429D01*
X156159966Y-131507789D01*
X156294426Y-131462968D01*
X156384066Y-131462968D01*
X156518527Y-131507789D01*
X156563347Y-131552609D01*
X156832267Y-131462968D02*
X157146008Y-132404190D01*
X157459749Y-131462968D01*
X158221690Y-131462968D02*
X157773489Y-131462968D01*
X157728669Y-131911169D01*
X157773489Y-131866349D01*
X157863130Y-131821529D01*
X158087230Y-131821529D01*
X158176870Y-131866349D01*
X158221690Y-131911169D01*
X158266510Y-132000810D01*
X158266510Y-132224910D01*
X158221690Y-132314550D01*
X158176870Y-132359370D01*
X158087230Y-132404190D01*
X157863130Y-132404190D01*
X157773489Y-132359370D01*
X157728669Y-132314550D01*
X158445791Y-132493831D02*
X159162912Y-132493831D01*
X159700753Y-131911169D02*
X159387013Y-131911169D01*
X159387013Y-132404190D02*
X159387013Y-131462968D01*
X159835214Y-131462968D01*
X160104134Y-131462968D02*
X160731616Y-132404190D01*
X160731616Y-131462968D02*
X160104134Y-132404190D01*
X161583197Y-132404190D02*
X161045356Y-132404190D01*
X161314277Y-132404190D02*
X161314277Y-131462968D01*
X161224637Y-131597429D01*
X161134997Y-131687069D01*
X161045356Y-131731889D01*
X161762478Y-132493831D02*
X162479599Y-132493831D01*
X162703700Y-132404190D02*
X162703700Y-131462968D01*
X163062261Y-131462968D01*
X163151901Y-131507789D01*
X163196721Y-131552609D01*
X163241541Y-131642249D01*
X163241541Y-131776709D01*
X163196721Y-131866349D01*
X163151901Y-131911169D01*
X163062261Y-131955989D01*
X162703700Y-131955989D01*
X163600102Y-132135270D02*
X164048303Y-132135270D01*
X163510462Y-132404190D02*
X163824202Y-131462968D01*
X164137943Y-132404190D01*
X164989525Y-132404190D02*
X164675784Y-131955989D01*
X164451684Y-132404190D02*
X164451684Y-131462968D01*
X164810244Y-131462968D01*
X164899885Y-131507789D01*
X164944705Y-131552609D01*
X164989525Y-131642249D01*
X164989525Y-131776709D01*
X164944705Y-131866349D01*
X164899885Y-131911169D01*
X164810244Y-131955989D01*
X164451684Y-131955989D01*
X165348085Y-132135270D02*
X165796286Y-132135270D01*
X165258445Y-132404190D02*
X165572186Y-131462968D01*
X165885927Y-132404190D01*
X166199667Y-132404190D02*
X166199667Y-131462968D01*
X166513408Y-132135270D01*
X166827149Y-131462968D01*
X166827149Y-132404190D01*
D13*
%TO.C,EFX2_SEL*%
X173967424Y-96381909D02*
X174352660Y-96381909D01*
X174517761Y-96987280D02*
X173967424Y-96987280D01*
X173967424Y-95831572D01*
X174517761Y-95831572D01*
X175398300Y-96381909D02*
X175013064Y-96381909D01*
X175013064Y-96987280D02*
X175013064Y-95831572D01*
X175563401Y-95831572D01*
X175893604Y-95831572D02*
X176664076Y-96987280D01*
X176664076Y-95831572D02*
X175893604Y-96987280D01*
X177049312Y-95941639D02*
X177104345Y-95886606D01*
X177214413Y-95831572D01*
X177489581Y-95831572D01*
X177599649Y-95886606D01*
X177654683Y-95941639D01*
X177709716Y-96051707D01*
X177709716Y-96161774D01*
X177654683Y-96326875D01*
X176994278Y-96987280D01*
X177709716Y-96987280D01*
X177929851Y-97097347D02*
X178810391Y-97097347D01*
X179030525Y-96932246D02*
X179195627Y-96987280D01*
X179470795Y-96987280D01*
X179580863Y-96932246D01*
X179635896Y-96877212D01*
X179690930Y-96767145D01*
X179690930Y-96657078D01*
X179635896Y-96547010D01*
X179580863Y-96491976D01*
X179470795Y-96436943D01*
X179250660Y-96381909D01*
X179140593Y-96326875D01*
X179085559Y-96271842D01*
X179030525Y-96161774D01*
X179030525Y-96051707D01*
X179085559Y-95941639D01*
X179140593Y-95886606D01*
X179250660Y-95831572D01*
X179525829Y-95831572D01*
X179690930Y-95886606D01*
X180186233Y-96381909D02*
X180571469Y-96381909D01*
X180736571Y-96987280D02*
X180186233Y-96987280D01*
X180186233Y-95831572D01*
X180736571Y-95831572D01*
X181782211Y-96987280D02*
X181231874Y-96987280D01*
X181231874Y-95831572D01*
D12*
%TO.C,AUDIO_OUT_R*%
X185089086Y-145978270D02*
X185537287Y-145978270D01*
X184999445Y-146247190D02*
X185313186Y-145305968D01*
X185626927Y-146247190D01*
X185940667Y-145305968D02*
X185940667Y-146067910D01*
X185985487Y-146157550D01*
X186030308Y-146202370D01*
X186119948Y-146247190D01*
X186299228Y-146247190D01*
X186388868Y-146202370D01*
X186433688Y-146157550D01*
X186478509Y-146067910D01*
X186478509Y-145305968D01*
X186926709Y-146247190D02*
X186926709Y-145305968D01*
X187150810Y-145305968D01*
X187285270Y-145350789D01*
X187374910Y-145440429D01*
X187419731Y-145530069D01*
X187464551Y-145709349D01*
X187464551Y-145843810D01*
X187419731Y-146023090D01*
X187374910Y-146112730D01*
X187285270Y-146202370D01*
X187150810Y-146247190D01*
X186926709Y-146247190D01*
X187867931Y-146247190D02*
X187867931Y-145305968D01*
X188495413Y-145305968D02*
X188674693Y-145305968D01*
X188764333Y-145350789D01*
X188853974Y-145440429D01*
X188898794Y-145619709D01*
X188898794Y-145933450D01*
X188853974Y-146112730D01*
X188764333Y-146202370D01*
X188674693Y-146247190D01*
X188495413Y-146247190D01*
X188405773Y-146202370D01*
X188316132Y-146112730D01*
X188271312Y-145933450D01*
X188271312Y-145619709D01*
X188316132Y-145440429D01*
X188405773Y-145350789D01*
X188495413Y-145305968D01*
X189078074Y-146336831D02*
X189795196Y-146336831D01*
X190198576Y-145305968D02*
X190377857Y-145305968D01*
X190467497Y-145350789D01*
X190557137Y-145440429D01*
X190601957Y-145619709D01*
X190601957Y-145933450D01*
X190557137Y-146112730D01*
X190467497Y-146202370D01*
X190377857Y-146247190D01*
X190198576Y-146247190D01*
X190108936Y-146202370D01*
X190019296Y-146112730D01*
X189974476Y-145933450D01*
X189974476Y-145619709D01*
X190019296Y-145440429D01*
X190108936Y-145350789D01*
X190198576Y-145305968D01*
X191005338Y-145305968D02*
X191005338Y-146067910D01*
X191050158Y-146157550D01*
X191094978Y-146202370D01*
X191184619Y-146247190D01*
X191363899Y-146247190D01*
X191453539Y-146202370D01*
X191498359Y-146157550D01*
X191543179Y-146067910D01*
X191543179Y-145305968D01*
X191856920Y-145305968D02*
X192394761Y-145305968D01*
X192125841Y-146247190D02*
X192125841Y-145305968D01*
X192484401Y-146336831D02*
X193201523Y-146336831D01*
X193963464Y-146247190D02*
X193649724Y-145798989D01*
X193425623Y-146247190D02*
X193425623Y-145305968D01*
X193784184Y-145305968D01*
X193873824Y-145350789D01*
X193918644Y-145395609D01*
X193963464Y-145485249D01*
X193963464Y-145619709D01*
X193918644Y-145709349D01*
X193873824Y-145754169D01*
X193784184Y-145798989D01*
X193425623Y-145798989D01*
D13*
%TO.C,RECORD*%
X145587128Y-84477780D02*
X145201892Y-83927443D01*
X144926724Y-84477780D02*
X144926724Y-83322072D01*
X145366993Y-83322072D01*
X145477061Y-83377106D01*
X145532095Y-83432139D01*
X145587128Y-83542207D01*
X145587128Y-83707308D01*
X145532095Y-83817375D01*
X145477061Y-83872409D01*
X145366993Y-83927443D01*
X144926724Y-83927443D01*
X146082432Y-83872409D02*
X146467668Y-83872409D01*
X146632769Y-84477780D02*
X146082432Y-84477780D01*
X146082432Y-83322072D01*
X146632769Y-83322072D01*
X147788477Y-84367712D02*
X147733443Y-84422746D01*
X147568342Y-84477780D01*
X147458275Y-84477780D01*
X147293173Y-84422746D01*
X147183106Y-84312679D01*
X147128072Y-84202611D01*
X147073039Y-83982476D01*
X147073039Y-83817375D01*
X147128072Y-83597240D01*
X147183106Y-83487173D01*
X147293173Y-83377106D01*
X147458275Y-83322072D01*
X147568342Y-83322072D01*
X147733443Y-83377106D01*
X147788477Y-83432139D01*
X148503915Y-83322072D02*
X148724050Y-83322072D01*
X148834117Y-83377106D01*
X148944185Y-83487173D01*
X148999219Y-83707308D01*
X148999219Y-84092544D01*
X148944185Y-84312679D01*
X148834117Y-84422746D01*
X148724050Y-84477780D01*
X148503915Y-84477780D01*
X148393848Y-84422746D01*
X148283780Y-84312679D01*
X148228747Y-84092544D01*
X148228747Y-83707308D01*
X148283780Y-83487173D01*
X148393848Y-83377106D01*
X148503915Y-83322072D01*
X150154927Y-84477780D02*
X149769691Y-83927443D01*
X149494522Y-84477780D02*
X149494522Y-83322072D01*
X149934792Y-83322072D01*
X150044859Y-83377106D01*
X150099893Y-83432139D01*
X150154927Y-83542207D01*
X150154927Y-83707308D01*
X150099893Y-83817375D01*
X150044859Y-83872409D01*
X149934792Y-83927443D01*
X149494522Y-83927443D01*
X150650230Y-84477780D02*
X150650230Y-83322072D01*
X150925399Y-83322072D01*
X151090500Y-83377106D01*
X151200567Y-83487173D01*
X151255601Y-83597240D01*
X151310635Y-83817375D01*
X151310635Y-83982476D01*
X151255601Y-84202611D01*
X151200567Y-84312679D01*
X151090500Y-84422746D01*
X150925399Y-84477780D01*
X150650230Y-84477780D01*
D12*
%TO.C,GATE_IN_RECORD*%
X151590927Y-117664789D02*
X151501287Y-117619968D01*
X151366826Y-117619968D01*
X151232366Y-117664789D01*
X151142726Y-117754429D01*
X151097906Y-117844069D01*
X151053086Y-118023349D01*
X151053086Y-118157810D01*
X151097906Y-118337090D01*
X151142726Y-118426730D01*
X151232366Y-118516370D01*
X151366826Y-118561190D01*
X151456466Y-118561190D01*
X151590927Y-118516370D01*
X151635747Y-118471550D01*
X151635747Y-118157810D01*
X151456466Y-118157810D01*
X151994308Y-118292270D02*
X152442509Y-118292270D01*
X151904667Y-118561190D02*
X152218408Y-117619968D01*
X152532149Y-118561190D01*
X152711429Y-117619968D02*
X153249270Y-117619968D01*
X152980350Y-118561190D02*
X152980350Y-117619968D01*
X153563011Y-118068169D02*
X153876752Y-118068169D01*
X154011212Y-118561190D02*
X153563011Y-118561190D01*
X153563011Y-117619968D01*
X154011212Y-117619968D01*
X154190492Y-118650831D02*
X154907614Y-118650831D01*
X155131714Y-118561190D02*
X155131714Y-117619968D01*
X155579915Y-118561190D02*
X155579915Y-117619968D01*
X156117756Y-118561190D01*
X156117756Y-117619968D01*
X156341857Y-118650831D02*
X157058978Y-118650831D01*
X157820920Y-118561190D02*
X157507179Y-118112989D01*
X157283079Y-118561190D02*
X157283079Y-117619968D01*
X157641640Y-117619968D01*
X157731280Y-117664789D01*
X157776100Y-117709609D01*
X157820920Y-117799249D01*
X157820920Y-117933709D01*
X157776100Y-118023349D01*
X157731280Y-118068169D01*
X157641640Y-118112989D01*
X157283079Y-118112989D01*
X158224301Y-118068169D02*
X158538041Y-118068169D01*
X158672502Y-118561190D02*
X158224301Y-118561190D01*
X158224301Y-117619968D01*
X158672502Y-117619968D01*
X159613724Y-118471550D02*
X159568904Y-118516370D01*
X159434443Y-118561190D01*
X159344803Y-118561190D01*
X159210343Y-118516370D01*
X159120703Y-118426730D01*
X159075883Y-118337090D01*
X159031063Y-118157810D01*
X159031063Y-118023349D01*
X159075883Y-117844069D01*
X159120703Y-117754429D01*
X159210343Y-117664789D01*
X159344803Y-117619968D01*
X159434443Y-117619968D01*
X159568904Y-117664789D01*
X159613724Y-117709609D01*
X160196385Y-117619968D02*
X160375665Y-117619968D01*
X160465306Y-117664789D01*
X160554946Y-117754429D01*
X160599766Y-117933709D01*
X160599766Y-118247450D01*
X160554946Y-118426730D01*
X160465306Y-118516370D01*
X160375665Y-118561190D01*
X160196385Y-118561190D01*
X160106745Y-118516370D01*
X160017105Y-118426730D01*
X159972285Y-118247450D01*
X159972285Y-117933709D01*
X160017105Y-117754429D01*
X160106745Y-117664789D01*
X160196385Y-117619968D01*
X161540988Y-118561190D02*
X161227247Y-118112989D01*
X161003147Y-118561190D02*
X161003147Y-117619968D01*
X161361707Y-117619968D01*
X161451348Y-117664789D01*
X161496168Y-117709609D01*
X161540988Y-117799249D01*
X161540988Y-117933709D01*
X161496168Y-118023349D01*
X161451348Y-118068169D01*
X161361707Y-118112989D01*
X161003147Y-118112989D01*
X161944369Y-118561190D02*
X161944369Y-117619968D01*
X162168469Y-117619968D01*
X162302929Y-117664789D01*
X162392570Y-117754429D01*
X162437390Y-117844069D01*
X162482210Y-118023349D01*
X162482210Y-118157810D01*
X162437390Y-118337090D01*
X162392570Y-118426730D01*
X162302929Y-118516370D01*
X162168469Y-118561190D01*
X161944369Y-118561190D01*
%TO.C,AUDIO_OUT_L*%
X175386286Y-145978270D02*
X175834487Y-145978270D01*
X175296645Y-146247190D02*
X175610386Y-145305968D01*
X175924127Y-146247190D01*
X176237867Y-145305968D02*
X176237867Y-146067910D01*
X176282687Y-146157550D01*
X176327508Y-146202370D01*
X176417148Y-146247190D01*
X176596428Y-146247190D01*
X176686068Y-146202370D01*
X176730888Y-146157550D01*
X176775709Y-146067910D01*
X176775709Y-145305968D01*
X177223909Y-146247190D02*
X177223909Y-145305968D01*
X177448010Y-145305968D01*
X177582470Y-145350789D01*
X177672110Y-145440429D01*
X177716931Y-145530069D01*
X177761751Y-145709349D01*
X177761751Y-145843810D01*
X177716931Y-146023090D01*
X177672110Y-146112730D01*
X177582470Y-146202370D01*
X177448010Y-146247190D01*
X177223909Y-146247190D01*
X178165131Y-146247190D02*
X178165131Y-145305968D01*
X178792613Y-145305968D02*
X178971893Y-145305968D01*
X179061533Y-145350789D01*
X179151174Y-145440429D01*
X179195994Y-145619709D01*
X179195994Y-145933450D01*
X179151174Y-146112730D01*
X179061533Y-146202370D01*
X178971893Y-146247190D01*
X178792613Y-146247190D01*
X178702973Y-146202370D01*
X178613332Y-146112730D01*
X178568512Y-145933450D01*
X178568512Y-145619709D01*
X178613332Y-145440429D01*
X178702973Y-145350789D01*
X178792613Y-145305968D01*
X179375274Y-146336831D02*
X180092396Y-146336831D01*
X180495776Y-145305968D02*
X180675057Y-145305968D01*
X180764697Y-145350789D01*
X180854337Y-145440429D01*
X180899157Y-145619709D01*
X180899157Y-145933450D01*
X180854337Y-146112730D01*
X180764697Y-146202370D01*
X180675057Y-146247190D01*
X180495776Y-146247190D01*
X180406136Y-146202370D01*
X180316496Y-146112730D01*
X180271676Y-145933450D01*
X180271676Y-145619709D01*
X180316496Y-145440429D01*
X180406136Y-145350789D01*
X180495776Y-145305968D01*
X181302538Y-145305968D02*
X181302538Y-146067910D01*
X181347358Y-146157550D01*
X181392178Y-146202370D01*
X181481819Y-146247190D01*
X181661099Y-146247190D01*
X181750739Y-146202370D01*
X181795559Y-146157550D01*
X181840379Y-146067910D01*
X181840379Y-145305968D01*
X182154120Y-145305968D02*
X182691961Y-145305968D01*
X182423041Y-146247190D02*
X182423041Y-145305968D01*
X182781601Y-146336831D02*
X183498723Y-146336831D01*
X184171024Y-146247190D02*
X183722823Y-146247190D01*
X183722823Y-145305968D01*
D14*
%TO.C,C2*%
X163450861Y-94138750D02*
X163395828Y-94193783D01*
X163230728Y-94248816D01*
X163120661Y-94248816D01*
X162955561Y-94193783D01*
X162845495Y-94083716D01*
X162790461Y-93973650D01*
X162735428Y-93753516D01*
X162735428Y-93588416D01*
X162790461Y-93368283D01*
X162845495Y-93258216D01*
X162955561Y-93148150D01*
X163120661Y-93093116D01*
X163230728Y-93093116D01*
X163395828Y-93148150D01*
X163450861Y-93203183D01*
X163891128Y-93203183D02*
X163946161Y-93148150D01*
X164056228Y-93093116D01*
X164331395Y-93093116D01*
X164441461Y-93148150D01*
X164496495Y-93203183D01*
X164551528Y-93313250D01*
X164551528Y-93423316D01*
X164496495Y-93588416D01*
X163836095Y-94248816D01*
X164551528Y-94248816D01*
D11*
%TO.C,D2*%
X163727018Y-80479648D02*
X163727018Y-79967584D01*
X163848938Y-79967584D01*
X163922090Y-79991968D01*
X163970858Y-80040736D01*
X163995242Y-80089504D01*
X164019626Y-80187040D01*
X164019626Y-80260192D01*
X163995242Y-80357728D01*
X163970858Y-80406496D01*
X163922090Y-80455264D01*
X163848938Y-80479648D01*
X163727018Y-80479648D01*
X164214698Y-80016352D02*
X164239082Y-79991968D01*
X164287850Y-79967584D01*
X164409770Y-79967584D01*
X164458538Y-79991968D01*
X164482922Y-80016352D01*
X164507306Y-80065120D01*
X164507306Y-80113888D01*
X164482922Y-80187040D01*
X164190314Y-80479648D01*
X164507306Y-80479648D01*
D12*
%TO.C,AUDIO_IN_R*%
X175386286Y-132135270D02*
X175834487Y-132135270D01*
X175296645Y-132404190D02*
X175610386Y-131462968D01*
X175924127Y-132404190D01*
X176237867Y-131462968D02*
X176237867Y-132224910D01*
X176282687Y-132314550D01*
X176327508Y-132359370D01*
X176417148Y-132404190D01*
X176596428Y-132404190D01*
X176686068Y-132359370D01*
X176730888Y-132314550D01*
X176775709Y-132224910D01*
X176775709Y-131462968D01*
X177223909Y-132404190D02*
X177223909Y-131462968D01*
X177448010Y-131462968D01*
X177582470Y-131507789D01*
X177672110Y-131597429D01*
X177716931Y-131687069D01*
X177761751Y-131866349D01*
X177761751Y-132000810D01*
X177716931Y-132180090D01*
X177672110Y-132269730D01*
X177582470Y-132359370D01*
X177448010Y-132404190D01*
X177223909Y-132404190D01*
X178165131Y-132404190D02*
X178165131Y-131462968D01*
X178792613Y-131462968D02*
X178971893Y-131462968D01*
X179061533Y-131507789D01*
X179151174Y-131597429D01*
X179195994Y-131776709D01*
X179195994Y-132090450D01*
X179151174Y-132269730D01*
X179061533Y-132359370D01*
X178971893Y-132404190D01*
X178792613Y-132404190D01*
X178702973Y-132359370D01*
X178613332Y-132269730D01*
X178568512Y-132090450D01*
X178568512Y-131776709D01*
X178613332Y-131597429D01*
X178702973Y-131507789D01*
X178792613Y-131462968D01*
X179375274Y-132493831D02*
X180092396Y-132493831D01*
X180316496Y-132404190D02*
X180316496Y-131462968D01*
X180764697Y-132404190D02*
X180764697Y-131462968D01*
X181302538Y-132404190D01*
X181302538Y-131462968D01*
X181526639Y-132493831D02*
X182243760Y-132493831D01*
X183005702Y-132404190D02*
X182691961Y-131955989D01*
X182467861Y-132404190D02*
X182467861Y-131462968D01*
X182826421Y-131462968D01*
X182916062Y-131507789D01*
X182960882Y-131552609D01*
X183005702Y-131642249D01*
X183005702Y-131776709D01*
X182960882Y-131866349D01*
X182916062Y-131911169D01*
X182826421Y-131955989D01*
X182467861Y-131955989D01*
D10*
%TO.C,WET_POT*%
X132661218Y-66006796D02*
X132896524Y-66995080D01*
X133084769Y-66289163D01*
X133273013Y-66995080D01*
X133508319Y-66006796D01*
X133884808Y-66477408D02*
X134214236Y-66477408D01*
X134355419Y-66995080D02*
X133884808Y-66995080D01*
X133884808Y-66006796D01*
X134355419Y-66006796D01*
X134637786Y-66006796D02*
X135202520Y-66006796D01*
X134920153Y-66995080D02*
X134920153Y-66006796D01*
X135296642Y-67089203D02*
X136049621Y-67089203D01*
X136284926Y-66995080D02*
X136284926Y-66006796D01*
X136661415Y-66006796D01*
X136755538Y-66053858D01*
X136802599Y-66100919D01*
X136849660Y-66195041D01*
X136849660Y-66336224D01*
X136802599Y-66430347D01*
X136755538Y-66477408D01*
X136661415Y-66524469D01*
X136284926Y-66524469D01*
X137461455Y-66006796D02*
X137649699Y-66006796D01*
X137743822Y-66053858D01*
X137837944Y-66147980D01*
X137885005Y-66336224D01*
X137885005Y-66665652D01*
X137837944Y-66853897D01*
X137743822Y-66948019D01*
X137649699Y-66995080D01*
X137461455Y-66995080D01*
X137367333Y-66948019D01*
X137273210Y-66853897D01*
X137226149Y-66665652D01*
X137226149Y-66336224D01*
X137273210Y-66147980D01*
X137367333Y-66053858D01*
X137461455Y-66006796D01*
X138167372Y-66006796D02*
X138732106Y-66006796D01*
X138449739Y-66995080D02*
X138449739Y-66006796D01*
D12*
%TO.C,AUDIO_IN_L*%
X185089086Y-132135270D02*
X185537287Y-132135270D01*
X184999445Y-132404190D02*
X185313186Y-131462968D01*
X185626927Y-132404190D01*
X185940667Y-131462968D02*
X185940667Y-132224910D01*
X185985487Y-132314550D01*
X186030308Y-132359370D01*
X186119948Y-132404190D01*
X186299228Y-132404190D01*
X186388868Y-132359370D01*
X186433688Y-132314550D01*
X186478509Y-132224910D01*
X186478509Y-131462968D01*
X186926709Y-132404190D02*
X186926709Y-131462968D01*
X187150810Y-131462968D01*
X187285270Y-131507789D01*
X187374910Y-131597429D01*
X187419731Y-131687069D01*
X187464551Y-131866349D01*
X187464551Y-132000810D01*
X187419731Y-132180090D01*
X187374910Y-132269730D01*
X187285270Y-132359370D01*
X187150810Y-132404190D01*
X186926709Y-132404190D01*
X187867931Y-132404190D02*
X187867931Y-131462968D01*
X188495413Y-131462968D02*
X188674693Y-131462968D01*
X188764333Y-131507789D01*
X188853974Y-131597429D01*
X188898794Y-131776709D01*
X188898794Y-132090450D01*
X188853974Y-132269730D01*
X188764333Y-132359370D01*
X188674693Y-132404190D01*
X188495413Y-132404190D01*
X188405773Y-132359370D01*
X188316132Y-132269730D01*
X188271312Y-132090450D01*
X188271312Y-131776709D01*
X188316132Y-131597429D01*
X188405773Y-131507789D01*
X188495413Y-131462968D01*
X189078074Y-132493831D02*
X189795196Y-132493831D01*
X190019296Y-132404190D02*
X190019296Y-131462968D01*
X190467497Y-132404190D02*
X190467497Y-131462968D01*
X191005338Y-132404190D01*
X191005338Y-131462968D01*
X191229439Y-132493831D02*
X191946560Y-132493831D01*
X192618862Y-132404190D02*
X192170661Y-132404190D01*
X192170661Y-131462968D01*
%TO.C,CV2_WET*%
X137157747Y-146157550D02*
X137112927Y-146202370D01*
X136978466Y-146247190D01*
X136888826Y-146247190D01*
X136754366Y-146202370D01*
X136664726Y-146112730D01*
X136619906Y-146023090D01*
X136575086Y-145843810D01*
X136575086Y-145709349D01*
X136619906Y-145530069D01*
X136664726Y-145440429D01*
X136754366Y-145350789D01*
X136888826Y-145305968D01*
X136978466Y-145305968D01*
X137112927Y-145350789D01*
X137157747Y-145395609D01*
X137426667Y-145305968D02*
X137740408Y-146247190D01*
X138054149Y-145305968D01*
X138323069Y-145395609D02*
X138367889Y-145350789D01*
X138457530Y-145305968D01*
X138681630Y-145305968D01*
X138771270Y-145350789D01*
X138816090Y-145395609D01*
X138860910Y-145485249D01*
X138860910Y-145574889D01*
X138816090Y-145709349D01*
X138278249Y-146247190D01*
X138860910Y-146247190D01*
X139040191Y-146336831D02*
X139757312Y-146336831D01*
X139891773Y-145305968D02*
X140115873Y-146247190D01*
X140295153Y-145574889D01*
X140474434Y-146247190D01*
X140698534Y-145305968D01*
X141057095Y-145754169D02*
X141370836Y-145754169D01*
X141505296Y-146247190D02*
X141057095Y-146247190D01*
X141057095Y-145305968D01*
X141505296Y-145305968D01*
X141774217Y-145305968D02*
X142312058Y-145305968D01*
X142043137Y-146247190D02*
X142043137Y-145305968D01*
D10*
%TO.C,FX1_POT*%
X173089769Y-50475408D02*
X172760341Y-50475408D01*
X172760341Y-50993080D02*
X172760341Y-50004796D01*
X173230952Y-50004796D01*
X173513319Y-50004796D02*
X174172175Y-50993080D01*
X174172175Y-50004796D02*
X173513319Y-50993080D01*
X175066337Y-50993080D02*
X174501603Y-50993080D01*
X174783970Y-50993080D02*
X174783970Y-50004796D01*
X174689847Y-50145980D01*
X174595725Y-50240102D01*
X174501603Y-50287163D01*
X175254581Y-51087203D02*
X176007559Y-51087203D01*
X176242865Y-50993080D02*
X176242865Y-50004796D01*
X176619354Y-50004796D01*
X176713477Y-50051858D01*
X176760538Y-50098919D01*
X176807599Y-50193041D01*
X176807599Y-50334224D01*
X176760538Y-50428347D01*
X176713477Y-50475408D01*
X176619354Y-50522469D01*
X176242865Y-50522469D01*
X177419394Y-50004796D02*
X177607638Y-50004796D01*
X177701761Y-50051858D01*
X177795883Y-50145980D01*
X177842944Y-50334224D01*
X177842944Y-50663652D01*
X177795883Y-50851897D01*
X177701761Y-50946019D01*
X177607638Y-50993080D01*
X177419394Y-50993080D01*
X177325271Y-50946019D01*
X177231149Y-50851897D01*
X177184088Y-50663652D01*
X177184088Y-50334224D01*
X177231149Y-50145980D01*
X177325271Y-50051858D01*
X177419394Y-50004796D01*
X178125311Y-50004796D02*
X178690045Y-50004796D01*
X178407678Y-50993080D02*
X178407678Y-50004796D01*
D15*
%TO.C,G\u002A\u002A\u002A*%
X154740428Y-93091000D02*
X154595285Y-93018428D01*
X154377571Y-93018428D01*
X154159857Y-93091000D01*
X154014714Y-93236142D01*
X153942142Y-93381285D01*
X153869571Y-93671571D01*
X153869571Y-93889285D01*
X153942142Y-94179571D01*
X154014714Y-94324714D01*
X154159857Y-94469857D01*
X154377571Y-94542428D01*
X154522714Y-94542428D01*
X154740428Y-94469857D01*
X154813000Y-94397285D01*
X154813000Y-93889285D01*
X154522714Y-93889285D01*
X155683857Y-93018428D02*
X155683857Y-93381285D01*
X155321000Y-93236142D02*
X155683857Y-93381285D01*
X156046714Y-93236142D01*
X155466142Y-93671571D02*
X155683857Y-93381285D01*
X155901571Y-93671571D01*
X156845000Y-93018428D02*
X156845000Y-93381285D01*
X156482142Y-93236142D02*
X156845000Y-93381285D01*
X157207857Y-93236142D01*
X156627285Y-93671571D02*
X156845000Y-93381285D01*
X157062714Y-93671571D01*
X158006142Y-93018428D02*
X158006142Y-93381285D01*
X157643285Y-93236142D02*
X158006142Y-93381285D01*
X158369000Y-93236142D01*
X157788428Y-93671571D02*
X158006142Y-93381285D01*
X158223857Y-93671571D01*
D12*
%TO.C,CV3_LAYERS*%
X146860547Y-132314550D02*
X146815727Y-132359370D01*
X146681266Y-132404190D01*
X146591626Y-132404190D01*
X146457166Y-132359370D01*
X146367526Y-132269730D01*
X146322706Y-132180090D01*
X146277886Y-132000810D01*
X146277886Y-131866349D01*
X146322706Y-131687069D01*
X146367526Y-131597429D01*
X146457166Y-131507789D01*
X146591626Y-131462968D01*
X146681266Y-131462968D01*
X146815727Y-131507789D01*
X146860547Y-131552609D01*
X147129467Y-131462968D02*
X147443208Y-132404190D01*
X147756949Y-131462968D01*
X147981049Y-131462968D02*
X148563710Y-131462968D01*
X148249970Y-131821529D01*
X148384430Y-131821529D01*
X148474070Y-131866349D01*
X148518890Y-131911169D01*
X148563710Y-132000810D01*
X148563710Y-132224910D01*
X148518890Y-132314550D01*
X148474070Y-132359370D01*
X148384430Y-132404190D01*
X148115509Y-132404190D01*
X148025869Y-132359370D01*
X147981049Y-132314550D01*
X148742991Y-132493831D02*
X149460112Y-132493831D01*
X150132414Y-132404190D02*
X149684213Y-132404190D01*
X149684213Y-131462968D01*
X150401334Y-132135270D02*
X150849535Y-132135270D01*
X150311694Y-132404190D02*
X150625435Y-131462968D01*
X150939175Y-132404190D01*
X151432197Y-131955989D02*
X151432197Y-132404190D01*
X151118456Y-131462968D02*
X151432197Y-131955989D01*
X151745937Y-131462968D01*
X152059678Y-131911169D02*
X152373419Y-131911169D01*
X152507879Y-132404190D02*
X152059678Y-132404190D01*
X152059678Y-131462968D01*
X152507879Y-131462968D01*
X153449101Y-132404190D02*
X153135360Y-131955989D01*
X152911260Y-132404190D02*
X152911260Y-131462968D01*
X153269820Y-131462968D01*
X153359461Y-131507789D01*
X153404281Y-131552609D01*
X153449101Y-131642249D01*
X153449101Y-131776709D01*
X153404281Y-131866349D01*
X153359461Y-131911169D01*
X153269820Y-131955989D01*
X152911260Y-131955989D01*
X153807662Y-132359370D02*
X153942122Y-132404190D01*
X154166222Y-132404190D01*
X154255863Y-132359370D01*
X154300683Y-132314550D01*
X154345503Y-132224910D01*
X154345503Y-132135270D01*
X154300683Y-132045630D01*
X154255863Y-132000810D01*
X154166222Y-131955989D01*
X153986942Y-131911169D01*
X153897302Y-131866349D01*
X153852482Y-131821529D01*
X153807662Y-131731889D01*
X153807662Y-131642249D01*
X153852482Y-131552609D01*
X153897302Y-131507789D01*
X153986942Y-131462968D01*
X154211042Y-131462968D01*
X154345503Y-131507789D01*
%TO.C,CV6_FX2_PARAM*%
X156563347Y-146157550D02*
X156518527Y-146202370D01*
X156384066Y-146247190D01*
X156294426Y-146247190D01*
X156159966Y-146202370D01*
X156070326Y-146112730D01*
X156025506Y-146023090D01*
X155980686Y-145843810D01*
X155980686Y-145709349D01*
X156025506Y-145530069D01*
X156070326Y-145440429D01*
X156159966Y-145350789D01*
X156294426Y-145305968D01*
X156384066Y-145305968D01*
X156518527Y-145350789D01*
X156563347Y-145395609D01*
X156832267Y-145305968D02*
X157146008Y-146247190D01*
X157459749Y-145305968D01*
X158176870Y-145305968D02*
X157997590Y-145305968D01*
X157907950Y-145350789D01*
X157863130Y-145395609D01*
X157773489Y-145530069D01*
X157728669Y-145709349D01*
X157728669Y-146067910D01*
X157773489Y-146157550D01*
X157818309Y-146202370D01*
X157907950Y-146247190D01*
X158087230Y-146247190D01*
X158176870Y-146202370D01*
X158221690Y-146157550D01*
X158266510Y-146067910D01*
X158266510Y-145843810D01*
X158221690Y-145754169D01*
X158176870Y-145709349D01*
X158087230Y-145664529D01*
X157907950Y-145664529D01*
X157818309Y-145709349D01*
X157773489Y-145754169D01*
X157728669Y-145843810D01*
X158445791Y-146336831D02*
X159162912Y-146336831D01*
X159700753Y-145754169D02*
X159387013Y-145754169D01*
X159387013Y-146247190D02*
X159387013Y-145305968D01*
X159835214Y-145305968D01*
X160104134Y-145305968D02*
X160731616Y-146247190D01*
X160731616Y-145305968D02*
X160104134Y-146247190D01*
X161045356Y-145395609D02*
X161090176Y-145350789D01*
X161179817Y-145305968D01*
X161403917Y-145305968D01*
X161493557Y-145350789D01*
X161538377Y-145395609D01*
X161583197Y-145485249D01*
X161583197Y-145574889D01*
X161538377Y-145709349D01*
X161000536Y-146247190D01*
X161583197Y-146247190D01*
X161762478Y-146336831D02*
X162479599Y-146336831D01*
X162703700Y-146247190D02*
X162703700Y-145305968D01*
X163062261Y-145305968D01*
X163151901Y-145350789D01*
X163196721Y-145395609D01*
X163241541Y-145485249D01*
X163241541Y-145619709D01*
X163196721Y-145709349D01*
X163151901Y-145754169D01*
X163062261Y-145798989D01*
X162703700Y-145798989D01*
X163600102Y-145978270D02*
X164048303Y-145978270D01*
X163510462Y-146247190D02*
X163824202Y-145305968D01*
X164137943Y-146247190D01*
X164989525Y-146247190D02*
X164675784Y-145798989D01*
X164451684Y-146247190D02*
X164451684Y-145305968D01*
X164810244Y-145305968D01*
X164899885Y-145350789D01*
X164944705Y-145395609D01*
X164989525Y-145485249D01*
X164989525Y-145619709D01*
X164944705Y-145709349D01*
X164899885Y-145754169D01*
X164810244Y-145798989D01*
X164451684Y-145798989D01*
X165348085Y-145978270D02*
X165796286Y-145978270D01*
X165258445Y-146247190D02*
X165572186Y-145305968D01*
X165885927Y-146247190D01*
X166199667Y-146247190D02*
X166199667Y-145305968D01*
X166513408Y-145978270D01*
X166827149Y-145305968D01*
X166827149Y-146247190D01*
D11*
%TO.C,R6*%
X130533648Y-82690614D02*
X130289808Y-82861302D01*
X130533648Y-82983222D02*
X130021584Y-82983222D01*
X130021584Y-82788150D01*
X130045968Y-82739382D01*
X130070352Y-82714998D01*
X130119120Y-82690614D01*
X130192272Y-82690614D01*
X130241040Y-82714998D01*
X130265424Y-82739382D01*
X130289808Y-82788150D01*
X130289808Y-82983222D01*
X130021584Y-82251702D02*
X130021584Y-82349238D01*
X130045968Y-82398006D01*
X130070352Y-82422390D01*
X130143504Y-82471158D01*
X130241040Y-82495542D01*
X130436112Y-82495542D01*
X130484880Y-82471158D01*
X130509264Y-82446774D01*
X130533648Y-82398006D01*
X130533648Y-82300470D01*
X130509264Y-82251702D01*
X130484880Y-82227318D01*
X130436112Y-82202934D01*
X130314192Y-82202934D01*
X130265424Y-82227318D01*
X130241040Y-82251702D01*
X130216656Y-82300470D01*
X130216656Y-82398006D01*
X130241040Y-82446774D01*
X130265424Y-82471158D01*
X130314192Y-82495542D01*
D16*
%TO.C,LAYER_POT*%
X160931500Y-55236000D02*
X160931500Y-58436000D01*
X152181500Y-47686000D02*
X152181500Y-48236000D01*
X151631500Y-58436000D02*
X151631500Y-55236000D01*
X151631500Y-58436000D02*
X152181500Y-58436000D01*
X152181500Y-48236000D02*
X151631500Y-48236000D01*
X160381500Y-58436000D02*
X160931500Y-58436000D01*
X151631500Y-50436000D02*
X151631500Y-48236000D01*
X160381500Y-58986000D02*
X152181500Y-58986000D01*
X160381500Y-48236000D02*
X160381500Y-47686000D01*
X152181500Y-47686000D02*
X160381500Y-47686000D01*
X160931500Y-48236000D02*
X160381500Y-48236000D01*
X152181500Y-58436000D02*
X152181500Y-58986000D01*
X160381500Y-58986000D02*
X160381500Y-58436000D01*
X160931500Y-48236000D02*
X160931500Y-50436000D01*
D17*
X157297500Y-53086000D02*
G75*
G03*
X157297500Y-53086000I-1016000J0D01*
G01*
X157678500Y-53086000D02*
G75*
G03*
X157678500Y-53086000I-1397000J0D01*
G01*
D18*
%TO.C,D1*%
X150596100Y-81111600D02*
X150596100Y-81619600D01*
X150596100Y-83702400D02*
X150596100Y-83245200D01*
X147257000Y-83415200D02*
G75*
G03*
X149021300Y-84439000I1764241J1008196D01*
G01*
X149021300Y-80375000D02*
G75*
G03*
X147228400Y-81450800I60J-2032000D01*
G01*
X150582300Y-81106100D02*
G75*
G03*
X149021300Y-80375000I-1560986J-1300897D01*
G01*
X149021300Y-84439000D02*
G75*
G03*
X150572500Y-83719600I36J2032003D01*
G01*
D16*
%TO.C,FX2_POT*%
X180934000Y-71238000D02*
X180934000Y-74438000D01*
X180384000Y-74438000D02*
X180934000Y-74438000D01*
X172184000Y-74438000D02*
X172184000Y-74988000D01*
X180384000Y-74988000D02*
X172184000Y-74988000D01*
X172184000Y-64238000D02*
X171634000Y-64238000D01*
X180384000Y-74988000D02*
X180384000Y-74438000D01*
X172184000Y-63688000D02*
X172184000Y-64238000D01*
X180934000Y-64238000D02*
X180384000Y-64238000D01*
X171634000Y-74438000D02*
X172184000Y-74438000D01*
X171634000Y-74438000D02*
X171634000Y-71238000D01*
X171634000Y-66438000D02*
X171634000Y-64238000D01*
X180934000Y-64238000D02*
X180934000Y-66438000D01*
X172184000Y-63688000D02*
X180384000Y-63688000D01*
X180384000Y-64238000D02*
X180384000Y-63688000D01*
D17*
X177300000Y-69088000D02*
G75*
G03*
X177300000Y-69088000I-1016000J0D01*
G01*
X177681000Y-69088000D02*
G75*
G03*
X177681000Y-69088000I-1397000J0D01*
G01*
D19*
%TO.C,GATE_OUT_LOOP_START*%
X160083000Y-107411000D02*
X160583000Y-107411000D01*
X160583000Y-117911000D02*
X160083000Y-117911000D01*
X151583000Y-117911000D02*
X152083000Y-117911000D01*
X151583000Y-107911000D02*
X151583000Y-107411000D01*
X151583000Y-107411000D02*
X152083000Y-107411000D01*
X151583000Y-117411000D02*
X151583000Y-117911000D01*
X160583000Y-117411000D02*
X160583000Y-117911000D01*
X160583000Y-107411000D02*
X160583000Y-107911000D01*
X158773721Y-113411000D02*
G75*
G03*
X158773721Y-113411000I-2690721J0D01*
G01*
D17*
%TO.C,EFX2_ON*%
X179332000Y-85979000D02*
X179332000Y-85773000D01*
D20*
X175903000Y-91773000D02*
X176792000Y-91773000D01*
X181062000Y-88011000D02*
X181062000Y-87757000D01*
X179205000Y-91773000D02*
X180221000Y-91773000D01*
X181062000Y-89535000D02*
X181062000Y-89789000D01*
X180221000Y-85773000D02*
X179332000Y-85773000D01*
X175062000Y-88011000D02*
X175062000Y-87757000D01*
X176792000Y-85773000D02*
X175903000Y-85773000D01*
X176792000Y-91773000D02*
X179205000Y-91773000D01*
D17*
X176792000Y-91567000D02*
X176792000Y-91773000D01*
D20*
X175062000Y-89535000D02*
X175062000Y-89789000D01*
D17*
X179205000Y-91567000D02*
X179205000Y-91773000D01*
X179205000Y-91567000D02*
X176792000Y-91567000D01*
D20*
X179332000Y-85773000D02*
X176792000Y-85773000D01*
D17*
X176792000Y-85773000D02*
X176792000Y-85979000D01*
X179332000Y-85979000D02*
X176792000Y-85979000D01*
D21*
X174337000Y-85173000D02*
G75*
G03*
X174337000Y-85173000I-125000J0D01*
G01*
D20*
X179812000Y-88773000D02*
G75*
G03*
X179812000Y-88773000I-1750000J0D01*
G01*
D19*
%TO.C,CV1_DRY*%
X135826000Y-121254000D02*
X136326000Y-121254000D01*
X127326000Y-121254000D02*
X127826000Y-121254000D01*
X136326000Y-121254000D02*
X136326000Y-121754000D01*
X127326000Y-131254000D02*
X127326000Y-131754000D01*
X127326000Y-121754000D02*
X127326000Y-121254000D01*
X136326000Y-131254000D02*
X136326000Y-131754000D01*
X136326000Y-131754000D02*
X135826000Y-131754000D01*
X127326000Y-131754000D02*
X127826000Y-131754000D01*
X134516721Y-127254000D02*
G75*
G03*
X134516721Y-127254000I-2690721J0D01*
G01*
D16*
%TO.C,R3*%
X183134000Y-84582000D02*
X183134000Y-79502000D01*
X184658000Y-79502000D02*
X184658000Y-84582000D01*
X183896000Y-84582000D02*
X183896000Y-84836000D01*
X183134000Y-79502000D02*
X183896000Y-79502000D01*
X183896000Y-79502000D02*
X184658000Y-79502000D01*
X183896000Y-84582000D02*
X183134000Y-84582000D01*
X183896000Y-79502000D02*
X183896000Y-79248000D01*
X184658000Y-84582000D02*
X183896000Y-84582000D01*
D19*
%TO.C,CV7_EFX1_ON*%
X164934400Y-121254000D02*
X165434400Y-121254000D01*
X165434400Y-131254000D02*
X165434400Y-131754000D01*
X156434400Y-131754000D02*
X156934400Y-131754000D01*
X156434400Y-131254000D02*
X156434400Y-131754000D01*
X165434400Y-121254000D02*
X165434400Y-121754000D01*
X156434400Y-121754000D02*
X156434400Y-121254000D01*
X165434400Y-131754000D02*
X164934400Y-131754000D01*
X156434400Y-121254000D02*
X156934400Y-121254000D01*
X163625121Y-127254000D02*
G75*
G03*
X163625121Y-127254000I-2690721J0D01*
G01*
D20*
%TO.C,PLAY*%
X166541700Y-88011000D02*
X166541700Y-87757000D01*
D17*
X162271700Y-91567000D02*
X162271700Y-91773000D01*
X164811700Y-85979000D02*
X162271700Y-85979000D01*
X164684700Y-91567000D02*
X162271700Y-91567000D01*
D20*
X160541700Y-88011000D02*
X160541700Y-87757000D01*
X161382700Y-91773000D02*
X162271700Y-91773000D01*
X162271700Y-85773000D02*
X161382700Y-85773000D01*
X162271700Y-91773000D02*
X164684700Y-91773000D01*
X166541700Y-89535000D02*
X166541700Y-89789000D01*
X164684700Y-91773000D02*
X165700700Y-91773000D01*
D17*
X164811700Y-85979000D02*
X164811700Y-85773000D01*
X164684700Y-91567000D02*
X164684700Y-91773000D01*
D20*
X160541700Y-89535000D02*
X160541700Y-89789000D01*
X165700700Y-85773000D02*
X164811700Y-85773000D01*
D17*
X162271700Y-85773000D02*
X162271700Y-85979000D01*
D20*
X164811700Y-85773000D02*
X162271700Y-85773000D01*
D21*
X159816700Y-85173000D02*
G75*
G03*
X159816700Y-85173000I-125000J0D01*
G01*
D20*
X165291700Y-88773000D02*
G75*
G03*
X165291700Y-88773000I-1750000J0D01*
G01*
D16*
%TO.C,R5*%
X141605000Y-79502000D02*
X141605000Y-84582000D01*
X140843000Y-84582000D02*
X140843000Y-84836000D01*
X140843000Y-79502000D02*
X141605000Y-79502000D01*
X141605000Y-84582000D02*
X140843000Y-84582000D01*
X140081000Y-79502000D02*
X140843000Y-79502000D01*
X140843000Y-79502000D02*
X140843000Y-79248000D01*
X140081000Y-84582000D02*
X140081000Y-79502000D01*
X140843000Y-84582000D02*
X140081000Y-84582000D01*
D20*
%TO.C,RESET*%
X175062000Y-113030000D02*
X175062000Y-112776000D01*
D17*
X179205000Y-116586000D02*
X179205000Y-116792000D01*
D20*
X176792000Y-116792000D02*
X179205000Y-116792000D01*
X179205000Y-116792000D02*
X180221000Y-116792000D01*
D17*
X179332000Y-110998000D02*
X176792000Y-110998000D01*
X176792000Y-110792000D02*
X176792000Y-110998000D01*
X179205000Y-116586000D02*
X176792000Y-116586000D01*
D20*
X175062000Y-114554000D02*
X175062000Y-114808000D01*
D17*
X179332000Y-110998000D02*
X179332000Y-110792000D01*
D20*
X176792000Y-110792000D02*
X175903000Y-110792000D01*
X175903000Y-116792000D02*
X176792000Y-116792000D01*
X181062000Y-114554000D02*
X181062000Y-114808000D01*
X181062000Y-113030000D02*
X181062000Y-112776000D01*
X180221000Y-110792000D02*
X179332000Y-110792000D01*
D17*
X176792000Y-116586000D02*
X176792000Y-116792000D01*
D20*
X179332000Y-110792000D02*
X176792000Y-110792000D01*
X179812000Y-113792000D02*
G75*
G03*
X179812000Y-113792000I-1750000J0D01*
G01*
D21*
X174337000Y-110192000D02*
G75*
G03*
X174337000Y-110192000I-125000J0D01*
G01*
D19*
%TO.C,GATE_IN_PLAY*%
X161235000Y-117911000D02*
X161735000Y-117911000D01*
X161235000Y-117411000D02*
X161235000Y-117911000D01*
X161235000Y-107411000D02*
X161735000Y-107411000D01*
X170235000Y-117411000D02*
X170235000Y-117911000D01*
X170235000Y-117911000D02*
X169735000Y-117911000D01*
X161235000Y-107911000D02*
X161235000Y-107411000D01*
X170235000Y-107411000D02*
X170235000Y-107911000D01*
X169735000Y-107411000D02*
X170235000Y-107411000D01*
X168425721Y-113411000D02*
G75*
G03*
X168425721Y-113411000I-2690721J0D01*
G01*
D16*
%TO.C,DECAY_POT*%
X152118000Y-74438000D02*
X152118000Y-74988000D01*
X160868000Y-71238000D02*
X160868000Y-74438000D01*
X152118000Y-63688000D02*
X152118000Y-64238000D01*
X151568000Y-66438000D02*
X151568000Y-64238000D01*
X160318000Y-74988000D02*
X160318000Y-74438000D01*
X151568000Y-74438000D02*
X151568000Y-71238000D01*
X160868000Y-64238000D02*
X160868000Y-66438000D01*
X160318000Y-64238000D02*
X160318000Y-63688000D01*
X151568000Y-74438000D02*
X152118000Y-74438000D01*
X160868000Y-64238000D02*
X160318000Y-64238000D01*
X160318000Y-74988000D02*
X152118000Y-74988000D01*
X152118000Y-64238000D02*
X151568000Y-64238000D01*
X160318000Y-74438000D02*
X160868000Y-74438000D01*
X152118000Y-63688000D02*
X160318000Y-63688000D01*
D17*
X157615000Y-69088000D02*
G75*
G03*
X157615000Y-69088000I-1397000J0D01*
G01*
X157234000Y-69088000D02*
G75*
G03*
X157234000Y-69088000I-1016000J0D01*
G01*
D18*
%TO.C,LED2*%
X180602000Y-83550000D02*
X180602000Y-84108800D01*
X180602000Y-81213200D02*
X180602000Y-81772000D01*
X175268000Y-83524600D02*
G75*
G03*
X180602698Y-84109201I2794040J863799D01*
G01*
D20*
X175674400Y-83524600D02*
G75*
G03*
X180449600Y-83524600I2387600J863600D01*
G01*
D18*
X180602001Y-81213202D02*
G75*
G03*
X175268700Y-81797600I-2540058J-1447499D01*
G01*
D20*
X180449600Y-81797400D02*
G75*
G03*
X175674400Y-81797400I-2387600J-863600D01*
G01*
%TO.C,EFX_1_ON*%
X131501000Y-89535000D02*
X131501000Y-89789000D01*
X136660000Y-85773000D02*
X135771000Y-85773000D01*
X131501000Y-88011000D02*
X131501000Y-87757000D01*
X137501000Y-89535000D02*
X137501000Y-89789000D01*
X133231000Y-85773000D02*
X132342000Y-85773000D01*
X133231000Y-91773000D02*
X135644000Y-91773000D01*
D17*
X135771000Y-85979000D02*
X133231000Y-85979000D01*
X133231000Y-85773000D02*
X133231000Y-85979000D01*
D20*
X135771000Y-85773000D02*
X133231000Y-85773000D01*
D17*
X135644000Y-91567000D02*
X135644000Y-91773000D01*
X135771000Y-85979000D02*
X135771000Y-85773000D01*
X133231000Y-91567000D02*
X133231000Y-91773000D01*
X135644000Y-91567000D02*
X133231000Y-91567000D01*
D20*
X132342000Y-91773000D02*
X133231000Y-91773000D01*
X135644000Y-91773000D02*
X136660000Y-91773000D01*
X137501000Y-88011000D02*
X137501000Y-87757000D01*
D21*
X130776000Y-85173000D02*
G75*
G03*
X130776000Y-85173000I-125000J0D01*
G01*
D20*
X136251000Y-88773000D02*
G75*
G03*
X136251000Y-88773000I-1750000J0D01*
G01*
D19*
%TO.C,CV8_EFX2_ON*%
X164934400Y-135097000D02*
X165434400Y-135097000D01*
X156434400Y-145097000D02*
X156434400Y-145597000D01*
X156434400Y-145597000D02*
X156934400Y-145597000D01*
X156434400Y-135597000D02*
X156434400Y-135097000D01*
X165434400Y-145097000D02*
X165434400Y-145597000D01*
X165434400Y-135097000D02*
X165434400Y-135597000D01*
X156434400Y-135097000D02*
X156934400Y-135097000D01*
X165434400Y-145597000D02*
X164934400Y-145597000D01*
X163625121Y-141097000D02*
G75*
G03*
X163625121Y-141097000I-2690721J0D01*
G01*
D16*
%TO.C,DRY_POT*%
X140379000Y-58436000D02*
X140929000Y-58436000D01*
X140929000Y-48236000D02*
X140379000Y-48236000D01*
X140929000Y-55236000D02*
X140929000Y-58436000D01*
X140379000Y-48236000D02*
X140379000Y-47686000D01*
X132179000Y-47686000D02*
X140379000Y-47686000D01*
X132179000Y-48236000D02*
X131629000Y-48236000D01*
X131629000Y-58436000D02*
X131629000Y-55236000D01*
X140379000Y-58986000D02*
X140379000Y-58436000D01*
X132179000Y-47686000D02*
X132179000Y-48236000D01*
X131629000Y-58436000D02*
X132179000Y-58436000D01*
X132179000Y-58436000D02*
X132179000Y-58986000D01*
X140929000Y-48236000D02*
X140929000Y-50436000D01*
X140379000Y-58986000D02*
X132179000Y-58986000D01*
X131629000Y-50436000D02*
X131629000Y-48236000D01*
D17*
X137676000Y-53086000D02*
G75*
G03*
X137676000Y-53086000I-1397000J0D01*
G01*
X137295000Y-53086000D02*
G75*
G03*
X137295000Y-53086000I-1016000J0D01*
G01*
D19*
%TO.C,CV4_DECAY*%
X146028800Y-135097000D02*
X146028800Y-135597000D01*
X137028800Y-135097000D02*
X137528800Y-135097000D01*
X146028800Y-145597000D02*
X145528800Y-145597000D01*
X146028800Y-145097000D02*
X146028800Y-145597000D01*
X137028800Y-135597000D02*
X137028800Y-135097000D01*
X137028800Y-145097000D02*
X137028800Y-145597000D01*
X137028800Y-145597000D02*
X137528800Y-145597000D01*
X145528800Y-135097000D02*
X146028800Y-135097000D01*
X144219521Y-141097000D02*
G75*
G03*
X144219521Y-141097000I-2690721J0D01*
G01*
D20*
%TO.C,EFX1_SEL*%
X133231000Y-104282500D02*
X135644000Y-104282500D01*
X137501000Y-102044500D02*
X137501000Y-102298500D01*
X131501000Y-102044500D02*
X131501000Y-102298500D01*
X135644000Y-104282500D02*
X136660000Y-104282500D01*
D17*
X135771000Y-98488500D02*
X135771000Y-98282500D01*
X135644000Y-104076500D02*
X135644000Y-104282500D01*
X133231000Y-104076500D02*
X133231000Y-104282500D01*
D20*
X132342000Y-104282500D02*
X133231000Y-104282500D01*
X133231000Y-98282500D02*
X132342000Y-98282500D01*
X137501000Y-100520500D02*
X137501000Y-100266500D01*
D17*
X135771000Y-98488500D02*
X133231000Y-98488500D01*
X135644000Y-104076500D02*
X133231000Y-104076500D01*
X133231000Y-98282500D02*
X133231000Y-98488500D01*
D20*
X135771000Y-98282500D02*
X133231000Y-98282500D01*
X131501000Y-100520500D02*
X131501000Y-100266500D01*
X136660000Y-98282500D02*
X135771000Y-98282500D01*
D21*
X130776000Y-97682500D02*
G75*
G03*
X130776000Y-97682500I-125000J0D01*
G01*
D20*
X136251000Y-101282500D02*
G75*
G03*
X136251000Y-101282500I-1750000J0D01*
G01*
D16*
%TO.C,R4*%
X171323000Y-84582000D02*
X170561000Y-84582000D01*
X171323000Y-79502000D02*
X172085000Y-79502000D01*
X172085000Y-84582000D02*
X171323000Y-84582000D01*
X171323000Y-84582000D02*
X171323000Y-84836000D01*
X170561000Y-84582000D02*
X170561000Y-79502000D01*
X170561000Y-79502000D02*
X171323000Y-79502000D01*
X172085000Y-79502000D02*
X172085000Y-84582000D01*
X171323000Y-79502000D02*
X171323000Y-79248000D01*
D18*
%TO.C,LED1*%
X137041000Y-83042000D02*
X137041000Y-83600800D01*
X137041000Y-80705200D02*
X137041000Y-81264000D01*
X137041001Y-80705202D02*
G75*
G03*
X131707700Y-81289600I-2540058J-1447499D01*
G01*
X131707000Y-83016600D02*
G75*
G03*
X137041698Y-83601201I2794040J863799D01*
G01*
D20*
X136888600Y-81289400D02*
G75*
G03*
X132113400Y-81289400I-2387600J-863600D01*
G01*
X132113400Y-83016600D02*
G75*
G03*
X136888600Y-83016600I2387600J863600D01*
G01*
D19*
%TO.C,CV5_FX1_PARAM*%
X155231600Y-121254000D02*
X155731600Y-121254000D01*
X146731600Y-131754000D02*
X147231600Y-131754000D01*
X146731600Y-121754000D02*
X146731600Y-121254000D01*
X155731600Y-121254000D02*
X155731600Y-121754000D01*
X146731600Y-121254000D02*
X147231600Y-121254000D01*
X155731600Y-131254000D02*
X155731600Y-131754000D01*
X155731600Y-131754000D02*
X155231600Y-131754000D01*
X146731600Y-131254000D02*
X146731600Y-131754000D01*
X153922321Y-127254000D02*
G75*
G03*
X153922321Y-127254000I-2690721J0D01*
G01*
D17*
%TO.C,EFX2_SEL*%
X179205000Y-104076500D02*
X179205000Y-104282500D01*
D20*
X179332000Y-98282500D02*
X176792000Y-98282500D01*
D17*
X179332000Y-98488500D02*
X176792000Y-98488500D01*
D20*
X180221000Y-98282500D02*
X179332000Y-98282500D01*
X179205000Y-104282500D02*
X180221000Y-104282500D01*
X181062000Y-100520500D02*
X181062000Y-100266500D01*
D17*
X176792000Y-104076500D02*
X176792000Y-104282500D01*
X179205000Y-104076500D02*
X176792000Y-104076500D01*
D20*
X175903000Y-104282500D02*
X176792000Y-104282500D01*
X176792000Y-98282500D02*
X175903000Y-98282500D01*
D17*
X176792000Y-98282500D02*
X176792000Y-98488500D01*
X179332000Y-98488500D02*
X179332000Y-98282500D01*
D20*
X176792000Y-104282500D02*
X179205000Y-104282500D01*
X175062000Y-100520500D02*
X175062000Y-100266500D01*
X181062000Y-102044500D02*
X181062000Y-102298500D01*
X175062000Y-102044500D02*
X175062000Y-102298500D01*
X179812000Y-101282500D02*
G75*
G03*
X179812000Y-101282500I-1750000J0D01*
G01*
D21*
X174337000Y-97682500D02*
G75*
G03*
X174337000Y-97682500I-125000J0D01*
G01*
D19*
%TO.C,AUDIO_OUT_R*%
X175840000Y-145597000D02*
X176340000Y-145597000D01*
X184840000Y-135097000D02*
X184840000Y-135597000D01*
X184340000Y-135097000D02*
X184840000Y-135097000D01*
X175840000Y-145097000D02*
X175840000Y-145597000D01*
X175840000Y-135597000D02*
X175840000Y-135097000D01*
X184840000Y-145597000D02*
X184340000Y-145597000D01*
X175840000Y-135097000D02*
X176340000Y-135097000D01*
X184840000Y-145097000D02*
X184840000Y-145597000D01*
X183030721Y-141097000D02*
G75*
G03*
X183030721Y-141097000I-2690721J0D01*
G01*
D20*
%TO.C,RECORD*%
X147751300Y-85773000D02*
X146862300Y-85773000D01*
D17*
X147751300Y-91567000D02*
X147751300Y-91773000D01*
X150291300Y-85979000D02*
X147751300Y-85979000D01*
X150164300Y-91567000D02*
X150164300Y-91773000D01*
D20*
X147751300Y-91773000D02*
X150164300Y-91773000D01*
X150164300Y-91773000D02*
X151180300Y-91773000D01*
X152021300Y-88011000D02*
X152021300Y-87757000D01*
D17*
X147751300Y-85773000D02*
X147751300Y-85979000D01*
D20*
X146021300Y-89535000D02*
X146021300Y-89789000D01*
X146862300Y-91773000D02*
X147751300Y-91773000D01*
X146021300Y-88011000D02*
X146021300Y-87757000D01*
X152021300Y-89535000D02*
X152021300Y-89789000D01*
D17*
X150164300Y-91567000D02*
X147751300Y-91567000D01*
D20*
X151180300Y-85773000D02*
X150291300Y-85773000D01*
X150291300Y-85773000D02*
X147751300Y-85773000D01*
D17*
X150291300Y-85979000D02*
X150291300Y-85773000D01*
D20*
X150771300Y-88773000D02*
G75*
G03*
X150771300Y-88773000I-1750000J0D01*
G01*
D21*
X145296300Y-85173000D02*
G75*
G03*
X145296300Y-85173000I-125000J0D01*
G01*
D19*
%TO.C,GATE_IN_RECORD*%
X150804000Y-117411000D02*
X150804000Y-117911000D01*
X141804000Y-107411000D02*
X142304000Y-107411000D01*
X150304000Y-107411000D02*
X150804000Y-107411000D01*
X141804000Y-117411000D02*
X141804000Y-117911000D01*
X150804000Y-107411000D02*
X150804000Y-107911000D01*
X141804000Y-117911000D02*
X142304000Y-117911000D01*
X150804000Y-117911000D02*
X150304000Y-117911000D01*
X141804000Y-107911000D02*
X141804000Y-107411000D01*
X148994721Y-113411000D02*
G75*
G03*
X148994721Y-113411000I-2690721J0D01*
G01*
%TO.C,AUDIO_OUT_L*%
X175137200Y-145097000D02*
X175137200Y-145597000D01*
X175137200Y-135097000D02*
X175137200Y-135597000D01*
X174637200Y-135097000D02*
X175137200Y-135097000D01*
X166137200Y-145597000D02*
X166637200Y-145597000D01*
X166137200Y-135097000D02*
X166637200Y-135097000D01*
X166137200Y-135597000D02*
X166137200Y-135097000D01*
X175137200Y-145597000D02*
X174637200Y-145597000D01*
X166137200Y-145097000D02*
X166137200Y-145597000D01*
X173327921Y-141097000D02*
G75*
G03*
X173327921Y-141097000I-2690721J0D01*
G01*
D22*
%TO.C,C2*%
X164549200Y-94361000D02*
X164549200Y-95885000D01*
D20*
X166378000Y-95758000D02*
X166378000Y-94488000D01*
X162060000Y-95758000D02*
X162060000Y-94488000D01*
D22*
X163914200Y-94361000D02*
X163914200Y-95885000D01*
D20*
X165870000Y-96266000D02*
X162568000Y-96266000D01*
X165870000Y-93980000D02*
X162568000Y-93980000D01*
X165870000Y-96266000D02*
G75*
G03*
X166378000Y-95758000I-1J508001D01*
G01*
X166378000Y-94488000D02*
G75*
G03*
X165870000Y-93980000I-508001J-1D01*
G01*
X162568000Y-93980000D02*
G75*
G03*
X162060000Y-94488000I1J-508001D01*
G01*
X162060000Y-95758000D02*
G75*
G03*
X162568000Y-96266000I508001J1D01*
G01*
D18*
%TO.C,D2*%
X165116500Y-83829400D02*
X165116500Y-83372200D01*
X165116500Y-81238600D02*
X165116500Y-81746600D01*
X165102700Y-81233100D02*
G75*
G03*
X163541700Y-80502000I-1560986J-1300897D01*
G01*
X161777400Y-83542200D02*
G75*
G03*
X163541700Y-84566000I1764241J1008196D01*
G01*
X163541700Y-80502000D02*
G75*
G03*
X161748800Y-81577800I60J-2032000D01*
G01*
X163541700Y-84566000D02*
G75*
G03*
X165092900Y-83846600I36J2032003D01*
G01*
D19*
%TO.C,AUDIO_IN_R*%
X175137200Y-121254000D02*
X175137200Y-121754000D01*
X175137200Y-131254000D02*
X175137200Y-131754000D01*
X175137200Y-131754000D02*
X174637200Y-131754000D01*
X174637200Y-121254000D02*
X175137200Y-121254000D01*
X166137200Y-131254000D02*
X166137200Y-131754000D01*
X166137200Y-121254000D02*
X166637200Y-121254000D01*
X166137200Y-121754000D02*
X166137200Y-121254000D01*
X166137200Y-131754000D02*
X166637200Y-131754000D01*
X173327921Y-127254000D02*
G75*
G03*
X173327921Y-127254000I-2690721J0D01*
G01*
D16*
%TO.C,WET_POT*%
X132179000Y-63688000D02*
X140379000Y-63688000D01*
X140379000Y-64238000D02*
X140379000Y-63688000D01*
X132179000Y-63688000D02*
X132179000Y-64238000D01*
X140929000Y-64238000D02*
X140379000Y-64238000D01*
X140379000Y-74988000D02*
X140379000Y-74438000D01*
X131629000Y-74438000D02*
X131629000Y-71238000D01*
X140929000Y-64238000D02*
X140929000Y-66438000D01*
X131629000Y-66438000D02*
X131629000Y-64238000D01*
X131629000Y-74438000D02*
X132179000Y-74438000D01*
X140379000Y-74988000D02*
X132179000Y-74988000D01*
X140929000Y-71238000D02*
X140929000Y-74438000D01*
X132179000Y-74438000D02*
X132179000Y-74988000D01*
X132179000Y-64238000D02*
X131629000Y-64238000D01*
X140379000Y-74438000D02*
X140929000Y-74438000D01*
D17*
X137295000Y-69088000D02*
G75*
G03*
X137295000Y-69088000I-1016000J0D01*
G01*
X137676000Y-69088000D02*
G75*
G03*
X137676000Y-69088000I-1397000J0D01*
G01*
D20*
%TO.C,U1*%
X176312000Y-106318000D02*
X176312000Y-38318000D01*
X136312000Y-106318000D02*
X136312000Y-38318000D01*
X176312000Y-38318000D02*
X136312000Y-38318000D01*
X176312000Y-106318000D02*
X136312000Y-106318000D01*
D16*
X173170000Y-96778000D02*
G75*
G03*
X173170000Y-96778000I-1778000J0D01*
G01*
X140010000Y-45778000D02*
G75*
G03*
X140010000Y-45778000I-1778000J0D01*
G01*
X168550000Y-45398000D02*
G75*
G03*
X168550000Y-45398000I-1778000J0D01*
G01*
X150170000Y-43238000D02*
G75*
G03*
X150170000Y-43238000I-1778000J0D01*
G01*
X166010000Y-45778000D02*
G75*
G03*
X166010000Y-45778000I-1778000J0D01*
G01*
X140010000Y-43238000D02*
G75*
G03*
X140010000Y-43238000I-1778000J0D01*
G01*
X173630000Y-42858000D02*
G75*
G03*
X173630000Y-42858000I-1778000J0D01*
G01*
X147630000Y-45398000D02*
G75*
G03*
X147630000Y-45398000I-1778000J0D01*
G01*
X143010000Y-94238000D02*
G75*
G03*
X143010000Y-94238000I-1778000J0D01*
G01*
X145170000Y-96778000D02*
G75*
G03*
X145170000Y-96778000I-1778000J0D01*
G01*
X170630000Y-101858000D02*
G75*
G03*
X170630000Y-101858000I-1778000J0D01*
G01*
X145170000Y-101858000D02*
G75*
G03*
X145170000Y-101858000I-1778000J0D01*
G01*
X142630000Y-101858000D02*
G75*
G03*
X142630000Y-101858000I-1778000J0D01*
G01*
X171010000Y-104398000D02*
G75*
G03*
X171010000Y-104398000I-1778000J0D01*
G01*
X145550000Y-104398000D02*
G75*
G03*
X145550000Y-104398000I-1778000J0D01*
G01*
X145550000Y-99318000D02*
G75*
G03*
X145550000Y-99318000I-1778000J0D01*
G01*
X173550000Y-104398000D02*
G75*
G03*
X173550000Y-104398000I-1778000J0D01*
G01*
X143010000Y-99318000D02*
G75*
G03*
X143010000Y-99318000I-1778000J0D01*
G01*
X171090000Y-43238000D02*
G75*
G03*
X171090000Y-43238000I-1778000J0D01*
G01*
X171010000Y-94238000D02*
G75*
G03*
X171010000Y-94238000I-1778000J0D01*
G01*
X147630000Y-42858000D02*
G75*
G03*
X147630000Y-42858000I-1778000J0D01*
G01*
X166010000Y-43238000D02*
G75*
G03*
X166010000Y-43238000I-1778000J0D01*
G01*
X145550000Y-94238000D02*
G75*
G03*
X145550000Y-94238000I-1778000J0D01*
G01*
X143010000Y-104398000D02*
G75*
G03*
X143010000Y-104398000I-1778000J0D01*
G01*
X142550000Y-45398000D02*
G75*
G03*
X142550000Y-45398000I-1778000J0D01*
G01*
X173170000Y-101858000D02*
G75*
G03*
X173170000Y-101858000I-1778000J0D01*
G01*
X173630000Y-45398000D02*
G75*
G03*
X173630000Y-45398000I-1778000J0D01*
G01*
X176170000Y-43238000D02*
G75*
G03*
X176170000Y-43238000I-1778000J0D01*
G01*
X171090000Y-45778000D02*
G75*
G03*
X171090000Y-45778000I-1778000J0D01*
G01*
X173550000Y-99318000D02*
G75*
G03*
X173550000Y-99318000I-1778000J0D01*
G01*
X145090000Y-45778000D02*
G75*
G03*
X145090000Y-45778000I-1778000J0D01*
G01*
X145090000Y-43238000D02*
G75*
G03*
X145090000Y-43238000I-1778000J0D01*
G01*
X150170000Y-45778000D02*
G75*
G03*
X150170000Y-45778000I-1778000J0D01*
G01*
X171010000Y-99318000D02*
G75*
G03*
X171010000Y-99318000I-1778000J0D01*
G01*
X170630000Y-96778000D02*
G75*
G03*
X170630000Y-96778000I-1778000J0D01*
G01*
X142550000Y-42858000D02*
G75*
G03*
X142550000Y-42858000I-1778000J0D01*
G01*
X176170000Y-45778000D02*
G75*
G03*
X176170000Y-45778000I-1778000J0D01*
G01*
X142630000Y-96778000D02*
G75*
G03*
X142630000Y-96778000I-1778000J0D01*
G01*
X173550000Y-94238000D02*
G75*
G03*
X173550000Y-94238000I-1778000J0D01*
G01*
X168550000Y-42858000D02*
G75*
G03*
X168550000Y-42858000I-1778000J0D01*
G01*
D19*
%TO.C,AUDIO_IN_L*%
X184840000Y-131754000D02*
X184340000Y-131754000D01*
X184840000Y-131254000D02*
X184840000Y-131754000D01*
X175840000Y-131254000D02*
X175840000Y-131754000D01*
X184840000Y-121254000D02*
X184840000Y-121754000D01*
X175840000Y-131754000D02*
X176340000Y-131754000D01*
X175840000Y-121254000D02*
X176340000Y-121254000D01*
X184340000Y-121254000D02*
X184840000Y-121254000D01*
X175840000Y-121754000D02*
X175840000Y-121254000D01*
X183030721Y-127254000D02*
G75*
G03*
X183030721Y-127254000I-2690721J0D01*
G01*
%TO.C,CV2_WET*%
X127326000Y-135597000D02*
X127326000Y-135097000D01*
X136326000Y-135097000D02*
X136326000Y-135597000D01*
X127326000Y-135097000D02*
X127826000Y-135097000D01*
X127326000Y-145097000D02*
X127326000Y-145597000D01*
X127326000Y-145597000D02*
X127826000Y-145597000D01*
X136326000Y-145597000D02*
X135826000Y-145597000D01*
X135826000Y-135097000D02*
X136326000Y-135097000D01*
X136326000Y-145097000D02*
X136326000Y-145597000D01*
X134516721Y-141097000D02*
G75*
G03*
X134516721Y-141097000I-2690721J0D01*
G01*
D16*
%TO.C,FX1_POT*%
X172184000Y-47686000D02*
X172184000Y-48236000D01*
X171634000Y-50436000D02*
X171634000Y-48236000D01*
X180384000Y-58986000D02*
X180384000Y-58436000D01*
X180384000Y-58436000D02*
X180934000Y-58436000D01*
X171634000Y-58436000D02*
X172184000Y-58436000D01*
X180934000Y-48236000D02*
X180384000Y-48236000D01*
X180934000Y-48236000D02*
X180934000Y-50436000D01*
X171634000Y-58436000D02*
X171634000Y-55236000D01*
X180384000Y-58986000D02*
X172184000Y-58986000D01*
X180934000Y-55236000D02*
X180934000Y-58436000D01*
X180384000Y-48236000D02*
X180384000Y-47686000D01*
X172184000Y-47686000D02*
X180384000Y-47686000D01*
X172184000Y-48236000D02*
X171634000Y-48236000D01*
X172184000Y-58436000D02*
X172184000Y-58986000D01*
D17*
X177300000Y-53086000D02*
G75*
G03*
X177300000Y-53086000I-1016000J0D01*
G01*
X177681000Y-53086000D02*
G75*
G03*
X177681000Y-53086000I-1397000J0D01*
G01*
%TO.C,G\u002A\u002A\u002A*%
G36*
X162802863Y-132910333D02*
G01*
X162830640Y-132936885D01*
X162907095Y-133026959D01*
X163078704Y-133234688D01*
X163333716Y-133545680D01*
X163660379Y-133945539D01*
X164046943Y-134419873D01*
X164481657Y-134954286D01*
X164952771Y-135534384D01*
X165206018Y-135846580D01*
X167467700Y-138635812D01*
X167300536Y-138870572D01*
X167098754Y-139110636D01*
X166803496Y-139410102D01*
X166459036Y-139728922D01*
X166109649Y-140027047D01*
X165799610Y-140264428D01*
X165656233Y-140357927D01*
X165051332Y-140642204D01*
X164371510Y-140844543D01*
X163671042Y-140955022D01*
X163004203Y-140963721D01*
X162624137Y-140912132D01*
X161905698Y-140679353D01*
X161263767Y-140309017D01*
X160712448Y-139821590D01*
X160265847Y-139237541D01*
X159938070Y-138577338D01*
X159743221Y-137861447D01*
X159695408Y-137110336D01*
X159732737Y-136716604D01*
X159887125Y-136052663D01*
X160151905Y-135433925D01*
X160543387Y-134831352D01*
X161077880Y-134215908D01*
X161215780Y-134076396D01*
X161546831Y-133757241D01*
X161872870Y-133458843D01*
X162155665Y-133215269D01*
X162351978Y-133063960D01*
X162575556Y-132923054D01*
X162710893Y-132875816D01*
X162802863Y-132910333D01*
G37*
G36*
X162887813Y-85848125D02*
G01*
X162915590Y-85874678D01*
X162992045Y-85964751D01*
X163163654Y-86172481D01*
X163418665Y-86483472D01*
X163745329Y-86883332D01*
X164131893Y-87357665D01*
X164566607Y-87892078D01*
X165037720Y-88472177D01*
X165290968Y-88784373D01*
X167552650Y-91573604D01*
X167385486Y-91808365D01*
X167183704Y-92048428D01*
X166888446Y-92347894D01*
X166543986Y-92666714D01*
X166194599Y-92964839D01*
X165884560Y-93202221D01*
X165741183Y-93295720D01*
X165136282Y-93579997D01*
X164456460Y-93782335D01*
X163755992Y-93892814D01*
X163089153Y-93901514D01*
X162709087Y-93849925D01*
X161990648Y-93617146D01*
X161348716Y-93246809D01*
X160797398Y-92759383D01*
X160350797Y-92175334D01*
X160023019Y-91515130D01*
X159828171Y-90799239D01*
X159780358Y-90048129D01*
X159817686Y-89654396D01*
X159972075Y-88990456D01*
X160236855Y-88371718D01*
X160628336Y-87769145D01*
X161162830Y-87153701D01*
X161300730Y-87014189D01*
X161631781Y-86695033D01*
X161957820Y-86396635D01*
X162240615Y-86153062D01*
X162436928Y-86001753D01*
X162660505Y-85860847D01*
X162795843Y-85813609D01*
X162887813Y-85848125D01*
G37*
G36*
X144058079Y-144698616D02*
G01*
X144230050Y-144898137D01*
X144482457Y-145198700D01*
X144802291Y-145584619D01*
X145176542Y-146040208D01*
X145592199Y-146549783D01*
X145965682Y-147010358D01*
X147837890Y-149325241D01*
X140852582Y-149325241D01*
X140906375Y-148746451D01*
X141041480Y-147986346D01*
X141291930Y-147277668D01*
X141519699Y-146852678D01*
X141732944Y-146555471D01*
X142013589Y-146222815D01*
X142339189Y-145875120D01*
X142687299Y-145532796D01*
X143035475Y-145216253D01*
X143361271Y-144945900D01*
X143642243Y-144742149D01*
X143855947Y-144625409D01*
X143979555Y-144615820D01*
X144058079Y-144698616D01*
G37*
G36*
X175351113Y-124231204D02*
G01*
X175876852Y-124481155D01*
X176151910Y-124688414D01*
X176483912Y-125060512D01*
X176694601Y-125498781D01*
X176795664Y-126033364D01*
X176808743Y-126382682D01*
X176753345Y-126942337D01*
X176585343Y-127484460D01*
X176295818Y-128021460D01*
X175875853Y-128565750D01*
X175316529Y-129129740D01*
X174608929Y-129725841D01*
X174163113Y-130064661D01*
X173851588Y-130294391D01*
X173517460Y-129891923D01*
X172888265Y-129055746D01*
X172423313Y-128260384D01*
X172122208Y-127504701D01*
X171984554Y-126787563D01*
X172009953Y-126107837D01*
X172082555Y-125785489D01*
X172317509Y-125260105D01*
X172674524Y-124823776D01*
X173126760Y-124483737D01*
X173647377Y-124247225D01*
X174209535Y-124121474D01*
X174786394Y-124113722D01*
X175351113Y-124231204D01*
G37*
G36*
X164337720Y-53543412D02*
G01*
X164935031Y-53712453D01*
X165462285Y-54035137D01*
X165534643Y-54096390D01*
X165851687Y-54428811D01*
X166055849Y-54786934D01*
X166161397Y-55210870D01*
X166182601Y-55740730D01*
X166176122Y-55899618D01*
X166114519Y-56414924D01*
X165978659Y-56893097D01*
X165755755Y-57351541D01*
X165433019Y-57807663D01*
X164997663Y-58278867D01*
X164436899Y-58782557D01*
X163737941Y-59336138D01*
X163545004Y-59480734D01*
X163234099Y-59711653D01*
X162713188Y-59049049D01*
X162432034Y-58659411D01*
X162133883Y-58194840D01*
X161869646Y-57736142D01*
X161792321Y-57587401D01*
X161612800Y-57222081D01*
X161497096Y-56952874D01*
X161431255Y-56724841D01*
X161401324Y-56483040D01*
X161393348Y-56172529D01*
X161393181Y-56015829D01*
X161399144Y-55628238D01*
X161423884Y-55353590D01*
X161479140Y-55135072D01*
X161576653Y-54915873D01*
X161648030Y-54782628D01*
X162021256Y-54271004D01*
X162503601Y-53888572D01*
X163090892Y-53637908D01*
X163676059Y-53529753D01*
X164337720Y-53543412D01*
G37*
G36*
X144141076Y-97634783D02*
G01*
X144312185Y-97834277D01*
X144566621Y-98138054D01*
X144892789Y-98532075D01*
X145279096Y-99002298D01*
X145713949Y-99534683D01*
X146185752Y-100115188D01*
X146474426Y-100471694D01*
X148769662Y-103310119D01*
X148513368Y-103633717D01*
X147895171Y-104299348D01*
X147202342Y-104840430D01*
X146454573Y-105248643D01*
X145671558Y-105515667D01*
X144872992Y-105633184D01*
X144078566Y-105592874D01*
X143935174Y-105567756D01*
X143317158Y-105372788D01*
X142709900Y-105046516D01*
X142153153Y-104619419D01*
X141686671Y-104121977D01*
X141351116Y-103586587D01*
X141092959Y-102847857D01*
X140989955Y-102072510D01*
X141040219Y-101288772D01*
X141241867Y-100524869D01*
X141593012Y-99809027D01*
X141604649Y-99790471D01*
X141818051Y-99493035D01*
X142098838Y-99160211D01*
X142424562Y-98812408D01*
X142772773Y-98470036D01*
X143121024Y-98153506D01*
X143446866Y-97883229D01*
X143727851Y-97679614D01*
X143941529Y-97563072D01*
X144064888Y-97553613D01*
X144141076Y-97634783D01*
G37*
G36*
X173448769Y-132973913D02*
G01*
X173619878Y-133173407D01*
X173874313Y-133477185D01*
X174200481Y-133871206D01*
X174586789Y-134341429D01*
X175021641Y-134873813D01*
X175493444Y-135454319D01*
X175782118Y-135810824D01*
X178077354Y-138649250D01*
X177821060Y-138972848D01*
X177202864Y-139638478D01*
X176510034Y-140179560D01*
X175762265Y-140587773D01*
X174979251Y-140854798D01*
X174180684Y-140972315D01*
X173386259Y-140932005D01*
X173242866Y-140906887D01*
X172624850Y-140711918D01*
X172017592Y-140385646D01*
X171460845Y-139958550D01*
X170994364Y-139461108D01*
X170658808Y-138925717D01*
X170400651Y-138186988D01*
X170297647Y-137411641D01*
X170347911Y-136627902D01*
X170549559Y-135863999D01*
X170900704Y-135148158D01*
X170912341Y-135129602D01*
X171125743Y-134832166D01*
X171406530Y-134499341D01*
X171732254Y-134151538D01*
X172080466Y-133809166D01*
X172428717Y-133492637D01*
X172754559Y-133222359D01*
X173035543Y-133018744D01*
X173249221Y-132902202D01*
X173372580Y-132892743D01*
X173448769Y-132973913D01*
G37*
G36*
X135030027Y-88797592D02*
G01*
X135627339Y-88966634D01*
X136154593Y-89289318D01*
X136226951Y-89350570D01*
X136543995Y-89682992D01*
X136748157Y-90041115D01*
X136853705Y-90465050D01*
X136874909Y-90994910D01*
X136868430Y-91153798D01*
X136806827Y-91669104D01*
X136670967Y-92147277D01*
X136448063Y-92605722D01*
X136125327Y-93061844D01*
X135689971Y-93533047D01*
X135129207Y-94036737D01*
X134430248Y-94590319D01*
X134237312Y-94734915D01*
X133926407Y-94965834D01*
X133405496Y-94303230D01*
X133124342Y-93913592D01*
X132826191Y-93449021D01*
X132561953Y-92990323D01*
X132484629Y-92841582D01*
X132305108Y-92476261D01*
X132189404Y-92207055D01*
X132123563Y-91979022D01*
X132093631Y-91737220D01*
X132085656Y-91426710D01*
X132085488Y-91270010D01*
X132091452Y-90882419D01*
X132116191Y-90607770D01*
X132171447Y-90389253D01*
X132268960Y-90170054D01*
X132340338Y-90036808D01*
X132713564Y-89525185D01*
X133195909Y-89142753D01*
X133783200Y-88892089D01*
X134368367Y-88783934D01*
X135030027Y-88797592D01*
G37*
G36*
X133495171Y-50508995D02*
G01*
X133522947Y-50535548D01*
X133599403Y-50625621D01*
X133771012Y-50833350D01*
X134026023Y-51144342D01*
X134352687Y-51544201D01*
X134739251Y-52018535D01*
X135173965Y-52552948D01*
X135645078Y-53133046D01*
X135898326Y-53445242D01*
X138160008Y-56234474D01*
X137992844Y-56469234D01*
X137791062Y-56709298D01*
X137495804Y-57008764D01*
X137151344Y-57327584D01*
X136801957Y-57625709D01*
X136491918Y-57863090D01*
X136348541Y-57956589D01*
X135743640Y-58240867D01*
X135063818Y-58443205D01*
X134363349Y-58553684D01*
X133696511Y-58562383D01*
X133316445Y-58510794D01*
X132598006Y-58278015D01*
X131956074Y-57907679D01*
X131404755Y-57420253D01*
X130958155Y-56836204D01*
X130630377Y-56176000D01*
X130435529Y-55460109D01*
X130387716Y-54708998D01*
X130425044Y-54315266D01*
X130579433Y-53651326D01*
X130844213Y-53032587D01*
X131235694Y-52430014D01*
X131770188Y-51814570D01*
X131908088Y-51675058D01*
X132239139Y-51355903D01*
X132565178Y-51057505D01*
X132847973Y-50813931D01*
X133044286Y-50662622D01*
X133267863Y-50521717D01*
X133403201Y-50474478D01*
X133495171Y-50508995D01*
G37*
G36*
X145958471Y-65360969D02*
G01*
X146484210Y-65610921D01*
X146759268Y-65818179D01*
X147091270Y-66190277D01*
X147301959Y-66628547D01*
X147403022Y-67163130D01*
X147416101Y-67512448D01*
X147360703Y-68072103D01*
X147192701Y-68614226D01*
X146903176Y-69151226D01*
X146483210Y-69695516D01*
X145923887Y-70259506D01*
X145216287Y-70855607D01*
X144770471Y-71194426D01*
X144458946Y-71424157D01*
X144124818Y-71021689D01*
X143495623Y-70185512D01*
X143030671Y-69390150D01*
X142729566Y-68634467D01*
X142591912Y-67917329D01*
X142617311Y-67237603D01*
X142689913Y-66915255D01*
X142924867Y-66389871D01*
X143281882Y-65953542D01*
X143734118Y-65613503D01*
X144254735Y-65376990D01*
X144816893Y-65251240D01*
X145393751Y-65243488D01*
X145958471Y-65360969D01*
G37*
G36*
X164337720Y-124136723D02*
G01*
X164935031Y-124305764D01*
X165462285Y-124628448D01*
X165534643Y-124689701D01*
X165851687Y-125022122D01*
X166055849Y-125380245D01*
X166161397Y-125804181D01*
X166182601Y-126334041D01*
X166176122Y-126492929D01*
X166114519Y-127008235D01*
X165978659Y-127486408D01*
X165755755Y-127944853D01*
X165433019Y-128400974D01*
X164997663Y-128872178D01*
X164436899Y-129375868D01*
X163737941Y-129929449D01*
X163545004Y-130074045D01*
X163234099Y-130304964D01*
X162713188Y-129642360D01*
X162432034Y-129252722D01*
X162133883Y-128788151D01*
X161869646Y-128329453D01*
X161792321Y-128180712D01*
X161612800Y-127815392D01*
X161497096Y-127546185D01*
X161431255Y-127318152D01*
X161401324Y-127076351D01*
X161393348Y-126765841D01*
X161393181Y-126609140D01*
X161399144Y-126221549D01*
X161423884Y-125946901D01*
X161479140Y-125728383D01*
X161576653Y-125509184D01*
X161648030Y-125375939D01*
X162021256Y-124864315D01*
X162503601Y-124481883D01*
X163090892Y-124231220D01*
X163676059Y-124123064D01*
X164337720Y-124136723D01*
G37*
G36*
X133380851Y-144630675D02*
G01*
X133539937Y-144803245D01*
X133764660Y-145062807D01*
X134034913Y-145386407D01*
X134181775Y-145566211D01*
X134503694Y-145963116D01*
X134897631Y-146448667D01*
X135328498Y-146979626D01*
X135761206Y-147512752D01*
X136111954Y-147944806D01*
X137232744Y-149325241D01*
X130258251Y-149325241D01*
X130258893Y-149134104D01*
X130339987Y-148385040D01*
X130567930Y-147624453D01*
X130927066Y-146890411D01*
X131401742Y-146220983D01*
X131505721Y-146102002D01*
X131738219Y-145861387D01*
X132026239Y-145587286D01*
X132341062Y-145304149D01*
X132653973Y-145036424D01*
X132936253Y-144808560D01*
X133159184Y-144645006D01*
X133294050Y-144570210D01*
X133307506Y-144568050D01*
X133380851Y-144630675D01*
G37*
G36*
X162802863Y-62317022D02*
G01*
X162830640Y-62343574D01*
X162907095Y-62433648D01*
X163078704Y-62641377D01*
X163333716Y-62952369D01*
X163660379Y-63352228D01*
X164046943Y-63826562D01*
X164481657Y-64360975D01*
X164952771Y-64941073D01*
X165206018Y-65253269D01*
X167467700Y-68042501D01*
X167300536Y-68277261D01*
X167098754Y-68517325D01*
X166803496Y-68816791D01*
X166459036Y-69135611D01*
X166109649Y-69433736D01*
X165799610Y-69671117D01*
X165656233Y-69764616D01*
X165051332Y-70048893D01*
X164371510Y-70251232D01*
X163671042Y-70361711D01*
X163004203Y-70370410D01*
X162624137Y-70318821D01*
X161905698Y-70086042D01*
X161263767Y-69715706D01*
X160712448Y-69228279D01*
X160265847Y-68644230D01*
X159938070Y-67984027D01*
X159743221Y-67268136D01*
X159695408Y-66517025D01*
X159732737Y-66123292D01*
X159887125Y-65459352D01*
X160151905Y-64840614D01*
X160543387Y-64238041D01*
X161077880Y-63622597D01*
X161215780Y-63483085D01*
X161546831Y-63163930D01*
X161872870Y-62865532D01*
X162155665Y-62621958D01*
X162351978Y-62470649D01*
X162575556Y-62329743D01*
X162710893Y-62282505D01*
X162802863Y-62317022D01*
G37*
G36*
X175436062Y-77168996D02*
G01*
X175961802Y-77418948D01*
X176236860Y-77626206D01*
X176568862Y-77998304D01*
X176779551Y-78436574D01*
X176880614Y-78971157D01*
X176893693Y-79320474D01*
X176838295Y-79880130D01*
X176670293Y-80422253D01*
X176380768Y-80959253D01*
X175960802Y-81503543D01*
X175401479Y-82067533D01*
X174693879Y-82663634D01*
X174248063Y-83002453D01*
X173936538Y-83232184D01*
X173602409Y-82829716D01*
X172973215Y-81993539D01*
X172508263Y-81198176D01*
X172207158Y-80442494D01*
X172069504Y-79725356D01*
X172094903Y-79045630D01*
X172167505Y-78723281D01*
X172402459Y-78197898D01*
X172759474Y-77761569D01*
X173211710Y-77421530D01*
X173732327Y-77185017D01*
X174294485Y-77059267D01*
X174871343Y-77051514D01*
X175436062Y-77168996D01*
G37*
G36*
X133410221Y-74040099D02*
G01*
X133437998Y-74066651D01*
X133514453Y-74156724D01*
X133686062Y-74364454D01*
X133941073Y-74675446D01*
X134267737Y-75075305D01*
X134654301Y-75549638D01*
X135089015Y-76084051D01*
X135560128Y-76664150D01*
X135813376Y-76976346D01*
X138075058Y-79765578D01*
X137907894Y-80000338D01*
X137706112Y-80240402D01*
X137410854Y-80539868D01*
X137066394Y-80858688D01*
X136717007Y-81156813D01*
X136406968Y-81394194D01*
X136263591Y-81487693D01*
X135658690Y-81771970D01*
X134978868Y-81974308D01*
X134278400Y-82084787D01*
X133611561Y-82093487D01*
X133231495Y-82041898D01*
X132513056Y-81809119D01*
X131871125Y-81438783D01*
X131319806Y-80951356D01*
X130873205Y-80367307D01*
X130545428Y-79707104D01*
X130350579Y-78991213D01*
X130302766Y-78240102D01*
X130340094Y-77846369D01*
X130494483Y-77182429D01*
X130759263Y-76563691D01*
X131150744Y-75961118D01*
X131685238Y-75345674D01*
X131823138Y-75206162D01*
X132154189Y-74887006D01*
X132480228Y-74588608D01*
X132763023Y-74345035D01*
X132959336Y-74193726D01*
X133182913Y-74052820D01*
X133318251Y-74005582D01*
X133410221Y-74040099D01*
G37*
G36*
X164390263Y-147667159D02*
G01*
X164968418Y-147817755D01*
X165472374Y-148092107D01*
X165879034Y-148476367D01*
X166165299Y-148956686D01*
X166229468Y-149134104D01*
X166288429Y-149325241D01*
X161509185Y-149325241D01*
X161748099Y-148885805D01*
X162111097Y-148388551D01*
X162589427Y-148012557D01*
X163174007Y-147763381D01*
X163761009Y-147654168D01*
X164390263Y-147667159D01*
G37*
G36*
X175016862Y-147665601D02*
G01*
X175378966Y-147741258D01*
X175853989Y-147946130D01*
X176273035Y-148252448D01*
X176595329Y-148624602D01*
X176755235Y-148943239D01*
X176885396Y-149325241D01*
X172147356Y-149325241D01*
X172232914Y-149079809D01*
X172472301Y-148638511D01*
X172842692Y-148261938D01*
X173313216Y-147963225D01*
X173853001Y-147755508D01*
X174431174Y-147651921D01*
X175016862Y-147665601D01*
G37*
G36*
X149300868Y-137023664D02*
G01*
X149265239Y-136752754D01*
X149206115Y-136520972D01*
X149135699Y-136327917D01*
X148786701Y-135676461D01*
X148301921Y-135095155D01*
X147709787Y-134610558D01*
X147038730Y-134249226D01*
X146823468Y-134167876D01*
X146452769Y-134077869D01*
X145967320Y-134011184D01*
X145420997Y-133970361D01*
X144867675Y-133957940D01*
X144361229Y-133976462D01*
X143955533Y-134028467D01*
X143939389Y-134031877D01*
X143171486Y-134280152D01*
X142445209Y-134672615D01*
X141797531Y-135184522D01*
X141265421Y-135791131D01*
X141225351Y-135848234D01*
X140938910Y-136321898D01*
X140743358Y-136797598D01*
X140622724Y-137327744D01*
X140561037Y-137964744D01*
X140557305Y-138040504D01*
X140561077Y-138741833D01*
X140650282Y-139374726D01*
X140838332Y-139999271D01*
X141138635Y-140675559D01*
X141150808Y-140699839D01*
X141331884Y-141025686D01*
X141586725Y-141439585D01*
X141884807Y-141895464D01*
X142195603Y-142347251D01*
X142488585Y-142748875D01*
X142622757Y-142921348D01*
X142834990Y-143186017D01*
X142089597Y-143726336D01*
X141315897Y-144330952D01*
X140615316Y-144965395D01*
X140004189Y-145610745D01*
X139498846Y-146248080D01*
X139115622Y-146858478D01*
X138870849Y-147423016D01*
X138855542Y-147473058D01*
X138771326Y-147728690D01*
X138697639Y-147898897D01*
X138656313Y-147944677D01*
X138575643Y-147869246D01*
X138408709Y-147680596D01*
X138170094Y-147397185D01*
X137874380Y-147037474D01*
X137536148Y-146619919D01*
X137169980Y-146162981D01*
X136790459Y-145685117D01*
X136412166Y-145204786D01*
X136049683Y-144740447D01*
X135717592Y-144310559D01*
X135430476Y-143933580D01*
X135202916Y-143627970D01*
X135049493Y-143412186D01*
X134984791Y-143304688D01*
X134984446Y-143296604D01*
X135075494Y-143220496D01*
X135271919Y-143060783D01*
X135546205Y-142839710D01*
X135870833Y-142579524D01*
X135923364Y-142537542D01*
X136760540Y-141819205D01*
X137439598Y-141123565D01*
X137968494Y-140437472D01*
X138355185Y-139747779D01*
X138607629Y-139041336D01*
X138733782Y-138304994D01*
X138752226Y-137862833D01*
X138700203Y-137071292D01*
X138539600Y-136391119D01*
X138260056Y-135795050D01*
X137851211Y-135255819D01*
X137703304Y-135102547D01*
X137159333Y-134644154D01*
X136570205Y-134309739D01*
X135909090Y-134089625D01*
X135149156Y-133974132D01*
X134509132Y-133950330D01*
X133662411Y-133997222D01*
X132928609Y-134143829D01*
X132275152Y-134402131D01*
X131669464Y-134784108D01*
X131229573Y-135156505D01*
X130680849Y-135773564D01*
X130283555Y-136459366D01*
X130035164Y-137220615D01*
X129933150Y-138064013D01*
X129939255Y-138579087D01*
X130064375Y-139405093D01*
X130349561Y-140268781D01*
X130791196Y-141162291D01*
X131385662Y-142077766D01*
X131794879Y-142610563D01*
X132239766Y-143159096D01*
X131998970Y-143332637D01*
X131452159Y-143743656D01*
X130888919Y-144196833D01*
X130349608Y-144657750D01*
X129874587Y-145091990D01*
X129526204Y-145441384D01*
X128970652Y-146127613D01*
X128523848Y-146866818D01*
X128199263Y-147628952D01*
X128010368Y-148383966D01*
X127965861Y-148921729D01*
X127964605Y-149325241D01*
X126860258Y-149325241D01*
X126860258Y-125631886D01*
X128050811Y-125631886D01*
X128112593Y-126387825D01*
X128288006Y-127171974D01*
X128557967Y-127906466D01*
X128659199Y-128114453D01*
X129049378Y-128714451D01*
X129573117Y-129300260D01*
X130194727Y-129842801D01*
X130878522Y-130312994D01*
X131588815Y-130681759D01*
X132002757Y-130838974D01*
X132709428Y-131007685D01*
X133505976Y-131097004D01*
X134331265Y-131105394D01*
X135124161Y-131031315D01*
X135625132Y-130930098D01*
X135946282Y-130826302D01*
X136347764Y-130666932D01*
X136761831Y-130479705D01*
X136926813Y-130397568D01*
X137308878Y-130186445D01*
X137647606Y-129961555D01*
X137988497Y-129688420D01*
X138377053Y-129332565D01*
X138539009Y-129175959D01*
X138893177Y-128836449D01*
X139147209Y-128609671D01*
X139316514Y-128483795D01*
X139416501Y-128446991D01*
X139455983Y-128471967D01*
X139604900Y-128684141D01*
X139843185Y-128966263D01*
X140132240Y-129276519D01*
X140433465Y-129573096D01*
X140653703Y-129769427D01*
X141092866Y-130084745D01*
X141637682Y-130397300D01*
X142226280Y-130676002D01*
X142796790Y-130889763D01*
X143000726Y-130948737D01*
X143412483Y-131023952D01*
X143933123Y-131072909D01*
X144508568Y-131094969D01*
X145084740Y-131089492D01*
X145607561Y-131055837D01*
X146022954Y-130993366D01*
X146058920Y-130984916D01*
X146935852Y-130688205D01*
X147801352Y-130239509D01*
X148627472Y-129655937D01*
X149386266Y-128954599D01*
X149401444Y-128938556D01*
X149647099Y-128683378D01*
X149846092Y-128486527D01*
X149972597Y-128372988D01*
X150003822Y-128355811D01*
X150064668Y-128428971D01*
X150211552Y-128606161D01*
X150422207Y-128860506D01*
X150665446Y-129154350D01*
X151087220Y-129643121D01*
X151455339Y-130017864D01*
X151804686Y-130309562D01*
X152170142Y-130549193D01*
X152345207Y-130646211D01*
X152547900Y-130742029D01*
X152748023Y-130801391D01*
X152994184Y-130831959D01*
X153334988Y-130841395D01*
X153576980Y-130840387D01*
X153967036Y-130827354D01*
X154316246Y-130799148D01*
X154574217Y-130760610D01*
X154660090Y-130736302D01*
X154893702Y-130640483D01*
X154893702Y-128873253D01*
X154192866Y-128883383D01*
X153799057Y-128879367D01*
X153517105Y-128847417D01*
X153289969Y-128778006D01*
X153144839Y-128708360D01*
X152934074Y-128561258D01*
X152644757Y-128311808D01*
X152306099Y-127989011D01*
X151947311Y-127621868D01*
X151597606Y-127239381D01*
X151286194Y-126870551D01*
X151257720Y-126834823D01*
X151000052Y-126509491D01*
X151489255Y-125281078D01*
X151885338Y-124322321D01*
X152249215Y-123518714D01*
X152586617Y-122859798D01*
X152903278Y-122335114D01*
X153204930Y-121934203D01*
X153468146Y-121670714D01*
X153810614Y-121429615D01*
X154184413Y-121242456D01*
X154528847Y-121137090D01*
X154660090Y-121123762D01*
X154893702Y-121121897D01*
X154893702Y-119168050D01*
X154571751Y-119168050D01*
X154164133Y-119209195D01*
X153691439Y-119317971D01*
X153232934Y-119472389D01*
X152897381Y-119632534D01*
X152668980Y-119793415D01*
X152383105Y-120030651D01*
X152097660Y-120295877D01*
X152069154Y-120324303D01*
X151809524Y-120612870D01*
X151560953Y-120951796D01*
X151312269Y-121361765D01*
X151052296Y-121863460D01*
X150769860Y-122477568D01*
X150453788Y-123224772D01*
X150307444Y-123585442D01*
X150131087Y-124023040D01*
X149977529Y-124401466D01*
X149857553Y-124694362D01*
X149781938Y-124875368D01*
X149760886Y-124921776D01*
X149705593Y-124863406D01*
X149558008Y-124689937D01*
X149332225Y-124418735D01*
X149042341Y-124067167D01*
X148702450Y-123652601D01*
X148326649Y-123192405D01*
X147929034Y-122703944D01*
X147523699Y-122204586D01*
X147124740Y-121711699D01*
X146746253Y-121242648D01*
X146402333Y-120814803D01*
X146107076Y-120445529D01*
X145874578Y-120152193D01*
X145718934Y-119952164D01*
X145654239Y-119862807D01*
X145653423Y-119860982D01*
X145706729Y-119784385D01*
X145869022Y-119630497D01*
X146113189Y-119423726D01*
X146333021Y-119249176D01*
X147274082Y-118459115D01*
X148051137Y-117673373D01*
X148662522Y-116893901D01*
X149106573Y-116122652D01*
X149217251Y-115867394D01*
X149301164Y-115630885D01*
X149356735Y-115394568D01*
X149389411Y-115114425D01*
X149404636Y-114746435D01*
X149407924Y-114325910D01*
X149403892Y-113908810D01*
X157443453Y-113908810D01*
X157505235Y-114664748D01*
X157680648Y-115448897D01*
X157950609Y-116183389D01*
X158051841Y-116391376D01*
X158442020Y-116991374D01*
X158965759Y-117577183D01*
X159587369Y-118119724D01*
X160271165Y-118589917D01*
X160981457Y-118958682D01*
X161395400Y-119115897D01*
X162102070Y-119284608D01*
X162898618Y-119373927D01*
X163723907Y-119382317D01*
X164516803Y-119308239D01*
X165017774Y-119207021D01*
X165338924Y-119103225D01*
X165740407Y-118943856D01*
X166154473Y-118756628D01*
X166319455Y-118674491D01*
X166701520Y-118463368D01*
X167040248Y-118238478D01*
X167381139Y-117965344D01*
X167769695Y-117609488D01*
X167931652Y-117452882D01*
X168285819Y-117113372D01*
X168539851Y-116886594D01*
X168709156Y-116760718D01*
X168809143Y-116723914D01*
X168848625Y-116748890D01*
X168997542Y-116961064D01*
X169235828Y-117243186D01*
X169524882Y-117553442D01*
X169826107Y-117850019D01*
X170046345Y-118046350D01*
X170485508Y-118361669D01*
X171030324Y-118674223D01*
X171618922Y-118952925D01*
X172189432Y-119166686D01*
X172393368Y-119225660D01*
X172805125Y-119300875D01*
X173325765Y-119349832D01*
X173901210Y-119371892D01*
X174477382Y-119366415D01*
X175000203Y-119332760D01*
X175415596Y-119270289D01*
X175451562Y-119261839D01*
X176328494Y-118965128D01*
X177193994Y-118516432D01*
X178020115Y-117932860D01*
X178778909Y-117231522D01*
X178794086Y-117215479D01*
X179039741Y-116960301D01*
X179238735Y-116763450D01*
X179365239Y-116649911D01*
X179396464Y-116632734D01*
X179457310Y-116705895D01*
X179604194Y-116883084D01*
X179814850Y-117137429D01*
X180058088Y-117431273D01*
X180479862Y-117920044D01*
X180847981Y-118294788D01*
X181197328Y-118586485D01*
X181562784Y-118826117D01*
X181737849Y-118923134D01*
X181940542Y-119018952D01*
X182140666Y-119078314D01*
X182386826Y-119108882D01*
X182727630Y-119118318D01*
X182969622Y-119117310D01*
X183359678Y-119104278D01*
X183708888Y-119076071D01*
X183966859Y-119037533D01*
X184052732Y-119013225D01*
X184286344Y-118917406D01*
X184286344Y-117150176D01*
X183585508Y-117160306D01*
X183191699Y-117156290D01*
X182909748Y-117124340D01*
X182682611Y-117054929D01*
X182537481Y-116985283D01*
X182326717Y-116838181D01*
X182037399Y-116588731D01*
X181698741Y-116265934D01*
X181339953Y-115898791D01*
X180990248Y-115516304D01*
X180678836Y-115147474D01*
X180650362Y-115111747D01*
X180392694Y-114786414D01*
X180881897Y-113558001D01*
X181277981Y-112599244D01*
X181641857Y-111795637D01*
X181979259Y-111136721D01*
X182295920Y-110612037D01*
X182597572Y-110211126D01*
X182860788Y-109947637D01*
X183203256Y-109706538D01*
X183577055Y-109519379D01*
X183921489Y-109414014D01*
X184052732Y-109400685D01*
X184286344Y-109398820D01*
X184286344Y-107444974D01*
X183964393Y-107444974D01*
X183556775Y-107486118D01*
X183084082Y-107594894D01*
X182625576Y-107749312D01*
X182290023Y-107909457D01*
X182061622Y-108070338D01*
X181775747Y-108307574D01*
X181490303Y-108572800D01*
X181461796Y-108601226D01*
X181202166Y-108889793D01*
X180953595Y-109228719D01*
X180704911Y-109638688D01*
X180444938Y-110140383D01*
X180162503Y-110754491D01*
X179846430Y-111501695D01*
X179700086Y-111862365D01*
X179523729Y-112299963D01*
X179370171Y-112678389D01*
X179250195Y-112971285D01*
X179174581Y-113152291D01*
X179153528Y-113198700D01*
X179098235Y-113140329D01*
X178950650Y-112966860D01*
X178724867Y-112695658D01*
X178434983Y-112344090D01*
X178095092Y-111929524D01*
X177719292Y-111469328D01*
X177321676Y-110980867D01*
X176916341Y-110481509D01*
X176517382Y-109988622D01*
X176138895Y-109519572D01*
X175794975Y-109091726D01*
X175499719Y-108722452D01*
X175267220Y-108429116D01*
X175111576Y-108229087D01*
X175046882Y-108139730D01*
X175046065Y-108137905D01*
X175099371Y-108061308D01*
X175261664Y-107907420D01*
X175505831Y-107700649D01*
X175725664Y-107526099D01*
X176666724Y-106736038D01*
X177443779Y-105950296D01*
X178055164Y-105170824D01*
X178499215Y-104399575D01*
X178609894Y-104144318D01*
X178693806Y-103907808D01*
X178749378Y-103671491D01*
X178782053Y-103391348D01*
X178797278Y-103023358D01*
X178800566Y-102602833D01*
X178795928Y-102123059D01*
X178778460Y-101769484D01*
X178742831Y-101498573D01*
X178683707Y-101266791D01*
X178613291Y-101073736D01*
X178264293Y-100422281D01*
X177779513Y-99840975D01*
X177187379Y-99356377D01*
X176516322Y-98995046D01*
X176301060Y-98913695D01*
X175930361Y-98823689D01*
X175444912Y-98757004D01*
X174898589Y-98716180D01*
X174345267Y-98703759D01*
X173838821Y-98722281D01*
X173433125Y-98774286D01*
X173416981Y-98777696D01*
X172649078Y-99025972D01*
X171922801Y-99418434D01*
X171275123Y-99930341D01*
X170743013Y-100536950D01*
X170702943Y-100594053D01*
X170416502Y-101067718D01*
X170220950Y-101543418D01*
X170100316Y-102073563D01*
X170038629Y-102710563D01*
X170034897Y-102786323D01*
X170038669Y-103487653D01*
X170127874Y-104120545D01*
X170315924Y-104745091D01*
X170616227Y-105421378D01*
X170628400Y-105445659D01*
X170809476Y-105771506D01*
X171064317Y-106185404D01*
X171362399Y-106641283D01*
X171673195Y-107093070D01*
X171966177Y-107494695D01*
X172100349Y-107667167D01*
X172312582Y-107931836D01*
X171567189Y-108472156D01*
X170793489Y-109076771D01*
X170092908Y-109711215D01*
X169481781Y-110356565D01*
X168976438Y-110993899D01*
X168593214Y-111604297D01*
X168348441Y-112168836D01*
X168333134Y-112218877D01*
X168248918Y-112474509D01*
X168175231Y-112644716D01*
X168133905Y-112690496D01*
X168053235Y-112615065D01*
X167886301Y-112426415D01*
X167647686Y-112143005D01*
X167351972Y-111783293D01*
X167013740Y-111365739D01*
X166647572Y-110908800D01*
X166268051Y-110430936D01*
X165889758Y-109950605D01*
X165527275Y-109486266D01*
X165195184Y-109056378D01*
X164908068Y-108679400D01*
X164680508Y-108373789D01*
X164527085Y-108158006D01*
X164462383Y-108050508D01*
X164462038Y-108042423D01*
X164553086Y-107966316D01*
X164749511Y-107806603D01*
X165023797Y-107585529D01*
X165348424Y-107325343D01*
X165400956Y-107283361D01*
X166238132Y-106565024D01*
X166917190Y-105869384D01*
X167446086Y-105183292D01*
X167832777Y-104493598D01*
X168085221Y-103787155D01*
X168211374Y-103050813D01*
X168229818Y-102608652D01*
X168177795Y-101817112D01*
X168017192Y-101136939D01*
X167737648Y-100540869D01*
X167328803Y-100001638D01*
X167180896Y-99848366D01*
X166636925Y-99389973D01*
X166047797Y-99055559D01*
X165386682Y-98835445D01*
X164626748Y-98719952D01*
X163986724Y-98696149D01*
X163140003Y-98743042D01*
X162406201Y-98889649D01*
X161752744Y-99147950D01*
X161147056Y-99529927D01*
X160707165Y-99902325D01*
X160158441Y-100519383D01*
X159761147Y-101205185D01*
X159512756Y-101966434D01*
X159410742Y-102809833D01*
X159416847Y-103324907D01*
X159541967Y-104150913D01*
X159827153Y-105014600D01*
X160268788Y-105908110D01*
X160863254Y-106823586D01*
X161272471Y-107356383D01*
X161717358Y-107904916D01*
X161476562Y-108078456D01*
X160471753Y-108842352D01*
X159624531Y-109575663D01*
X158927627Y-110288898D01*
X158373770Y-110992565D01*
X157955692Y-111697173D01*
X157666124Y-112413229D01*
X157497797Y-113151242D01*
X157443453Y-113908810D01*
X149403892Y-113908810D01*
X149403286Y-113846136D01*
X149385818Y-113492561D01*
X149350188Y-113221650D01*
X149291065Y-112989868D01*
X149220649Y-112796813D01*
X148871651Y-112145358D01*
X148386871Y-111564052D01*
X147794737Y-111079454D01*
X147123680Y-110718123D01*
X146908418Y-110636772D01*
X146537719Y-110546766D01*
X146052270Y-110480081D01*
X145505947Y-110439257D01*
X144952625Y-110426836D01*
X144446179Y-110445358D01*
X144040483Y-110497363D01*
X144024339Y-110500773D01*
X143256436Y-110749049D01*
X142530159Y-111141511D01*
X141882481Y-111653418D01*
X141350371Y-112260027D01*
X141310301Y-112317130D01*
X141023860Y-112790795D01*
X140828308Y-113266495D01*
X140707674Y-113796640D01*
X140645987Y-114433640D01*
X140642255Y-114509400D01*
X140646027Y-115210730D01*
X140735232Y-115843622D01*
X140923281Y-116468168D01*
X141223585Y-117144455D01*
X141235758Y-117168735D01*
X141416834Y-117494583D01*
X141671675Y-117908481D01*
X141969757Y-118364360D01*
X142280552Y-118816147D01*
X142573535Y-119217772D01*
X142707707Y-119390244D01*
X142919939Y-119654913D01*
X142174547Y-120195233D01*
X141400846Y-120799848D01*
X140700266Y-121434291D01*
X140089139Y-122079642D01*
X139583796Y-122716976D01*
X139200572Y-123327374D01*
X138955799Y-123891913D01*
X138940492Y-123941954D01*
X138856276Y-124197586D01*
X138782589Y-124367793D01*
X138741263Y-124413573D01*
X138660593Y-124338142D01*
X138493659Y-124149492D01*
X138255044Y-123866082D01*
X137959329Y-123506370D01*
X137621097Y-123088816D01*
X137254930Y-122631877D01*
X136875408Y-122154013D01*
X136497115Y-121673682D01*
X136134633Y-121209343D01*
X135802542Y-120779455D01*
X135515426Y-120402477D01*
X135287865Y-120096866D01*
X135134443Y-119881083D01*
X135069741Y-119773585D01*
X135069396Y-119765500D01*
X135160444Y-119689393D01*
X135356869Y-119529679D01*
X135631155Y-119308606D01*
X135955782Y-119048420D01*
X136008314Y-119006438D01*
X136845490Y-118288101D01*
X137524548Y-117592461D01*
X138053444Y-116906369D01*
X138440135Y-116216675D01*
X138692579Y-115510232D01*
X138818732Y-114773890D01*
X138837176Y-114331729D01*
X138785153Y-113540188D01*
X138624550Y-112860016D01*
X138345006Y-112263946D01*
X137936161Y-111724715D01*
X137788254Y-111571443D01*
X137244282Y-111113050D01*
X136655155Y-110778636D01*
X135994040Y-110558522D01*
X135234106Y-110443029D01*
X134594082Y-110419226D01*
X133747360Y-110466119D01*
X133013559Y-110612726D01*
X132360101Y-110871027D01*
X131754414Y-111253004D01*
X131314523Y-111625402D01*
X130765799Y-112242460D01*
X130368505Y-112928262D01*
X130120114Y-113689511D01*
X130018100Y-114532910D01*
X130024205Y-115047984D01*
X130149325Y-115873990D01*
X130434511Y-116737677D01*
X130876146Y-117631187D01*
X131470612Y-118546663D01*
X131879829Y-119079460D01*
X132324716Y-119627993D01*
X132083920Y-119801533D01*
X131079111Y-120565429D01*
X130231889Y-121298740D01*
X129534984Y-122011975D01*
X128981128Y-122715642D01*
X128563050Y-123420250D01*
X128273482Y-124136306D01*
X128105155Y-124874319D01*
X128050811Y-125631886D01*
X126860258Y-125631886D01*
X126860258Y-102100783D01*
X128050811Y-102100783D01*
X128112593Y-102856721D01*
X128288006Y-103640871D01*
X128557967Y-104375363D01*
X128659199Y-104583349D01*
X129049378Y-105183347D01*
X129573117Y-105769157D01*
X130194727Y-106311698D01*
X130878522Y-106781891D01*
X131588815Y-107150655D01*
X132002757Y-107307870D01*
X132709428Y-107476581D01*
X133505976Y-107565900D01*
X134331265Y-107574290D01*
X135124161Y-107500212D01*
X135625132Y-107398994D01*
X135946282Y-107295199D01*
X136347764Y-107135829D01*
X136761831Y-106948601D01*
X136926813Y-106866464D01*
X137308878Y-106655341D01*
X137647606Y-106430451D01*
X137988497Y-106157317D01*
X138377053Y-105801461D01*
X138539009Y-105644856D01*
X138893177Y-105305346D01*
X139147209Y-105078567D01*
X139316514Y-104952691D01*
X139416501Y-104915888D01*
X139455983Y-104940863D01*
X139604900Y-105153038D01*
X139843185Y-105435160D01*
X140132240Y-105745416D01*
X140433465Y-106041992D01*
X140653703Y-106238323D01*
X141092866Y-106553642D01*
X141637682Y-106866196D01*
X142226280Y-107144898D01*
X142796790Y-107358659D01*
X143000726Y-107417633D01*
X143412483Y-107492848D01*
X143933123Y-107541806D01*
X144508568Y-107563865D01*
X145084740Y-107558388D01*
X145607561Y-107524734D01*
X146022954Y-107462262D01*
X146058920Y-107453813D01*
X146935852Y-107157101D01*
X147801352Y-106708405D01*
X148627472Y-106124833D01*
X149386266Y-105423495D01*
X149401444Y-105407452D01*
X149647099Y-105152274D01*
X149846092Y-104955423D01*
X149972597Y-104841885D01*
X150003822Y-104824708D01*
X150064668Y-104897868D01*
X150211552Y-105075057D01*
X150422207Y-105329402D01*
X150665446Y-105623246D01*
X151087220Y-106112017D01*
X151455339Y-106486761D01*
X151804686Y-106778458D01*
X152170142Y-107018090D01*
X152345207Y-107115107D01*
X152547900Y-107210925D01*
X152748023Y-107270287D01*
X152994184Y-107300855D01*
X153334988Y-107310291D01*
X153576980Y-107309283D01*
X153967036Y-107296251D01*
X154316246Y-107268044D01*
X154574217Y-107229506D01*
X154660090Y-107205198D01*
X154893702Y-107109379D01*
X154893702Y-105342149D01*
X154192866Y-105352280D01*
X153799057Y-105348264D01*
X153517105Y-105316313D01*
X153289969Y-105246902D01*
X153144839Y-105177256D01*
X152934074Y-105030155D01*
X152644757Y-104780705D01*
X152306099Y-104457907D01*
X151947311Y-104090764D01*
X151597606Y-103708277D01*
X151286194Y-103339447D01*
X151257720Y-103303720D01*
X151000052Y-102978387D01*
X151489255Y-101749975D01*
X151885338Y-100791217D01*
X152249215Y-99987610D01*
X152586617Y-99328694D01*
X152903278Y-98804010D01*
X153204930Y-98403099D01*
X153468146Y-98139611D01*
X153810614Y-97898511D01*
X154184413Y-97711352D01*
X154528847Y-97605987D01*
X154660090Y-97592659D01*
X154893702Y-97590793D01*
X154893702Y-95636947D01*
X154571751Y-95636947D01*
X154164133Y-95678092D01*
X153691439Y-95786867D01*
X153232934Y-95941285D01*
X152897381Y-96101430D01*
X152668980Y-96262312D01*
X152383105Y-96499547D01*
X152097660Y-96764773D01*
X152069154Y-96793199D01*
X151809524Y-97081767D01*
X151560953Y-97420692D01*
X151312269Y-97830661D01*
X151052296Y-98332357D01*
X150769860Y-98946464D01*
X150453788Y-99693668D01*
X150307444Y-100054338D01*
X150131087Y-100491936D01*
X149977529Y-100870362D01*
X149857553Y-101163258D01*
X149781938Y-101344264D01*
X149760886Y-101390673D01*
X149705593Y-101332303D01*
X149558008Y-101158833D01*
X149332225Y-100887631D01*
X149042341Y-100536063D01*
X148702450Y-100121498D01*
X148326649Y-99661301D01*
X147929034Y-99172840D01*
X147523699Y-98673482D01*
X147124740Y-98180595D01*
X146746253Y-97711545D01*
X146402333Y-97283699D01*
X146107076Y-96914425D01*
X145874578Y-96621090D01*
X145718934Y-96421060D01*
X145654239Y-96331703D01*
X145653423Y-96329878D01*
X145706729Y-96253282D01*
X145869022Y-96099393D01*
X146113189Y-95892622D01*
X146333021Y-95718073D01*
X147274082Y-94928011D01*
X148051137Y-94142269D01*
X148662522Y-93362797D01*
X149106573Y-92591548D01*
X149217251Y-92336291D01*
X149301164Y-92099781D01*
X149356735Y-91863464D01*
X149389411Y-91583321D01*
X149404636Y-91215331D01*
X149407924Y-90794806D01*
X149403892Y-90377706D01*
X157443453Y-90377706D01*
X157505235Y-91133644D01*
X157680648Y-91917794D01*
X157950609Y-92652286D01*
X158051841Y-92860272D01*
X158442020Y-93460270D01*
X158965759Y-94046080D01*
X159587369Y-94588621D01*
X160271165Y-95058814D01*
X160981457Y-95427579D01*
X161395400Y-95584793D01*
X162102070Y-95753504D01*
X162898618Y-95842824D01*
X163723907Y-95851213D01*
X164516803Y-95777135D01*
X165017774Y-95675917D01*
X165338924Y-95572122D01*
X165740407Y-95412752D01*
X166154473Y-95225525D01*
X166319455Y-95143387D01*
X166701520Y-94932264D01*
X167040248Y-94707374D01*
X167381139Y-94434240D01*
X167769695Y-94078384D01*
X167931652Y-93921779D01*
X168285819Y-93582269D01*
X168539851Y-93355491D01*
X168709156Y-93229614D01*
X168809143Y-93192811D01*
X168848625Y-93217786D01*
X168997542Y-93429961D01*
X169235828Y-93712083D01*
X169524882Y-94022339D01*
X169826107Y-94318915D01*
X170046345Y-94515246D01*
X170485508Y-94830565D01*
X171030324Y-95143119D01*
X171618922Y-95421821D01*
X172189432Y-95635583D01*
X172393368Y-95694556D01*
X172805125Y-95769771D01*
X173325765Y-95818729D01*
X173901210Y-95840788D01*
X174477382Y-95835311D01*
X175000203Y-95801657D01*
X175415596Y-95739185D01*
X175451562Y-95730736D01*
X176328494Y-95434025D01*
X177193994Y-94985328D01*
X178020115Y-94401756D01*
X178778909Y-93700419D01*
X178794086Y-93684375D01*
X179039741Y-93429197D01*
X179238735Y-93232346D01*
X179365239Y-93118808D01*
X179396464Y-93101631D01*
X179457310Y-93174791D01*
X179604194Y-93351981D01*
X179814850Y-93606325D01*
X180058088Y-93900169D01*
X180479862Y-94388940D01*
X180847981Y-94763684D01*
X181197328Y-95055381D01*
X181562784Y-95295013D01*
X181737849Y-95392030D01*
X181940542Y-95487848D01*
X182140666Y-95547210D01*
X182386826Y-95577778D01*
X182727630Y-95587214D01*
X182969622Y-95586206D01*
X183359678Y-95573174D01*
X183708888Y-95544967D01*
X183966859Y-95506429D01*
X184052732Y-95482121D01*
X184286344Y-95386302D01*
X184286344Y-93619072D01*
X183585508Y-93629203D01*
X183191699Y-93625187D01*
X182909748Y-93593236D01*
X182682611Y-93523826D01*
X182537481Y-93454179D01*
X182326717Y-93307078D01*
X182037399Y-93057628D01*
X181698741Y-92734830D01*
X181339953Y-92367688D01*
X180990248Y-91985200D01*
X180678836Y-91616370D01*
X180650362Y-91580643D01*
X180392694Y-91255310D01*
X180881897Y-90026898D01*
X181277981Y-89068140D01*
X181641857Y-88264533D01*
X181979259Y-87605617D01*
X182295920Y-87080934D01*
X182597572Y-86680023D01*
X182860788Y-86416534D01*
X183203256Y-86175434D01*
X183577055Y-85988276D01*
X183921489Y-85882910D01*
X184052732Y-85869582D01*
X184286344Y-85867716D01*
X184286344Y-83913870D01*
X183964393Y-83913870D01*
X183556775Y-83955015D01*
X183084082Y-84063790D01*
X182625576Y-84218208D01*
X182290023Y-84378353D01*
X182061622Y-84539235D01*
X181775747Y-84776470D01*
X181490303Y-85041696D01*
X181461796Y-85070122D01*
X181202166Y-85358690D01*
X180953595Y-85697616D01*
X180704911Y-86107584D01*
X180444938Y-86609280D01*
X180162503Y-87223387D01*
X179846430Y-87970591D01*
X179700086Y-88331261D01*
X179523729Y-88768859D01*
X179370171Y-89147285D01*
X179250195Y-89440181D01*
X179174581Y-89621187D01*
X179153528Y-89667596D01*
X179098235Y-89609226D01*
X178950650Y-89435756D01*
X178724867Y-89164554D01*
X178434983Y-88812986D01*
X178095092Y-88398421D01*
X177719292Y-87938224D01*
X177321676Y-87449763D01*
X176916341Y-86950405D01*
X176517382Y-86457518D01*
X176138895Y-85988468D01*
X175794975Y-85560622D01*
X175499719Y-85191348D01*
X175267220Y-84898013D01*
X175111576Y-84697983D01*
X175046882Y-84608626D01*
X175046065Y-84606802D01*
X175099371Y-84530205D01*
X175261664Y-84376316D01*
X175505831Y-84169545D01*
X175725664Y-83994996D01*
X176666724Y-83204934D01*
X177443779Y-82419192D01*
X178055164Y-81639721D01*
X178499215Y-80868471D01*
X178609894Y-80613214D01*
X178693806Y-80376704D01*
X178749378Y-80140387D01*
X178782053Y-79860244D01*
X178797278Y-79492254D01*
X178800566Y-79071729D01*
X178795928Y-78591955D01*
X178778460Y-78238380D01*
X178742831Y-77967469D01*
X178683707Y-77735688D01*
X178613291Y-77542632D01*
X178264293Y-76891177D01*
X177779513Y-76309871D01*
X177187379Y-75825273D01*
X176516322Y-75463942D01*
X176301060Y-75382591D01*
X175930361Y-75292585D01*
X175444912Y-75225900D01*
X174898589Y-75185077D01*
X174345267Y-75172656D01*
X173838821Y-75191178D01*
X173433125Y-75243183D01*
X173416981Y-75246593D01*
X172649078Y-75494868D01*
X171922801Y-75887330D01*
X171275123Y-76399237D01*
X170743013Y-77005846D01*
X170702943Y-77062950D01*
X170416502Y-77536614D01*
X170220950Y-78012314D01*
X170100316Y-78542459D01*
X170038629Y-79179460D01*
X170034897Y-79255220D01*
X170038669Y-79956549D01*
X170127874Y-80589442D01*
X170315924Y-81213987D01*
X170616227Y-81890274D01*
X170628400Y-81914555D01*
X170809476Y-82240402D01*
X171064317Y-82654301D01*
X171362399Y-83110179D01*
X171673195Y-83561967D01*
X171966177Y-83963591D01*
X172100349Y-84136064D01*
X172312582Y-84400733D01*
X171567189Y-84941052D01*
X170793489Y-85545667D01*
X170092908Y-86180111D01*
X169481781Y-86825461D01*
X168976438Y-87462796D01*
X168593214Y-88073193D01*
X168348441Y-88637732D01*
X168333134Y-88687773D01*
X168248918Y-88943406D01*
X168175231Y-89113612D01*
X168133905Y-89159392D01*
X168053235Y-89083961D01*
X167886301Y-88895311D01*
X167647686Y-88611901D01*
X167351972Y-88252189D01*
X167013740Y-87834635D01*
X166647572Y-87377696D01*
X166268051Y-86899832D01*
X165889758Y-86419501D01*
X165527275Y-85955163D01*
X165195184Y-85525275D01*
X164908068Y-85148296D01*
X164680508Y-84842686D01*
X164527085Y-84626902D01*
X164462383Y-84519404D01*
X164462038Y-84511319D01*
X164553086Y-84435212D01*
X164749511Y-84275499D01*
X165023797Y-84054426D01*
X165348424Y-83794239D01*
X165400956Y-83752257D01*
X166238132Y-83033921D01*
X166917190Y-82338280D01*
X167446086Y-81652188D01*
X167832777Y-80962494D01*
X168085221Y-80256051D01*
X168211374Y-79519710D01*
X168229818Y-79077548D01*
X168177795Y-78286008D01*
X168017192Y-77605835D01*
X167737648Y-77009765D01*
X167328803Y-76470535D01*
X167180896Y-76317262D01*
X166636925Y-75858869D01*
X166047797Y-75524455D01*
X165386682Y-75304341D01*
X164626748Y-75188848D01*
X163986724Y-75165045D01*
X163140003Y-75211938D01*
X162406201Y-75358545D01*
X161752744Y-75616847D01*
X161147056Y-75998824D01*
X160707165Y-76371221D01*
X160158441Y-76988279D01*
X159761147Y-77674082D01*
X159512756Y-78435330D01*
X159410742Y-79278729D01*
X159416847Y-79793803D01*
X159541967Y-80619809D01*
X159827153Y-81483496D01*
X160268788Y-82377007D01*
X160863254Y-83292482D01*
X161272471Y-83825279D01*
X161717358Y-84373812D01*
X161476562Y-84547353D01*
X160471753Y-85311248D01*
X159624531Y-86044559D01*
X158927627Y-86757794D01*
X158373770Y-87461461D01*
X157955692Y-88166069D01*
X157666124Y-88882125D01*
X157497797Y-89620139D01*
X157443453Y-90377706D01*
X149403892Y-90377706D01*
X149403286Y-90315032D01*
X149385818Y-89961457D01*
X149350188Y-89690546D01*
X149291065Y-89458765D01*
X149220649Y-89265709D01*
X148871651Y-88614254D01*
X148386871Y-88032948D01*
X147794737Y-87548350D01*
X147123680Y-87187019D01*
X146908418Y-87105668D01*
X146537719Y-87015662D01*
X146052270Y-86948977D01*
X145505947Y-86908154D01*
X144952625Y-86895733D01*
X144446179Y-86914254D01*
X144040483Y-86966259D01*
X144024339Y-86969669D01*
X143256436Y-87217945D01*
X142530159Y-87610407D01*
X141882481Y-88122314D01*
X141350371Y-88728923D01*
X141310301Y-88786027D01*
X141023860Y-89259691D01*
X140828308Y-89735391D01*
X140707674Y-90265536D01*
X140645987Y-90902537D01*
X140642255Y-90978297D01*
X140646027Y-91679626D01*
X140735232Y-92312519D01*
X140923281Y-92937064D01*
X141223585Y-93613351D01*
X141235758Y-93637632D01*
X141416834Y-93963479D01*
X141671675Y-94377378D01*
X141969757Y-94833256D01*
X142280552Y-95285043D01*
X142573535Y-95686668D01*
X142707707Y-95859141D01*
X142919939Y-96123810D01*
X142174547Y-96664129D01*
X141400846Y-97268744D01*
X140700266Y-97903188D01*
X140089139Y-98548538D01*
X139583796Y-99185873D01*
X139200572Y-99796270D01*
X138955799Y-100360809D01*
X138940492Y-100410850D01*
X138856276Y-100666483D01*
X138782589Y-100836689D01*
X138741263Y-100882469D01*
X138660593Y-100807038D01*
X138493659Y-100618388D01*
X138255044Y-100334978D01*
X137959329Y-99975266D01*
X137621097Y-99557712D01*
X137254930Y-99100773D01*
X136875408Y-98622909D01*
X136497115Y-98142578D01*
X136134633Y-97678240D01*
X135802542Y-97248352D01*
X135515426Y-96871373D01*
X135287865Y-96565763D01*
X135134443Y-96349979D01*
X135069741Y-96242481D01*
X135069396Y-96234396D01*
X135160444Y-96158289D01*
X135356869Y-95998576D01*
X135631155Y-95777503D01*
X135955782Y-95517316D01*
X136008314Y-95475334D01*
X136845490Y-94756998D01*
X137524548Y-94061357D01*
X138053444Y-93375265D01*
X138440135Y-92685571D01*
X138692579Y-91979128D01*
X138818732Y-91242786D01*
X138837176Y-90800625D01*
X138785153Y-90009085D01*
X138624550Y-89328912D01*
X138345006Y-88732842D01*
X137936161Y-88193611D01*
X137788254Y-88040339D01*
X137244282Y-87581946D01*
X136655155Y-87247532D01*
X135994040Y-87027418D01*
X135234106Y-86911925D01*
X134594082Y-86888122D01*
X133747360Y-86935015D01*
X133013559Y-87081622D01*
X132360101Y-87339924D01*
X131754414Y-87721901D01*
X131314523Y-88094298D01*
X130765799Y-88711356D01*
X130368505Y-89397159D01*
X130120114Y-90158407D01*
X130018100Y-91001806D01*
X130024205Y-91516880D01*
X130149325Y-92342886D01*
X130434511Y-93206573D01*
X130876146Y-94100084D01*
X131470612Y-95015559D01*
X131879829Y-95548356D01*
X132324716Y-96096889D01*
X132083920Y-96270430D01*
X131079111Y-97034325D01*
X130231889Y-97767636D01*
X129534984Y-98480871D01*
X128981128Y-99184538D01*
X128563050Y-99889146D01*
X128273482Y-100605202D01*
X128105155Y-101343216D01*
X128050811Y-102100783D01*
X126860258Y-102100783D01*
X126860258Y-78569679D01*
X127965861Y-78569679D01*
X128027643Y-79325617D01*
X128203056Y-80109767D01*
X128473017Y-80844259D01*
X128574249Y-81052246D01*
X128964429Y-81652244D01*
X129488167Y-82238053D01*
X130109777Y-82780594D01*
X130793573Y-83250787D01*
X131503865Y-83619552D01*
X131917808Y-83776766D01*
X132624478Y-83945478D01*
X133421026Y-84034797D01*
X134246315Y-84043186D01*
X135039211Y-83969108D01*
X135540182Y-83867890D01*
X135861332Y-83764095D01*
X136262815Y-83604725D01*
X136676881Y-83417498D01*
X136841863Y-83335360D01*
X137223928Y-83124238D01*
X137562656Y-82899348D01*
X137903547Y-82626213D01*
X138292103Y-82270357D01*
X138454060Y-82113752D01*
X138808227Y-81774242D01*
X139062259Y-81547464D01*
X139231564Y-81421588D01*
X139331552Y-81384784D01*
X139371033Y-81409759D01*
X139519950Y-81621934D01*
X139758236Y-81904056D01*
X140047290Y-82214312D01*
X140348515Y-82510889D01*
X140568753Y-82707219D01*
X141007917Y-83022538D01*
X141552732Y-83335092D01*
X142141330Y-83613794D01*
X142711840Y-83827556D01*
X142915776Y-83886530D01*
X143327533Y-83961745D01*
X143848173Y-84010702D01*
X144423618Y-84032762D01*
X144999790Y-84027284D01*
X145522611Y-83993630D01*
X145938004Y-83931159D01*
X145973970Y-83922709D01*
X146850902Y-83625998D01*
X147716402Y-83177301D01*
X148542523Y-82593729D01*
X149301317Y-81892392D01*
X149316494Y-81876349D01*
X149562149Y-81621171D01*
X149761143Y-81424319D01*
X149887647Y-81310781D01*
X149918872Y-81293604D01*
X149979718Y-81366764D01*
X150126602Y-81543954D01*
X150337258Y-81798298D01*
X150580496Y-82092143D01*
X151002270Y-82580913D01*
X151370389Y-82955657D01*
X151719736Y-83247355D01*
X152085192Y-83486986D01*
X152260258Y-83584003D01*
X152462950Y-83679822D01*
X152663074Y-83739184D01*
X152909234Y-83769752D01*
X153250038Y-83779188D01*
X153492030Y-83778179D01*
X153882086Y-83765147D01*
X154231296Y-83736941D01*
X154489267Y-83698403D01*
X154575140Y-83674094D01*
X154808752Y-83578276D01*
X154808752Y-81811045D01*
X154107916Y-81821176D01*
X153714107Y-81817160D01*
X153432156Y-81785210D01*
X153205019Y-81715799D01*
X153059889Y-81646153D01*
X152849125Y-81499051D01*
X152559807Y-81249601D01*
X152221149Y-80926804D01*
X151862362Y-80559661D01*
X151512656Y-80177173D01*
X151201244Y-79808343D01*
X151172770Y-79772616D01*
X150915102Y-79447284D01*
X151404305Y-78218871D01*
X151800389Y-77260114D01*
X152164265Y-76456507D01*
X152501667Y-75797591D01*
X152818328Y-75272907D01*
X153119980Y-74871996D01*
X153383196Y-74608507D01*
X153725664Y-74367407D01*
X154099463Y-74180249D01*
X154443897Y-74074883D01*
X154575140Y-74061555D01*
X154808752Y-74059689D01*
X154808752Y-72105843D01*
X154486801Y-72105843D01*
X154079183Y-72146988D01*
X153606490Y-72255764D01*
X153147984Y-72410181D01*
X152812431Y-72570327D01*
X152584030Y-72731208D01*
X152298155Y-72968443D01*
X152012711Y-73233670D01*
X151984204Y-73262095D01*
X151724574Y-73550663D01*
X151476003Y-73889589D01*
X151227319Y-74299557D01*
X150967346Y-74801253D01*
X150684911Y-75415361D01*
X150368839Y-76162565D01*
X150222494Y-76523234D01*
X150046137Y-76960832D01*
X149892579Y-77339258D01*
X149772603Y-77632154D01*
X149696989Y-77813161D01*
X149675936Y-77859569D01*
X149620643Y-77801199D01*
X149473058Y-77627729D01*
X149247275Y-77356527D01*
X148957391Y-77004960D01*
X148617500Y-76590394D01*
X148241700Y-76130197D01*
X147844084Y-75641736D01*
X147438749Y-75142379D01*
X147039790Y-74649491D01*
X146661303Y-74180441D01*
X146317383Y-73752595D01*
X146022127Y-73383321D01*
X145789628Y-73089986D01*
X145633984Y-72889956D01*
X145569290Y-72800600D01*
X145568473Y-72798775D01*
X145621779Y-72722178D01*
X145784072Y-72568290D01*
X146028239Y-72361518D01*
X146248072Y-72186969D01*
X147189132Y-71396908D01*
X147966187Y-70611165D01*
X148577572Y-69831694D01*
X149021623Y-69060445D01*
X149132302Y-68805187D01*
X149216214Y-68568677D01*
X149271786Y-68332361D01*
X149304461Y-68052217D01*
X149319686Y-67684227D01*
X149322974Y-67263703D01*
X149318942Y-66846602D01*
X157358503Y-66846602D01*
X157420285Y-67602540D01*
X157595698Y-68386690D01*
X157865659Y-69121182D01*
X157966891Y-69329169D01*
X158357071Y-69929167D01*
X158880809Y-70514976D01*
X159502420Y-71057517D01*
X160186215Y-71527710D01*
X160896508Y-71896475D01*
X161310450Y-72053690D01*
X162017120Y-72222401D01*
X162813668Y-72311720D01*
X163638957Y-72320109D01*
X164431853Y-72246031D01*
X164932824Y-72144813D01*
X165253974Y-72041018D01*
X165655457Y-71881648D01*
X166069523Y-71694421D01*
X166234505Y-71612283D01*
X166616570Y-71401161D01*
X166955298Y-71176271D01*
X167296190Y-70903136D01*
X167684745Y-70547280D01*
X167846702Y-70390675D01*
X168200869Y-70051165D01*
X168454901Y-69824387D01*
X168624206Y-69698511D01*
X168724194Y-69661707D01*
X168763675Y-69686682D01*
X168912593Y-69898857D01*
X169150878Y-70180979D01*
X169439932Y-70491235D01*
X169741157Y-70787812D01*
X169961395Y-70984142D01*
X170400559Y-71299461D01*
X170945374Y-71612015D01*
X171533972Y-71890717D01*
X172104482Y-72104479D01*
X172308418Y-72163453D01*
X172720175Y-72238668D01*
X173240815Y-72287625D01*
X173816260Y-72309685D01*
X174392432Y-72304207D01*
X174915253Y-72270553D01*
X175330646Y-72208082D01*
X175366612Y-72199632D01*
X176243544Y-71902921D01*
X177109044Y-71454224D01*
X177935165Y-70870653D01*
X178693959Y-70169315D01*
X178709136Y-70153272D01*
X178954791Y-69898094D01*
X179153785Y-69701243D01*
X179280289Y-69587704D01*
X179311514Y-69570527D01*
X179372360Y-69643687D01*
X179519244Y-69820877D01*
X179729900Y-70075222D01*
X179973138Y-70369066D01*
X180394912Y-70857836D01*
X180763031Y-71232580D01*
X181112378Y-71524278D01*
X181477834Y-71763909D01*
X181652900Y-71860927D01*
X181855592Y-71956745D01*
X182055716Y-72016107D01*
X182301876Y-72046675D01*
X182642680Y-72056111D01*
X182884672Y-72055102D01*
X183274728Y-72042070D01*
X183623938Y-72013864D01*
X183881909Y-71975326D01*
X183967783Y-71951018D01*
X184201395Y-71855199D01*
X184201395Y-70087968D01*
X183500559Y-70098099D01*
X183106749Y-70094083D01*
X182824798Y-70062133D01*
X182597661Y-69992722D01*
X182452531Y-69923076D01*
X182241767Y-69775974D01*
X181952450Y-69526524D01*
X181613791Y-69203727D01*
X181255004Y-68836584D01*
X180905298Y-68454097D01*
X180593886Y-68085266D01*
X180565412Y-68049539D01*
X180307744Y-67724207D01*
X180796947Y-66495794D01*
X181193031Y-65537037D01*
X181556907Y-64733430D01*
X181894309Y-64074514D01*
X182210970Y-63549830D01*
X182512622Y-63148919D01*
X182775838Y-62885430D01*
X183118306Y-62644331D01*
X183492105Y-62457172D01*
X183836539Y-62351806D01*
X183967783Y-62338478D01*
X184201395Y-62336612D01*
X184201395Y-60382766D01*
X183879443Y-60382766D01*
X183471826Y-60423911D01*
X182999132Y-60532687D01*
X182540626Y-60687104D01*
X182205074Y-60847250D01*
X181976672Y-61008131D01*
X181690797Y-61245366D01*
X181405353Y-61510593D01*
X181376846Y-61539018D01*
X181117216Y-61827586D01*
X180868646Y-62166512D01*
X180619961Y-62576480D01*
X180359988Y-63078176D01*
X180077553Y-63692284D01*
X179761481Y-64439488D01*
X179615137Y-64800157D01*
X179438779Y-65237755D01*
X179285222Y-65616181D01*
X179165245Y-65909077D01*
X179089631Y-66090084D01*
X179068578Y-66136492D01*
X179013285Y-66078122D01*
X178865700Y-65904652D01*
X178639917Y-65633450D01*
X178350033Y-65281883D01*
X178010143Y-64867317D01*
X177634342Y-64407120D01*
X177236726Y-63918659D01*
X176831391Y-63419302D01*
X176432432Y-62926414D01*
X176053945Y-62457364D01*
X175710025Y-62029519D01*
X175414769Y-61660244D01*
X175182270Y-61366909D01*
X175026626Y-61166879D01*
X174961932Y-61077523D01*
X174961115Y-61075698D01*
X175014422Y-60999101D01*
X175176715Y-60845213D01*
X175420881Y-60638441D01*
X175640714Y-60463892D01*
X176581774Y-59673831D01*
X177358829Y-58888088D01*
X177970214Y-58108617D01*
X178414265Y-57337368D01*
X178524944Y-57082110D01*
X178608856Y-56845600D01*
X178664428Y-56609284D01*
X178697103Y-56329140D01*
X178712328Y-55961150D01*
X178715616Y-55540626D01*
X178710978Y-55060851D01*
X178693511Y-54707276D01*
X178657881Y-54436366D01*
X178598757Y-54204584D01*
X178528341Y-54011529D01*
X178179343Y-53360073D01*
X177694563Y-52778767D01*
X177102429Y-52294170D01*
X176431372Y-51932838D01*
X176216110Y-51851488D01*
X175845411Y-51761481D01*
X175359962Y-51694796D01*
X174813640Y-51653973D01*
X174260317Y-51641552D01*
X173753871Y-51660074D01*
X173348175Y-51712079D01*
X173332031Y-51715489D01*
X172564128Y-51963764D01*
X171837852Y-52356227D01*
X171190173Y-52868134D01*
X170658063Y-53474743D01*
X170617993Y-53531846D01*
X170331552Y-54005510D01*
X170136000Y-54481210D01*
X170015366Y-55011356D01*
X169953679Y-55648356D01*
X169949947Y-55724116D01*
X169953719Y-56425445D01*
X170042924Y-57058338D01*
X170230974Y-57682883D01*
X170531278Y-58359171D01*
X170543451Y-58383451D01*
X170724526Y-58709298D01*
X170979368Y-59123197D01*
X171277449Y-59579076D01*
X171588245Y-60030863D01*
X171881227Y-60432487D01*
X172015399Y-60604960D01*
X172227632Y-60869629D01*
X171482239Y-61409948D01*
X170708539Y-62014564D01*
X170007959Y-62649007D01*
X169396831Y-63294357D01*
X168891489Y-63931692D01*
X168508264Y-64542090D01*
X168263491Y-65106628D01*
X168248184Y-65156670D01*
X168163968Y-65412302D01*
X168090282Y-65582509D01*
X168048955Y-65628289D01*
X167968285Y-65552858D01*
X167801351Y-65364208D01*
X167562736Y-65080798D01*
X167267022Y-64721086D01*
X166928790Y-64303531D01*
X166562622Y-63846593D01*
X166183101Y-63368729D01*
X165804808Y-62888398D01*
X165442325Y-62424059D01*
X165110234Y-61994171D01*
X164823118Y-61617192D01*
X164595558Y-61311582D01*
X164442135Y-61095798D01*
X164377433Y-60988300D01*
X164377088Y-60980216D01*
X164468136Y-60904109D01*
X164664561Y-60744395D01*
X164938847Y-60523322D01*
X165263475Y-60263136D01*
X165316006Y-60221154D01*
X166153182Y-59502817D01*
X166832240Y-58807177D01*
X167361136Y-58121084D01*
X167747828Y-57431391D01*
X168000271Y-56724948D01*
X168126424Y-55988606D01*
X168144868Y-55546445D01*
X168092845Y-54754904D01*
X167932242Y-54074731D01*
X167652698Y-53478662D01*
X167243853Y-52939431D01*
X167095946Y-52786159D01*
X166551975Y-52327766D01*
X165962847Y-51993351D01*
X165301732Y-51773237D01*
X164541798Y-51657744D01*
X163901774Y-51633942D01*
X163055053Y-51680834D01*
X162321251Y-51827441D01*
X161667794Y-52085743D01*
X161062106Y-52467720D01*
X160622216Y-52840117D01*
X160073491Y-53457176D01*
X159676197Y-54142978D01*
X159427806Y-54904227D01*
X159325792Y-55747625D01*
X159331897Y-56262699D01*
X159457017Y-57088705D01*
X159742203Y-57952393D01*
X160183838Y-58845903D01*
X160778304Y-59761378D01*
X161187521Y-60294175D01*
X161632409Y-60842708D01*
X161391612Y-61016249D01*
X160386804Y-61780145D01*
X159539582Y-62513456D01*
X158842677Y-63226691D01*
X158288820Y-63930358D01*
X157870742Y-64634965D01*
X157581174Y-65351022D01*
X157412847Y-66089035D01*
X157358503Y-66846602D01*
X149318942Y-66846602D01*
X149318336Y-66783928D01*
X149300868Y-66430353D01*
X149265239Y-66159442D01*
X149206115Y-65927661D01*
X149135699Y-65734606D01*
X148786701Y-65083150D01*
X148301921Y-64501844D01*
X147709787Y-64017247D01*
X147038730Y-63655915D01*
X146823468Y-63574565D01*
X146452769Y-63484558D01*
X145967320Y-63417873D01*
X145420997Y-63377050D01*
X144867675Y-63364629D01*
X144361229Y-63383151D01*
X143955533Y-63435156D01*
X143939389Y-63438566D01*
X143171486Y-63686841D01*
X142445209Y-64079304D01*
X141797531Y-64591211D01*
X141265421Y-65197820D01*
X141225351Y-65254923D01*
X140938910Y-65728587D01*
X140743358Y-66204287D01*
X140622724Y-66734433D01*
X140561037Y-67371433D01*
X140557305Y-67447193D01*
X140561077Y-68148522D01*
X140650282Y-68781415D01*
X140838332Y-69405960D01*
X141138635Y-70082248D01*
X141150808Y-70106528D01*
X141331884Y-70432375D01*
X141586725Y-70846274D01*
X141884807Y-71302153D01*
X142195603Y-71753940D01*
X142488585Y-72155564D01*
X142622757Y-72328037D01*
X142834990Y-72592706D01*
X142089597Y-73133025D01*
X141315897Y-73737641D01*
X140615316Y-74372084D01*
X140004189Y-75017434D01*
X139498846Y-75654769D01*
X139115622Y-76265167D01*
X138870849Y-76829705D01*
X138855542Y-76879747D01*
X138771326Y-77135379D01*
X138697639Y-77305586D01*
X138656313Y-77351366D01*
X138575643Y-77275935D01*
X138408709Y-77087285D01*
X138170094Y-76803874D01*
X137874380Y-76444163D01*
X137536148Y-76026608D01*
X137169980Y-75569670D01*
X136790459Y-75091805D01*
X136412166Y-74611475D01*
X136049683Y-74147136D01*
X135717592Y-73717248D01*
X135430476Y-73340269D01*
X135202916Y-73034659D01*
X135049493Y-72818875D01*
X134984791Y-72711377D01*
X134984446Y-72703293D01*
X135075494Y-72627185D01*
X135271919Y-72467472D01*
X135546205Y-72246399D01*
X135870833Y-71986212D01*
X135923364Y-71944231D01*
X136760540Y-71225894D01*
X137439598Y-70530254D01*
X137968494Y-69844161D01*
X138355185Y-69154468D01*
X138607629Y-68448025D01*
X138733782Y-67711683D01*
X138752226Y-67269522D01*
X138700203Y-66477981D01*
X138539600Y-65797808D01*
X138260056Y-65201738D01*
X137851211Y-64662508D01*
X137703304Y-64509236D01*
X137159333Y-64050843D01*
X136570205Y-63716428D01*
X135909090Y-63496314D01*
X135149156Y-63380821D01*
X134509132Y-63357019D01*
X133662411Y-63403911D01*
X132928609Y-63550518D01*
X132275152Y-63808820D01*
X131669464Y-64190797D01*
X131229573Y-64563194D01*
X130680849Y-65180253D01*
X130283555Y-65866055D01*
X130035164Y-66627304D01*
X129933150Y-67470702D01*
X129939255Y-67985776D01*
X130064375Y-68811782D01*
X130349561Y-69675470D01*
X130791196Y-70568980D01*
X131385662Y-71484455D01*
X131794879Y-72017252D01*
X132239766Y-72565785D01*
X131998970Y-72739326D01*
X130994162Y-73503222D01*
X130146939Y-74236533D01*
X129450035Y-74949768D01*
X128896178Y-75653435D01*
X128478100Y-76358042D01*
X128188532Y-77074099D01*
X128020205Y-77812112D01*
X127965861Y-78569679D01*
X126860258Y-78569679D01*
X126860258Y-55038575D01*
X128050811Y-55038575D01*
X128112593Y-55794514D01*
X128288006Y-56578663D01*
X128557967Y-57313155D01*
X128659199Y-57521142D01*
X129049378Y-58121140D01*
X129573117Y-58706949D01*
X130194727Y-59249490D01*
X130878522Y-59719683D01*
X131588815Y-60088448D01*
X132002757Y-60245663D01*
X132709428Y-60414374D01*
X133505976Y-60503693D01*
X134331265Y-60512083D01*
X135124161Y-60438004D01*
X135625132Y-60336787D01*
X135946282Y-60232991D01*
X136347764Y-60073621D01*
X136761831Y-59886394D01*
X136926813Y-59804257D01*
X137308878Y-59593134D01*
X137647606Y-59368244D01*
X137988497Y-59095109D01*
X138377053Y-58739253D01*
X138539009Y-58582648D01*
X138893177Y-58243138D01*
X139147209Y-58016360D01*
X139316514Y-57890484D01*
X139416501Y-57853680D01*
X139455983Y-57878656D01*
X139604900Y-58090830D01*
X139843185Y-58372952D01*
X140132240Y-58683208D01*
X140433465Y-58979785D01*
X140653703Y-59176116D01*
X141092866Y-59491434D01*
X141637682Y-59803989D01*
X142226280Y-60082690D01*
X142796790Y-60296452D01*
X143000726Y-60355426D01*
X143412483Y-60430641D01*
X143933123Y-60479598D01*
X144508568Y-60501658D01*
X145084740Y-60496181D01*
X145607561Y-60462526D01*
X146022954Y-60400055D01*
X146058920Y-60391605D01*
X146935852Y-60094894D01*
X147801352Y-59646198D01*
X148627472Y-59062626D01*
X149386266Y-58361288D01*
X149401444Y-58345245D01*
X149647099Y-58090067D01*
X149846092Y-57893216D01*
X149972597Y-57779677D01*
X150003822Y-57762500D01*
X150064668Y-57835660D01*
X150211552Y-58012850D01*
X150422207Y-58267195D01*
X150665446Y-58561039D01*
X151087220Y-59049810D01*
X151455339Y-59424553D01*
X151804686Y-59716251D01*
X152170142Y-59955882D01*
X152345207Y-60052900D01*
X152547900Y-60148718D01*
X152748023Y-60208080D01*
X152994184Y-60238648D01*
X153334988Y-60248084D01*
X153576980Y-60247076D01*
X153967036Y-60234043D01*
X154316246Y-60205837D01*
X154574217Y-60167299D01*
X154660090Y-60142991D01*
X154893702Y-60047172D01*
X154893702Y-58279942D01*
X154192866Y-58290072D01*
X153799057Y-58286056D01*
X153517105Y-58254106D01*
X153289969Y-58184695D01*
X153144839Y-58115049D01*
X152934074Y-57967947D01*
X152644757Y-57718497D01*
X152306099Y-57395700D01*
X151947311Y-57028557D01*
X151597606Y-56646070D01*
X151286194Y-56277239D01*
X151257720Y-56241512D01*
X151000052Y-55916180D01*
X151489255Y-54687767D01*
X151885338Y-53729010D01*
X152249215Y-52925403D01*
X152586617Y-52266487D01*
X152903278Y-51741803D01*
X153204930Y-51340892D01*
X153468146Y-51077403D01*
X153810614Y-50836304D01*
X154184413Y-50649145D01*
X154528847Y-50543779D01*
X154660090Y-50530451D01*
X154893702Y-50528586D01*
X154893702Y-48574739D01*
X154571751Y-48574739D01*
X154164133Y-48615884D01*
X153691439Y-48724660D01*
X153232934Y-48879078D01*
X152897381Y-49039223D01*
X152668980Y-49200104D01*
X152383105Y-49437340D01*
X152097660Y-49702566D01*
X152069154Y-49730992D01*
X151809524Y-50019559D01*
X151560953Y-50358485D01*
X151312269Y-50768454D01*
X151052296Y-51270149D01*
X150769860Y-51884257D01*
X150453788Y-52631461D01*
X150307444Y-52992131D01*
X150131087Y-53429728D01*
X149977529Y-53808155D01*
X149857553Y-54101050D01*
X149781938Y-54282057D01*
X149760886Y-54328465D01*
X149705593Y-54270095D01*
X149558008Y-54096626D01*
X149332225Y-53825423D01*
X149042341Y-53473856D01*
X148702450Y-53059290D01*
X148326649Y-52599094D01*
X147929034Y-52110633D01*
X147523699Y-51611275D01*
X147124740Y-51118388D01*
X146746253Y-50649337D01*
X146402333Y-50221492D01*
X146107076Y-49852218D01*
X145874578Y-49558882D01*
X145718934Y-49358853D01*
X145654239Y-49269496D01*
X145653423Y-49267671D01*
X145706729Y-49191074D01*
X145869022Y-49037186D01*
X146113189Y-48830415D01*
X146333021Y-48655865D01*
X147274082Y-47865804D01*
X148051137Y-47080062D01*
X148662522Y-46300590D01*
X149106573Y-45529341D01*
X149217251Y-45274083D01*
X149301164Y-45037573D01*
X149356735Y-44801257D01*
X149389411Y-44521113D01*
X149404636Y-44153123D01*
X149407924Y-43732599D01*
X149403286Y-43252825D01*
X149385818Y-42899250D01*
X149350188Y-42628339D01*
X149291065Y-42396557D01*
X149220649Y-42203502D01*
X148871651Y-41552047D01*
X148386871Y-40970741D01*
X147794737Y-40486143D01*
X147123680Y-40124812D01*
X146908418Y-40043461D01*
X146537719Y-39953455D01*
X146052270Y-39886770D01*
X145505947Y-39845946D01*
X144952625Y-39833525D01*
X144446179Y-39852047D01*
X144040483Y-39904052D01*
X144024339Y-39907462D01*
X143256436Y-40155738D01*
X142530159Y-40548200D01*
X141882481Y-41060107D01*
X141350371Y-41666716D01*
X141310301Y-41723819D01*
X141023860Y-42197483D01*
X140828308Y-42673184D01*
X140707674Y-43203329D01*
X140645987Y-43840329D01*
X140642255Y-43916089D01*
X140646027Y-44617419D01*
X140735232Y-45250311D01*
X140923281Y-45874857D01*
X141223585Y-46551144D01*
X141235758Y-46575424D01*
X141416834Y-46901272D01*
X141671675Y-47315170D01*
X141969757Y-47771049D01*
X142280552Y-48222836D01*
X142573535Y-48624461D01*
X142707707Y-48796933D01*
X142919939Y-49061602D01*
X142174547Y-49601922D01*
X141400846Y-50206537D01*
X140700266Y-50840980D01*
X140089139Y-51486331D01*
X139583796Y-52123665D01*
X139200572Y-52734063D01*
X138955799Y-53298602D01*
X138940492Y-53348643D01*
X138856276Y-53604275D01*
X138782589Y-53774482D01*
X138741263Y-53820262D01*
X138660593Y-53744831D01*
X138493659Y-53556181D01*
X138255044Y-53272771D01*
X137959329Y-52913059D01*
X137621097Y-52495505D01*
X137254930Y-52038566D01*
X136875408Y-51560702D01*
X136497115Y-51080371D01*
X136134633Y-50616032D01*
X135802542Y-50186144D01*
X135515426Y-49809166D01*
X135287865Y-49503555D01*
X135134443Y-49287772D01*
X135069741Y-49180274D01*
X135069396Y-49172189D01*
X135160444Y-49096082D01*
X135356869Y-48936368D01*
X135631155Y-48715295D01*
X135955782Y-48455109D01*
X136008314Y-48413127D01*
X136845490Y-47694790D01*
X137524548Y-46999150D01*
X138053444Y-46313057D01*
X138440135Y-45623364D01*
X138692579Y-44916921D01*
X138818732Y-44180579D01*
X138837176Y-43738418D01*
X138785153Y-42946877D01*
X138624550Y-42266704D01*
X138345006Y-41670635D01*
X137936161Y-41131404D01*
X137788254Y-40978132D01*
X137244282Y-40519739D01*
X136655155Y-40185325D01*
X135994040Y-39965210D01*
X135234106Y-39849718D01*
X134594082Y-39825915D01*
X133747360Y-39872808D01*
X133013559Y-40019415D01*
X132360101Y-40277716D01*
X131754414Y-40659693D01*
X131314523Y-41032091D01*
X130765799Y-41649149D01*
X130368505Y-42334951D01*
X130120114Y-43096200D01*
X130018100Y-43939599D01*
X130024205Y-44454673D01*
X130149325Y-45280679D01*
X130434511Y-46144366D01*
X130876146Y-47037876D01*
X131470612Y-47953352D01*
X131879829Y-48486149D01*
X132324716Y-49034682D01*
X132083920Y-49208222D01*
X131079111Y-49972118D01*
X130231889Y-50705429D01*
X129534984Y-51418664D01*
X128981128Y-52122331D01*
X128563050Y-52826939D01*
X128273482Y-53542995D01*
X128105155Y-54281008D01*
X128050811Y-55038575D01*
X126860258Y-55038575D01*
X126860258Y-38380760D01*
X160226664Y-38380760D01*
X159318784Y-39293970D01*
X158911805Y-39714103D01*
X158604551Y-40060570D01*
X158367844Y-40370388D01*
X158172508Y-40680573D01*
X158055683Y-40896467D01*
X157684102Y-41785246D01*
X157481975Y-42682257D01*
X157448936Y-43590559D01*
X157584620Y-44513208D01*
X157610011Y-44616416D01*
X157810931Y-45260467D01*
X158074027Y-45823280D01*
X158427135Y-46351779D01*
X158898087Y-46892893D01*
X159055973Y-47054167D01*
X159442800Y-47425544D01*
X159775183Y-47702367D01*
X160104473Y-47923021D01*
X160482018Y-48125893D01*
X160504277Y-48136843D01*
X161093101Y-48403447D01*
X161625407Y-48588023D01*
X162158203Y-48703206D01*
X162748495Y-48761629D01*
X163388686Y-48776114D01*
X164072723Y-48757453D01*
X164646803Y-48694184D01*
X165168003Y-48572774D01*
X165693398Y-48379689D01*
X166280066Y-48101395D01*
X166319455Y-48081180D01*
X166701520Y-47870057D01*
X167040248Y-47645167D01*
X167381139Y-47372033D01*
X167769695Y-47016177D01*
X167931652Y-46859571D01*
X168285819Y-46520061D01*
X168539851Y-46293283D01*
X168709156Y-46167407D01*
X168809143Y-46130603D01*
X168848625Y-46155579D01*
X168997542Y-46367753D01*
X169235828Y-46649875D01*
X169524882Y-46960131D01*
X169826107Y-47256708D01*
X170046345Y-47453039D01*
X170485508Y-47768357D01*
X171030324Y-48080912D01*
X171618922Y-48359614D01*
X172189432Y-48573375D01*
X172393368Y-48632349D01*
X172805125Y-48707564D01*
X173325765Y-48756521D01*
X173901210Y-48778581D01*
X174477382Y-48773104D01*
X175000203Y-48739449D01*
X175415596Y-48676978D01*
X175451562Y-48668528D01*
X176328494Y-48371817D01*
X177193994Y-47923121D01*
X178020115Y-47339549D01*
X178778909Y-46638211D01*
X178794086Y-46622168D01*
X179039741Y-46366990D01*
X179238735Y-46170139D01*
X179365239Y-46056600D01*
X179396464Y-46039423D01*
X179457310Y-46112583D01*
X179604194Y-46289773D01*
X179814850Y-46544118D01*
X180058088Y-46837962D01*
X180479862Y-47326733D01*
X180847981Y-47701476D01*
X181197328Y-47993174D01*
X181562784Y-48232805D01*
X181737849Y-48329823D01*
X181940542Y-48425641D01*
X182140666Y-48485003D01*
X182386826Y-48515571D01*
X182727630Y-48525007D01*
X182969622Y-48523999D01*
X183359678Y-48510966D01*
X183708888Y-48482760D01*
X183966859Y-48444222D01*
X184052732Y-48419914D01*
X184286344Y-48324095D01*
X184286344Y-46556865D01*
X183585508Y-46566995D01*
X183191699Y-46562979D01*
X182909748Y-46531029D01*
X182682611Y-46461618D01*
X182537481Y-46391972D01*
X182326717Y-46244870D01*
X182037399Y-45995420D01*
X181698741Y-45672623D01*
X181339953Y-45305480D01*
X180990248Y-44922993D01*
X180678836Y-44554163D01*
X180650362Y-44518436D01*
X180392694Y-44193103D01*
X180881897Y-42964690D01*
X181277981Y-42005933D01*
X181641857Y-41202326D01*
X181979259Y-40543410D01*
X182295920Y-40018726D01*
X182597572Y-39617815D01*
X182860788Y-39354326D01*
X183203256Y-39113227D01*
X183577055Y-38926068D01*
X183921489Y-38820702D01*
X184052732Y-38807374D01*
X184225063Y-38777535D01*
X184283399Y-38660709D01*
X184286344Y-38593134D01*
X184297137Y-38475433D01*
X184356110Y-38411887D01*
X184503159Y-38385871D01*
X184778178Y-38380764D01*
X184796043Y-38380760D01*
X185305742Y-38380760D01*
X185305742Y-149325241D01*
X178879543Y-149325241D01*
X178781803Y-148799671D01*
X178560672Y-148052130D01*
X178196568Y-147388217D01*
X177700063Y-146818831D01*
X177081730Y-146354870D01*
X176352139Y-146007231D01*
X175950136Y-145880760D01*
X175562754Y-145812062D01*
X175066459Y-145772786D01*
X174519659Y-145762873D01*
X173980763Y-145782264D01*
X173508180Y-145830898D01*
X173243509Y-145883525D01*
X172421397Y-146184467D01*
X171701135Y-146619163D01*
X171089458Y-147180584D01*
X170593103Y-147861700D01*
X170218808Y-148655482D01*
X170046510Y-149219054D01*
X169975284Y-149271671D01*
X169781136Y-149305399D01*
X169446545Y-149322301D01*
X169144839Y-149325241D01*
X168269572Y-149325241D01*
X168163716Y-148767218D01*
X167950946Y-148038980D01*
X167600963Y-147402469D01*
X167181598Y-146911275D01*
X166637614Y-146452732D01*
X166048732Y-146118193D01*
X165388055Y-145897954D01*
X164628683Y-145782306D01*
X163986724Y-145758356D01*
X163140003Y-145805249D01*
X162406201Y-145951856D01*
X161752744Y-146210158D01*
X161147056Y-146592135D01*
X160707165Y-146964532D01*
X160307180Y-147402616D01*
X159957952Y-147906276D01*
X159688411Y-148426287D01*
X159527485Y-148913423D01*
X159511404Y-148999268D01*
X159459279Y-149325241D01*
X155350069Y-149325241D01*
X154500955Y-149323735D01*
X153717744Y-149319398D01*
X153015412Y-149312505D01*
X152408936Y-149303329D01*
X151913292Y-149292143D01*
X151543459Y-149279221D01*
X151314412Y-149264837D01*
X151240860Y-149250169D01*
X151278109Y-149090558D01*
X151380711Y-148809918D01*
X151534943Y-148437594D01*
X151727084Y-148002934D01*
X151943410Y-147535286D01*
X152170202Y-147063995D01*
X152393736Y-146618409D01*
X152600292Y-146227875D01*
X152776147Y-145921740D01*
X152852524Y-145803286D01*
X153197880Y-145388737D01*
X153601605Y-145044377D01*
X154025958Y-144795366D01*
X154433201Y-144666863D01*
X154575140Y-144654866D01*
X154808752Y-144653000D01*
X154808752Y-142699154D01*
X154486801Y-142699154D01*
X154079183Y-142740299D01*
X153606490Y-142849075D01*
X153147984Y-143003492D01*
X152812431Y-143163638D01*
X152584030Y-143324519D01*
X152298155Y-143561754D01*
X152012711Y-143826981D01*
X151984204Y-143855406D01*
X151724574Y-144143974D01*
X151476003Y-144482900D01*
X151227319Y-144892868D01*
X150967346Y-145394564D01*
X150684911Y-146008672D01*
X150368839Y-146755876D01*
X150222494Y-147116545D01*
X150046137Y-147554143D01*
X149892579Y-147932569D01*
X149772603Y-148225465D01*
X149696989Y-148406472D01*
X149675936Y-148452880D01*
X149620643Y-148394510D01*
X149473058Y-148221040D01*
X149247275Y-147949838D01*
X148957391Y-147598271D01*
X148617500Y-147183705D01*
X148241700Y-146723508D01*
X147844084Y-146235047D01*
X147438749Y-145735690D01*
X147039790Y-145242802D01*
X146661303Y-144773752D01*
X146317383Y-144345906D01*
X146022127Y-143976632D01*
X145789628Y-143683297D01*
X145633984Y-143483267D01*
X145569290Y-143393911D01*
X145568473Y-143392086D01*
X145621779Y-143315489D01*
X145784072Y-143161601D01*
X146028239Y-142954829D01*
X146248072Y-142780280D01*
X147189132Y-141990219D01*
X147966187Y-141204476D01*
X148577572Y-140425005D01*
X149021623Y-139653756D01*
X149132302Y-139398498D01*
X149216214Y-139161988D01*
X149271786Y-138925672D01*
X149304461Y-138645528D01*
X149319686Y-138277538D01*
X149322974Y-137857014D01*
X149318942Y-137439913D01*
X157358503Y-137439913D01*
X157420285Y-138195851D01*
X157595698Y-138980001D01*
X157865659Y-139714493D01*
X157966891Y-139922480D01*
X158357071Y-140522478D01*
X158880809Y-141108287D01*
X159502420Y-141650828D01*
X160186215Y-142121021D01*
X160896508Y-142489786D01*
X161310450Y-142647001D01*
X162017120Y-142815712D01*
X162813668Y-142905031D01*
X163638957Y-142913420D01*
X164431853Y-142839342D01*
X164932824Y-142738124D01*
X165253974Y-142634329D01*
X165655457Y-142474959D01*
X166069523Y-142287732D01*
X166234505Y-142205594D01*
X166616570Y-141994472D01*
X166955298Y-141769582D01*
X167296190Y-141496447D01*
X167684745Y-141140591D01*
X167846702Y-140983986D01*
X168200869Y-140644476D01*
X168454901Y-140417698D01*
X168624206Y-140291822D01*
X168724194Y-140255018D01*
X168763675Y-140279993D01*
X168912593Y-140492168D01*
X169150878Y-140774290D01*
X169439932Y-141084546D01*
X169741157Y-141381123D01*
X169961395Y-141577453D01*
X170400559Y-141892772D01*
X170945374Y-142205326D01*
X171533972Y-142484028D01*
X172104482Y-142697790D01*
X172308418Y-142756764D01*
X172720175Y-142831979D01*
X173240815Y-142880936D01*
X173816260Y-142902996D01*
X174392432Y-142897518D01*
X174915253Y-142863864D01*
X175330646Y-142801393D01*
X175366612Y-142792943D01*
X176243544Y-142496232D01*
X177109044Y-142047535D01*
X177935165Y-141463964D01*
X178693959Y-140762626D01*
X178709136Y-140746583D01*
X178954791Y-140491405D01*
X179153785Y-140294554D01*
X179280289Y-140181015D01*
X179311514Y-140163838D01*
X179372360Y-140236998D01*
X179519244Y-140414188D01*
X179729900Y-140668533D01*
X179973138Y-140962377D01*
X180394912Y-141451147D01*
X180763031Y-141825891D01*
X181112378Y-142117589D01*
X181477834Y-142357220D01*
X181652900Y-142454238D01*
X181855592Y-142550056D01*
X182055716Y-142609418D01*
X182301876Y-142639986D01*
X182642680Y-142649422D01*
X182884672Y-142648413D01*
X183274728Y-142635381D01*
X183623938Y-142607175D01*
X183881909Y-142568637D01*
X183967783Y-142544329D01*
X184201395Y-142448510D01*
X184201395Y-140681279D01*
X183500559Y-140691410D01*
X183106749Y-140687394D01*
X182824798Y-140655444D01*
X182597661Y-140586033D01*
X182452531Y-140516387D01*
X182241767Y-140369285D01*
X181952450Y-140119835D01*
X181613791Y-139797038D01*
X181255004Y-139429895D01*
X180905298Y-139047408D01*
X180593886Y-138678577D01*
X180565412Y-138642850D01*
X180307744Y-138317518D01*
X180796947Y-137089105D01*
X181193031Y-136130348D01*
X181556907Y-135326741D01*
X181894309Y-134667825D01*
X182210970Y-134143141D01*
X182512622Y-133742230D01*
X182775838Y-133478741D01*
X183118306Y-133237642D01*
X183492105Y-133050483D01*
X183836539Y-132945117D01*
X183967783Y-132931789D01*
X184201395Y-132929923D01*
X184201395Y-130976077D01*
X183879443Y-130976077D01*
X183471826Y-131017222D01*
X182999132Y-131125998D01*
X182540626Y-131280415D01*
X182205074Y-131440561D01*
X181976672Y-131601442D01*
X181690797Y-131838677D01*
X181405353Y-132103904D01*
X181376846Y-132132329D01*
X181117216Y-132420897D01*
X180868646Y-132759823D01*
X180619961Y-133169791D01*
X180359988Y-133671487D01*
X180077553Y-134285595D01*
X179761481Y-135032799D01*
X179615137Y-135393469D01*
X179438779Y-135831066D01*
X179285222Y-136209492D01*
X179165245Y-136502388D01*
X179089631Y-136683395D01*
X179068578Y-136729803D01*
X179013285Y-136671433D01*
X178865700Y-136497963D01*
X178639917Y-136226761D01*
X178350033Y-135875194D01*
X178010143Y-135460628D01*
X177634342Y-135000431D01*
X177236726Y-134511970D01*
X176831391Y-134012613D01*
X176432432Y-133519725D01*
X176053945Y-133050675D01*
X175710025Y-132622830D01*
X175414769Y-132253555D01*
X175182270Y-131960220D01*
X175026626Y-131760190D01*
X174961932Y-131670834D01*
X174961115Y-131669009D01*
X175014422Y-131592412D01*
X175176715Y-131438524D01*
X175420881Y-131231752D01*
X175640714Y-131057203D01*
X176581774Y-130267142D01*
X177358829Y-129481399D01*
X177970214Y-128701928D01*
X178414265Y-127930679D01*
X178524944Y-127675421D01*
X178608856Y-127438911D01*
X178664428Y-127202595D01*
X178697103Y-126922451D01*
X178712328Y-126554461D01*
X178715616Y-126133937D01*
X178710978Y-125654163D01*
X178693511Y-125300587D01*
X178657881Y-125029677D01*
X178598757Y-124797895D01*
X178528341Y-124604840D01*
X178179343Y-123953384D01*
X177694563Y-123372079D01*
X177102429Y-122887481D01*
X176431372Y-122526149D01*
X176216110Y-122444799D01*
X175845411Y-122354792D01*
X175359962Y-122288107D01*
X174813640Y-122247284D01*
X174260317Y-122234863D01*
X173753871Y-122253385D01*
X173348175Y-122305390D01*
X173332031Y-122308800D01*
X172564128Y-122557075D01*
X171837852Y-122949538D01*
X171190173Y-123461445D01*
X170658063Y-124068054D01*
X170617993Y-124125157D01*
X170331552Y-124598821D01*
X170136000Y-125074521D01*
X170015366Y-125604667D01*
X169953679Y-126241667D01*
X169949947Y-126317427D01*
X169953719Y-127018756D01*
X170042924Y-127651649D01*
X170230974Y-128276194D01*
X170531278Y-128952482D01*
X170543451Y-128976762D01*
X170724526Y-129302609D01*
X170979368Y-129716508D01*
X171277449Y-130172387D01*
X171588245Y-130624174D01*
X171881227Y-131025798D01*
X172015399Y-131198271D01*
X172227632Y-131462940D01*
X171482239Y-132003259D01*
X170708539Y-132607875D01*
X170007959Y-133242318D01*
X169396831Y-133887668D01*
X168891489Y-134525003D01*
X168508264Y-135135401D01*
X168263491Y-135699939D01*
X168248184Y-135749981D01*
X168163968Y-136005613D01*
X168090282Y-136175820D01*
X168048955Y-136221600D01*
X167968285Y-136146169D01*
X167801351Y-135957519D01*
X167562736Y-135674109D01*
X167267022Y-135314397D01*
X166928790Y-134896842D01*
X166562622Y-134439904D01*
X166183101Y-133962040D01*
X165804808Y-133481709D01*
X165442325Y-133017370D01*
X165110234Y-132587482D01*
X164823118Y-132210503D01*
X164595558Y-131904893D01*
X164442135Y-131689109D01*
X164377433Y-131581611D01*
X164377088Y-131573527D01*
X164468136Y-131497420D01*
X164664561Y-131337706D01*
X164938847Y-131116633D01*
X165263475Y-130856447D01*
X165316006Y-130814465D01*
X166153182Y-130096128D01*
X166832240Y-129400488D01*
X167361136Y-128714395D01*
X167747828Y-128024702D01*
X168000271Y-127318259D01*
X168126424Y-126581917D01*
X168144868Y-126139756D01*
X168092845Y-125348215D01*
X167932242Y-124668042D01*
X167652698Y-124071973D01*
X167243853Y-123532742D01*
X167095946Y-123379470D01*
X166551975Y-122921077D01*
X165962847Y-122586662D01*
X165301732Y-122366548D01*
X164541798Y-122251055D01*
X163901774Y-122227253D01*
X163055053Y-122274145D01*
X162321251Y-122420752D01*
X161667794Y-122679054D01*
X161062106Y-123061031D01*
X160622216Y-123433428D01*
X160073491Y-124050487D01*
X159676197Y-124736289D01*
X159427806Y-125497538D01*
X159325792Y-126340936D01*
X159331897Y-126856010D01*
X159457017Y-127682016D01*
X159742203Y-128545704D01*
X160183838Y-129439214D01*
X160778304Y-130354689D01*
X161187521Y-130887486D01*
X161632409Y-131436020D01*
X161391612Y-131609560D01*
X160386804Y-132373456D01*
X159539582Y-133106767D01*
X158842677Y-133820002D01*
X158288820Y-134523669D01*
X157870742Y-135228276D01*
X157581174Y-135944333D01*
X157412847Y-136682346D01*
X157358503Y-137439913D01*
X149318942Y-137439913D01*
X149318336Y-137377239D01*
X149300868Y-137023664D01*
G37*
G36*
X135030027Y-41735385D02*
G01*
X135627339Y-41904426D01*
X136154593Y-42227111D01*
X136226951Y-42288363D01*
X136543995Y-42620785D01*
X136748157Y-42978907D01*
X136853705Y-43402843D01*
X136874909Y-43932703D01*
X136868430Y-44091591D01*
X136806827Y-44606897D01*
X136670967Y-45085070D01*
X136448063Y-45543515D01*
X136125327Y-45999637D01*
X135689971Y-46470840D01*
X135129207Y-46974530D01*
X134430248Y-47528112D01*
X134237312Y-47672707D01*
X133926407Y-47903626D01*
X133405496Y-47241022D01*
X133124342Y-46851385D01*
X132826191Y-46386814D01*
X132561953Y-45928115D01*
X132484629Y-45779374D01*
X132305108Y-45414054D01*
X132189404Y-45144848D01*
X132123563Y-44916814D01*
X132093631Y-44675013D01*
X132085656Y-44364503D01*
X132085488Y-44207803D01*
X132091452Y-43820212D01*
X132116191Y-43545563D01*
X132171447Y-43327045D01*
X132268960Y-43107847D01*
X132340338Y-42974601D01*
X132713564Y-42462978D01*
X133195909Y-42080545D01*
X133783200Y-41829882D01*
X134368367Y-41721727D01*
X135030027Y-41735385D01*
G37*
G36*
X144141076Y-50572575D02*
G01*
X144312185Y-50772069D01*
X144566621Y-51075847D01*
X144892789Y-51469868D01*
X145279096Y-51940091D01*
X145713949Y-52472476D01*
X146185752Y-53052981D01*
X146474426Y-53409486D01*
X148769662Y-56247912D01*
X148513368Y-56571510D01*
X147895171Y-57237141D01*
X147202342Y-57778222D01*
X146454573Y-58186435D01*
X145671558Y-58453460D01*
X144872992Y-58570977D01*
X144078566Y-58530667D01*
X143935174Y-58505549D01*
X143317158Y-58310580D01*
X142709900Y-57984308D01*
X142153153Y-57557212D01*
X141686671Y-57059770D01*
X141351116Y-56524380D01*
X141092959Y-55785650D01*
X140989955Y-55010303D01*
X141040219Y-54226564D01*
X141241867Y-53462661D01*
X141593012Y-52746820D01*
X141604649Y-52728264D01*
X141818051Y-52430828D01*
X142098838Y-52098004D01*
X142424562Y-51750200D01*
X142772773Y-51407829D01*
X143121024Y-51091299D01*
X143446866Y-50821022D01*
X143727851Y-50617407D01*
X143941529Y-50500865D01*
X144064888Y-50491406D01*
X144141076Y-50572575D01*
G37*
G36*
X173533718Y-38849498D02*
G01*
X173704827Y-39048992D01*
X173959263Y-39352770D01*
X174285431Y-39746791D01*
X174671739Y-40217014D01*
X175106591Y-40749399D01*
X175578394Y-41329904D01*
X175867068Y-41686409D01*
X178162304Y-44524835D01*
X177906010Y-44848433D01*
X177287813Y-45514064D01*
X176594984Y-46055145D01*
X175847215Y-46463358D01*
X175064200Y-46730383D01*
X174265634Y-46847900D01*
X173471208Y-46807590D01*
X173327816Y-46782472D01*
X172709800Y-46587503D01*
X172102542Y-46261231D01*
X171545795Y-45834135D01*
X171079314Y-45336693D01*
X170743758Y-44801303D01*
X170485601Y-44062573D01*
X170382597Y-43287226D01*
X170432861Y-42503487D01*
X170634509Y-41739584D01*
X170985654Y-41023743D01*
X170997291Y-41005187D01*
X171210693Y-40707751D01*
X171491480Y-40374927D01*
X171817204Y-40027123D01*
X172165415Y-39684752D01*
X172513667Y-39368222D01*
X172839509Y-39097945D01*
X173120493Y-38894330D01*
X173334171Y-38777788D01*
X173457530Y-38768329D01*
X173533718Y-38849498D01*
G37*
G36*
X144141076Y-121165886D02*
G01*
X144312185Y-121365380D01*
X144566621Y-121669158D01*
X144892789Y-122063179D01*
X145279096Y-122533402D01*
X145713949Y-123065787D01*
X146185752Y-123646292D01*
X146474426Y-124002797D01*
X148769662Y-126841223D01*
X148513368Y-127164821D01*
X147895171Y-127830452D01*
X147202342Y-128371533D01*
X146454573Y-128779746D01*
X145671558Y-129046771D01*
X144872992Y-129164288D01*
X144078566Y-129123978D01*
X143935174Y-129098860D01*
X143317158Y-128903891D01*
X142709900Y-128577619D01*
X142153153Y-128150523D01*
X141686671Y-127653081D01*
X141351116Y-127117691D01*
X141092959Y-126378961D01*
X140989955Y-125603614D01*
X141040219Y-124819875D01*
X141241867Y-124055972D01*
X141593012Y-123340131D01*
X141604649Y-123321575D01*
X141818051Y-123024139D01*
X142098838Y-122691315D01*
X142424562Y-122343511D01*
X142772773Y-122001140D01*
X143121024Y-121684610D01*
X143446866Y-121414333D01*
X143727851Y-121210718D01*
X143941529Y-121094176D01*
X144064888Y-121084717D01*
X144141076Y-121165886D01*
G37*
G36*
X135030027Y-112328696D02*
G01*
X135627339Y-112497737D01*
X136154593Y-112820422D01*
X136226951Y-112881674D01*
X136543995Y-113214096D01*
X136748157Y-113572218D01*
X136853705Y-113996154D01*
X136874909Y-114526014D01*
X136868430Y-114684902D01*
X136806827Y-115200208D01*
X136670967Y-115678381D01*
X136448063Y-116136826D01*
X136125327Y-116592948D01*
X135689971Y-117064151D01*
X135129207Y-117567841D01*
X134430248Y-118121423D01*
X134237312Y-118266018D01*
X133926407Y-118496937D01*
X133405496Y-117834333D01*
X133124342Y-117444696D01*
X132826191Y-116980125D01*
X132561953Y-116521426D01*
X132484629Y-116372685D01*
X132305108Y-116007365D01*
X132189404Y-115738159D01*
X132123563Y-115510125D01*
X132093631Y-115268324D01*
X132085656Y-114957814D01*
X132085488Y-114801114D01*
X132091452Y-114413523D01*
X132116191Y-114138874D01*
X132171447Y-113920356D01*
X132268960Y-113701158D01*
X132340338Y-113567912D01*
X132713564Y-113056289D01*
X133195909Y-112673856D01*
X133783200Y-112423193D01*
X134368367Y-112315038D01*
X135030027Y-112328696D01*
G37*
G36*
X175351113Y-53637893D02*
G01*
X175876852Y-53887844D01*
X176151910Y-54095103D01*
X176483912Y-54467201D01*
X176694601Y-54905470D01*
X176795664Y-55440053D01*
X176808743Y-55789371D01*
X176753345Y-56349026D01*
X176585343Y-56891149D01*
X176295818Y-57428149D01*
X175875853Y-57972439D01*
X175316529Y-58536429D01*
X174608929Y-59132530D01*
X174163113Y-59471350D01*
X173851588Y-59701080D01*
X173517460Y-59298612D01*
X172888265Y-58462435D01*
X172423313Y-57667073D01*
X172122208Y-56911390D01*
X171984554Y-56194252D01*
X172009953Y-55514526D01*
X172082555Y-55192178D01*
X172317509Y-54666794D01*
X172674524Y-54230465D01*
X173126760Y-53890426D01*
X173647377Y-53653913D01*
X174209535Y-53528163D01*
X174786394Y-53520411D01*
X175351113Y-53637893D01*
G37*
G36*
X173533718Y-109442809D02*
G01*
X173704827Y-109642303D01*
X173959263Y-109946081D01*
X174285431Y-110340102D01*
X174671739Y-110810325D01*
X175106591Y-111342710D01*
X175578394Y-111923215D01*
X175867068Y-112279720D01*
X178162304Y-115118146D01*
X177906010Y-115441744D01*
X177287813Y-116107375D01*
X176594984Y-116648456D01*
X175847215Y-117056669D01*
X175064200Y-117323694D01*
X174265634Y-117441211D01*
X173471208Y-117400901D01*
X173327816Y-117375783D01*
X172709800Y-117180814D01*
X172102542Y-116854542D01*
X171545795Y-116427446D01*
X171079314Y-115930004D01*
X170743758Y-115394614D01*
X170485601Y-114655884D01*
X170382597Y-113880537D01*
X170432861Y-113096798D01*
X170634509Y-112332895D01*
X170985654Y-111617054D01*
X170997291Y-111598498D01*
X171210693Y-111301062D01*
X171491480Y-110968238D01*
X171817204Y-110620434D01*
X172165415Y-110278063D01*
X172513667Y-109961533D01*
X172839509Y-109691256D01*
X173120493Y-109487641D01*
X173334171Y-109371099D01*
X173457530Y-109361640D01*
X173533718Y-109442809D01*
G37*
G36*
X134945078Y-135859800D02*
G01*
X135542389Y-136028841D01*
X136069643Y-136351525D01*
X136142001Y-136412778D01*
X136459045Y-136745199D01*
X136663207Y-137103322D01*
X136768755Y-137527258D01*
X136789959Y-138057118D01*
X136783480Y-138216006D01*
X136721877Y-138731311D01*
X136586017Y-139209484D01*
X136363113Y-139667929D01*
X136040377Y-140124051D01*
X135605021Y-140595255D01*
X135044257Y-141098945D01*
X134345299Y-141652526D01*
X134152362Y-141797122D01*
X133841457Y-142028041D01*
X133320546Y-141365437D01*
X133039392Y-140975799D01*
X132741241Y-140511228D01*
X132477003Y-140052530D01*
X132399679Y-139903789D01*
X132220158Y-139538469D01*
X132104454Y-139269262D01*
X132038613Y-139041229D01*
X132008682Y-138799428D01*
X132000706Y-138488917D01*
X132000539Y-138332217D01*
X132006502Y-137944626D01*
X132031242Y-137669978D01*
X132086498Y-137451460D01*
X132184010Y-137232261D01*
X132255388Y-137099016D01*
X132628614Y-136587392D01*
X133110959Y-136204960D01*
X133698250Y-135954296D01*
X134283417Y-135846141D01*
X134945078Y-135859800D01*
G37*
G36*
X170083684Y-39124071D02*
G01*
X169491962Y-39743088D01*
X168996376Y-40366881D01*
X168614530Y-40970292D01*
X168364029Y-41528165D01*
X168333134Y-41625578D01*
X168250435Y-41885061D01*
X168181298Y-42063257D01*
X168145876Y-42117483D01*
X168078701Y-42054944D01*
X167930288Y-41886501D01*
X167724402Y-41639815D01*
X167543904Y-41416765D01*
X167293201Y-41104389D01*
X166968645Y-40701799D01*
X166603745Y-40250463D01*
X166232007Y-39791850D01*
X166034568Y-39548820D01*
X165084729Y-38380760D01*
X170858374Y-38380760D01*
X170083684Y-39124071D01*
G37*
G36*
X173533718Y-85911706D02*
G01*
X173704827Y-86111200D01*
X173959263Y-86414978D01*
X174285431Y-86808998D01*
X174671739Y-87279221D01*
X175106591Y-87811606D01*
X175578394Y-88392111D01*
X175867068Y-88748617D01*
X178162304Y-91587042D01*
X177906010Y-91910640D01*
X177287813Y-92576271D01*
X176594984Y-93117353D01*
X175847215Y-93525566D01*
X175064200Y-93792590D01*
X174265634Y-93910108D01*
X173471208Y-93869798D01*
X173327816Y-93844679D01*
X172709800Y-93649711D01*
X172102542Y-93323439D01*
X171545795Y-92896342D01*
X171079314Y-92398900D01*
X170743758Y-91863510D01*
X170485601Y-91124780D01*
X170382597Y-90349433D01*
X170432861Y-89565695D01*
X170634509Y-88801792D01*
X170985654Y-88085950D01*
X170997291Y-88067394D01*
X171210693Y-87769959D01*
X171491480Y-87437134D01*
X171817204Y-87089331D01*
X172165415Y-86746959D01*
X172513667Y-86430429D01*
X172839509Y-86160152D01*
X173120493Y-85956537D01*
X173334171Y-85839995D01*
X173457530Y-85830536D01*
X173533718Y-85911706D01*
G37*
G36*
X180675717Y-39081596D02*
G01*
X180515033Y-39404194D01*
X180313021Y-39840075D01*
X180089817Y-40344127D01*
X179865559Y-40871243D01*
X179737142Y-41184104D01*
X179554048Y-41636089D01*
X179393664Y-42029648D01*
X179266453Y-42339299D01*
X179182876Y-42539563D01*
X179153653Y-42605171D01*
X179097940Y-42546902D01*
X178948792Y-42372679D01*
X178719611Y-42098651D01*
X178423798Y-41740969D01*
X178074756Y-41315783D01*
X177685887Y-40839244D01*
X177570071Y-40696816D01*
X177163339Y-40196115D01*
X176785200Y-39730383D01*
X176450727Y-39318205D01*
X176174995Y-38978163D01*
X175973076Y-38728841D01*
X175860046Y-38588824D01*
X175848908Y-38574913D01*
X175694080Y-38380760D01*
X181048048Y-38380760D01*
X180675717Y-39081596D01*
G37*
G36*
X164422669Y-100605619D02*
G01*
X165019981Y-100774660D01*
X165547235Y-101097345D01*
X165619593Y-101158597D01*
X165936637Y-101491019D01*
X166140799Y-101849142D01*
X166246347Y-102273077D01*
X166267551Y-102802937D01*
X166261072Y-102961825D01*
X166199469Y-103477131D01*
X166063609Y-103955304D01*
X165840705Y-104413749D01*
X165517969Y-104869871D01*
X165082613Y-105341074D01*
X164521849Y-105844764D01*
X163822891Y-106398346D01*
X163629954Y-106542942D01*
X163319049Y-106773860D01*
X162798138Y-106111256D01*
X162516984Y-105721619D01*
X162218833Y-105257048D01*
X161954595Y-104798349D01*
X161877271Y-104649609D01*
X161697750Y-104284288D01*
X161582046Y-104015082D01*
X161516205Y-103787048D01*
X161486274Y-103545247D01*
X161478298Y-103234737D01*
X161478131Y-103078037D01*
X161484094Y-102690446D01*
X161508834Y-102415797D01*
X161564090Y-102197279D01*
X161661602Y-101978081D01*
X161732980Y-101844835D01*
X162106206Y-101333212D01*
X162588551Y-100950779D01*
X163175842Y-100700116D01*
X163761009Y-100591961D01*
X164422669Y-100605619D01*
G37*
G36*
X134945078Y-65266489D02*
G01*
X135542389Y-65435530D01*
X136069643Y-65758214D01*
X136142001Y-65819467D01*
X136459045Y-66151888D01*
X136663207Y-66510011D01*
X136768755Y-66933947D01*
X136789959Y-67463807D01*
X136783480Y-67622695D01*
X136721877Y-68138000D01*
X136586017Y-68616173D01*
X136363113Y-69074618D01*
X136040377Y-69530740D01*
X135605021Y-70001944D01*
X135044257Y-70505634D01*
X134345299Y-71059215D01*
X134152362Y-71203811D01*
X133841457Y-71434730D01*
X133320546Y-70772126D01*
X133039392Y-70382488D01*
X132741241Y-69917917D01*
X132477003Y-69459219D01*
X132399679Y-69310478D01*
X132220158Y-68945158D01*
X132104454Y-68675951D01*
X132038613Y-68447918D01*
X132008682Y-68206117D01*
X132000706Y-67895606D01*
X132000539Y-67738906D01*
X132006502Y-67351315D01*
X132031242Y-67076667D01*
X132086498Y-66858149D01*
X132184010Y-66638950D01*
X132255388Y-66505705D01*
X132628614Y-65994081D01*
X133110959Y-65611649D01*
X133698250Y-65360985D01*
X134283417Y-65252830D01*
X134945078Y-65266489D01*
G37*
G36*
X164422669Y-77074515D02*
G01*
X165019981Y-77243557D01*
X165547235Y-77566241D01*
X165619593Y-77627493D01*
X165936637Y-77959915D01*
X166140799Y-78318038D01*
X166246347Y-78741973D01*
X166267551Y-79271833D01*
X166261072Y-79430721D01*
X166199469Y-79946027D01*
X166063609Y-80424200D01*
X165840705Y-80882645D01*
X165517969Y-81338767D01*
X165082613Y-81809970D01*
X164521849Y-82313661D01*
X163822891Y-82867242D01*
X163629954Y-83011838D01*
X163319049Y-83242757D01*
X162798138Y-82580153D01*
X162516984Y-82190515D01*
X162218833Y-81725944D01*
X161954595Y-81267246D01*
X161877271Y-81118505D01*
X161697750Y-80753184D01*
X161582046Y-80483978D01*
X161516205Y-80255945D01*
X161486274Y-80014143D01*
X161478298Y-79703633D01*
X161478131Y-79546933D01*
X161484094Y-79159342D01*
X161508834Y-78884694D01*
X161564090Y-78666176D01*
X161661602Y-78446977D01*
X161732980Y-78313731D01*
X162106206Y-77802108D01*
X162588551Y-77419676D01*
X163175842Y-77169012D01*
X163761009Y-77060857D01*
X164422669Y-77074515D01*
G37*
G36*
X146043420Y-88892073D02*
G01*
X146569160Y-89142025D01*
X146844218Y-89349283D01*
X147176219Y-89721381D01*
X147386909Y-90159651D01*
X147487971Y-90694234D01*
X147501051Y-91043551D01*
X147445653Y-91603207D01*
X147277651Y-92145330D01*
X146988126Y-92682330D01*
X146568160Y-93226620D01*
X146008837Y-93790610D01*
X145301237Y-94386711D01*
X144855421Y-94725530D01*
X144543896Y-94955261D01*
X144209767Y-94552793D01*
X143580572Y-93716616D01*
X143115621Y-92921253D01*
X142814516Y-92165571D01*
X142676861Y-91448433D01*
X142702261Y-90768707D01*
X142774863Y-90446358D01*
X143009816Y-89920975D01*
X143366832Y-89484646D01*
X143819068Y-89144607D01*
X144339685Y-88908094D01*
X144901843Y-88782344D01*
X145478701Y-88774591D01*
X146043420Y-88892073D01*
G37*
G36*
X133495171Y-97571202D02*
G01*
X133522947Y-97597755D01*
X133599403Y-97687828D01*
X133771012Y-97895558D01*
X134026023Y-98206549D01*
X134352687Y-98606409D01*
X134739251Y-99080742D01*
X135173965Y-99615155D01*
X135645078Y-100195254D01*
X135898326Y-100507449D01*
X138160008Y-103296681D01*
X137992844Y-103531442D01*
X137791062Y-103771505D01*
X137495804Y-104070971D01*
X137151344Y-104389791D01*
X136801957Y-104687916D01*
X136491918Y-104925298D01*
X136348541Y-105018797D01*
X135743640Y-105303074D01*
X135063818Y-105505412D01*
X134363349Y-105615891D01*
X133696511Y-105624591D01*
X133316445Y-105573002D01*
X132598006Y-105340223D01*
X131956074Y-104969886D01*
X131404755Y-104482460D01*
X130958155Y-103898411D01*
X130630377Y-103238207D01*
X130435529Y-102522316D01*
X130387716Y-101771206D01*
X130425044Y-101377473D01*
X130579433Y-100713533D01*
X130844213Y-100094795D01*
X131235694Y-99492222D01*
X131770188Y-98876777D01*
X131908088Y-98737266D01*
X132239139Y-98418110D01*
X132565178Y-98119712D01*
X132847973Y-97876139D01*
X133044286Y-97724830D01*
X133267863Y-97583924D01*
X133403201Y-97536686D01*
X133495171Y-97571202D01*
G37*
G36*
X145958471Y-135954280D02*
G01*
X146484210Y-136204232D01*
X146759268Y-136411491D01*
X147091270Y-136783589D01*
X147301959Y-137221858D01*
X147403022Y-137756441D01*
X147416101Y-138105759D01*
X147360703Y-138665414D01*
X147192701Y-139207537D01*
X146903176Y-139744537D01*
X146483210Y-140288827D01*
X145923887Y-140852817D01*
X145216287Y-141448918D01*
X144770471Y-141787738D01*
X144458946Y-142017468D01*
X144124818Y-141615000D01*
X143495623Y-140778823D01*
X143030671Y-139983461D01*
X142729566Y-139227778D01*
X142591912Y-138510640D01*
X142617311Y-137830914D01*
X142689913Y-137508566D01*
X142924867Y-136983182D01*
X143281882Y-136546853D01*
X143734118Y-136206814D01*
X144254735Y-135970301D01*
X144816893Y-135844551D01*
X145393751Y-135836799D01*
X145958471Y-135954280D01*
G37*
G36*
X133495171Y-121102306D02*
G01*
X133522947Y-121128859D01*
X133599403Y-121218932D01*
X133771012Y-121426661D01*
X134026023Y-121737653D01*
X134352687Y-122137512D01*
X134739251Y-122611846D01*
X135173965Y-123146259D01*
X135645078Y-123726357D01*
X135898326Y-124038553D01*
X138160008Y-126827785D01*
X137992844Y-127062545D01*
X137791062Y-127302609D01*
X137495804Y-127602075D01*
X137151344Y-127920895D01*
X136801957Y-128219020D01*
X136491918Y-128456401D01*
X136348541Y-128549901D01*
X135743640Y-128834178D01*
X135063818Y-129036516D01*
X134363349Y-129146995D01*
X133696511Y-129155694D01*
X133316445Y-129104105D01*
X132598006Y-128871326D01*
X131956074Y-128500990D01*
X131404755Y-128013564D01*
X130958155Y-127429515D01*
X130630377Y-126769311D01*
X130435529Y-126053420D01*
X130387716Y-125302309D01*
X130425044Y-124908577D01*
X130579433Y-124244637D01*
X130844213Y-123625898D01*
X131235694Y-123023325D01*
X131770188Y-122407881D01*
X131908088Y-122268369D01*
X132239139Y-121949214D01*
X132565178Y-121650816D01*
X132847973Y-121407242D01*
X133044286Y-121255933D01*
X133267863Y-121115028D01*
X133403201Y-121067789D01*
X133495171Y-121102306D01*
G37*
G36*
X146043420Y-41829866D02*
G01*
X146569160Y-42079818D01*
X146844218Y-42287076D01*
X147176219Y-42659174D01*
X147386909Y-43097443D01*
X147487971Y-43632026D01*
X147501051Y-43981344D01*
X147445653Y-44541000D01*
X147277651Y-45083122D01*
X146988126Y-45620123D01*
X146568160Y-46164412D01*
X146008837Y-46728402D01*
X145301237Y-47324504D01*
X144855421Y-47663323D01*
X144543896Y-47893053D01*
X144209767Y-47490585D01*
X143580572Y-46654409D01*
X143115621Y-45859046D01*
X142814516Y-45103363D01*
X142676861Y-44386226D01*
X142702261Y-43706499D01*
X142774863Y-43384151D01*
X143009816Y-42858767D01*
X143366832Y-42422438D01*
X143819068Y-42082399D01*
X144339685Y-41845887D01*
X144901843Y-41720136D01*
X145478701Y-41712384D01*
X146043420Y-41829866D01*
G37*
G36*
X146043420Y-112423177D02*
G01*
X146569160Y-112673129D01*
X146844218Y-112880387D01*
X147176219Y-113252485D01*
X147386909Y-113690754D01*
X147487971Y-114225337D01*
X147501051Y-114574655D01*
X147445653Y-115134311D01*
X147277651Y-115676433D01*
X146988126Y-116213434D01*
X146568160Y-116757723D01*
X146008837Y-117321713D01*
X145301237Y-117917815D01*
X144855421Y-118256634D01*
X144543896Y-118486364D01*
X144209767Y-118083896D01*
X143580572Y-117247720D01*
X143115621Y-116452357D01*
X142814516Y-115696674D01*
X142676861Y-114979537D01*
X142702261Y-114299810D01*
X142774863Y-113977462D01*
X143009816Y-113452078D01*
X143366832Y-113015749D01*
X143819068Y-112675710D01*
X144339685Y-112439198D01*
X144901843Y-112313447D01*
X145478701Y-112305695D01*
X146043420Y-112423177D01*
G37*
G36*
X175436062Y-100700100D02*
G01*
X175961802Y-100950052D01*
X176236860Y-101157310D01*
X176568862Y-101529408D01*
X176779551Y-101967677D01*
X176880614Y-102502260D01*
X176893693Y-102851578D01*
X176838295Y-103411234D01*
X176670293Y-103953356D01*
X176380768Y-104490357D01*
X175960802Y-105034646D01*
X175401479Y-105598636D01*
X174693879Y-106194738D01*
X174248063Y-106533557D01*
X173936538Y-106763287D01*
X173602409Y-106360819D01*
X172973215Y-105524643D01*
X172508263Y-104729280D01*
X172207158Y-103973597D01*
X172069504Y-103256460D01*
X172094903Y-102576733D01*
X172167505Y-102254385D01*
X172402459Y-101729001D01*
X172759474Y-101292672D01*
X173211710Y-100952633D01*
X173732327Y-100716121D01*
X174294485Y-100590370D01*
X174871343Y-100582618D01*
X175436062Y-100700100D01*
G37*
G36*
X173448769Y-62380602D02*
G01*
X173619878Y-62580096D01*
X173874313Y-62883874D01*
X174200481Y-63277895D01*
X174586789Y-63748118D01*
X175021641Y-64280502D01*
X175493444Y-64861008D01*
X175782118Y-65217513D01*
X178077354Y-68055939D01*
X177821060Y-68379537D01*
X177202864Y-69045167D01*
X176510034Y-69586249D01*
X175762265Y-69994462D01*
X174979251Y-70261487D01*
X174180684Y-70379004D01*
X173386259Y-70338694D01*
X173242866Y-70313576D01*
X172624850Y-70118607D01*
X172017592Y-69792335D01*
X171460845Y-69365239D01*
X170994364Y-68867797D01*
X170658808Y-68332406D01*
X170400651Y-67593677D01*
X170297647Y-66818330D01*
X170347911Y-66034591D01*
X170549559Y-65270688D01*
X170900704Y-64554847D01*
X170912341Y-64536291D01*
X171125743Y-64238855D01*
X171406530Y-63906030D01*
X171732254Y-63558227D01*
X172080466Y-63215855D01*
X172428717Y-62899326D01*
X172754559Y-62629048D01*
X173035543Y-62425433D01*
X173249221Y-62308891D01*
X173372580Y-62299432D01*
X173448769Y-62380602D01*
G37*
G36*
X162887813Y-38785918D02*
G01*
X162915590Y-38812471D01*
X162992045Y-38902544D01*
X163163654Y-39110273D01*
X163418665Y-39421265D01*
X163745329Y-39821125D01*
X164131893Y-40295458D01*
X164566607Y-40829871D01*
X165037720Y-41409969D01*
X165290968Y-41722165D01*
X167552650Y-44511397D01*
X167385486Y-44746157D01*
X167183704Y-44986221D01*
X166888446Y-45285687D01*
X166543986Y-45604507D01*
X166194599Y-45902632D01*
X165884560Y-46140013D01*
X165741183Y-46233513D01*
X165136282Y-46517790D01*
X164456460Y-46720128D01*
X163755992Y-46830607D01*
X163089153Y-46839306D01*
X162709087Y-46787717D01*
X161990648Y-46554938D01*
X161348716Y-46184602D01*
X160797398Y-45697176D01*
X160350797Y-45113127D01*
X160023019Y-44452923D01*
X159828171Y-43737032D01*
X159780358Y-42985921D01*
X159817686Y-42592189D01*
X159972075Y-41928249D01*
X160236855Y-41309510D01*
X160628336Y-40706937D01*
X161162830Y-40091493D01*
X161300730Y-39951981D01*
X161631781Y-39632826D01*
X161957820Y-39334428D01*
X162240615Y-39090855D01*
X162436928Y-38939545D01*
X162660505Y-38798640D01*
X162795843Y-38751401D01*
X162887813Y-38785918D01*
G37*
G36*
X144056126Y-74103679D02*
G01*
X144227235Y-74303173D01*
X144481671Y-74606951D01*
X144807839Y-75000972D01*
X145194147Y-75471195D01*
X145628999Y-76003579D01*
X146100802Y-76584084D01*
X146389476Y-76940590D01*
X148684712Y-79779016D01*
X148428418Y-80102614D01*
X147810221Y-80768244D01*
X147117392Y-81309326D01*
X146369623Y-81717539D01*
X145586608Y-81984564D01*
X144788042Y-82102081D01*
X143993616Y-82061771D01*
X143850224Y-82036652D01*
X143232208Y-81841684D01*
X142624950Y-81515412D01*
X142068203Y-81088316D01*
X141601722Y-80590874D01*
X141266166Y-80055483D01*
X141008009Y-79316754D01*
X140905005Y-78541406D01*
X140955269Y-77757668D01*
X141156917Y-76993765D01*
X141508062Y-76277924D01*
X141519699Y-76259367D01*
X141733101Y-75961932D01*
X142013888Y-75629107D01*
X142339612Y-75281304D01*
X142687824Y-74938932D01*
X143036075Y-74622403D01*
X143361917Y-74352125D01*
X143642901Y-74148510D01*
X143856579Y-74031968D01*
X143979938Y-74022509D01*
X144056126Y-74103679D01*
G37*
G36*
X162887813Y-109379229D02*
G01*
X162915590Y-109405782D01*
X162992045Y-109495855D01*
X163163654Y-109703584D01*
X163418665Y-110014576D01*
X163745329Y-110414436D01*
X164131893Y-110888769D01*
X164566607Y-111423182D01*
X165037720Y-112003280D01*
X165290968Y-112315476D01*
X167552650Y-115104708D01*
X167385486Y-115339468D01*
X167183704Y-115579532D01*
X166888446Y-115878998D01*
X166543986Y-116197818D01*
X166194599Y-116495943D01*
X165884560Y-116733324D01*
X165741183Y-116826824D01*
X165136282Y-117111101D01*
X164456460Y-117313439D01*
X163755992Y-117423918D01*
X163089153Y-117432617D01*
X162709087Y-117381028D01*
X161990648Y-117148249D01*
X161348716Y-116777913D01*
X160797398Y-116290487D01*
X160350797Y-115706438D01*
X160023019Y-115046234D01*
X159828171Y-114330343D01*
X159780358Y-113579232D01*
X159817686Y-113185500D01*
X159972075Y-112521560D01*
X160236855Y-111902821D01*
X160628336Y-111300248D01*
X161162830Y-110684804D01*
X161300730Y-110545292D01*
X161631781Y-110226137D01*
X161957820Y-109927739D01*
X162240615Y-109684166D01*
X162436928Y-109532856D01*
X162660505Y-109391951D01*
X162795843Y-109344712D01*
X162887813Y-109379229D01*
G37*
D19*
%TO.C,CV3_LAYERS*%
X137028800Y-131254000D02*
X137028800Y-131754000D01*
X137028800Y-121254000D02*
X137528800Y-121254000D01*
X146028800Y-121254000D02*
X146028800Y-121754000D01*
X137028800Y-131754000D02*
X137528800Y-131754000D01*
X137028800Y-121754000D02*
X137028800Y-121254000D01*
X146028800Y-131254000D02*
X146028800Y-131754000D01*
X146028800Y-131754000D02*
X145528800Y-131754000D01*
X145528800Y-121254000D02*
X146028800Y-121254000D01*
X144219521Y-127254000D02*
G75*
G03*
X144219521Y-127254000I-2690721J0D01*
G01*
%TO.C,CV6_FX2_PARAM*%
X155731600Y-135097000D02*
X155731600Y-135597000D01*
X146731600Y-135097000D02*
X147231600Y-135097000D01*
X146731600Y-135597000D02*
X146731600Y-135097000D01*
X155731600Y-145097000D02*
X155731600Y-145597000D01*
X146731600Y-145097000D02*
X146731600Y-145597000D01*
X155231600Y-135097000D02*
X155731600Y-135097000D01*
X155731600Y-145597000D02*
X155231600Y-145597000D01*
X146731600Y-145597000D02*
X147231600Y-145597000D01*
X153922321Y-141097000D02*
G75*
G03*
X153922321Y-141097000I-2690721J0D01*
G01*
D16*
%TO.C,R6*%
X128524000Y-79502000D02*
X129286000Y-79502000D01*
X130048000Y-79502000D02*
X130048000Y-84582000D01*
X129286000Y-84582000D02*
X129286000Y-84836000D01*
X128524000Y-84582000D02*
X128524000Y-79502000D01*
X129286000Y-79502000D02*
X130048000Y-79502000D01*
X130048000Y-84582000D02*
X129286000Y-84582000D01*
X129286000Y-84582000D02*
X128524000Y-84582000D01*
X129286000Y-79502000D02*
X129286000Y-79248000D01*
%TD*%
M02*
