%TF.GenerationSoftware,KiCad,Pcbnew,(6.0.2-0)*%
%TF.CreationDate,2022-03-24T14:58:07-04:00*%
%TF.ProjectId,dotspanel,646f7473-7061-46e6-956c-2e6b69636164,rev?*%
%TF.SameCoordinates,Original*%
%TF.FileFunction,Legend,Top*%
%TF.FilePolarity,Positive*%
%FSLAX46Y46*%
G04 Gerber Fmt 4.6, Leading zero omitted, Abs format (unit mm)*
G04 Created by KiCad (PCBNEW (6.0.2-0)) date 2022-03-24 14:58:07*
%MOMM*%
%LPD*%
G01*
G04 APERTURE LIST*
%ADD10C,0.150000*%
G04 APERTURE END LIST*
D10*
%TO.C,*%
%TO.C,REF\u002A\u002A*%
X151828666Y-49211380D02*
X151495333Y-48735190D01*
X151257238Y-49211380D02*
X151257238Y-48211380D01*
X151638190Y-48211380D01*
X151733428Y-48259000D01*
X151781047Y-48306619D01*
X151828666Y-48401857D01*
X151828666Y-48544714D01*
X151781047Y-48639952D01*
X151733428Y-48687571D01*
X151638190Y-48735190D01*
X151257238Y-48735190D01*
X152257238Y-48687571D02*
X152590571Y-48687571D01*
X152733428Y-49211380D02*
X152257238Y-49211380D01*
X152257238Y-48211380D01*
X152733428Y-48211380D01*
X153495333Y-48687571D02*
X153162000Y-48687571D01*
X153162000Y-49211380D02*
X153162000Y-48211380D01*
X153638190Y-48211380D01*
X154162000Y-48211380D02*
X154162000Y-48449476D01*
X153923904Y-48354238D02*
X154162000Y-48449476D01*
X154400095Y-48354238D01*
X154019142Y-48639952D02*
X154162000Y-48449476D01*
X154304857Y-48639952D01*
X154923904Y-48211380D02*
X154923904Y-48449476D01*
X154685809Y-48354238D02*
X154923904Y-48449476D01*
X155162000Y-48354238D01*
X154781047Y-48639952D02*
X154923904Y-48449476D01*
X155066761Y-48639952D01*
%TO.C,*%
%TO.C,front_panel_white*%
G36*
X134660947Y-166894355D02*
G01*
X134799254Y-167003269D01*
X134903028Y-167215018D01*
X134883934Y-167421619D01*
X134731733Y-167643907D01*
X134436188Y-167902718D01*
X134311840Y-167995083D01*
X134199157Y-168082148D01*
X134193511Y-168125000D01*
X134317419Y-168140129D01*
X134514167Y-168143250D01*
X134773791Y-168161084D01*
X134896159Y-168214758D01*
X134916334Y-168274021D01*
X134879593Y-168345257D01*
X134748312Y-168384850D01*
X134490899Y-168400091D01*
X134366001Y-168401021D01*
X134069758Y-168396794D01*
X133904710Y-168375092D01*
X133832761Y-168322385D01*
X133815819Y-168225141D01*
X133815667Y-168205536D01*
X133858355Y-167994386D01*
X134004276Y-167796701D01*
X134280220Y-167577055D01*
X134302501Y-167561717D01*
X134508923Y-167380509D01*
X134572868Y-167225978D01*
X134488050Y-167116265D01*
X134460984Y-167104362D01*
X134304627Y-167120006D01*
X134182820Y-167245142D01*
X134154334Y-167359621D01*
X134083690Y-167448922D01*
X133985001Y-167469687D01*
X133849145Y-167409092D01*
X133820388Y-167254440D01*
X133903290Y-167046432D01*
X133932747Y-167003269D01*
X134129207Y-166872864D01*
X134366001Y-166843154D01*
X134660947Y-166894355D01*
G37*
G36*
X118354770Y-166884006D02*
G01*
X118392494Y-166927267D01*
X118362032Y-167040262D01*
X118259565Y-167256449D01*
X118194667Y-167385021D01*
X118072228Y-167682145D01*
X117995797Y-167974430D01*
X117983001Y-168101873D01*
X117964445Y-168307292D01*
X117891816Y-168390766D01*
X117813667Y-168401021D01*
X117681423Y-168352045D01*
X117644334Y-168186939D01*
X117606812Y-168000972D01*
X117509072Y-167729899D01*
X117390334Y-167469687D01*
X117242475Y-167173389D01*
X117166116Y-166997175D01*
X117156693Y-166909842D01*
X117209641Y-166880186D01*
X117303645Y-166877021D01*
X117469688Y-166958825D01*
X117633539Y-167193930D01*
X117633710Y-167194263D01*
X117796465Y-167511505D01*
X117947748Y-167194263D01*
X118091726Y-166971179D01*
X118238356Y-166877939D01*
X118252682Y-166877021D01*
X118354770Y-166884006D01*
G37*
G36*
X148209001Y-99392063D02*
G01*
X148207265Y-99822578D01*
X148199038Y-100111706D01*
X148179785Y-100287386D01*
X148144974Y-100377553D01*
X148090071Y-100410143D01*
X148043229Y-100413687D01*
X147958661Y-100396590D01*
X147906075Y-100322471D01*
X147875529Y-100157093D01*
X147857083Y-99866217D01*
X147852729Y-99757521D01*
X147828001Y-99101354D01*
X147584919Y-99762066D01*
X147457559Y-100091180D01*
X147360751Y-100287613D01*
X147275205Y-100380516D01*
X147181633Y-100399040D01*
X147164743Y-100397066D01*
X147042240Y-100331625D01*
X146920196Y-100155049D01*
X146780613Y-99840884D01*
X146772824Y-99821021D01*
X146558001Y-99270687D01*
X146532965Y-99842187D01*
X146515750Y-100145238D01*
X146487351Y-100316457D01*
X146432509Y-100393297D01*
X146335967Y-100413211D01*
X146300132Y-100413687D01*
X146092334Y-100413687D01*
X146092334Y-98370958D01*
X146358806Y-98397489D01*
X146489335Y-98420806D01*
X146588233Y-98481144D01*
X146678591Y-98610097D01*
X146783498Y-98839260D01*
X146904167Y-99143687D01*
X147036148Y-99480348D01*
X147122846Y-99678472D01*
X147179864Y-99757530D01*
X147222809Y-99736995D01*
X147267283Y-99636338D01*
X147277345Y-99609354D01*
X147454300Y-99143776D01*
X147591991Y-98815158D01*
X147704253Y-98599665D01*
X147804917Y-98473463D01*
X147907819Y-98412718D01*
X147980856Y-98397230D01*
X148209001Y-98370440D01*
X148209001Y-99392063D01*
G37*
G36*
X104893015Y-167074166D02*
G01*
X105076277Y-166910720D01*
X105295969Y-166845399D01*
X105452334Y-166838536D01*
X105802697Y-166910158D01*
X106055743Y-167112653D01*
X106193807Y-167427463D01*
X106214334Y-167639021D01*
X106143216Y-167978813D01*
X105954173Y-168246319D01*
X105683672Y-168415444D01*
X105368177Y-168460098D01*
X105143893Y-168404937D01*
X104889029Y-168214528D01*
X104735410Y-167930154D01*
X104692100Y-167599895D01*
X104694503Y-167589529D01*
X105024718Y-167589529D01*
X105068832Y-167875066D01*
X105119292Y-167988198D01*
X105271256Y-168122375D01*
X105479221Y-168143455D01*
X105682826Y-168061362D01*
X105821711Y-167886019D01*
X105826983Y-167871854D01*
X105869575Y-167572126D01*
X105790377Y-167325877D01*
X105607364Y-167172743D01*
X105497284Y-167144924D01*
X105256117Y-167186146D01*
X105092870Y-167347119D01*
X105024718Y-167589529D01*
X104694503Y-167589529D01*
X104768163Y-167271832D01*
X104893015Y-167074166D01*
G37*
G36*
X130945868Y-62489002D02*
G01*
X131154436Y-62510706D01*
X131254105Y-62553769D01*
X131275667Y-62610021D01*
X131236654Y-62683764D01*
X131098353Y-62723356D01*
X130828875Y-62736770D01*
X130767667Y-62737021D01*
X130259667Y-62737021D01*
X130259667Y-62991021D01*
X130267487Y-63136228D01*
X130318731Y-63211808D01*
X130455080Y-63240494D01*
X130718213Y-63245020D01*
X130725334Y-63245021D01*
X130994442Y-63252370D01*
X131134632Y-63284148D01*
X131186034Y-63354947D01*
X131191001Y-63414354D01*
X131170788Y-63512211D01*
X131083399Y-63563189D01*
X130888703Y-63581881D01*
X130725334Y-63583687D01*
X130259667Y-63583687D01*
X130259667Y-64167903D01*
X130745678Y-64193295D01*
X131035605Y-64219735D01*
X131193621Y-64268925D01*
X131256839Y-64353393D01*
X131259886Y-64366854D01*
X131255926Y-64440600D01*
X131188377Y-64485043D01*
X131025563Y-64507346D01*
X130735812Y-64514670D01*
X130604542Y-64515021D01*
X129921001Y-64515021D01*
X129921001Y-62483021D01*
X130598334Y-62483021D01*
X130945868Y-62489002D01*
G37*
G36*
X106749909Y-166877021D02*
G01*
X107152602Y-166932916D01*
X107428437Y-167100866D01*
X107577858Y-167381265D01*
X107607485Y-167639021D01*
X107544579Y-167996834D01*
X107355563Y-168241927D01*
X107039994Y-168374695D01*
X106749909Y-168401021D01*
X106299001Y-168401021D01*
X106299001Y-168157749D01*
X106553001Y-168157749D01*
X106827578Y-168131218D01*
X107066462Y-168057886D01*
X107213198Y-167871854D01*
X107273851Y-167587944D01*
X107191945Y-167345957D01*
X106988780Y-167185939D01*
X106827578Y-167146823D01*
X106553001Y-167120292D01*
X106553001Y-168157749D01*
X106299001Y-168157749D01*
X106299001Y-166877021D01*
X106749909Y-166877021D01*
G37*
G36*
X109685667Y-62567687D02*
G01*
X110026364Y-62577575D01*
X110246169Y-62614300D01*
X110392739Y-62688453D01*
X110447667Y-62737021D01*
X110592360Y-62989819D01*
X110599506Y-63282825D01*
X110471163Y-63560412D01*
X110414843Y-63624209D01*
X110212685Y-63826366D01*
X110414843Y-64123868D01*
X110567389Y-64375369D01*
X110604354Y-64523746D01*
X110526234Y-64589162D01*
X110426501Y-64597011D01*
X110256507Y-64530288D01*
X110074975Y-64322878D01*
X110006425Y-64216011D01*
X109806049Y-63947736D01*
X109629423Y-63839732D01*
X109604258Y-63837687D01*
X109496581Y-63861623D01*
X109445641Y-63962367D01*
X109431774Y-64183330D01*
X109431667Y-64218687D01*
X109420588Y-64456782D01*
X109374582Y-64569370D01*
X109274498Y-64599542D01*
X109262334Y-64599687D01*
X109190853Y-64589719D01*
X109142917Y-64541107D01*
X109113847Y-64425790D01*
X109098968Y-64215708D01*
X109093602Y-63882798D01*
X109093001Y-63583687D01*
X109093001Y-63149533D01*
X109431667Y-63149533D01*
X109439987Y-63370887D01*
X109491561Y-63471007D01*
X109626314Y-63497957D01*
X109721953Y-63499021D01*
X109960921Y-63461531D01*
X110140238Y-63370829D01*
X110145286Y-63365973D01*
X110264735Y-63178713D01*
X110220959Y-63025084D01*
X110017682Y-62910405D01*
X109788963Y-62857179D01*
X109431667Y-62800045D01*
X109431667Y-63149533D01*
X109093001Y-63149533D01*
X109093001Y-62567687D01*
X109685667Y-62567687D01*
G37*
G36*
X113165562Y-153453905D02*
G01*
X113279675Y-153183264D01*
X113381207Y-153041540D01*
X113498336Y-152993295D01*
X113533105Y-152991687D01*
X113639929Y-153014021D01*
X113730174Y-153102027D01*
X113824612Y-153287212D01*
X113944018Y-153601081D01*
X113954708Y-153631107D01*
X114067786Y-153948441D01*
X114162703Y-154212656D01*
X114222185Y-154375719D01*
X114228745Y-154393107D01*
X114210867Y-154492771D01*
X114095297Y-154515687D01*
X113916431Y-154437801D01*
X113834334Y-154304021D01*
X113719957Y-154140162D01*
X113515745Y-154092394D01*
X113506941Y-154092354D01*
X113312439Y-154128333D01*
X113218230Y-154263898D01*
X113206899Y-154304021D01*
X113169625Y-154412065D01*
X113099403Y-154475270D01*
X112957396Y-154505608D01*
X112704765Y-154515056D01*
X112520387Y-154515687D01*
X111887001Y-154515687D01*
X111887001Y-153753687D01*
X111891950Y-153381937D01*
X111910013Y-153150380D01*
X111946012Y-153030076D01*
X112004771Y-152992089D01*
X112014001Y-152991687D01*
X112081379Y-153025251D01*
X112120739Y-153146429D01*
X112138311Y-153385953D01*
X112141001Y-153618162D01*
X112141001Y-154244636D01*
X112518060Y-154274625D01*
X112756015Y-154283069D01*
X112878010Y-154245410D01*
X112935361Y-154141851D01*
X112943872Y-154110369D01*
X113000425Y-153923643D01*
X113065847Y-153732521D01*
X113412297Y-153732521D01*
X113479897Y-153824393D01*
X113547059Y-153838354D01*
X113642684Y-153787860D01*
X113631726Y-153704429D01*
X113584865Y-153528750D01*
X113579037Y-153471596D01*
X113550739Y-153438301D01*
X113491067Y-153508406D01*
X113433818Y-153629023D01*
X113412297Y-153732521D01*
X113065847Y-153732521D01*
X113093793Y-153650880D01*
X113165562Y-153453905D01*
G37*
G36*
X140089562Y-139653238D02*
G01*
X140203675Y-139382598D01*
X140305207Y-139240873D01*
X140422336Y-139192629D01*
X140457105Y-139191021D01*
X140563929Y-139213355D01*
X140654174Y-139301361D01*
X140748612Y-139486545D01*
X140868018Y-139800415D01*
X140878708Y-139830440D01*
X140991786Y-140147774D01*
X141086703Y-140411989D01*
X141146185Y-140575052D01*
X141152745Y-140592440D01*
X141134867Y-140692105D01*
X141019297Y-140715021D01*
X140840431Y-140637134D01*
X140758334Y-140503354D01*
X140643957Y-140339495D01*
X140439745Y-140291728D01*
X140430941Y-140291687D01*
X140236439Y-140327666D01*
X140142230Y-140463231D01*
X140130899Y-140503354D01*
X140093625Y-140611399D01*
X140023403Y-140674603D01*
X139881396Y-140704942D01*
X139628765Y-140714389D01*
X139444387Y-140715021D01*
X138811001Y-140715021D01*
X138811001Y-139953021D01*
X138815950Y-139581271D01*
X138834013Y-139349713D01*
X138870012Y-139229409D01*
X138928771Y-139191422D01*
X138938001Y-139191021D01*
X139005379Y-139224584D01*
X139044739Y-139345762D01*
X139062311Y-139585286D01*
X139065001Y-139817495D01*
X139065001Y-140443970D01*
X139442060Y-140473958D01*
X139680015Y-140482402D01*
X139802010Y-140444743D01*
X139859361Y-140341185D01*
X139867872Y-140309702D01*
X139924425Y-140122977D01*
X139989847Y-139931854D01*
X140336297Y-139931854D01*
X140403897Y-140023726D01*
X140471059Y-140037687D01*
X140566684Y-139987193D01*
X140555726Y-139903762D01*
X140508865Y-139728083D01*
X140503037Y-139670929D01*
X140474739Y-139637634D01*
X140415067Y-139707740D01*
X140357818Y-139828356D01*
X140336297Y-139931854D01*
X139989847Y-139931854D01*
X140017793Y-139850213D01*
X140089562Y-139653238D01*
G37*
G36*
X115265678Y-153118687D02*
G01*
X115019667Y-153584354D01*
X114886141Y-153873038D01*
X114795165Y-154138206D01*
X114769662Y-154282854D01*
X114733212Y-154459818D01*
X114613206Y-154515322D01*
X114596334Y-154515687D01*
X114480056Y-154482907D01*
X114432805Y-154354599D01*
X114427001Y-154216539D01*
X114387730Y-153965998D01*
X114287640Y-153660462D01*
X114215334Y-153499687D01*
X114081561Y-153230467D01*
X114022194Y-153078545D01*
X114034721Y-153010361D01*
X114116631Y-152992358D01*
X114177321Y-152991687D01*
X114341847Y-153067138D01*
X114474790Y-153288021D01*
X114563856Y-153478584D01*
X114629440Y-153579517D01*
X114638667Y-153584354D01*
X114693614Y-153514506D01*
X114779618Y-153341326D01*
X114802544Y-153288021D01*
X114926360Y-152991687D01*
X116157629Y-152991687D01*
X116642366Y-152993513D01*
X116985384Y-153001207D01*
X117214280Y-153018094D01*
X117356651Y-153047500D01*
X117440092Y-153092750D01*
X117489089Y-153152116D01*
X117569252Y-153258611D01*
X117641828Y-153239784D01*
X117734767Y-153132874D01*
X117948904Y-152988760D01*
X118233230Y-152942626D01*
X118520687Y-152993269D01*
X118744216Y-153139484D01*
X118754039Y-153151158D01*
X118868828Y-153315785D01*
X118914334Y-153424400D01*
X118851449Y-153492012D01*
X118713372Y-153493097D01*
X118575972Y-153437646D01*
X118521618Y-153372687D01*
X118418367Y-153280428D01*
X118248002Y-153245020D01*
X118080751Y-153266672D01*
X117986844Y-153345596D01*
X117983001Y-153371074D01*
X118056033Y-153476993D01*
X118215834Y-153544074D01*
X118595899Y-153665780D01*
X118826263Y-153842415D01*
X118897175Y-154014775D01*
X118853173Y-154256343D01*
X118684432Y-154436557D01*
X118430015Y-154536987D01*
X118128986Y-154539202D01*
X117919501Y-154476049D01*
X117717614Y-154348991D01*
X117646319Y-154183676D01*
X117644334Y-154138774D01*
X117692525Y-153967239D01*
X117806822Y-153928627D01*
X117941809Y-154028440D01*
X117985716Y-154097428D01*
X118129563Y-154232308D01*
X118306195Y-154245595D01*
X118491068Y-154188032D01*
X118527602Y-154091440D01*
X118424897Y-153979138D01*
X118192053Y-153874440D01*
X118157232Y-153863909D01*
X117913569Y-153781709D01*
X117738419Y-153701614D01*
X117700959Y-153674845D01*
X117592159Y-153669606D01*
X117471679Y-153778814D01*
X117376810Y-153916038D01*
X117380845Y-154027036D01*
X117483453Y-154188891D01*
X117610293Y-154384312D01*
X117627337Y-154482085D01*
X117533835Y-154514109D01*
X117475779Y-154515687D01*
X117313884Y-154443793D01*
X117139589Y-154255423D01*
X117115946Y-154220402D01*
X116941650Y-153998682D01*
X116812086Y-153933815D01*
X116733965Y-154025818D01*
X116713001Y-154219354D01*
X116713001Y-154515687D01*
X115273667Y-154515687D01*
X115271004Y-154050021D01*
X115612334Y-154050021D01*
X115628125Y-154180636D01*
X115705747Y-154242520D01*
X115890570Y-154260879D01*
X115993334Y-154261687D01*
X116374334Y-154261687D01*
X116374334Y-153457354D01*
X116713001Y-153457354D01*
X116732110Y-153608294D01*
X116823773Y-153659632D01*
X116988167Y-153653218D01*
X117187465Y-153606747D01*
X117260196Y-153501538D01*
X117263334Y-153457354D01*
X117219043Y-153330439D01*
X117059475Y-153270296D01*
X116988167Y-153261489D01*
X116799131Y-153258708D01*
X116724676Y-153325613D01*
X116713001Y-153457354D01*
X116374334Y-153457354D01*
X116374334Y-153245687D01*
X115993334Y-153245687D01*
X115755239Y-153256767D01*
X115642651Y-153302772D01*
X115612479Y-153402856D01*
X115612334Y-153415021D01*
X115640734Y-153525805D01*
X115755523Y-153574767D01*
X115951001Y-153584354D01*
X116186486Y-153605325D01*
X116283521Y-153674842D01*
X116289667Y-153711354D01*
X116233744Y-153799661D01*
X116048365Y-153836049D01*
X115951001Y-153838354D01*
X115732803Y-153849907D01*
X115635822Y-153904401D01*
X115612455Y-154031587D01*
X115612334Y-154050021D01*
X115271004Y-154050021D01*
X115269673Y-153817187D01*
X115265678Y-153118687D01*
G37*
G36*
X121327782Y-139191168D02*
G01*
X121543000Y-139321631D01*
X121716664Y-139525090D01*
X121792759Y-139734819D01*
X121793001Y-139745338D01*
X121734171Y-139794583D01*
X121600960Y-139768609D01*
X121458281Y-139688480D01*
X121389316Y-139614354D01*
X121217548Y-139478331D01*
X120991759Y-139452701D01*
X120793934Y-139546621D01*
X120725493Y-139695088D01*
X120692799Y-139923374D01*
X120692334Y-139953021D01*
X120719009Y-140185020D01*
X120784207Y-140348297D01*
X120793934Y-140359421D01*
X120991978Y-140453372D01*
X121217754Y-140427630D01*
X121389316Y-140291687D01*
X121501666Y-140186899D01*
X121648387Y-140122043D01*
X121764567Y-140118180D01*
X121793001Y-140160703D01*
X121725803Y-140363703D01*
X121562101Y-140568702D01*
X121358725Y-140705860D01*
X121345363Y-140710806D01*
X121144680Y-140775641D01*
X121013138Y-140784631D01*
X120859827Y-140737221D01*
X120784682Y-140707393D01*
X120535131Y-140548103D01*
X120398089Y-140298943D01*
X120356360Y-139946612D01*
X120420962Y-139582605D01*
X120602550Y-139316330D01*
X120874329Y-139168624D01*
X121209508Y-139160321D01*
X121327782Y-139191168D01*
G37*
G36*
X109035909Y-125559687D02*
G01*
X109430914Y-125614010D01*
X109708245Y-125782838D01*
X109879873Y-126067687D01*
X109910173Y-126077425D01*
X109930077Y-125948746D01*
X109932983Y-125877187D01*
X109939667Y-125559687D01*
X110490001Y-125559687D01*
X110798691Y-125568166D01*
X110970262Y-125598462D01*
X111036304Y-125657864D01*
X111040334Y-125686687D01*
X110990472Y-125770395D01*
X110820931Y-125808523D01*
X110659334Y-125813687D01*
X110421239Y-125824767D01*
X110308651Y-125870772D01*
X110278479Y-125970856D01*
X110278334Y-125983021D01*
X110306734Y-126093805D01*
X110421523Y-126142767D01*
X110617001Y-126152354D01*
X110852486Y-126173325D01*
X110949521Y-126242842D01*
X110955667Y-126279354D01*
X110899744Y-126367661D01*
X110714365Y-126404049D01*
X110617001Y-126406354D01*
X110398803Y-126417907D01*
X110301822Y-126472401D01*
X110278455Y-126599587D01*
X110278334Y-126618021D01*
X110294125Y-126748636D01*
X110371747Y-126810520D01*
X110556570Y-126828879D01*
X110659334Y-126829687D01*
X110910456Y-126846308D01*
X111024842Y-126902821D01*
X111040334Y-126956687D01*
X111003593Y-127027923D01*
X110872312Y-127067517D01*
X110614899Y-127082757D01*
X110490001Y-127083687D01*
X109939667Y-127083687D01*
X109932983Y-126766187D01*
X109918717Y-126596595D01*
X109891057Y-126554667D01*
X109879873Y-126575687D01*
X109703650Y-126865200D01*
X109424056Y-127031595D01*
X109035909Y-127083687D01*
X108585001Y-127083687D01*
X108585001Y-126840416D01*
X108839001Y-126840416D01*
X109113578Y-126813885D01*
X109352462Y-126740553D01*
X109499198Y-126554521D01*
X109559851Y-126270611D01*
X109477945Y-126028624D01*
X109274780Y-125868606D01*
X109113578Y-125829489D01*
X108839001Y-125802958D01*
X108839001Y-126840416D01*
X108585001Y-126840416D01*
X108585001Y-125559687D01*
X109035909Y-125559687D01*
G37*
G36*
X152450896Y-139653238D02*
G01*
X152564693Y-139383003D01*
X152665818Y-139241404D01*
X152782716Y-139192816D01*
X152819951Y-139191021D01*
X152922858Y-139211159D01*
X153009744Y-139291910D01*
X153099767Y-139463777D01*
X153212086Y-139757263D01*
X153258368Y-139889052D01*
X153500667Y-140587083D01*
X153533246Y-139662311D01*
X153881667Y-139662311D01*
X153906070Y-139817127D01*
X154014367Y-139859826D01*
X154114501Y-139852811D01*
X154305951Y-139782657D01*
X154374389Y-139635521D01*
X154367705Y-139501320D01*
X154264424Y-139450598D01*
X154141556Y-139445021D01*
X153957631Y-139466288D01*
X153889005Y-139558896D01*
X153881667Y-139662311D01*
X153533246Y-139662311D01*
X153549849Y-139191021D01*
X154037491Y-139191021D01*
X154321365Y-139207737D01*
X154541608Y-139250857D01*
X154626734Y-139292621D01*
X154713891Y-139481631D01*
X154714390Y-139728054D01*
X154631804Y-139946015D01*
X154597839Y-139986753D01*
X154517004Y-140094136D01*
X154525487Y-140213772D01*
X154597839Y-140369596D01*
X154698878Y-140579503D01*
X154713107Y-140680967D01*
X154637091Y-140712930D01*
X154567364Y-140715021D01*
X154415179Y-140642766D01*
X154253963Y-140454972D01*
X154231552Y-140418687D01*
X154101792Y-140232082D01*
X153992111Y-140129301D01*
X153969189Y-140122354D01*
X153911343Y-140196773D01*
X153882424Y-140379767D01*
X153881667Y-140418687D01*
X153871534Y-140608014D01*
X153808684Y-140692446D01*
X153644443Y-140714311D01*
X153540905Y-140715021D01*
X153307769Y-140696832D01*
X153182210Y-140622270D01*
X153119667Y-140503354D01*
X153005291Y-140339495D01*
X152801078Y-140291728D01*
X152792275Y-140291687D01*
X152597772Y-140327666D01*
X152503563Y-140463231D01*
X152492233Y-140503354D01*
X152456551Y-140608638D01*
X152389861Y-140671577D01*
X152254750Y-140703035D01*
X152013808Y-140713878D01*
X151763387Y-140715021D01*
X151087667Y-140715021D01*
X151087667Y-139191021D01*
X151595667Y-139191021D01*
X151890640Y-139200774D01*
X152049009Y-139235349D01*
X152102665Y-139302718D01*
X152103667Y-139318021D01*
X152053805Y-139401728D01*
X151884264Y-139439857D01*
X151722667Y-139445021D01*
X151484572Y-139456100D01*
X151371984Y-139502106D01*
X151341813Y-139602189D01*
X151341667Y-139614354D01*
X151370067Y-139725138D01*
X151484856Y-139774100D01*
X151680334Y-139783687D01*
X151915819Y-139804658D01*
X152012854Y-139874176D01*
X152019001Y-139910687D01*
X151963077Y-139998994D01*
X151777698Y-140035382D01*
X151680334Y-140037687D01*
X151461760Y-140049628D01*
X151364641Y-140104383D01*
X151341715Y-140230351D01*
X151341667Y-140241182D01*
X151359151Y-140364092D01*
X151440275Y-140430184D01*
X151628046Y-140463324D01*
X151761209Y-140474016D01*
X152014688Y-140483452D01*
X152148639Y-140454340D01*
X152211494Y-140369651D01*
X152229354Y-140309405D01*
X152285818Y-140122865D01*
X152351189Y-139931854D01*
X152697630Y-139931854D01*
X152765230Y-140023726D01*
X152832392Y-140037687D01*
X152928017Y-139987193D01*
X152917059Y-139903762D01*
X152870198Y-139728083D01*
X152864371Y-139670929D01*
X152836072Y-139637634D01*
X152776400Y-139707740D01*
X152719152Y-139828356D01*
X152697630Y-139931854D01*
X152351189Y-139931854D01*
X152379122Y-139850237D01*
X152450896Y-139653238D01*
G37*
G36*
X134016311Y-98485024D02*
G01*
X134056007Y-98557460D01*
X134016351Y-98708298D01*
X133892913Y-98962176D01*
X133773334Y-99180400D01*
X133586870Y-99558350D01*
X133495289Y-99873164D01*
X133477001Y-100104324D01*
X133468889Y-100344476D01*
X133428542Y-100460207D01*
X133331939Y-100496233D01*
X133265334Y-100498354D01*
X133136328Y-100483254D01*
X133074159Y-100408145D01*
X133054807Y-100228313D01*
X133053667Y-100104324D01*
X133020185Y-99796513D01*
X132906585Y-99471603D01*
X132757334Y-99180400D01*
X132580527Y-98852183D01*
X132490489Y-98642048D01*
X132483931Y-98524679D01*
X132557562Y-98474760D01*
X132664572Y-98466354D01*
X132793882Y-98494824D01*
X132901363Y-98603631D01*
X133016750Y-98827866D01*
X133063093Y-98936704D01*
X133258042Y-99407054D01*
X133495879Y-98936704D01*
X133666661Y-98641982D01*
X133811419Y-98493292D01*
X133901691Y-98466354D01*
X134016311Y-98485024D01*
G37*
G36*
X151882750Y-62487970D02*
G01*
X152114308Y-62506033D01*
X152234612Y-62542032D01*
X152272599Y-62600791D01*
X152273001Y-62610021D01*
X152208741Y-62703952D01*
X152003656Y-62736791D01*
X151976667Y-62737021D01*
X151680334Y-62737021D01*
X151680334Y-64515021D01*
X151257001Y-64515021D01*
X151257001Y-62737021D01*
X151003001Y-62737021D01*
X150801348Y-62699156D01*
X150749001Y-62610021D01*
X150778696Y-62548062D01*
X150887073Y-62509469D01*
X151103070Y-62489419D01*
X151455626Y-62483087D01*
X151511001Y-62483021D01*
X151882750Y-62487970D01*
G37*
G36*
X149449009Y-125405897D02*
G01*
X149593798Y-125451587D01*
X149705260Y-125574050D01*
X149816692Y-125813281D01*
X149841347Y-125877187D01*
X149941667Y-126119439D01*
X150024961Y-126280885D01*
X150062425Y-126321687D01*
X150118963Y-126249532D01*
X150209963Y-126063178D01*
X150286534Y-125877187D01*
X150417029Y-125592647D01*
X150544165Y-125444676D01*
X150645781Y-125405632D01*
X150734457Y-125400955D01*
X150789666Y-125438856D01*
X150819325Y-125550551D01*
X150831352Y-125767259D01*
X150833664Y-126120199D01*
X150833667Y-126146465D01*
X150830878Y-126510160D01*
X150817791Y-126736663D01*
X150787324Y-126858088D01*
X150732396Y-126906544D01*
X150664334Y-126914354D01*
X150555352Y-126886711D01*
X150503663Y-126774786D01*
X150488316Y-126554521D01*
X150481632Y-126194687D01*
X150354261Y-126554521D01*
X150225973Y-126818889D01*
X150088589Y-126914261D01*
X149942841Y-126840688D01*
X149789461Y-126598221D01*
X149750425Y-126512187D01*
X149577373Y-126110021D01*
X149570520Y-126512187D01*
X149556024Y-126758747D01*
X149511264Y-126878546D01*
X149417770Y-126913748D01*
X149394334Y-126914354D01*
X149314121Y-126901703D01*
X149264171Y-126842340D01*
X149237399Y-126704148D01*
X149226719Y-126455009D01*
X149225001Y-126146730D01*
X149225001Y-125379106D01*
X149449009Y-125405897D01*
G37*
G36*
X139690770Y-113628673D02*
G01*
X139728494Y-113671934D01*
X139698032Y-113784929D01*
X139595565Y-114001115D01*
X139530667Y-114129687D01*
X139408228Y-114426811D01*
X139331797Y-114719097D01*
X139319001Y-114846539D01*
X139300445Y-115051958D01*
X139227816Y-115135433D01*
X139149667Y-115145687D01*
X139017423Y-115096711D01*
X138980334Y-114931606D01*
X138942812Y-114745639D01*
X138845072Y-114474566D01*
X138726334Y-114214354D01*
X138578475Y-113918056D01*
X138502116Y-113741842D01*
X138492693Y-113654509D01*
X138545641Y-113624853D01*
X138639645Y-113621687D01*
X138805688Y-113703491D01*
X138969539Y-113938597D01*
X138969710Y-113938929D01*
X139132465Y-114256172D01*
X139283748Y-113938929D01*
X139427726Y-113715845D01*
X139574356Y-113622605D01*
X139588682Y-113621687D01*
X139690770Y-113628673D01*
G37*
G36*
X125545909Y-166877021D02*
G01*
X125948602Y-166932916D01*
X126224437Y-167100866D01*
X126373858Y-167381265D01*
X126403485Y-167639021D01*
X126340579Y-167996834D01*
X126151563Y-168241927D01*
X125835994Y-168374695D01*
X125545909Y-168401021D01*
X125095001Y-168401021D01*
X125095001Y-168157749D01*
X125349001Y-168157749D01*
X125623578Y-168131218D01*
X125862462Y-168057886D01*
X126009198Y-167871854D01*
X126069851Y-167587944D01*
X125987945Y-167345957D01*
X125784780Y-167185939D01*
X125623578Y-167146823D01*
X125349001Y-167120292D01*
X125349001Y-168157749D01*
X125095001Y-168157749D01*
X125095001Y-166877021D01*
X125545909Y-166877021D01*
G37*
G36*
X151426334Y-56547389D02*
G01*
X151425019Y-56934037D01*
X151416075Y-57182105D01*
X151392000Y-57322346D01*
X151345294Y-57385512D01*
X151268456Y-57402358D01*
X151217646Y-57403021D01*
X151004827Y-57477463D01*
X150872583Y-57688025D01*
X150833195Y-57968954D01*
X150752701Y-58483207D01*
X150529569Y-58955457D01*
X150188219Y-59347923D01*
X149768642Y-59616035D01*
X149506544Y-59707286D01*
X149194871Y-59780920D01*
X148883454Y-59829639D01*
X148622126Y-59846143D01*
X148460719Y-59823134D01*
X148441834Y-59810368D01*
X148414759Y-59702731D01*
X148393433Y-59465778D01*
X148380687Y-59139500D01*
X148378334Y-58912909D01*
X148378334Y-58080354D01*
X148611167Y-58079057D01*
X148816894Y-58058109D01*
X148959608Y-57978267D01*
X149059352Y-57809963D01*
X149136166Y-57523627D01*
X149188645Y-57227026D01*
X149310565Y-56676283D01*
X149488175Y-56271459D01*
X149742000Y-55992830D01*
X150092568Y-55820673D01*
X150560407Y-55735264D01*
X150754716Y-55722257D01*
X151426334Y-55691757D01*
X151426334Y-56547389D01*
G37*
G36*
X150265656Y-139224284D02*
G01*
X150304978Y-139344489D01*
X150322757Y-139582259D01*
X150325667Y-139826021D01*
X150325667Y-140461021D01*
X150664334Y-140461021D01*
X150899819Y-140481992D01*
X150996854Y-140551509D01*
X151003001Y-140588021D01*
X150961194Y-140664609D01*
X150814497Y-140704040D01*
X150537334Y-140715021D01*
X150071667Y-140715021D01*
X150071667Y-139953021D01*
X150076616Y-139581271D01*
X150094679Y-139349713D01*
X150130679Y-139229409D01*
X150189438Y-139191422D01*
X150198667Y-139191021D01*
X150265656Y-139224284D01*
G37*
G36*
X154146511Y-98392103D02*
G01*
X154358112Y-98573569D01*
X154467727Y-98838171D01*
X154474334Y-98929395D01*
X154435420Y-99155633D01*
X154295566Y-99359058D01*
X154175054Y-99473583D01*
X153982543Y-99629553D01*
X153837618Y-99723724D01*
X153800102Y-99736354D01*
X153687525Y-99790328D01*
X153575435Y-99884521D01*
X153503813Y-99967390D01*
X153517572Y-100016660D01*
X153644105Y-100047112D01*
X153910805Y-100073527D01*
X153928476Y-100075021D01*
X154226539Y-100111840D01*
X154390626Y-100167197D01*
X154455994Y-100253759D01*
X154458631Y-100265521D01*
X154454626Y-100339267D01*
X154387035Y-100383711D01*
X154224178Y-100406014D01*
X153934380Y-100413337D01*
X153803209Y-100413687D01*
X153119667Y-100413687D01*
X153119667Y-100114328D01*
X153153352Y-99887718D01*
X153271436Y-99687369D01*
X153499466Y-99481843D01*
X153797001Y-99280733D01*
X154016405Y-99090230D01*
X154087274Y-98900051D01*
X154004085Y-98732298D01*
X153945167Y-98687681D01*
X153751187Y-98648037D01*
X153577343Y-98743636D01*
X153476708Y-98943623D01*
X153473612Y-98961834D01*
X153386300Y-99114629D01*
X153283112Y-99143687D01*
X153154520Y-99081708D01*
X153119271Y-98926137D01*
X153174201Y-98722522D01*
X153316148Y-98516413D01*
X153327485Y-98504839D01*
X153588430Y-98341905D01*
X153875695Y-98309604D01*
X154146511Y-98392103D01*
G37*
G36*
X144567460Y-153002326D02*
G01*
X144616486Y-153055531D01*
X144639971Y-153183236D01*
X144643963Y-153417374D01*
X144635011Y-153773886D01*
X144618992Y-154148889D01*
X144594717Y-154386289D01*
X144555434Y-154517807D01*
X144494392Y-154575167D01*
X144462501Y-154584428D01*
X144393666Y-154581436D01*
X144350038Y-154520893D01*
X144326019Y-154373249D01*
X144316012Y-154108955D01*
X144314334Y-153802229D01*
X144316757Y-153426903D01*
X144328473Y-153189538D01*
X144356156Y-153058782D01*
X144406479Y-153003283D01*
X144486114Y-152991688D01*
X144486844Y-152991687D01*
X144567460Y-153002326D01*
G37*
G36*
X108761718Y-166897067D02*
G01*
X108805819Y-166973141D01*
X108829249Y-167139246D01*
X108838116Y-167426693D01*
X108839001Y-167639021D01*
X108834051Y-168010770D01*
X108815988Y-168242328D01*
X108779989Y-168362632D01*
X108721230Y-168400619D01*
X108712001Y-168401021D01*
X108641080Y-168364554D01*
X108601495Y-168234132D01*
X108586043Y-167978216D01*
X108585001Y-167844982D01*
X108581048Y-167548656D01*
X108561607Y-167387879D01*
X108515307Y-167328917D01*
X108430773Y-167338034D01*
X108415667Y-167342687D01*
X108280164Y-167349301D01*
X108246334Y-167251893D01*
X108319708Y-167074449D01*
X108496727Y-166932453D01*
X108690834Y-166879713D01*
X108761718Y-166897067D01*
G37*
G36*
X130295103Y-98421603D02*
G01*
X130603148Y-98562691D01*
X130819634Y-98811775D01*
X130835850Y-98844988D01*
X130922306Y-99073198D01*
X130910161Y-99190574D01*
X130793815Y-99227788D01*
X130765852Y-99228354D01*
X130597034Y-99153157D01*
X130497337Y-99014657D01*
X130328995Y-98805426D01*
X130103799Y-98726338D01*
X129862952Y-98769479D01*
X129647654Y-98926936D01*
X129499106Y-99190798D01*
X129493953Y-99207362D01*
X129448732Y-99546461D01*
X129509584Y-99836536D01*
X129649802Y-100059766D01*
X129842679Y-100198332D01*
X130061508Y-100234414D01*
X130279582Y-100150191D01*
X130470193Y-99927844D01*
X130497120Y-99876711D01*
X130614800Y-99715003D01*
X130732611Y-99651687D01*
X130871776Y-99707715D01*
X130911211Y-99849950D01*
X130865439Y-100039619D01*
X130748981Y-100237946D01*
X130576360Y-100406160D01*
X130418939Y-100489175D01*
X130124901Y-100567427D01*
X129879655Y-100555324D01*
X129608980Y-100459098D01*
X129334267Y-100255953D01*
X129156720Y-99955302D01*
X129076966Y-99598755D01*
X129095635Y-99227924D01*
X129213354Y-98884423D01*
X129430751Y-98609862D01*
X129579562Y-98510120D01*
X129939306Y-98400187D01*
X130295103Y-98421603D01*
G37*
G36*
X146586969Y-55649412D02*
G01*
X146860491Y-55729423D01*
X147367431Y-56022227D01*
X147749478Y-56400729D01*
X148010268Y-56841763D01*
X148153435Y-57322160D01*
X148182614Y-57818753D01*
X148101440Y-58308375D01*
X147913547Y-58767859D01*
X147622571Y-59174036D01*
X147232145Y-59503740D01*
X146745904Y-59733804D01*
X146215964Y-59837632D01*
X145669001Y-59881537D01*
X145669001Y-58199023D01*
X145957039Y-58232650D01*
X146226926Y-58216402D01*
X146422706Y-58088649D01*
X146576964Y-57846891D01*
X146562163Y-57598579D01*
X146392516Y-57356839D01*
X146132324Y-57182716D01*
X145882856Y-57169369D01*
X145669306Y-57308861D01*
X145516864Y-57593255D01*
X145503844Y-57636850D01*
X145477858Y-57814538D01*
X145454968Y-58132955D01*
X145436301Y-58563506D01*
X145422983Y-59077598D01*
X145416142Y-59646638D01*
X145415473Y-59879521D01*
X145415001Y-61805687D01*
X143881190Y-61805687D01*
X143907262Y-59456187D01*
X143915615Y-58760161D01*
X143924546Y-58212015D01*
X143935729Y-57790299D01*
X143950840Y-57473562D01*
X143971555Y-57240354D01*
X143999549Y-57069225D01*
X144036498Y-56938726D01*
X144084078Y-56827406D01*
X144117703Y-56762245D01*
X144382074Y-56383534D01*
X144731151Y-56041359D01*
X145109920Y-55785090D01*
X145298101Y-55702933D01*
X145696079Y-55619487D01*
X146151541Y-55602084D01*
X146586969Y-55649412D01*
G37*
G36*
X106815277Y-113771106D02*
G01*
X107123990Y-113638579D01*
X107315001Y-113621687D01*
X107620736Y-113664754D01*
X107852558Y-113813246D01*
X107869182Y-113829505D01*
X108077001Y-114037324D01*
X108077001Y-113829505D01*
X108114930Y-113668900D01*
X108254962Y-113622868D01*
X108267501Y-113622817D01*
X108415017Y-113675026D01*
X108585580Y-113843994D01*
X108774544Y-114109650D01*
X109091087Y-114595354D01*
X109092044Y-114108521D01*
X109099344Y-113831989D01*
X109129038Y-113685170D01*
X109194910Y-113628658D01*
X109262334Y-113621687D01*
X109341036Y-113633833D01*
X109390708Y-113691210D01*
X109417961Y-113825231D01*
X109429409Y-114067305D01*
X109431667Y-114426021D01*
X109428736Y-114800909D01*
X109415856Y-115037632D01*
X109386899Y-115167315D01*
X109335735Y-115221081D01*
X109273284Y-115230354D01*
X109131199Y-115155212D01*
X108935330Y-114939545D01*
X108766051Y-114701187D01*
X108417201Y-114172021D01*
X108416434Y-114707395D01*
X108410107Y-114999827D01*
X108385409Y-115157756D01*
X108332174Y-115215815D01*
X108267501Y-115214671D01*
X108141591Y-115113982D01*
X108093611Y-114965532D01*
X108067889Y-114744491D01*
X107824958Y-114987422D01*
X107530169Y-115190327D01*
X107226987Y-115225027D01*
X106926114Y-115091569D01*
X106800488Y-114982867D01*
X106621679Y-114752442D01*
X106556491Y-114494273D01*
X106553001Y-114386352D01*
X106556309Y-114368674D01*
X106896725Y-114368674D01*
X106939719Y-114622203D01*
X107061001Y-114807021D01*
X107212633Y-114931328D01*
X107315001Y-114976354D01*
X107431803Y-114921705D01*
X107569001Y-114807021D01*
X107705189Y-114580449D01*
X107730278Y-114325547D01*
X107657554Y-114091028D01*
X107500302Y-113925609D01*
X107315001Y-113875687D01*
X107097652Y-113946702D01*
X106953798Y-114127269D01*
X106896725Y-114368674D01*
X106556309Y-114368674D01*
X106620696Y-114024630D01*
X106815277Y-113771106D01*
G37*
G36*
X149596814Y-139185319D02*
G01*
X149783191Y-139301417D01*
X149826706Y-139350491D01*
X149942775Y-139530534D01*
X149987001Y-139666067D01*
X149930496Y-139767242D01*
X149805369Y-139776970D01*
X149678195Y-139705757D01*
X149622274Y-139608512D01*
X149553842Y-139487619D01*
X149402544Y-139453975D01*
X149296428Y-139460346D01*
X149076388Y-139518164D01*
X148956184Y-139665951D01*
X148935018Y-139720187D01*
X148890045Y-140028658D01*
X148975412Y-140272382D01*
X149175295Y-140419591D01*
X149296428Y-140445695D01*
X149501101Y-140442404D01*
X149599052Y-140362711D01*
X149622274Y-140297529D01*
X149712851Y-140163464D01*
X149846675Y-140123003D01*
X149957883Y-140179571D01*
X149987001Y-140278565D01*
X149911562Y-140488974D01*
X149717752Y-140652163D01*
X149454327Y-140748144D01*
X149170044Y-140756929D01*
X148972669Y-140694374D01*
X148716712Y-140471514D01*
X148586413Y-140148591D01*
X148580294Y-139834762D01*
X148685577Y-139479748D01*
X148900869Y-139253207D01*
X149224856Y-139156350D01*
X149319133Y-139152536D01*
X149596814Y-139185319D01*
G37*
G36*
X112544028Y-56069521D02*
G01*
X112528012Y-56814481D01*
X112505382Y-57412867D01*
X112471202Y-57887431D01*
X112420537Y-58260924D01*
X112348449Y-58556096D01*
X112250004Y-58795699D01*
X112120266Y-59002485D01*
X111954297Y-59199204D01*
X111839278Y-59317866D01*
X111372920Y-59671115D01*
X110841595Y-59873109D01*
X110264776Y-59919374D01*
X109685667Y-59812923D01*
X109170684Y-59568861D01*
X108749599Y-59198880D01*
X108440382Y-58728416D01*
X108261003Y-58182905D01*
X108222461Y-57741687D01*
X108304028Y-57117452D01*
X108524885Y-56577877D01*
X108872056Y-56137200D01*
X109332569Y-55809664D01*
X109893449Y-55609508D01*
X110208705Y-55561536D01*
X110701667Y-55516835D01*
X110701667Y-57216927D01*
X110404008Y-57208490D01*
X110141559Y-57244593D01*
X109966564Y-57339838D01*
X109844846Y-57568404D01*
X109837856Y-57844387D01*
X109940993Y-58095059D01*
X110019602Y-58178214D01*
X110276074Y-58316456D01*
X110523499Y-58291645D01*
X110713454Y-58172633D01*
X110776668Y-58117513D01*
X110825230Y-58053017D01*
X110861426Y-57957369D01*
X110887543Y-57808795D01*
X110905867Y-57585520D01*
X110918684Y-57265769D01*
X110928280Y-56827768D01*
X110936941Y-56249742D01*
X110940130Y-56013633D01*
X110966927Y-54016354D01*
X112579717Y-54016354D01*
X112544028Y-56069521D01*
G37*
G36*
X142146103Y-139198006D02*
G01*
X142183827Y-139241267D01*
X142153366Y-139354262D01*
X142050898Y-139570449D01*
X141986001Y-139699021D01*
X141863561Y-139996145D01*
X141787130Y-140288430D01*
X141774334Y-140415873D01*
X141755779Y-140621292D01*
X141683150Y-140704766D01*
X141605001Y-140715021D01*
X141472756Y-140666045D01*
X141435667Y-140500939D01*
X141398145Y-140314972D01*
X141300405Y-140043899D01*
X141181667Y-139783687D01*
X141033808Y-139487389D01*
X140957449Y-139311175D01*
X140948026Y-139223842D01*
X141000974Y-139194186D01*
X141094978Y-139191021D01*
X141261022Y-139272825D01*
X141424873Y-139507930D01*
X141425044Y-139508263D01*
X141587799Y-139825505D01*
X141739081Y-139508263D01*
X141883059Y-139285179D01*
X142029689Y-139191939D01*
X142044015Y-139191021D01*
X142146103Y-139198006D01*
G37*
G36*
X150554836Y-113881250D02*
G01*
X150675895Y-113738224D01*
X150936367Y-113605872D01*
X151253830Y-113586800D01*
X151562236Y-113677943D01*
X151717894Y-113786537D01*
X151885333Y-114045498D01*
X151947547Y-114367597D01*
X151903361Y-114689733D01*
X151751599Y-114948804D01*
X151739764Y-114960293D01*
X151427192Y-115154798D01*
X151090704Y-115187842D01*
X150778247Y-115070464D01*
X150551264Y-114838395D01*
X150435680Y-114527855D01*
X150435614Y-114383687D01*
X150749001Y-114383687D01*
X150812273Y-114635745D01*
X150971999Y-114815504D01*
X151183042Y-114898345D01*
X151400268Y-114859648D01*
X151494067Y-114790087D01*
X151562508Y-114641619D01*
X151595202Y-114413334D01*
X151595667Y-114383687D01*
X151549069Y-114083759D01*
X151404748Y-113917876D01*
X151203781Y-113875687D01*
X150959284Y-113950526D01*
X150796824Y-114149345D01*
X150749001Y-114383687D01*
X150435614Y-114383687D01*
X150435527Y-114191316D01*
X150554836Y-113881250D01*
G37*
G36*
X150334534Y-62489002D02*
G01*
X150543102Y-62510706D01*
X150642771Y-62553769D01*
X150664334Y-62610021D01*
X150621802Y-62687311D01*
X150472965Y-62726674D01*
X150208277Y-62737021D01*
X149944366Y-62742492D01*
X149804092Y-62774581D01*
X149741789Y-62856800D01*
X149714940Y-62991021D01*
X149677661Y-63245021D01*
X150128664Y-63245021D01*
X150392578Y-63252860D01*
X150528125Y-63286549D01*
X150575942Y-63361345D01*
X150579667Y-63414354D01*
X150559843Y-63511476D01*
X150473823Y-63562496D01*
X150281785Y-63581616D01*
X150104942Y-63583687D01*
X149834969Y-63590949D01*
X149701272Y-63619629D01*
X149671158Y-63680071D01*
X149681609Y-63717612D01*
X149726730Y-63920098D01*
X149733001Y-64013945D01*
X149755297Y-64108100D01*
X149848606Y-64157142D01*
X150052554Y-64174891D01*
X150198667Y-64176354D01*
X150467775Y-64183704D01*
X150607965Y-64215482D01*
X150659367Y-64286280D01*
X150664334Y-64345687D01*
X150650193Y-64430056D01*
X150585062Y-64480621D01*
X150434880Y-64505896D01*
X150165585Y-64514397D01*
X149987001Y-64515021D01*
X149309667Y-64515021D01*
X149309667Y-62483021D01*
X149987001Y-62483021D01*
X150334534Y-62489002D01*
G37*
G36*
X137634229Y-114083905D02*
G01*
X137748342Y-113813264D01*
X137849873Y-113671540D01*
X137967002Y-113623295D01*
X138001772Y-113621687D01*
X138108596Y-113644021D01*
X138198840Y-113732027D01*
X138293279Y-113917212D01*
X138412685Y-114231081D01*
X138423375Y-114261107D01*
X138536453Y-114578441D01*
X138631370Y-114842656D01*
X138690851Y-115005719D01*
X138697412Y-115023107D01*
X138679534Y-115122771D01*
X138563963Y-115145687D01*
X138385097Y-115067801D01*
X138303001Y-114934021D01*
X138188624Y-114770162D01*
X137984411Y-114722394D01*
X137975608Y-114722354D01*
X137781105Y-114758333D01*
X137686897Y-114893898D01*
X137675566Y-114934021D01*
X137638292Y-115042065D01*
X137568070Y-115105270D01*
X137426063Y-115135608D01*
X137173432Y-115145056D01*
X136989054Y-115145687D01*
X136355667Y-115145687D01*
X136355667Y-114383687D01*
X136360616Y-114011937D01*
X136378679Y-113780380D01*
X136414679Y-113660076D01*
X136473438Y-113622089D01*
X136482667Y-113621687D01*
X136550045Y-113655251D01*
X136589406Y-113776429D01*
X136606978Y-114015953D01*
X136609667Y-114248162D01*
X136609667Y-114874636D01*
X136986727Y-114904625D01*
X137224682Y-114913069D01*
X137346677Y-114875410D01*
X137404028Y-114771851D01*
X137412539Y-114740369D01*
X137469092Y-114553643D01*
X137534514Y-114362521D01*
X137880964Y-114362521D01*
X137948564Y-114454393D01*
X138015726Y-114468354D01*
X138111350Y-114417860D01*
X138100392Y-114334429D01*
X138053531Y-114158750D01*
X138047704Y-114101596D01*
X138019406Y-114068301D01*
X137959733Y-114138406D01*
X137902485Y-114259023D01*
X137880964Y-114362521D01*
X137534514Y-114362521D01*
X137562460Y-114280880D01*
X137634229Y-114083905D01*
G37*
G36*
X126369205Y-98466354D02*
G01*
X126850668Y-98508475D01*
X127196035Y-98642682D01*
X127418281Y-98880737D01*
X127530382Y-99234404D01*
X127550334Y-99537138D01*
X127528525Y-99807799D01*
X127438609Y-100009776D01*
X127262467Y-100210487D01*
X127092836Y-100366909D01*
X126940168Y-100453292D01*
X126743880Y-100490234D01*
X126443387Y-100498335D01*
X126415801Y-100498354D01*
X125857001Y-100498354D01*
X125857001Y-100159687D01*
X126195667Y-100159687D01*
X126528189Y-100159687D01*
X126793841Y-100126408D01*
X126978947Y-100003256D01*
X127036189Y-99936602D01*
X127183804Y-99634218D01*
X127181908Y-99328973D01*
X127046031Y-99055888D01*
X126791703Y-98849986D01*
X126513167Y-98757132D01*
X126195667Y-98701509D01*
X126195667Y-100159687D01*
X125857001Y-100159687D01*
X125857001Y-98466354D01*
X126369205Y-98466354D01*
G37*
G36*
X152977909Y-125390354D02*
G01*
X153372914Y-125444676D01*
X153650245Y-125613505D01*
X153821873Y-125898354D01*
X153852173Y-125908092D01*
X153872077Y-125779412D01*
X153874983Y-125707854D01*
X153881667Y-125390354D01*
X154432001Y-125390354D01*
X154740691Y-125398832D01*
X154912262Y-125429128D01*
X154978304Y-125488531D01*
X154982334Y-125517354D01*
X154932472Y-125601061D01*
X154762931Y-125639190D01*
X154601334Y-125644354D01*
X154363239Y-125655433D01*
X154250651Y-125701439D01*
X154220479Y-125801523D01*
X154220334Y-125813687D01*
X154248734Y-125924471D01*
X154363523Y-125973433D01*
X154559001Y-125983021D01*
X154794486Y-126003992D01*
X154891521Y-126073509D01*
X154897667Y-126110021D01*
X154841744Y-126198327D01*
X154656365Y-126234716D01*
X154559001Y-126237021D01*
X154340803Y-126248574D01*
X154243822Y-126303067D01*
X154220455Y-126430254D01*
X154220334Y-126448687D01*
X154236125Y-126579302D01*
X154313747Y-126641186D01*
X154498570Y-126659545D01*
X154601334Y-126660354D01*
X154852456Y-126676974D01*
X154966842Y-126733488D01*
X154982334Y-126787354D01*
X154945593Y-126858590D01*
X154814312Y-126898183D01*
X154556899Y-126913424D01*
X154432001Y-126914354D01*
X153881667Y-126914354D01*
X153874983Y-126596854D01*
X153860717Y-126427262D01*
X153833057Y-126385333D01*
X153821873Y-126406354D01*
X153645650Y-126695866D01*
X153366056Y-126862262D01*
X152977909Y-126914354D01*
X152527001Y-126914354D01*
X152527001Y-126671083D01*
X152781001Y-126671083D01*
X153055578Y-126644552D01*
X153294462Y-126571219D01*
X153441198Y-126385187D01*
X153501851Y-126101277D01*
X153419945Y-125859290D01*
X153216780Y-125699272D01*
X153055578Y-125660156D01*
X152781001Y-125633625D01*
X152781001Y-126671083D01*
X152527001Y-126671083D01*
X152527001Y-125390354D01*
X152977909Y-125390354D01*
G37*
G36*
X149138365Y-62483170D02*
G01*
X149187978Y-62501200D01*
X149205930Y-62563486D01*
X149190382Y-62696402D01*
X149139497Y-62926321D01*
X149051435Y-63279618D01*
X148985154Y-63541354D01*
X148880402Y-63945480D01*
X148800577Y-64213692D01*
X148731921Y-64374931D01*
X148660675Y-64458135D01*
X148573079Y-64492248D01*
X148530026Y-64498671D01*
X148417020Y-64501330D01*
X148338797Y-64455074D01*
X148275580Y-64327171D01*
X148207593Y-64084889D01*
X148159804Y-63885946D01*
X148083674Y-63592269D01*
X148016020Y-63382922D01*
X147968917Y-63293925D01*
X147961662Y-63294804D01*
X147920218Y-63395833D01*
X147857159Y-63615156D01*
X147786087Y-63905438D01*
X147785611Y-63907529D01*
X147710325Y-64210158D01*
X147642100Y-64384121D01*
X147558449Y-64467489D01*
X147436887Y-64498332D01*
X147436642Y-64498360D01*
X147337228Y-64501983D01*
X147263094Y-64466863D01*
X147199699Y-64364856D01*
X147132502Y-64167820D01*
X147046960Y-63847609D01*
X146996052Y-63645632D01*
X146899963Y-63268981D01*
X146813906Y-62943977D01*
X146749008Y-62711956D01*
X146721415Y-62625126D01*
X146717907Y-62518271D01*
X146843793Y-62483641D01*
X146880388Y-62483021D01*
X146991804Y-62496859D01*
X147070868Y-62561129D01*
X147137084Y-62709963D01*
X147209951Y-62977493D01*
X147243871Y-63119196D01*
X147321213Y-63409581D01*
X147392672Y-63612695D01*
X147445438Y-63693758D01*
X147454380Y-63690696D01*
X147502212Y-63579858D01*
X147568226Y-63353139D01*
X147634488Y-63075687D01*
X147706004Y-62777628D01*
X147772756Y-62607874D01*
X147857583Y-62527662D01*
X147974076Y-62499283D01*
X148082817Y-62495977D01*
X148159430Y-62537954D01*
X148221656Y-62656586D01*
X148287234Y-62883248D01*
X148357087Y-63176616D01*
X148520089Y-63880021D01*
X148618545Y-63520187D01*
X148705961Y-63196332D01*
X148792945Y-62867695D01*
X148804931Y-62821687D01*
X148891121Y-62587422D01*
X149002841Y-62490500D01*
X149058931Y-62483021D01*
X149138365Y-62483170D01*
G37*
G36*
X131920019Y-166880006D02*
G01*
X132140725Y-166895870D01*
X132270713Y-166934974D01*
X132349281Y-167007682D01*
X132401190Y-167096373D01*
X132516120Y-167315726D01*
X132659845Y-167096373D01*
X132812936Y-166939762D01*
X132970952Y-166877021D01*
X133092557Y-166888304D01*
X133124233Y-166943630D01*
X133062567Y-167075207D01*
X132928266Y-167279814D01*
X132826002Y-167429044D01*
X132774149Y-167537151D01*
X132780799Y-167645614D01*
X132854047Y-167795909D01*
X133001985Y-168029515D01*
X133105738Y-168189354D01*
X133191936Y-168338161D01*
X133165427Y-168393151D01*
X133023246Y-168401021D01*
X132828592Y-168345399D01*
X132677664Y-168156274D01*
X132667406Y-168136847D01*
X132530797Y-167872673D01*
X132370143Y-168136847D01*
X132208242Y-168325914D01*
X132041539Y-168400996D01*
X132038912Y-168401021D01*
X131918963Y-168391918D01*
X131882736Y-168343030D01*
X131934287Y-168221985D01*
X132077672Y-167996410D01*
X132092399Y-167974138D01*
X132224072Y-167764200D01*
X132269178Y-167626471D01*
X132236251Y-167493055D01*
X132169325Y-167362120D01*
X132068479Y-167198927D01*
X131957554Y-167123163D01*
X131775756Y-167108456D01*
X131606593Y-167118025D01*
X131357167Y-167144302D01*
X131233889Y-167193108D01*
X131193578Y-167288632D01*
X131191001Y-167350859D01*
X131210873Y-167482194D01*
X131301998Y-167540549D01*
X131511640Y-167554325D01*
X131529667Y-167554354D01*
X131765152Y-167575325D01*
X131862187Y-167644842D01*
X131868334Y-167681354D01*
X131812411Y-167769661D01*
X131627031Y-167806049D01*
X131529667Y-167808354D01*
X131312831Y-167817325D01*
X131216468Y-167872717D01*
X131191758Y-168017246D01*
X131191001Y-168104687D01*
X131172059Y-168308926D01*
X131098112Y-168391334D01*
X131021667Y-168401021D01*
X130941215Y-168388288D01*
X130891223Y-168328605D01*
X130864530Y-168189741D01*
X130853974Y-167939468D01*
X130852334Y-167639021D01*
X130852334Y-166877021D01*
X131569296Y-166877021D01*
X131920019Y-166880006D01*
G37*
G36*
X113129330Y-56895021D02*
G01*
X113416561Y-56436957D01*
X113815468Y-56054696D01*
X114289255Y-55769568D01*
X114801129Y-55602904D01*
X115314296Y-55576034D01*
X115388540Y-55585294D01*
X115807489Y-55705473D01*
X116242761Y-55923621D01*
X116627231Y-56200895D01*
X116844598Y-56427856D01*
X117136116Y-56934295D01*
X117277682Y-57467080D01*
X117280132Y-58002109D01*
X117154302Y-58515281D01*
X116911025Y-58982495D01*
X116561138Y-59379648D01*
X116115474Y-59682639D01*
X115584870Y-59867366D01*
X115279796Y-59908631D01*
X114946824Y-59907369D01*
X114626870Y-59868923D01*
X114494090Y-59835739D01*
X113966117Y-59579954D01*
X113535417Y-59211291D01*
X113214511Y-58756725D01*
X113015917Y-58243234D01*
X112952156Y-57697794D01*
X112956763Y-57667460D01*
X114624649Y-57667460D01*
X114654051Y-57921164D01*
X114711249Y-58031459D01*
X114911315Y-58202132D01*
X115167313Y-58251047D01*
X115413304Y-58170892D01*
X115479286Y-58116640D01*
X115602393Y-57887828D01*
X115594084Y-57627857D01*
X115461672Y-57402665D01*
X115394106Y-57348602D01*
X115134949Y-57257657D01*
X114898232Y-57302573D01*
X114717088Y-57450219D01*
X114624649Y-57667460D01*
X112956763Y-57667460D01*
X113035747Y-57147383D01*
X113129330Y-56895021D01*
G37*
G36*
X119337667Y-55709687D02*
G01*
X120015001Y-55709687D01*
X120015001Y-57487687D01*
X119676334Y-57487687D01*
X119455483Y-57501422D01*
X119357712Y-57558154D01*
X119337667Y-57662587D01*
X119407075Y-57958845D01*
X119606446Y-58152246D01*
X119760296Y-58207199D01*
X120015001Y-58263142D01*
X120015001Y-59943021D01*
X119650624Y-59943021D01*
X119281803Y-59887721D01*
X118873215Y-59736796D01*
X118836543Y-59718923D01*
X118401052Y-59411064D01*
X118054462Y-58979447D01*
X117823360Y-58457764D01*
X117813082Y-58421943D01*
X117789399Y-58253285D01*
X117768301Y-57943402D01*
X117750805Y-57520396D01*
X117737929Y-57012369D01*
X117730688Y-56447423D01*
X117729473Y-56111854D01*
X117729001Y-54101021D01*
X119337667Y-54101021D01*
X119337667Y-55709687D01*
G37*
G36*
X134069667Y-59858354D02*
G01*
X132461001Y-59858354D01*
X132461001Y-54016354D01*
X134069667Y-54016354D01*
X134069667Y-59858354D01*
G37*
G36*
X108500334Y-99476730D02*
G01*
X108498599Y-99907244D01*
X108490371Y-100196373D01*
X108471118Y-100372053D01*
X108436307Y-100462219D01*
X108381404Y-100494810D01*
X108334562Y-100498354D01*
X108249995Y-100481256D01*
X108197408Y-100407138D01*
X108166862Y-100241760D01*
X108148416Y-99950883D01*
X108144062Y-99842187D01*
X108119334Y-99186021D01*
X107876253Y-99846733D01*
X107748893Y-100175847D01*
X107652085Y-100372279D01*
X107566539Y-100465182D01*
X107472966Y-100483707D01*
X107456076Y-100481733D01*
X107333573Y-100416292D01*
X107211529Y-100239715D01*
X107071947Y-99925551D01*
X107064157Y-99905687D01*
X106849334Y-99355354D01*
X106824299Y-99926854D01*
X106807083Y-100229904D01*
X106778684Y-100401124D01*
X106723843Y-100477964D01*
X106627300Y-100497878D01*
X106591465Y-100498354D01*
X106383667Y-100498354D01*
X106383667Y-98455625D01*
X106650139Y-98482156D01*
X106780668Y-98505473D01*
X106879566Y-98565811D01*
X106969924Y-98694764D01*
X107074832Y-98923927D01*
X107195501Y-99228354D01*
X107327481Y-99565014D01*
X107414179Y-99763138D01*
X107471198Y-99842197D01*
X107514142Y-99821662D01*
X107558616Y-99721005D01*
X107568678Y-99694021D01*
X107745633Y-99228443D01*
X107883325Y-98899825D01*
X107995586Y-98684332D01*
X108096251Y-98558130D01*
X108199152Y-98497385D01*
X108272189Y-98481897D01*
X108500334Y-98455106D01*
X108500334Y-99476730D01*
G37*
G36*
X134586607Y-57141690D02*
G01*
X134692078Y-56852071D01*
X135017612Y-56339272D01*
X135449706Y-55952040D01*
X135970330Y-55701902D01*
X136561454Y-55600389D01*
X136652001Y-55598692D01*
X137251856Y-55677684D01*
X137783826Y-55906974D01*
X138229882Y-56275032D01*
X138571994Y-56770328D01*
X138611923Y-56852071D01*
X138756196Y-57302299D01*
X138810380Y-57798620D01*
X138771192Y-58272075D01*
X138692228Y-58539390D01*
X138491634Y-58882128D01*
X138192335Y-59235703D01*
X137849885Y-59541108D01*
X137595238Y-59704544D01*
X137270109Y-59820961D01*
X136872459Y-59894589D01*
X136473958Y-59917541D01*
X136146270Y-59881932D01*
X136101119Y-59868952D01*
X135603424Y-59633346D01*
X135151263Y-59285006D01*
X134790125Y-58864541D01*
X134611773Y-58539390D01*
X134508933Y-58119046D01*
X134505080Y-57860824D01*
X136151067Y-57860824D01*
X136299880Y-58104827D01*
X136542354Y-58237104D01*
X136652001Y-58249687D01*
X136866248Y-58200327D01*
X136965936Y-58143854D01*
X137102543Y-57974528D01*
X137152934Y-57860824D01*
X137137500Y-57651541D01*
X137011202Y-57438770D01*
X136820760Y-57281001D01*
X136652001Y-57233687D01*
X136443856Y-57304311D01*
X136262113Y-57477187D01*
X136153490Y-57693827D01*
X136151067Y-57860824D01*
X134505080Y-57860824D01*
X134501639Y-57630160D01*
X134586607Y-57141690D01*
G37*
G36*
X103221009Y-166892563D02*
G01*
X103365798Y-166938254D01*
X103477260Y-167060716D01*
X103588692Y-167299948D01*
X103613347Y-167363854D01*
X103713667Y-167606106D01*
X103796961Y-167767552D01*
X103834425Y-167808354D01*
X103890963Y-167736198D01*
X103981963Y-167549844D01*
X104058534Y-167363854D01*
X104189029Y-167079314D01*
X104316165Y-166931343D01*
X104417781Y-166892299D01*
X104506457Y-166887622D01*
X104561666Y-166925522D01*
X104591325Y-167037218D01*
X104603352Y-167253926D01*
X104605664Y-167606866D01*
X104605667Y-167633132D01*
X104602878Y-167996827D01*
X104589791Y-168223330D01*
X104559324Y-168344754D01*
X104504396Y-168393211D01*
X104436334Y-168401021D01*
X104327352Y-168373378D01*
X104275663Y-168261453D01*
X104260316Y-168041187D01*
X104253632Y-167681354D01*
X104126261Y-168041187D01*
X103997973Y-168305556D01*
X103860589Y-168400928D01*
X103714841Y-168327355D01*
X103561461Y-168084888D01*
X103522425Y-167998854D01*
X103349373Y-167596687D01*
X103342520Y-167998854D01*
X103328024Y-168245413D01*
X103283264Y-168365213D01*
X103189770Y-168400415D01*
X103166334Y-168401021D01*
X103086121Y-168388370D01*
X103036171Y-168329007D01*
X103009399Y-168190814D01*
X102998719Y-167941676D01*
X102997001Y-167633397D01*
X102997001Y-166865773D01*
X103221009Y-166892563D01*
G37*
G36*
X128487604Y-62512204D02*
G01*
X128608062Y-62621786D01*
X128745041Y-62844817D01*
X128805569Y-62961505D01*
X129047519Y-63439990D01*
X129245839Y-62961505D01*
X129372987Y-62685380D01*
X129481454Y-62538015D01*
X129599271Y-62485408D01*
X129640247Y-62483021D01*
X129791927Y-62499379D01*
X129836334Y-62527467D01*
X129800845Y-62618966D01*
X129706811Y-62821349D01*
X129572881Y-63094788D01*
X129540001Y-63160354D01*
X129344549Y-63606728D01*
X129253781Y-63972693D01*
X129243667Y-64131907D01*
X129235007Y-64367837D01*
X129192353Y-64479936D01*
X129090700Y-64513465D01*
X129032001Y-64515021D01*
X128895902Y-64496672D01*
X128835219Y-64409960D01*
X128820427Y-64207382D01*
X128820334Y-64174474D01*
X128763622Y-63838744D01*
X128592059Y-63390690D01*
X128480722Y-63158474D01*
X128141111Y-62483021D01*
X128352365Y-62483021D01*
X128487604Y-62512204D01*
G37*
G36*
X111292998Y-98466354D02*
G01*
X111619168Y-98473632D01*
X111834160Y-98506457D01*
X111995891Y-98581317D01*
X112160831Y-98713409D01*
X112316587Y-98867894D01*
X112399495Y-99015895D01*
X112432167Y-99219569D01*
X112437334Y-99473484D01*
X112426865Y-99779120D01*
X112382477Y-99978371D01*
X112284693Y-100133571D01*
X112204207Y-100219632D01*
X112060633Y-100343466D01*
X111902561Y-100418427D01*
X111678388Y-100460284D01*
X111336509Y-100484804D01*
X111336373Y-100484811D01*
X110701667Y-100516862D01*
X110701667Y-100159687D01*
X111125001Y-100159687D01*
X111421334Y-100159687D01*
X111722854Y-100098693D01*
X111887001Y-99990354D01*
X112019061Y-99762301D01*
X112056334Y-99453143D01*
X112011742Y-99130658D01*
X111861759Y-98919301D01*
X111582080Y-98791639D01*
X111442501Y-98760428D01*
X111125001Y-98701509D01*
X111125001Y-100159687D01*
X110701667Y-100159687D01*
X110701667Y-98466354D01*
X111292998Y-98466354D01*
G37*
G36*
X124121782Y-113621835D02*
G01*
X124337000Y-113752298D01*
X124510664Y-113955757D01*
X124586759Y-114165486D01*
X124587001Y-114176004D01*
X124528171Y-114225250D01*
X124394960Y-114199276D01*
X124252281Y-114119147D01*
X124183316Y-114045021D01*
X124011548Y-113908998D01*
X123785759Y-113883367D01*
X123587934Y-113977287D01*
X123513282Y-114144427D01*
X123489373Y-114391161D01*
X123516208Y-114635532D01*
X123587934Y-114790087D01*
X123785978Y-114884039D01*
X124011754Y-114858297D01*
X124183316Y-114722354D01*
X124295666Y-114617566D01*
X124442387Y-114552709D01*
X124558567Y-114548847D01*
X124587001Y-114591370D01*
X124519803Y-114794370D01*
X124356101Y-114999369D01*
X124152725Y-115136527D01*
X124139363Y-115141473D01*
X123938680Y-115206308D01*
X123807138Y-115215298D01*
X123653827Y-115167888D01*
X123578682Y-115138060D01*
X123329131Y-114978770D01*
X123192089Y-114729610D01*
X123150360Y-114377279D01*
X123214962Y-114013272D01*
X123396550Y-113746997D01*
X123668329Y-113599290D01*
X124003508Y-113590988D01*
X124121782Y-113621835D01*
G37*
G36*
X146006754Y-153002315D02*
G01*
X146055776Y-153055473D01*
X146079282Y-153183077D01*
X146083309Y-153417040D01*
X146074344Y-153774854D01*
X146059620Y-154144751D01*
X146038099Y-154378048D01*
X146001880Y-154507473D01*
X145943063Y-154565757D01*
X145879380Y-154582471D01*
X145756266Y-154555475D01*
X145617827Y-154423240D01*
X145440157Y-154161951D01*
X145413713Y-154118555D01*
X145118667Y-153630190D01*
X145076334Y-154093371D01*
X145036041Y-154380338D01*
X144972989Y-154533111D01*
X144885834Y-154584661D01*
X144816997Y-154581547D01*
X144773368Y-154520890D01*
X144749349Y-154373134D01*
X144739344Y-154108722D01*
X144737667Y-153802229D01*
X144740130Y-153426816D01*
X144751931Y-153189385D01*
X144779686Y-153058607D01*
X144830011Y-153003151D01*
X144908847Y-152991687D01*
X145059851Y-153062456D01*
X145255771Y-153279833D01*
X145416847Y-153512814D01*
X145753667Y-154033940D01*
X145753667Y-153512814D01*
X145759385Y-153224960D01*
X145785023Y-153067834D01*
X145843311Y-153002983D01*
X145926178Y-152991687D01*
X146006754Y-153002315D01*
G37*
G36*
X112676575Y-166877021D02*
G01*
X113071581Y-166931343D01*
X113348911Y-167100171D01*
X113520540Y-167385021D01*
X113550840Y-167394758D01*
X113570743Y-167266079D01*
X113573650Y-167194521D01*
X113580334Y-166877021D01*
X114130667Y-166877021D01*
X114439357Y-166885499D01*
X114610929Y-166915795D01*
X114676971Y-166975198D01*
X114681001Y-167004021D01*
X114631139Y-167087728D01*
X114461598Y-167125857D01*
X114300001Y-167131021D01*
X114061906Y-167142100D01*
X113949318Y-167188106D01*
X113919146Y-167288189D01*
X113919001Y-167300354D01*
X113944600Y-167407183D01*
X114050328Y-167457035D01*
X114279584Y-167469676D01*
X114290822Y-167469687D01*
X114528260Y-167457520D01*
X114650313Y-167402928D01*
X114710238Y-167278773D01*
X114717169Y-167252441D01*
X114840523Y-167063291D01*
X115068324Y-166911775D01*
X115335788Y-166829711D01*
X115555049Y-166840969D01*
X115815119Y-166971796D01*
X115989203Y-167158978D01*
X116035667Y-167313476D01*
X115984325Y-167443001D01*
X115865915Y-167456397D01*
X115733860Y-167356510D01*
X115694285Y-167295280D01*
X115543548Y-167156872D01*
X115345245Y-167147073D01*
X115149633Y-167256274D01*
X115029016Y-167422511D01*
X114955881Y-167623043D01*
X114978938Y-167783713D01*
X115031061Y-167888178D01*
X115196875Y-168064864D01*
X115403662Y-168135597D01*
X115595573Y-168091874D01*
X115691120Y-167988674D01*
X115744530Y-167935354D01*
X116035667Y-167935354D01*
X116078001Y-167977687D01*
X116120334Y-167935354D01*
X116078001Y-167893021D01*
X116035667Y-167935354D01*
X115744530Y-167935354D01*
X115839707Y-167840338D01*
X115960774Y-167793100D01*
X116098581Y-167716496D01*
X116160715Y-167617854D01*
X116544964Y-167617854D01*
X116612564Y-167709726D01*
X116679726Y-167723687D01*
X116775350Y-167673193D01*
X116764392Y-167589762D01*
X116717531Y-167414083D01*
X116711704Y-167356929D01*
X116683406Y-167323634D01*
X116623733Y-167393740D01*
X116566485Y-167514356D01*
X116544964Y-167617854D01*
X116160715Y-167617854D01*
X116226046Y-167514137D01*
X116305544Y-167321521D01*
X116417801Y-167056769D01*
X116520287Y-166920829D01*
X116642153Y-166877710D01*
X116665605Y-166877021D01*
X116772484Y-166899301D01*
X116862718Y-166987152D01*
X116957095Y-167172090D01*
X117076405Y-167485632D01*
X117087375Y-167516440D01*
X117200453Y-167833774D01*
X117295370Y-168097989D01*
X117354851Y-168261052D01*
X117361412Y-168278440D01*
X117343534Y-168378105D01*
X117227963Y-168401021D01*
X117049097Y-168323134D01*
X116967001Y-168189354D01*
X116852624Y-168025495D01*
X116648411Y-167977728D01*
X116639608Y-167977687D01*
X116445105Y-168013666D01*
X116350897Y-168149231D01*
X116339566Y-168189354D01*
X116234564Y-168364994D01*
X116109662Y-168401021D01*
X115982596Y-168367282D01*
X115987919Y-168257601D01*
X116016366Y-168162348D01*
X115964185Y-168186907D01*
X115891144Y-168251004D01*
X115590899Y-168415341D01*
X115246665Y-168427089D01*
X115052208Y-168366165D01*
X114799754Y-168171008D01*
X114696779Y-167986557D01*
X114617671Y-167815924D01*
X114499593Y-167740984D01*
X114279677Y-167723719D01*
X114262071Y-167723687D01*
X114042076Y-167734896D01*
X113943573Y-167788005D01*
X113919195Y-167912237D01*
X113919001Y-167935354D01*
X113934792Y-168065969D01*
X114012414Y-168127853D01*
X114197237Y-168146212D01*
X114300001Y-168147021D01*
X114551123Y-168163641D01*
X114665509Y-168220155D01*
X114681001Y-168274021D01*
X114644260Y-168345257D01*
X114512978Y-168384850D01*
X114255566Y-168400091D01*
X114130667Y-168401021D01*
X113580334Y-168401021D01*
X113573650Y-168083521D01*
X113559383Y-167913928D01*
X113531723Y-167872000D01*
X113520540Y-167893021D01*
X113344316Y-168182533D01*
X113064723Y-168348929D01*
X112676575Y-168401021D01*
X112225667Y-168401021D01*
X112225667Y-168157749D01*
X112479667Y-168157749D01*
X112754245Y-168131218D01*
X112993129Y-168057886D01*
X113139865Y-167871854D01*
X113200518Y-167587944D01*
X113118612Y-167345957D01*
X112915447Y-167185939D01*
X112754245Y-167146823D01*
X112479667Y-167120292D01*
X112479667Y-168157749D01*
X112225667Y-168157749D01*
X112225667Y-166877021D01*
X112676575Y-166877021D01*
G37*
G36*
X118067667Y-139953021D02*
G01*
X118067667Y-139656687D01*
X118321667Y-139656687D01*
X118340777Y-139807627D01*
X118432440Y-139858965D01*
X118596834Y-139852552D01*
X118796131Y-139806080D01*
X118868862Y-139700871D01*
X118872001Y-139656687D01*
X118827710Y-139529772D01*
X118668141Y-139469629D01*
X118596834Y-139460823D01*
X118407798Y-139458041D01*
X118333343Y-139524946D01*
X118321667Y-139656687D01*
X118067667Y-139656687D01*
X118067667Y-139191021D01*
X118527286Y-139191021D01*
X118896622Y-139222629D01*
X119112400Y-139316867D01*
X119119953Y-139324068D01*
X119221417Y-139412250D01*
X119251536Y-139374567D01*
X119253001Y-139324068D01*
X119285205Y-139250161D01*
X119404068Y-139209005D01*
X119642964Y-139192532D01*
X119803334Y-139191021D01*
X120112024Y-139199499D01*
X120283595Y-139229795D01*
X120349637Y-139289198D01*
X120353667Y-139318021D01*
X120303805Y-139401728D01*
X120134264Y-139439857D01*
X119972667Y-139445021D01*
X119734572Y-139456100D01*
X119621984Y-139502106D01*
X119591813Y-139602189D01*
X119591667Y-139614354D01*
X119620067Y-139725138D01*
X119734856Y-139774100D01*
X119930334Y-139783687D01*
X120165819Y-139804658D01*
X120262854Y-139874176D01*
X120269001Y-139910687D01*
X120213077Y-139998994D01*
X120027698Y-140035382D01*
X119930334Y-140037687D01*
X119712137Y-140049240D01*
X119615156Y-140103734D01*
X119591788Y-140230921D01*
X119591667Y-140249354D01*
X119607459Y-140379969D01*
X119685081Y-140441853D01*
X119869903Y-140460212D01*
X119972667Y-140461021D01*
X120223789Y-140477641D01*
X120338175Y-140534155D01*
X120353667Y-140588021D01*
X120322761Y-140651776D01*
X120210314Y-140690678D01*
X119986732Y-140709999D01*
X119640906Y-140715021D01*
X118928145Y-140715021D01*
X118745001Y-140418687D01*
X118602802Y-140232196D01*
X118472044Y-140129366D01*
X118441762Y-140122354D01*
X118350562Y-140197878D01*
X118321667Y-140418687D01*
X118294127Y-140637860D01*
X118206234Y-140714485D01*
X118194667Y-140715021D01*
X118132709Y-140685325D01*
X118094116Y-140576948D01*
X118074065Y-140360951D01*
X118069398Y-140101034D01*
X119017903Y-140101034D01*
X119035962Y-140237001D01*
X119082330Y-140331522D01*
X119173233Y-140485353D01*
X119224974Y-140545687D01*
X119242160Y-140470234D01*
X119252054Y-140280677D01*
X119253001Y-140188878D01*
X119247638Y-139971529D01*
X119219477Y-139896259D01*
X119150409Y-139935877D01*
X119110356Y-139974712D01*
X119017903Y-140101034D01*
X118069398Y-140101034D01*
X118067734Y-140008395D01*
X118067667Y-139953021D01*
G37*
G36*
X138074401Y-139191021D02*
G01*
X138411891Y-139215248D01*
X138613738Y-139301698D01*
X138708453Y-139471022D01*
X138726334Y-139663254D01*
X138680923Y-139915745D01*
X138527103Y-140076373D01*
X138238493Y-140170247D01*
X138183555Y-140179862D01*
X137979393Y-140230589D01*
X137894760Y-140323603D01*
X137879667Y-140472098D01*
X137840360Y-140665576D01*
X137752667Y-140715021D01*
X137690709Y-140685325D01*
X137652116Y-140576948D01*
X137632065Y-140360951D01*
X137625734Y-140008395D01*
X137625667Y-139953021D01*
X137625667Y-139699021D01*
X137879667Y-139699021D01*
X137917004Y-139892713D01*
X138042571Y-139953576D01*
X138253742Y-139901629D01*
X138357877Y-139786098D01*
X138387667Y-139647629D01*
X138358385Y-139502358D01*
X138237024Y-139449414D01*
X138133667Y-139445021D01*
X137953759Y-139466000D01*
X137887449Y-139564960D01*
X137879667Y-139699021D01*
X137625667Y-139699021D01*
X137625667Y-139191021D01*
X138074401Y-139191021D01*
G37*
G36*
X142899656Y-153024951D02*
G01*
X142938978Y-153145156D01*
X142956757Y-153382926D01*
X142959667Y-153626687D01*
X142959667Y-154261687D01*
X143298334Y-154261687D01*
X143519902Y-154275887D01*
X143617826Y-154333282D01*
X143637001Y-154431021D01*
X143616788Y-154528878D01*
X143529399Y-154579856D01*
X143334703Y-154598548D01*
X143171334Y-154600354D01*
X142705667Y-154600354D01*
X142705667Y-153796021D01*
X142710212Y-153412602D01*
X142726836Y-153169960D01*
X142760021Y-153039707D01*
X142814248Y-152993456D01*
X142832667Y-152991687D01*
X142899656Y-153024951D01*
G37*
G36*
X139096168Y-57515703D02*
G01*
X139252462Y-56942564D01*
X139540650Y-56444730D01*
X139938031Y-56042753D01*
X140421904Y-55757187D01*
X140969567Y-55608582D01*
X141221120Y-55591897D01*
X141807869Y-55662065D01*
X142319873Y-55863817D01*
X142747376Y-56174370D01*
X143080619Y-56570942D01*
X143309845Y-57030750D01*
X143425296Y-57531012D01*
X143417213Y-58048943D01*
X143275839Y-58561762D01*
X142991416Y-59046686D01*
X142795747Y-59268337D01*
X142310395Y-59649422D01*
X141779945Y-59867307D01*
X141204861Y-59921881D01*
X140585610Y-59813032D01*
X140558526Y-59804847D01*
X140089010Y-59577067D01*
X139683479Y-59221106D01*
X139364962Y-58773014D01*
X139156488Y-58268840D01*
X139083981Y-57764756D01*
X140757010Y-57764756D01*
X140829804Y-58003524D01*
X140898456Y-58094854D01*
X141119383Y-58225981D01*
X141384374Y-58229962D01*
X141619500Y-58109565D01*
X141754115Y-57887325D01*
X141745137Y-57630371D01*
X141605001Y-57403021D01*
X141376630Y-57263739D01*
X141146798Y-57260476D01*
X140946354Y-57363028D01*
X140806142Y-57541189D01*
X140757010Y-57764756D01*
X139083981Y-57764756D01*
X139081087Y-57744633D01*
X139096168Y-57515703D01*
G37*
G36*
X135619067Y-113621687D02*
G01*
X135956557Y-113645915D01*
X136158405Y-113732365D01*
X136253120Y-113901688D01*
X136271001Y-114093920D01*
X136225589Y-114346412D01*
X136071769Y-114507040D01*
X135783159Y-114600914D01*
X135728222Y-114610529D01*
X135524060Y-114661255D01*
X135439427Y-114754270D01*
X135424334Y-114902765D01*
X135385026Y-115096243D01*
X135297334Y-115145687D01*
X135235376Y-115115992D01*
X135196783Y-115007615D01*
X135176732Y-114791617D01*
X135170401Y-114439062D01*
X135170334Y-114383687D01*
X135170334Y-114129687D01*
X135424334Y-114129687D01*
X135461671Y-114323380D01*
X135587237Y-114384242D01*
X135798409Y-114332295D01*
X135902543Y-114216765D01*
X135932334Y-114078295D01*
X135903051Y-113933024D01*
X135781691Y-113880081D01*
X135678334Y-113875687D01*
X135498426Y-113896666D01*
X135432115Y-113995627D01*
X135424334Y-114129687D01*
X135170334Y-114129687D01*
X135170334Y-113621687D01*
X135619067Y-113621687D01*
G37*
G36*
X108726160Y-98916347D02*
G01*
X108944578Y-98637575D01*
X109133505Y-98515230D01*
X109460678Y-98401416D01*
X109764510Y-98405687D01*
X110072434Y-98505640D01*
X110346592Y-98704061D01*
X110526189Y-99003699D01*
X110605649Y-99361701D01*
X110579397Y-99735219D01*
X110441855Y-100081400D01*
X110300834Y-100260931D01*
X110009288Y-100457195D01*
X109660200Y-100555725D01*
X109322071Y-100540953D01*
X109220001Y-100506579D01*
X108915422Y-100292364D01*
X108712055Y-99987229D01*
X108611593Y-99630178D01*
X108613285Y-99478840D01*
X108998045Y-99478840D01*
X109063048Y-99799156D01*
X109216152Y-100036536D01*
X109459428Y-100208947D01*
X109701092Y-100219360D01*
X109970388Y-100069028D01*
X109970582Y-100068875D01*
X110114046Y-99923495D01*
X110179439Y-99742362D01*
X110193667Y-99492174D01*
X110137223Y-99134979D01*
X109986339Y-98877672D01*
X109768685Y-98736689D01*
X109511933Y-98728470D01*
X109243753Y-98869451D01*
X109204291Y-98904446D01*
X109044908Y-99159827D01*
X108998045Y-99478840D01*
X108613285Y-99478840D01*
X108615730Y-99260216D01*
X108726160Y-98916347D01*
G37*
G36*
X114073133Y-98475630D02*
G01*
X114122012Y-98522193D01*
X114151656Y-98634142D01*
X114166841Y-98839577D01*
X114172347Y-99166598D01*
X114173001Y-99482354D01*
X114173001Y-100498354D01*
X113961334Y-100498354D01*
X113861219Y-100492306D01*
X113799019Y-100452461D01*
X113765711Y-100346268D01*
X113752271Y-100141176D01*
X113749678Y-99804633D01*
X113749667Y-99734741D01*
X113749667Y-98971128D01*
X113538001Y-99024253D01*
X113372911Y-99036350D01*
X113326334Y-98957121D01*
X113395855Y-98819203D01*
X113565786Y-98663523D01*
X113778174Y-98532284D01*
X113975068Y-98467687D01*
X114000239Y-98466354D01*
X114073133Y-98475630D01*
G37*
G36*
X152901953Y-152991687D02*
G01*
X153282297Y-153030456D01*
X153519541Y-153150146D01*
X153621981Y-153355830D01*
X153627667Y-153435568D01*
X153572301Y-153636904D01*
X153484439Y-153771619D01*
X153393851Y-153893073D01*
X153396679Y-154005623D01*
X153484439Y-154172349D01*
X153596549Y-154378795D01*
X153611815Y-154480684D01*
X153528238Y-154513738D01*
X153465239Y-154515687D01*
X153312166Y-154444658D01*
X153146841Y-154261090D01*
X153119667Y-154219354D01*
X152977469Y-154032862D01*
X152846710Y-153930033D01*
X152816428Y-153923021D01*
X152725228Y-153998544D01*
X152696334Y-154219354D01*
X152668794Y-154438527D01*
X152580900Y-154515151D01*
X152569334Y-154515687D01*
X152507376Y-154485992D01*
X152468783Y-154377615D01*
X152448732Y-154161617D01*
X152442401Y-153809062D01*
X152442334Y-153753687D01*
X152442334Y-153457354D01*
X152696334Y-153457354D01*
X152715444Y-153608294D01*
X152807106Y-153659632D01*
X152971501Y-153653218D01*
X153170798Y-153606747D01*
X153243529Y-153501538D01*
X153246667Y-153457354D01*
X153202377Y-153330439D01*
X153042808Y-153270296D01*
X152971501Y-153261489D01*
X152782464Y-153258708D01*
X152708010Y-153325613D01*
X152696334Y-153457354D01*
X152442334Y-153457354D01*
X152442334Y-152991687D01*
X152901953Y-152991687D01*
G37*
G36*
X122017009Y-166892563D02*
G01*
X122161798Y-166938254D01*
X122273260Y-167060716D01*
X122384692Y-167299948D01*
X122409347Y-167363854D01*
X122509667Y-167606106D01*
X122592961Y-167767552D01*
X122630425Y-167808354D01*
X122686963Y-167736198D01*
X122777963Y-167549844D01*
X122854534Y-167363854D01*
X122985029Y-167079314D01*
X123112165Y-166931343D01*
X123213781Y-166892299D01*
X123302457Y-166887622D01*
X123357666Y-166925522D01*
X123387325Y-167037218D01*
X123399352Y-167253926D01*
X123401664Y-167606866D01*
X123401667Y-167633132D01*
X123398878Y-167996827D01*
X123385791Y-168223330D01*
X123355324Y-168344754D01*
X123300396Y-168393211D01*
X123232334Y-168401021D01*
X123123352Y-168373378D01*
X123071663Y-168261453D01*
X123056316Y-168041187D01*
X123049632Y-167681354D01*
X122922261Y-168041187D01*
X122793973Y-168305556D01*
X122656589Y-168400928D01*
X122510841Y-168327355D01*
X122357461Y-168084888D01*
X122318425Y-167998854D01*
X122145373Y-167596687D01*
X122138520Y-167998854D01*
X122124024Y-168245413D01*
X122079264Y-168365213D01*
X121985770Y-168400415D01*
X121962334Y-168401021D01*
X121882121Y-168388370D01*
X121832171Y-168329007D01*
X121805399Y-168190814D01*
X121794719Y-167941676D01*
X121793001Y-167633397D01*
X121793001Y-166865773D01*
X122017009Y-166892563D01*
G37*
G36*
X135427038Y-153364494D02*
G01*
X135592388Y-153091457D01*
X135845114Y-152922964D01*
X136141400Y-152861785D01*
X136437432Y-152910690D01*
X136689392Y-153072450D01*
X136825971Y-153276044D01*
X136941706Y-153542021D01*
X136945020Y-153224521D01*
X136961908Y-153013994D01*
X137025849Y-152924849D01*
X137138834Y-152909422D01*
X137282490Y-152960005D01*
X137442565Y-153123656D01*
X137625667Y-153396255D01*
X137922001Y-153880687D01*
X137947392Y-153393854D01*
X137969803Y-153115508D01*
X138009913Y-152967867D01*
X138082829Y-152912323D01*
X138137892Y-152907021D01*
X138216414Y-152920751D01*
X138265215Y-152983360D01*
X138291257Y-153126976D01*
X138301499Y-153383724D01*
X138303001Y-153669021D01*
X138301110Y-154029804D01*
X138289659Y-154253824D01*
X138259979Y-154373652D01*
X138203398Y-154421854D01*
X138111249Y-154431000D01*
X138100160Y-154431021D01*
X137949392Y-154387330D01*
X137790586Y-154238375D01*
X137613327Y-153987245D01*
X137329334Y-153543469D01*
X137303743Y-153987245D01*
X137278957Y-154250791D01*
X137232604Y-154384859D01*
X137147601Y-154429243D01*
X137113243Y-154431021D01*
X137001692Y-154398008D01*
X136953432Y-154269831D01*
X136945020Y-154113521D01*
X136941706Y-153796021D01*
X136826890Y-154059813D01*
X136627362Y-154316957D01*
X136436569Y-154419646D01*
X136227876Y-154488486D01*
X136091336Y-154501991D01*
X135940834Y-154456635D01*
X135793357Y-154393325D01*
X135540957Y-154198590D01*
X135399499Y-153904856D01*
X135388621Y-153669021D01*
X135734778Y-153669021D01*
X135793564Y-153939904D01*
X135941953Y-154111795D01*
X136137999Y-154172061D01*
X136339751Y-154108066D01*
X136505261Y-153907175D01*
X136507828Y-153901854D01*
X136563411Y-153633109D01*
X136493114Y-153389443D01*
X136319884Y-153221294D01*
X136178461Y-153177907D01*
X135940187Y-153220700D01*
X135785844Y-153398456D01*
X135734778Y-153669021D01*
X135388621Y-153669021D01*
X135383229Y-153552133D01*
X135427038Y-153364494D01*
G37*
G36*
X148434827Y-98831681D02*
G01*
X148653245Y-98552909D01*
X148842172Y-98430563D01*
X149169345Y-98316749D01*
X149473177Y-98321021D01*
X149781100Y-98420973D01*
X150055259Y-98619394D01*
X150234856Y-98919032D01*
X150314316Y-99277035D01*
X150288063Y-99650552D01*
X150150522Y-99996733D01*
X150009500Y-100176264D01*
X149717955Y-100372528D01*
X149368867Y-100471058D01*
X149030738Y-100456287D01*
X148928667Y-100421912D01*
X148624089Y-100207697D01*
X148420722Y-99902562D01*
X148320259Y-99545512D01*
X148321952Y-99394173D01*
X148706711Y-99394173D01*
X148771714Y-99714489D01*
X148924819Y-99951869D01*
X149168094Y-100124280D01*
X149409759Y-100134693D01*
X149679055Y-99984362D01*
X149679249Y-99984209D01*
X149822713Y-99838828D01*
X149888105Y-99657695D01*
X149902334Y-99407507D01*
X149845890Y-99050312D01*
X149695006Y-98793005D01*
X149477352Y-98652023D01*
X149220600Y-98643803D01*
X148952420Y-98784785D01*
X148912957Y-98819779D01*
X148753575Y-99075161D01*
X148706711Y-99394173D01*
X148321952Y-99394173D01*
X148324397Y-99175550D01*
X148434827Y-98831681D01*
G37*
G36*
X123317001Y-56716722D02*
G01*
X123315686Y-57103370D01*
X123306741Y-57351438D01*
X123282666Y-57491679D01*
X123235960Y-57554846D01*
X123159123Y-57571691D01*
X123108313Y-57572354D01*
X122895494Y-57646797D01*
X122763250Y-57857358D01*
X122723862Y-58138288D01*
X122643368Y-58652540D01*
X122420236Y-59124790D01*
X122078886Y-59517256D01*
X121659308Y-59785368D01*
X121397211Y-59876619D01*
X121085538Y-59950254D01*
X120774121Y-59998972D01*
X120512792Y-60015477D01*
X120351385Y-59992468D01*
X120332501Y-59979701D01*
X120305425Y-59872064D01*
X120284100Y-59635111D01*
X120271354Y-59308833D01*
X120269001Y-59082243D01*
X120269001Y-58249687D01*
X120501834Y-58248391D01*
X120707560Y-58227442D01*
X120850275Y-58147600D01*
X120950019Y-57979296D01*
X121026832Y-57692961D01*
X121079312Y-57396359D01*
X121201232Y-56845616D01*
X121378841Y-56440792D01*
X121632667Y-56162163D01*
X121983235Y-55990006D01*
X122451074Y-55904597D01*
X122645383Y-55891590D01*
X123317001Y-55861091D01*
X123317001Y-56716722D01*
G37*
G36*
X134016267Y-62433025D02*
G01*
X134333907Y-62559819D01*
X134537376Y-62786260D01*
X134591192Y-62948687D01*
X134561701Y-63095375D01*
X134446583Y-63148847D01*
X134303908Y-63105467D01*
X134196667Y-62973383D01*
X134039918Y-62791057D01*
X133785020Y-62742746D01*
X133597304Y-62773469D01*
X133426697Y-62873378D01*
X133390807Y-63016938D01*
X133486151Y-63149956D01*
X133625167Y-63206946D01*
X134101128Y-63334657D01*
X134422387Y-63487803D01*
X134603135Y-63679603D01*
X134657562Y-63923280D01*
X134626166Y-64139600D01*
X134493976Y-64348276D01*
X134246560Y-64499166D01*
X133932582Y-64577062D01*
X133600708Y-64566754D01*
X133422560Y-64515733D01*
X133209704Y-64365784D01*
X133040524Y-64139453D01*
X132969069Y-63909696D01*
X132969001Y-63903515D01*
X133030768Y-63782302D01*
X133180667Y-63753021D01*
X133346323Y-63792397D01*
X133392334Y-63924169D01*
X133463215Y-64093642D01*
X133639157Y-64201345D01*
X133865104Y-64240616D01*
X134086003Y-64204795D01*
X134246799Y-64087221D01*
X134276603Y-64031152D01*
X134264237Y-63863381D01*
X134091491Y-63728498D01*
X133765015Y-63631569D01*
X133747734Y-63628348D01*
X133376626Y-63522484D01*
X133152622Y-63359842D01*
X133058898Y-63126102D01*
X133053667Y-63037450D01*
X133123004Y-62726868D01*
X133319394Y-62515538D01*
X133625402Y-62414405D01*
X134016267Y-62433025D01*
G37*
G36*
X126187822Y-152994001D02*
G01*
X126538276Y-153002519D01*
X126766579Y-153019605D01*
X126896301Y-153047624D01*
X126951010Y-153088941D01*
X126957667Y-153118687D01*
X126884066Y-153220830D01*
X126746001Y-153245687D01*
X126638338Y-153253601D01*
X126575229Y-153301121D01*
X126544783Y-153423916D01*
X126535112Y-153657654D01*
X126534334Y-153880687D01*
X126530334Y-154205355D01*
X126512098Y-154395850D01*
X126470266Y-154487266D01*
X126395482Y-154514691D01*
X126365001Y-154515687D01*
X126278422Y-154500689D01*
X126227624Y-154432301D01*
X126203246Y-154275433D01*
X126195933Y-153994991D01*
X126195667Y-153880687D01*
X126195667Y-153245687D01*
X125645334Y-153245687D01*
X125347502Y-153250965D01*
X125181454Y-153274473D01*
X125109772Y-153327724D01*
X125095001Y-153415021D01*
X125123401Y-153525805D01*
X125238190Y-153574767D01*
X125433667Y-153584354D01*
X125669152Y-153605325D01*
X125766187Y-153674842D01*
X125772334Y-153711354D01*
X125716411Y-153799661D01*
X125531031Y-153836049D01*
X125433667Y-153838354D01*
X125215470Y-153849907D01*
X125118489Y-153904401D01*
X125095121Y-154031587D01*
X125095001Y-154050021D01*
X125113485Y-154186394D01*
X125200676Y-154247007D01*
X125404174Y-154261612D01*
X125433667Y-154261687D01*
X125669152Y-154282658D01*
X125766187Y-154352176D01*
X125772334Y-154388687D01*
X125733320Y-154462430D01*
X125595020Y-154502023D01*
X125325542Y-154515437D01*
X125264334Y-154515687D01*
X124756334Y-154515687D01*
X124740132Y-153034021D01*
X124553265Y-153753687D01*
X124459103Y-154100599D01*
X124385308Y-154314183D01*
X124314516Y-154426186D01*
X124229357Y-154468354D01*
X124159579Y-154473354D01*
X124021925Y-154447225D01*
X123938698Y-154339442D01*
X123876850Y-154113521D01*
X123805330Y-153857353D01*
X123736103Y-153770335D01*
X123671489Y-153852284D01*
X123613805Y-154103017D01*
X123608908Y-154134687D01*
X123560744Y-154372596D01*
X123491256Y-154484981D01*
X123371143Y-154515461D01*
X123352984Y-154515687D01*
X123216788Y-154484735D01*
X123126991Y-154363753D01*
X123060844Y-154155854D01*
X122980312Y-153847229D01*
X122901350Y-153547296D01*
X122888719Y-153499687D01*
X122824527Y-153218494D01*
X122824045Y-153062821D01*
X122892268Y-152999364D01*
X122964861Y-152991687D01*
X123066409Y-153032233D01*
X123147645Y-153175165D01*
X123226105Y-153452421D01*
X123232138Y-153478521D01*
X123287548Y-153716061D01*
X123328192Y-153837103D01*
X123366273Y-153830751D01*
X123413998Y-153686112D01*
X123483573Y-153392291D01*
X123522871Y-153219024D01*
X123594634Y-153045894D01*
X123724285Y-153003500D01*
X123760795Y-153007357D01*
X123899857Y-153077072D01*
X123997048Y-153262237D01*
X124032969Y-153387965D01*
X124106307Y-153631302D01*
X124177000Y-153787311D01*
X124229617Y-153830353D01*
X124248806Y-153746632D01*
X124270788Y-153590045D01*
X124324391Y-153357520D01*
X124337452Y-153309187D01*
X124425627Y-152991687D01*
X125691647Y-152991687D01*
X126187822Y-152994001D01*
G37*
G36*
X151121015Y-125587499D02*
G01*
X151304277Y-125424053D01*
X151523969Y-125358733D01*
X151680334Y-125351869D01*
X152030697Y-125423491D01*
X152283743Y-125625986D01*
X152421807Y-125940796D01*
X152442334Y-126152354D01*
X152371216Y-126492147D01*
X152182173Y-126759652D01*
X151911672Y-126928777D01*
X151596177Y-126973431D01*
X151371893Y-126918271D01*
X151117029Y-126727861D01*
X150963410Y-126443487D01*
X150920100Y-126113229D01*
X150922503Y-126102863D01*
X151252718Y-126102863D01*
X151296832Y-126388400D01*
X151347292Y-126501531D01*
X151499256Y-126635708D01*
X151707221Y-126656788D01*
X151910826Y-126574695D01*
X152049711Y-126399352D01*
X152054983Y-126385187D01*
X152097575Y-126085459D01*
X152018377Y-125839211D01*
X151835364Y-125686076D01*
X151725284Y-125658257D01*
X151484117Y-125699480D01*
X151320870Y-125860452D01*
X151252718Y-126102863D01*
X150922503Y-126102863D01*
X150996163Y-125785165D01*
X151121015Y-125587499D01*
G37*
G36*
X132089352Y-152910006D02*
G01*
X132310058Y-152925870D01*
X132440046Y-152964974D01*
X132518614Y-153037682D01*
X132570523Y-153126373D01*
X132685453Y-153345726D01*
X132829179Y-153126373D01*
X132982269Y-152969762D01*
X133140286Y-152907021D01*
X133261890Y-152918304D01*
X133293566Y-152973630D01*
X133231900Y-153105207D01*
X133097599Y-153309814D01*
X132995335Y-153459044D01*
X132943482Y-153567151D01*
X132950132Y-153675614D01*
X133023380Y-153825909D01*
X133171318Y-154059515D01*
X133275071Y-154219354D01*
X133361269Y-154368161D01*
X133334760Y-154423151D01*
X133192579Y-154431021D01*
X132997925Y-154375399D01*
X132846997Y-154186274D01*
X132836739Y-154166847D01*
X132700130Y-153902673D01*
X132539476Y-154166847D01*
X132377576Y-154355914D01*
X132210873Y-154430996D01*
X132208245Y-154431021D01*
X132088296Y-154421918D01*
X132052069Y-154373030D01*
X132103620Y-154251985D01*
X132247006Y-154026410D01*
X132261732Y-154004138D01*
X132393405Y-153794200D01*
X132438511Y-153656471D01*
X132405585Y-153523055D01*
X132338658Y-153392120D01*
X132237812Y-153228927D01*
X132126887Y-153153163D01*
X131945090Y-153138456D01*
X131775926Y-153148025D01*
X131526501Y-153174302D01*
X131403222Y-153223108D01*
X131362912Y-153318632D01*
X131360334Y-153380859D01*
X131380206Y-153512194D01*
X131471332Y-153570549D01*
X131680974Y-153584325D01*
X131699001Y-153584354D01*
X131934486Y-153605325D01*
X132031521Y-153674842D01*
X132037667Y-153711354D01*
X131981744Y-153799661D01*
X131796365Y-153836049D01*
X131699001Y-153838354D01*
X131482164Y-153847325D01*
X131385801Y-153902717D01*
X131361091Y-154047246D01*
X131360334Y-154134687D01*
X131341392Y-154338926D01*
X131267445Y-154421334D01*
X131191001Y-154431021D01*
X131110548Y-154418288D01*
X131060557Y-154358605D01*
X131033864Y-154219741D01*
X131023307Y-153969468D01*
X131021667Y-153669021D01*
X131021667Y-152907021D01*
X131738630Y-152907021D01*
X132089352Y-152910006D01*
G37*
G36*
X135796348Y-167074166D02*
G01*
X135979610Y-166910720D01*
X136199302Y-166845399D01*
X136355667Y-166838536D01*
X136627302Y-166866729D01*
X136819089Y-166974756D01*
X136914986Y-167074166D01*
X137117667Y-167309796D01*
X137117667Y-167093408D01*
X137151364Y-166929428D01*
X137283123Y-166878056D01*
X137322808Y-166877021D01*
X137464465Y-166914749D01*
X137611165Y-167046497D01*
X137792121Y-167300108D01*
X137830808Y-167361205D01*
X138133667Y-167845389D01*
X138133667Y-167361205D01*
X138140465Y-167085635D01*
X138170068Y-166939655D01*
X138236294Y-166883761D01*
X138303001Y-166877021D01*
X138383453Y-166889753D01*
X138433444Y-166949436D01*
X138460137Y-167088300D01*
X138470694Y-167338573D01*
X138472334Y-167639021D01*
X138470218Y-167999952D01*
X138458357Y-168224088D01*
X138428477Y-168343957D01*
X138372307Y-168392090D01*
X138281572Y-168401018D01*
X138278556Y-168401021D01*
X138138503Y-168357328D01*
X137987738Y-168209105D01*
X137800432Y-167930631D01*
X137791723Y-167916268D01*
X137498667Y-167431516D01*
X137473275Y-167916268D01*
X137450769Y-168193908D01*
X137410400Y-168340903D01*
X137336973Y-168395920D01*
X137282775Y-168401021D01*
X137153705Y-168350405D01*
X137117667Y-168184633D01*
X137117667Y-167968245D01*
X136927167Y-168184723D01*
X136660022Y-168377709D01*
X136337017Y-168453994D01*
X136047226Y-168404937D01*
X135792363Y-168214528D01*
X135638744Y-167930154D01*
X135595433Y-167599895D01*
X135597836Y-167589529D01*
X135928051Y-167589529D01*
X135972165Y-167875066D01*
X136022626Y-167988198D01*
X136174589Y-168122375D01*
X136382554Y-168143455D01*
X136586159Y-168061362D01*
X136725045Y-167886019D01*
X136730316Y-167871854D01*
X136772908Y-167572126D01*
X136693710Y-167325877D01*
X136510697Y-167172743D01*
X136400617Y-167144924D01*
X136159450Y-167186146D01*
X135996204Y-167347119D01*
X135928051Y-167589529D01*
X135597836Y-167589529D01*
X135671496Y-167271832D01*
X135796348Y-167074166D01*
G37*
G36*
X120861667Y-114383687D02*
G01*
X120861667Y-114087354D01*
X121115667Y-114087354D01*
X121134777Y-114238294D01*
X121226440Y-114289632D01*
X121390834Y-114283218D01*
X121590131Y-114236747D01*
X121662862Y-114131538D01*
X121666001Y-114087354D01*
X121621710Y-113960439D01*
X121462141Y-113900296D01*
X121390834Y-113891489D01*
X121201798Y-113888708D01*
X121127343Y-113955613D01*
X121115667Y-114087354D01*
X120861667Y-114087354D01*
X120861667Y-113621687D01*
X121321286Y-113621687D01*
X121690622Y-113653295D01*
X121906400Y-113747534D01*
X121913953Y-113754735D01*
X122015417Y-113842916D01*
X122045536Y-113805234D01*
X122047001Y-113754735D01*
X122079205Y-113680828D01*
X122198068Y-113639672D01*
X122436964Y-113623198D01*
X122597334Y-113621687D01*
X122906024Y-113630166D01*
X123077595Y-113660462D01*
X123143637Y-113719864D01*
X123147667Y-113748687D01*
X123097805Y-113832395D01*
X122928264Y-113870523D01*
X122766667Y-113875687D01*
X122528572Y-113886767D01*
X122415984Y-113932772D01*
X122385813Y-114032856D01*
X122385667Y-114045021D01*
X122414067Y-114155805D01*
X122528856Y-114204767D01*
X122724334Y-114214354D01*
X122959819Y-114235325D01*
X123056854Y-114304842D01*
X123063001Y-114341354D01*
X123007077Y-114429661D01*
X122821698Y-114466049D01*
X122724334Y-114468354D01*
X122506137Y-114479907D01*
X122409156Y-114534401D01*
X122385788Y-114661587D01*
X122385667Y-114680021D01*
X122401459Y-114810636D01*
X122479081Y-114872520D01*
X122663903Y-114890879D01*
X122766667Y-114891687D01*
X123017789Y-114908308D01*
X123132175Y-114964821D01*
X123147667Y-115018687D01*
X123116761Y-115082443D01*
X123004314Y-115121345D01*
X122780732Y-115140666D01*
X122434906Y-115145687D01*
X121722145Y-115145687D01*
X121539001Y-114849354D01*
X121396802Y-114662862D01*
X121266044Y-114560033D01*
X121235762Y-114553021D01*
X121144562Y-114628544D01*
X121115667Y-114849354D01*
X121088127Y-115068527D01*
X121000234Y-115145151D01*
X120988667Y-115145687D01*
X120926709Y-115115992D01*
X120888116Y-115007615D01*
X120868065Y-114791617D01*
X120863398Y-114531700D01*
X121811903Y-114531700D01*
X121829962Y-114667668D01*
X121876330Y-114762189D01*
X121967233Y-114916019D01*
X122018974Y-114976354D01*
X122036160Y-114900901D01*
X122046054Y-114711344D01*
X122047001Y-114619544D01*
X122041638Y-114402196D01*
X122013477Y-114326926D01*
X121944409Y-114366544D01*
X121904356Y-114405379D01*
X121811903Y-114531700D01*
X120863398Y-114531700D01*
X120861734Y-114439062D01*
X120861667Y-114383687D01*
G37*
G36*
X155994119Y-153004420D02*
G01*
X156044111Y-153064103D01*
X156070804Y-153202967D01*
X156081361Y-153453240D01*
X156083001Y-153753687D01*
X156081018Y-154114521D01*
X156069401Y-154338581D01*
X156039645Y-154458423D01*
X155983247Y-154506602D01*
X155891702Y-154515675D01*
X155883954Y-154515687D01*
X155742265Y-154474158D01*
X155590227Y-154332138D01*
X155400707Y-154063483D01*
X155378780Y-154028854D01*
X155072653Y-153542021D01*
X155069827Y-154028854D01*
X155061401Y-154305473D01*
X155030959Y-154452329D01*
X154964575Y-154508797D01*
X154897667Y-154515687D01*
X154817215Y-154502955D01*
X154767223Y-154443271D01*
X154740530Y-154304408D01*
X154729974Y-154054135D01*
X154728334Y-153753687D01*
X154730524Y-153392705D01*
X154742513Y-153168587D01*
X154772428Y-153048873D01*
X154828396Y-153001102D01*
X154918543Y-152992815D01*
X154918834Y-152992817D01*
X155066350Y-153045026D01*
X155236914Y-153213994D01*
X155425877Y-153479650D01*
X155742420Y-153965354D01*
X155743377Y-153478521D01*
X155750677Y-153201989D01*
X155780371Y-153055170D01*
X155846244Y-152998658D01*
X155913667Y-152991687D01*
X155994119Y-153004420D01*
G37*
G36*
X131306211Y-99098405D02*
G01*
X131424608Y-98780824D01*
X131489055Y-98614521D01*
X131618642Y-98495175D01*
X131771761Y-98466354D01*
X131867835Y-98476412D01*
X131947319Y-98523832D01*
X132024988Y-98634480D01*
X132115616Y-98834226D01*
X132233977Y-99148935D01*
X132352075Y-99482354D01*
X132708413Y-100498354D01*
X132506606Y-100498354D01*
X132349914Y-100455752D01*
X132243456Y-100300671D01*
X132207001Y-100202021D01*
X132130857Y-100014965D01*
X132027310Y-99929571D01*
X131835145Y-99906401D01*
X131747016Y-99905687D01*
X131515054Y-99917271D01*
X131393713Y-99976309D01*
X131324638Y-100119232D01*
X131306256Y-100180854D01*
X131191512Y-100406190D01*
X131040008Y-100483076D01*
X130893943Y-100474051D01*
X130852334Y-100429676D01*
X130879523Y-100326414D01*
X130952057Y-100103024D01*
X131056384Y-99798137D01*
X131156164Y-99515041D01*
X131551764Y-99515041D01*
X131615236Y-99560756D01*
X131741334Y-99567021D01*
X131900512Y-99542338D01*
X131953001Y-99494988D01*
X131927223Y-99372751D01*
X131864123Y-99168398D01*
X131853715Y-99138144D01*
X131754429Y-98853332D01*
X131648489Y-99146676D01*
X131565766Y-99390224D01*
X131551764Y-99515041D01*
X131156164Y-99515041D01*
X131178952Y-99450387D01*
X131306211Y-99098405D01*
G37*
G36*
X107179015Y-125756833D02*
G01*
X107362277Y-125593386D01*
X107581969Y-125528066D01*
X107738334Y-125521202D01*
X108088697Y-125592824D01*
X108341743Y-125795319D01*
X108479807Y-126110130D01*
X108500334Y-126321687D01*
X108429216Y-126661480D01*
X108240173Y-126928985D01*
X107969672Y-127098111D01*
X107654177Y-127142764D01*
X107429893Y-127087604D01*
X107175029Y-126897194D01*
X107021410Y-126612821D01*
X106978100Y-126282562D01*
X106980503Y-126272196D01*
X107310718Y-126272196D01*
X107354832Y-126557733D01*
X107405292Y-126670865D01*
X107557256Y-126805041D01*
X107765221Y-126826122D01*
X107968826Y-126744029D01*
X108107711Y-126568686D01*
X108112983Y-126554521D01*
X108155575Y-126254792D01*
X108076377Y-126008544D01*
X107893364Y-125855409D01*
X107783284Y-125827590D01*
X107542117Y-125868813D01*
X107378870Y-126029785D01*
X107310718Y-126272196D01*
X106980503Y-126272196D01*
X107054163Y-125954499D01*
X107179015Y-125756833D01*
G37*
G36*
X123689015Y-167074166D02*
G01*
X123872277Y-166910720D01*
X124091969Y-166845399D01*
X124248334Y-166838536D01*
X124598697Y-166910158D01*
X124851743Y-167112653D01*
X124989807Y-167427463D01*
X125010334Y-167639021D01*
X124939216Y-167978813D01*
X124750173Y-168246319D01*
X124479672Y-168415444D01*
X124164177Y-168460098D01*
X123939893Y-168404937D01*
X123685029Y-168214528D01*
X123531410Y-167930154D01*
X123488100Y-167599895D01*
X123490503Y-167589529D01*
X123820718Y-167589529D01*
X123864832Y-167875066D01*
X123915292Y-167988198D01*
X124067256Y-168122375D01*
X124275221Y-168143455D01*
X124478826Y-168061362D01*
X124617711Y-167886019D01*
X124622983Y-167871854D01*
X124665575Y-167572126D01*
X124586377Y-167325877D01*
X124403364Y-167172743D01*
X124293284Y-167144924D01*
X124052117Y-167186146D01*
X123888870Y-167347119D01*
X123820718Y-167589529D01*
X123490503Y-167589529D01*
X123564163Y-167271832D01*
X123689015Y-167074166D01*
G37*
G36*
X154554786Y-153004420D02*
G01*
X154604778Y-153064103D01*
X154631471Y-153202967D01*
X154642027Y-153453240D01*
X154643667Y-153753687D01*
X154640838Y-154115722D01*
X154627575Y-154340685D01*
X154596716Y-154460803D01*
X154541100Y-154508308D01*
X154474334Y-154515687D01*
X154393882Y-154502955D01*
X154343890Y-154443271D01*
X154317197Y-154304408D01*
X154306640Y-154054135D01*
X154305001Y-153753687D01*
X154307830Y-153391652D01*
X154321093Y-153166690D01*
X154351952Y-153046571D01*
X154407568Y-152999066D01*
X154474334Y-152991687D01*
X154554786Y-153004420D01*
G37*
G36*
X153223959Y-113651382D02*
G01*
X153262552Y-113759760D01*
X153282602Y-113975757D01*
X153288934Y-114328313D01*
X153289001Y-114383687D01*
X153286142Y-114745790D01*
X153272819Y-114970802D01*
X153241910Y-115090934D01*
X153186294Y-115138395D01*
X153120532Y-115145687D01*
X152959797Y-115066168D01*
X152749640Y-114830574D01*
X152633699Y-114665118D01*
X152315334Y-114184549D01*
X152289942Y-114665118D01*
X152260850Y-114959687D01*
X152207978Y-115110922D01*
X152141775Y-115145687D01*
X152081476Y-115112734D01*
X152043917Y-114995240D01*
X152024594Y-114765251D01*
X152019003Y-114394816D01*
X152019001Y-114383687D01*
X152021900Y-114021487D01*
X152035307Y-113796403D01*
X152066288Y-113676254D01*
X152121906Y-113628856D01*
X152186280Y-113621687D01*
X152338908Y-113697892D01*
X152541047Y-113928783D01*
X152692503Y-114150854D01*
X153031445Y-114680021D01*
X153033223Y-114150854D01*
X153043406Y-113848691D01*
X153076523Y-113683561D01*
X153140268Y-113623849D01*
X153162001Y-113621687D01*
X153223959Y-113651382D01*
G37*
G36*
X127887613Y-166894355D02*
G01*
X128025921Y-167003269D01*
X128129694Y-167215018D01*
X128110600Y-167421619D01*
X127958400Y-167643907D01*
X127662854Y-167902718D01*
X127538507Y-167995083D01*
X127425824Y-168082148D01*
X127420178Y-168125000D01*
X127544085Y-168140129D01*
X127740834Y-168143250D01*
X128000458Y-168161084D01*
X128122826Y-168214758D01*
X128143001Y-168274021D01*
X128106260Y-168345257D01*
X127974978Y-168384850D01*
X127717566Y-168400091D01*
X127592667Y-168401021D01*
X127296425Y-168396794D01*
X127131376Y-168375092D01*
X127059428Y-168322385D01*
X127042486Y-168225141D01*
X127042334Y-168205536D01*
X127085021Y-167994386D01*
X127230943Y-167796701D01*
X127506887Y-167577055D01*
X127529167Y-167561717D01*
X127735590Y-167380509D01*
X127799535Y-167225978D01*
X127714717Y-167116265D01*
X127687651Y-167104362D01*
X127531294Y-167120006D01*
X127409486Y-167245142D01*
X127381001Y-167359621D01*
X127310357Y-167448922D01*
X127211667Y-167469687D01*
X127075812Y-167409092D01*
X127047055Y-167254440D01*
X127129956Y-167046432D01*
X127159413Y-167003269D01*
X127355874Y-166872864D01*
X127592667Y-166843154D01*
X127887613Y-166894355D01*
G37*
G36*
X105507009Y-125575230D02*
G01*
X105651798Y-125620920D01*
X105763260Y-125743383D01*
X105874692Y-125982615D01*
X105899347Y-126046521D01*
X105999667Y-126288772D01*
X106082961Y-126450218D01*
X106120425Y-126491021D01*
X106176963Y-126418865D01*
X106267963Y-126232511D01*
X106344534Y-126046521D01*
X106475029Y-125761980D01*
X106602165Y-125614010D01*
X106703781Y-125574965D01*
X106792457Y-125570289D01*
X106847666Y-125608189D01*
X106877325Y-125719884D01*
X106889352Y-125936593D01*
X106891664Y-126289533D01*
X106891667Y-126315799D01*
X106888878Y-126679493D01*
X106875791Y-126905997D01*
X106845324Y-127027421D01*
X106790396Y-127075877D01*
X106722334Y-127083687D01*
X106613352Y-127056044D01*
X106561663Y-126944119D01*
X106546316Y-126723854D01*
X106539632Y-126364021D01*
X106412261Y-126723854D01*
X106283973Y-126988222D01*
X106146589Y-127083594D01*
X106000841Y-127010021D01*
X105847461Y-126767554D01*
X105808425Y-126681521D01*
X105635373Y-126279354D01*
X105628520Y-126681521D01*
X105614024Y-126928080D01*
X105569264Y-127047880D01*
X105475770Y-127083081D01*
X105452334Y-127083687D01*
X105372121Y-127071037D01*
X105322171Y-127011674D01*
X105295399Y-126873481D01*
X105284719Y-126624342D01*
X105283001Y-126316063D01*
X105283001Y-125548440D01*
X105507009Y-125575230D01*
G37*
G36*
X104040575Y-152907021D02*
G01*
X104435581Y-152961343D01*
X104712911Y-153130171D01*
X104884540Y-153415021D01*
X104914840Y-153424758D01*
X104922894Y-153372687D01*
X105283001Y-153372687D01*
X105311414Y-153525476D01*
X105430879Y-153580086D01*
X105529945Y-153584354D01*
X105718660Y-153551953D01*
X105813806Y-153478521D01*
X105817087Y-153288568D01*
X105678204Y-153180454D01*
X105527942Y-153161021D01*
X105350625Y-153185850D01*
X105287685Y-153289907D01*
X105283001Y-153372687D01*
X104922894Y-153372687D01*
X104934743Y-153296079D01*
X104937650Y-153224521D01*
X104944334Y-152907021D01*
X105435400Y-152907021D01*
X105730264Y-152924742D01*
X105956650Y-152970910D01*
X106040488Y-153012854D01*
X106119335Y-153076336D01*
X106097090Y-153017001D01*
X106094758Y-153012854D01*
X106105056Y-152930068D01*
X106245104Y-152907021D01*
X106405115Y-152945928D01*
X106510989Y-153091351D01*
X106553001Y-153203354D01*
X106634137Y-153396500D01*
X106709941Y-153496041D01*
X106722334Y-153499687D01*
X106792738Y-153427636D01*
X106875490Y-153249706D01*
X106891667Y-153203354D01*
X106988645Y-152994973D01*
X107119713Y-152913521D01*
X107195785Y-152907021D01*
X107402105Y-152907021D01*
X107146886Y-153412606D01*
X107013179Y-153715740D01*
X106920782Y-153998356D01*
X106891667Y-154174606D01*
X106865609Y-154361604D01*
X106768337Y-154428088D01*
X106722334Y-154431021D01*
X106601347Y-154393731D01*
X106553832Y-154252508D01*
X106549175Y-154155854D01*
X106506109Y-153915138D01*
X106401643Y-153624271D01*
X106341334Y-153499687D01*
X106137319Y-153118687D01*
X106133493Y-153389647D01*
X106086227Y-153620350D01*
X105989362Y-153739125D01*
X105909981Y-153803009D01*
X105912361Y-153895430D01*
X106002830Y-154065904D01*
X106038601Y-154124332D01*
X106228145Y-154431021D01*
X106028826Y-154431021D01*
X105846177Y-154367343D01*
X105684129Y-154160489D01*
X105669922Y-154134687D01*
X105542057Y-153945930D01*
X105422054Y-153844111D01*
X105396668Y-153838354D01*
X105311530Y-153916700D01*
X105283001Y-154134687D01*
X105264059Y-154338926D01*
X105190112Y-154421334D01*
X105113667Y-154431021D01*
X104999000Y-154399036D01*
X104948211Y-154273523D01*
X104937650Y-154113521D01*
X104923383Y-153943928D01*
X104895723Y-153902000D01*
X104884540Y-153923021D01*
X104708316Y-154212533D01*
X104428723Y-154378929D01*
X104040575Y-154431021D01*
X103589667Y-154431021D01*
X103589667Y-154187749D01*
X103843667Y-154187749D01*
X104118245Y-154161218D01*
X104357129Y-154087886D01*
X104503865Y-153901854D01*
X104564518Y-153617944D01*
X104482612Y-153375957D01*
X104279447Y-153215939D01*
X104118245Y-153176823D01*
X103843667Y-153150292D01*
X103843667Y-154187749D01*
X103589667Y-154187749D01*
X103589667Y-152907021D01*
X104040575Y-152907021D01*
G37*
G36*
X151001665Y-98381687D02*
G01*
X151327834Y-98388965D01*
X151542827Y-98421790D01*
X151704558Y-98496650D01*
X151869498Y-98628742D01*
X152025253Y-98783227D01*
X152108161Y-98931228D01*
X152140834Y-99134902D01*
X152146001Y-99388818D01*
X152135532Y-99694453D01*
X152091144Y-99893705D01*
X151993360Y-100048904D01*
X151912873Y-100134966D01*
X151769299Y-100258800D01*
X151611228Y-100333761D01*
X151387055Y-100375617D01*
X151045176Y-100400137D01*
X151045040Y-100400144D01*
X150410334Y-100432195D01*
X150410334Y-100075021D01*
X150833667Y-100075021D01*
X151130001Y-100075021D01*
X151431520Y-100014027D01*
X151595667Y-99905687D01*
X151727728Y-99677634D01*
X151765001Y-99368476D01*
X151720408Y-99045991D01*
X151570426Y-98834634D01*
X151290746Y-98706972D01*
X151151167Y-98675762D01*
X150833667Y-98616842D01*
X150833667Y-100075021D01*
X150410334Y-100075021D01*
X150410334Y-98381687D01*
X151001665Y-98381687D01*
G37*
G36*
X130771867Y-172699005D02*
G01*
X130801534Y-172668221D01*
X131017901Y-172481723D01*
X131223317Y-172398066D01*
X131467449Y-172380354D01*
X131866956Y-172449364D01*
X132170898Y-172648595D01*
X132359458Y-172961003D01*
X132379990Y-173260582D01*
X132266161Y-173599476D01*
X132034470Y-173940096D01*
X131846888Y-174128657D01*
X131544860Y-174393841D01*
X132489910Y-175532399D01*
X132647572Y-175120543D01*
X132790557Y-174828682D01*
X132968779Y-174578213D01*
X133158169Y-174387195D01*
X133334659Y-174273690D01*
X133474182Y-174255757D01*
X133552670Y-174351456D01*
X133561667Y-174434610D01*
X133485061Y-174628676D01*
X133371167Y-174709777D01*
X133230509Y-174831304D01*
X133065285Y-175061032D01*
X132943656Y-175282416D01*
X132706645Y-175771479D01*
X132888636Y-176027062D01*
X133093397Y-176226459D01*
X133320534Y-176332627D01*
X133499851Y-176397735D01*
X133548872Y-176516304D01*
X133544887Y-176561648D01*
X133461694Y-176726520D01*
X133292234Y-176763113D01*
X133058335Y-176673488D01*
X132817697Y-176492904D01*
X132485250Y-176192558D01*
X132325159Y-176369457D01*
X131967022Y-176643719D01*
X131528333Y-176773423D01*
X131358972Y-176783021D01*
X130994197Y-176742357D01*
X130684120Y-176600980D01*
X130422540Y-176389925D01*
X130204414Y-176186853D01*
X130041740Y-176366605D01*
X129697054Y-176628864D01*
X129278396Y-176765580D01*
X128833281Y-176769166D01*
X128409226Y-176632040D01*
X128402221Y-176628312D01*
X128076269Y-176370239D01*
X127882151Y-176037221D01*
X127819854Y-175660565D01*
X127831813Y-175593642D01*
X128273849Y-175593642D01*
X128346542Y-175949134D01*
X128541200Y-176220108D01*
X128822695Y-176385246D01*
X129155896Y-176423236D01*
X129480905Y-176326022D01*
X129699996Y-176184155D01*
X129850210Y-176050855D01*
X129909902Y-175968590D01*
X129918309Y-175880591D01*
X129861337Y-175754975D01*
X129751564Y-175598000D01*
X130565842Y-175598000D01*
X130610004Y-175912025D01*
X130726954Y-176108581D01*
X131037122Y-176352656D01*
X131375086Y-176431497D01*
X131732096Y-176343273D01*
X131766905Y-176326022D01*
X131988522Y-176182160D01*
X132141491Y-176046630D01*
X132213614Y-175951448D01*
X132220801Y-175859104D01*
X132148795Y-175728430D01*
X131983343Y-175518259D01*
X131940596Y-175466462D01*
X131728820Y-175208903D01*
X131537255Y-174973365D01*
X131433206Y-174843403D01*
X131301556Y-174707832D01*
X131181098Y-174697594D01*
X131083568Y-174742781D01*
X130814815Y-174966688D01*
X130638177Y-175267324D01*
X130565842Y-175598000D01*
X129751564Y-175598000D01*
X129724891Y-175559857D01*
X129511343Y-175284290D01*
X129291165Y-175015460D01*
X129102977Y-174806191D01*
X128974929Y-174686873D01*
X128942776Y-174670457D01*
X128836223Y-174724391D01*
X128665142Y-174866236D01*
X128563700Y-174965404D01*
X128370461Y-175200858D01*
X128286384Y-175422099D01*
X128273849Y-175593642D01*
X127831813Y-175593642D01*
X127889363Y-175271579D01*
X128090665Y-174901572D01*
X128403133Y-174596768D01*
X128728972Y-174357143D01*
X128508792Y-174033118D01*
X128358275Y-173740500D01*
X128259079Y-173417955D01*
X128250677Y-173364343D01*
X128656957Y-173364343D01*
X128731826Y-173667000D01*
X128820938Y-173820535D01*
X128957767Y-174001413D01*
X129059959Y-174057066D01*
X129193189Y-173998697D01*
X129325249Y-173906551D01*
X129565835Y-173667223D01*
X129694760Y-173395806D01*
X129710957Y-173129711D01*
X129613358Y-172906350D01*
X129400894Y-172763131D01*
X129358247Y-172750671D01*
X129067133Y-172746201D01*
X128841772Y-172869771D01*
X128699326Y-173087209D01*
X128656957Y-173364343D01*
X128250677Y-173364343D01*
X128247386Y-173343343D01*
X128235255Y-173107353D01*
X128284334Y-172938367D01*
X128423346Y-172762246D01*
X128504780Y-172678974D01*
X128718499Y-172490801D01*
X128914247Y-172403149D01*
X129174796Y-172380432D01*
X129199380Y-172380354D01*
X129484822Y-172403451D01*
X129689947Y-172494614D01*
X129842847Y-172627841D01*
X130043781Y-172931607D01*
X130085793Y-173270075D01*
X129971786Y-173628091D01*
X129704665Y-173990502D01*
X129553989Y-174134714D01*
X129262994Y-174390212D01*
X129641190Y-174866949D01*
X129870431Y-175144089D01*
X130024392Y-175293349D01*
X130123521Y-175326527D01*
X130188267Y-175255422D01*
X130210694Y-175195521D01*
X130319190Y-175005321D01*
X130516581Y-174771505D01*
X130753925Y-174548813D01*
X130864749Y-174463988D01*
X130990832Y-174356530D01*
X130984203Y-174263096D01*
X130920217Y-174181971D01*
X130645746Y-173780858D01*
X130528827Y-173391027D01*
X130531253Y-173369780D01*
X130956353Y-173369780D01*
X131043174Y-173687874D01*
X131103185Y-173798521D01*
X131245743Y-173999619D01*
X131368762Y-174059090D01*
X131526009Y-173987951D01*
X131633789Y-173907224D01*
X131866645Y-173654269D01*
X131986038Y-173375509D01*
X131991631Y-173107993D01*
X131883091Y-172888768D01*
X131660081Y-172754883D01*
X131644247Y-172750671D01*
X131349703Y-172744118D01*
X131125971Y-172866231D01*
X130989404Y-173085342D01*
X130956353Y-173369780D01*
X130531253Y-173369780D01*
X130570516Y-173025927D01*
X130771867Y-172699005D01*
G37*
G36*
X107742538Y-62567687D02*
G01*
X108224001Y-62609809D01*
X108569368Y-62744016D01*
X108791614Y-62982071D01*
X108903716Y-63335737D01*
X108923667Y-63638471D01*
X108901858Y-63909132D01*
X108811943Y-64111109D01*
X108635801Y-64311821D01*
X108466169Y-64468242D01*
X108313501Y-64554625D01*
X108117213Y-64591567D01*
X107816720Y-64599668D01*
X107789134Y-64599687D01*
X107230334Y-64599687D01*
X107230334Y-64261021D01*
X107569001Y-64261021D01*
X107901522Y-64261021D01*
X108167175Y-64227742D01*
X108352280Y-64104589D01*
X108409522Y-64037936D01*
X108557137Y-63735551D01*
X108555241Y-63430306D01*
X108419364Y-63157221D01*
X108165036Y-62951320D01*
X107886501Y-62858466D01*
X107569001Y-62802842D01*
X107569001Y-64261021D01*
X107230334Y-64261021D01*
X107230334Y-62567687D01*
X107742538Y-62567687D01*
G37*
G36*
X127105643Y-62996000D02*
G01*
X127208034Y-62751636D01*
X127291499Y-62610689D01*
X127374442Y-62544919D01*
X127475268Y-62526084D01*
X127517704Y-62525354D01*
X127626641Y-62533912D01*
X127711964Y-62578034D01*
X127791073Y-62685394D01*
X127881367Y-62883666D01*
X128000247Y-63200522D01*
X128076656Y-63414354D01*
X128230120Y-63852209D01*
X128328185Y-64155725D01*
X128374327Y-64349333D01*
X128372017Y-64457464D01*
X128324730Y-64504548D01*
X128235939Y-64515017D01*
X128233147Y-64515021D01*
X128077885Y-64435643D01*
X127962139Y-64218687D01*
X127878588Y-64030312D01*
X127768997Y-63945176D01*
X127569992Y-63922856D01*
X127497558Y-63922354D01*
X127266713Y-63934618D01*
X127142990Y-63998248D01*
X127064544Y-64153506D01*
X127042334Y-64218687D01*
X126944535Y-64515021D01*
X125349001Y-64515021D01*
X125349001Y-63499021D01*
X125350662Y-63070138D01*
X125358764Y-62782519D01*
X125377983Y-62608102D01*
X125412997Y-62518827D01*
X125468482Y-62486631D01*
X125518334Y-62483021D01*
X125595404Y-62494641D01*
X125644741Y-62549934D01*
X125672475Y-62679550D01*
X125684736Y-62914136D01*
X125687653Y-63284343D01*
X125687667Y-63329687D01*
X125687667Y-64176354D01*
X126111001Y-64176354D01*
X126367385Y-64180284D01*
X126549314Y-64190301D01*
X126595786Y-64197521D01*
X126647880Y-64132041D01*
X126741145Y-63938396D01*
X126861308Y-63648420D01*
X126906239Y-63529706D01*
X127315828Y-63529706D01*
X127406156Y-63577938D01*
X127517059Y-63583687D01*
X127673096Y-63558717D01*
X127692998Y-63469034D01*
X127686031Y-63448822D01*
X127624966Y-63261451D01*
X127580535Y-63099826D01*
X127526792Y-62885696D01*
X127411563Y-63159746D01*
X127320591Y-63402205D01*
X127315828Y-63529706D01*
X126906239Y-63529706D01*
X126965920Y-63372021D01*
X127105643Y-62996000D01*
G37*
G36*
X112180699Y-62584647D02*
G01*
X112225667Y-62614009D01*
X112187617Y-62704605D01*
X112086323Y-62905290D01*
X111941069Y-63178289D01*
X111887001Y-63277398D01*
X111680555Y-63694616D01*
X111572711Y-64023693D01*
X111548334Y-64247077D01*
X111535299Y-64474171D01*
X111482109Y-64577004D01*
X111379001Y-64599687D01*
X111269943Y-64572545D01*
X111220560Y-64461784D01*
X111209667Y-64247077D01*
X111170228Y-63960271D01*
X111042890Y-63615971D01*
X110871001Y-63277398D01*
X110715508Y-62988879D01*
X110597639Y-62760261D01*
X110536677Y-62629317D01*
X110532334Y-62614009D01*
X110605126Y-62579473D01*
X110749397Y-62567687D01*
X110891892Y-62595704D01*
X111005550Y-62704576D01*
X111125907Y-62931535D01*
X111151563Y-62989025D01*
X111262171Y-63222382D01*
X111350595Y-63376259D01*
X111385694Y-63412358D01*
X111445385Y-63343479D01*
X111547694Y-63163790D01*
X111633001Y-62991021D01*
X111772020Y-62731640D01*
X111895860Y-62601692D01*
X112028473Y-62567687D01*
X112180699Y-62584647D01*
G37*
G36*
X128744534Y-98472336D02*
G01*
X128953102Y-98494039D01*
X129052771Y-98537102D01*
X129074334Y-98593354D01*
X129035320Y-98667097D01*
X128897020Y-98706689D01*
X128627542Y-98720103D01*
X128566334Y-98720354D01*
X128058334Y-98720354D01*
X128058334Y-98974354D01*
X128066153Y-99119561D01*
X128117398Y-99195141D01*
X128253747Y-99223827D01*
X128516879Y-99228354D01*
X128524001Y-99228354D01*
X128793108Y-99235704D01*
X128933299Y-99267482D01*
X128984701Y-99338280D01*
X128989667Y-99397687D01*
X128969455Y-99495545D01*
X128882066Y-99546523D01*
X128687369Y-99565214D01*
X128524001Y-99567021D01*
X128058334Y-99567021D01*
X128058334Y-100151237D01*
X128544344Y-100176629D01*
X128834271Y-100203068D01*
X128992287Y-100252259D01*
X129055506Y-100336727D01*
X129058552Y-100350187D01*
X129054593Y-100423933D01*
X128987043Y-100468377D01*
X128824230Y-100490680D01*
X128534478Y-100498004D01*
X128403209Y-100498354D01*
X127719667Y-100498354D01*
X127719667Y-98466354D01*
X128397001Y-98466354D01*
X128744534Y-98472336D01*
G37*
G36*
X134500384Y-152927067D02*
G01*
X134544486Y-153003141D01*
X134567916Y-153169246D01*
X134576783Y-153456693D01*
X134577667Y-153669021D01*
X134572718Y-154040770D01*
X134554655Y-154272328D01*
X134518656Y-154392632D01*
X134459896Y-154430619D01*
X134450667Y-154431021D01*
X134379747Y-154394554D01*
X134340162Y-154264132D01*
X134324710Y-154008216D01*
X134323667Y-153874982D01*
X134319714Y-153578656D01*
X134300274Y-153417879D01*
X134253973Y-153358917D01*
X134169440Y-153368034D01*
X134154334Y-153372687D01*
X134018831Y-153379301D01*
X133985001Y-153281893D01*
X134058374Y-153104449D01*
X134235394Y-152962453D01*
X134429501Y-152909713D01*
X134500384Y-152927067D01*
G37*
G36*
X131956849Y-62483021D02*
G01*
X132286395Y-62490624D01*
X132499088Y-62522417D01*
X132647071Y-62591872D01*
X132761182Y-62690839D01*
X132903141Y-62869808D01*
X132968512Y-63025220D01*
X132969001Y-63035071D01*
X132910815Y-63267058D01*
X132770346Y-63508021D01*
X132648478Y-63632460D01*
X132586612Y-63708513D01*
X132603839Y-63821581D01*
X132710044Y-64016115D01*
X132746975Y-64075277D01*
X132894746Y-64316074D01*
X132952092Y-64447600D01*
X132920394Y-64502870D01*
X132801033Y-64514899D01*
X132765379Y-64515021D01*
X132605629Y-64468171D01*
X132450056Y-64307895D01*
X132338477Y-64134021D01*
X132149537Y-63871197D01*
X131981737Y-63756891D01*
X131949431Y-63753021D01*
X131845631Y-63779122D01*
X131796578Y-63885890D01*
X131783695Y-64116017D01*
X131783667Y-64134021D01*
X131774894Y-64369128D01*
X131731771Y-64480519D01*
X131629092Y-64513565D01*
X131572001Y-64515021D01*
X131360334Y-64515021D01*
X131360334Y-63075687D01*
X131783667Y-63075687D01*
X131793905Y-63292943D01*
X131848179Y-63389527D01*
X131981825Y-63413877D01*
X132030742Y-63414354D01*
X132259711Y-63397142D01*
X132411742Y-63362962D01*
X132531676Y-63245153D01*
X132541892Y-63070500D01*
X132452078Y-62902231D01*
X132328489Y-62819592D01*
X132044121Y-62735105D01*
X131875594Y-62756193D01*
X131797729Y-62894692D01*
X131783667Y-63075687D01*
X131360334Y-63075687D01*
X131360334Y-62483021D01*
X131956849Y-62483021D01*
G37*
%TD*%
M02*
