%TF.GenerationSoftware,KiCad,Pcbnew,(6.0.2-0)*%
%TF.CreationDate,2022-03-24T14:58:07-04:00*%
%TF.ProjectId,dotspanel,646f7473-7061-46e6-956c-2e6b69636164,rev?*%
%TF.SameCoordinates,Original*%
%TF.FileFunction,Legend,Bot*%
%TF.FilePolarity,Positive*%
%FSLAX46Y46*%
G04 Gerber Fmt 4.6, Leading zero omitted, Abs format (unit mm)*
G04 Created by KiCad (PCBNEW (6.0.2-0)) date 2022-03-24 14:58:07*
%MOMM*%
%LPD*%
G01*
G04 APERTURE LIST*
G04 APERTURE END LIST*
%TO.C,G\u002A\u002A\u002A*%
G36*
X157012143Y-161420378D02*
G01*
X156890726Y-161818483D01*
X156590382Y-162542465D01*
X156184853Y-163309856D01*
X155693691Y-164085088D01*
X155136447Y-164832594D01*
X155132666Y-164837272D01*
X154950167Y-165071146D01*
X154820195Y-165252889D01*
X154770666Y-165343506D01*
X154773437Y-165353594D01*
X154862000Y-165441618D01*
X155036405Y-165559132D01*
X155209172Y-165670655D01*
X155556904Y-165925147D01*
X155967207Y-166250566D01*
X156404990Y-166617255D01*
X156835165Y-166995562D01*
X157222641Y-167355833D01*
X157532328Y-167668412D01*
X157655267Y-167804138D01*
X157946694Y-168149260D01*
X158208653Y-168488557D01*
X158396160Y-168764923D01*
X158743872Y-169455809D01*
X159024457Y-170340729D01*
X159151231Y-171258974D01*
X159139810Y-171639226D01*
X159123323Y-172188177D01*
X158939860Y-173105974D01*
X158599970Y-173990000D01*
X158280907Y-174526649D01*
X157810353Y-175117024D01*
X157251196Y-175673168D01*
X156643041Y-176156059D01*
X156025491Y-176526674D01*
X155911222Y-176581571D01*
X155481707Y-176766812D01*
X155041807Y-176930570D01*
X154670824Y-177042639D01*
X154365774Y-177102966D01*
X153801022Y-177168024D01*
X153172480Y-177198572D01*
X152537406Y-177193995D01*
X151953061Y-177153677D01*
X151476703Y-177077001D01*
X151258293Y-177020416D01*
X150382925Y-176694801D01*
X149523914Y-176223041D01*
X148709856Y-175622791D01*
X147969345Y-174911703D01*
X147431393Y-174322283D01*
X147217783Y-174642975D01*
X147161422Y-174723778D01*
X146868961Y-175081691D01*
X146501310Y-175466849D01*
X146111122Y-175826644D01*
X145751050Y-176108466D01*
X145291710Y-176389225D01*
X144700954Y-176682226D01*
X144097303Y-176922440D01*
X143549904Y-177079364D01*
X143259857Y-177128858D01*
X142705995Y-177182108D01*
X142093613Y-177202948D01*
X141478918Y-177191507D01*
X140918115Y-177147915D01*
X140467409Y-177072299D01*
X139822550Y-176868837D01*
X139009957Y-176493520D01*
X138217957Y-176005622D01*
X137488232Y-175431447D01*
X136862464Y-174797300D01*
X136444906Y-174308544D01*
X136230953Y-174591435D01*
X136218426Y-174607960D01*
X135862419Y-175051412D01*
X135474091Y-175493131D01*
X135085998Y-175899011D01*
X134730697Y-176234944D01*
X134440747Y-176466824D01*
X134199014Y-176618707D01*
X133630473Y-176866811D01*
X133021418Y-176975356D01*
X132333258Y-176953248D01*
X132237292Y-176942325D01*
X131840120Y-176891174D01*
X131577091Y-176824977D01*
X131421702Y-176712878D01*
X131347451Y-176524021D01*
X131327834Y-176227550D01*
X131336348Y-175792610D01*
X131360333Y-174894862D01*
X132052015Y-174913297D01*
X132207855Y-174915676D01*
X132572116Y-174898846D01*
X132890631Y-174836663D01*
X133187949Y-174714104D01*
X133488622Y-174516143D01*
X133817200Y-174227758D01*
X134198236Y-173833923D01*
X134656280Y-173319616D01*
X135129980Y-172775696D01*
X137767842Y-172775696D01*
X137797917Y-172879885D01*
X137915067Y-173073086D01*
X138093406Y-173305384D01*
X138435716Y-173670300D01*
X139000712Y-174151861D01*
X139618860Y-174564644D01*
X140247256Y-174881061D01*
X140843000Y-175073523D01*
X141482688Y-175177130D01*
X142245215Y-175191353D01*
X142955425Y-175066578D01*
X143642282Y-174799973D01*
X143818608Y-174707266D01*
X144460588Y-174258089D01*
X144983086Y-173704114D01*
X145378460Y-173064568D01*
X145471033Y-172813825D01*
X148665847Y-172813825D01*
X149099783Y-173314724D01*
X149191525Y-173418163D01*
X149802805Y-174004388D01*
X150471629Y-174489947D01*
X151164936Y-174853685D01*
X151849666Y-175074445D01*
X152669379Y-175188953D01*
X153477929Y-175163057D01*
X154225762Y-174982180D01*
X154921062Y-174644283D01*
X155572016Y-174147329D01*
X155942660Y-173747772D01*
X156340197Y-173115322D01*
X156606669Y-172403883D01*
X156733182Y-171639226D01*
X156710845Y-170847119D01*
X156611498Y-170310178D01*
X156403562Y-169707402D01*
X156081260Y-169115435D01*
X155625328Y-168492485D01*
X155606004Y-168469134D01*
X155409995Y-168258783D01*
X155143798Y-168003134D01*
X154835007Y-167725290D01*
X154511214Y-167448354D01*
X154200013Y-167195428D01*
X153928997Y-166989614D01*
X153725759Y-166854016D01*
X153617892Y-166811735D01*
X153566155Y-166858544D01*
X153415156Y-167025102D01*
X153178122Y-167299475D01*
X152866165Y-167668412D01*
X152490398Y-168118660D01*
X152061934Y-168636967D01*
X151591885Y-169210079D01*
X151091365Y-169824746D01*
X149646209Y-171605679D01*
X148665847Y-172813825D01*
X145471033Y-172813825D01*
X145639070Y-172358681D01*
X145757273Y-171605679D01*
X145725427Y-170824791D01*
X145535892Y-170035246D01*
X145451264Y-169805818D01*
X145250027Y-169375965D01*
X144984971Y-168958694D01*
X144621350Y-168495509D01*
X144458177Y-168315554D01*
X144193913Y-168052726D01*
X143884975Y-167765749D01*
X143559043Y-167478323D01*
X143243795Y-167214148D01*
X142966912Y-166996924D01*
X142756071Y-166850349D01*
X142638953Y-166798125D01*
X142633441Y-166800511D01*
X142544508Y-166887552D01*
X142365611Y-167087973D01*
X142109880Y-167385663D01*
X141790446Y-167764509D01*
X141420439Y-168208397D01*
X141012990Y-168701215D01*
X140581228Y-169226850D01*
X140138285Y-169769189D01*
X139697291Y-170312119D01*
X139271375Y-170839527D01*
X138873669Y-171335300D01*
X138517303Y-171783326D01*
X138215407Y-172167492D01*
X137981111Y-172471684D01*
X137827546Y-172679789D01*
X137767842Y-172775696D01*
X135129980Y-172775696D01*
X135387059Y-172480509D01*
X134928410Y-171309087D01*
X134866531Y-171151715D01*
X134484922Y-170216302D01*
X134135180Y-169428945D01*
X133808493Y-168775787D01*
X133496052Y-168242974D01*
X133189046Y-167816649D01*
X132878665Y-167482958D01*
X132556098Y-167228045D01*
X132212535Y-167038054D01*
X132135586Y-167005394D01*
X131860705Y-166916468D01*
X131635500Y-166879859D01*
X131402666Y-166878000D01*
X131402666Y-164822615D01*
X131960253Y-164879742D01*
X132547514Y-164980853D01*
X133205815Y-165222591D01*
X133815376Y-165607776D01*
X134008837Y-165766165D01*
X134317684Y-166066243D01*
X134609553Y-166420024D01*
X134895156Y-166845655D01*
X135185204Y-167361286D01*
X135490409Y-167985066D01*
X135821484Y-168735143D01*
X136189139Y-169629666D01*
X136211714Y-169685923D01*
X136367513Y-170067401D01*
X136502918Y-170387852D01*
X136604076Y-170615087D01*
X136657130Y-170716920D01*
X136663541Y-170715420D01*
X136750507Y-170631864D01*
X136926271Y-170437964D01*
X137176880Y-170150564D01*
X137488384Y-169786512D01*
X137846831Y-169362654D01*
X138238271Y-168895834D01*
X138648751Y-168402899D01*
X139064320Y-167900696D01*
X139471026Y-167406068D01*
X139854919Y-166935864D01*
X140202048Y-166506928D01*
X140498460Y-166136106D01*
X140730204Y-165840245D01*
X140883329Y-165636190D01*
X140943884Y-165540786D01*
X140908856Y-165490355D01*
X140763653Y-165354623D01*
X140531032Y-165160239D01*
X140238132Y-164930666D01*
X139429058Y-164272245D01*
X138638872Y-163514837D01*
X138006979Y-162761091D01*
X137527856Y-162004300D01*
X137195975Y-161237758D01*
X137097465Y-160928007D01*
X137033729Y-160662025D01*
X137002488Y-160396050D01*
X136997541Y-160091791D01*
X139012865Y-160091791D01*
X139039282Y-160512404D01*
X139171550Y-161080769D01*
X139426539Y-161625198D01*
X139817063Y-162170989D01*
X140355937Y-162743443D01*
X140420307Y-162804696D01*
X140769945Y-163120605D01*
X141142025Y-163435320D01*
X141466147Y-163688888D01*
X141530292Y-163735625D01*
X141782711Y-163912832D01*
X141974631Y-164037124D01*
X142068687Y-164084000D01*
X142117124Y-164061584D01*
X142259627Y-163923970D01*
X142457616Y-163685371D01*
X142690961Y-163374064D01*
X142939535Y-163018328D01*
X143183209Y-162646442D01*
X143401854Y-162286684D01*
X143575340Y-161967333D01*
X143686120Y-161743623D01*
X143826395Y-161442607D01*
X143911973Y-161205106D01*
X143956368Y-160975384D01*
X143973094Y-160697705D01*
X143975666Y-160316333D01*
X143975199Y-160174976D01*
X143964788Y-159796543D01*
X143935106Y-159525924D01*
X143878780Y-159315990D01*
X143788437Y-159119616D01*
X143637441Y-158871952D01*
X143203199Y-158390424D01*
X142631854Y-158005774D01*
X142516229Y-157946919D01*
X142301253Y-157857773D01*
X142078249Y-157806371D01*
X141793510Y-157782800D01*
X141393333Y-157777147D01*
X141181616Y-157778269D01*
X140844289Y-157791335D01*
X140596270Y-157827122D01*
X140383786Y-157895579D01*
X140153066Y-158006658D01*
X139942316Y-158128854D01*
X139520085Y-158479177D01*
X139230538Y-158911944D01*
X139064516Y-159443900D01*
X139012865Y-160091791D01*
X136997541Y-160091791D01*
X136997248Y-160073801D01*
X137011515Y-159639000D01*
X137015226Y-159561399D01*
X137109192Y-158759836D01*
X137307126Y-158076432D01*
X137620767Y-157488661D01*
X138061852Y-156973999D01*
X138642121Y-156509918D01*
X138803453Y-156402965D01*
X139199692Y-156176110D01*
X139594989Y-156014692D01*
X140031648Y-155907071D01*
X140551975Y-155841609D01*
X141198274Y-155806665D01*
X141323316Y-155802753D01*
X141778469Y-155793823D01*
X142122930Y-155801221D01*
X142404095Y-155829149D01*
X142669361Y-155881810D01*
X142966123Y-155963406D01*
X143317558Y-156083743D01*
X144071448Y-156461713D01*
X144734789Y-156966233D01*
X145290266Y-157579664D01*
X145720566Y-158284366D01*
X146008372Y-159062699D01*
X146056750Y-159290836D01*
X146116696Y-159832083D01*
X146125877Y-160316333D01*
X146128011Y-160428876D01*
X146090790Y-161010201D01*
X146005128Y-161505044D01*
X145986921Y-161573071D01*
X145762801Y-162198542D01*
X145421806Y-162902004D01*
X144978061Y-163659125D01*
X144445690Y-164445572D01*
X143838817Y-165237014D01*
X143838034Y-165284782D01*
X143947648Y-165424566D01*
X144196719Y-165644617D01*
X144588388Y-165947913D01*
X144794174Y-166104903D01*
X145368610Y-166578486D01*
X145927334Y-167086824D01*
X146445333Y-167604147D01*
X146897590Y-168104685D01*
X147259093Y-168562671D01*
X147504824Y-168952333D01*
X147514084Y-168970298D01*
X147679847Y-169313224D01*
X147824556Y-169648101D01*
X147917818Y-169904833D01*
X147950261Y-170006714D01*
X148025140Y-170191454D01*
X148081126Y-170264666D01*
X148117661Y-170231062D01*
X148248286Y-170084028D01*
X148458860Y-169836406D01*
X148734935Y-169505973D01*
X149062060Y-169110504D01*
X149425786Y-168667778D01*
X149811664Y-168195571D01*
X150205245Y-167711660D01*
X150592079Y-167233822D01*
X150957716Y-166779833D01*
X151287708Y-166367470D01*
X151567605Y-166014510D01*
X151782958Y-165738730D01*
X151919316Y-165557907D01*
X151962231Y-165489818D01*
X151766010Y-165351209D01*
X151367607Y-165045542D01*
X150917896Y-164678450D01*
X150459853Y-164286225D01*
X150036451Y-163905158D01*
X149690666Y-163571541D01*
X149670315Y-163550777D01*
X149039288Y-162836393D01*
X148564230Y-162136822D01*
X148235773Y-161432098D01*
X148044550Y-160702250D01*
X148003233Y-160196884D01*
X149973975Y-160196884D01*
X150085942Y-160836550D01*
X150347348Y-161500936D01*
X150347613Y-161501460D01*
X150573477Y-161856813D01*
X150913433Y-162273063D01*
X151338846Y-162720115D01*
X151821081Y-163167874D01*
X152331501Y-163586244D01*
X152503569Y-163715853D01*
X152765851Y-163905277D01*
X152960736Y-164035544D01*
X153055289Y-164084000D01*
X153118877Y-164042788D01*
X153266811Y-163887404D01*
X153468996Y-163643951D01*
X153702888Y-163341740D01*
X153945941Y-163010081D01*
X154175610Y-162678282D01*
X154369350Y-162375653D01*
X154698153Y-161739325D01*
X154932695Y-161029743D01*
X155019363Y-160347381D01*
X154958077Y-159705917D01*
X154748756Y-159119027D01*
X154391321Y-158600390D01*
X154329425Y-158533825D01*
X153833231Y-158134293D01*
X153246280Y-157875154D01*
X152562986Y-157753822D01*
X151910697Y-157773816D01*
X151324666Y-157929232D01*
X150831321Y-158205348D01*
X150440120Y-158586169D01*
X150160523Y-159055696D01*
X150001989Y-159597934D01*
X149973975Y-160196884D01*
X148003233Y-160196884D01*
X147981194Y-159927311D01*
X147981554Y-159843306D01*
X147997984Y-159429616D01*
X148033949Y-159034071D01*
X148083016Y-158732199D01*
X148169826Y-158422788D01*
X148483675Y-157730172D01*
X148935124Y-157118549D01*
X149509840Y-156601923D01*
X150193494Y-156194294D01*
X150971755Y-155909666D01*
X151302502Y-155847969D01*
X151789214Y-155804388D01*
X152337666Y-155789534D01*
X152891770Y-155803282D01*
X153395434Y-155845503D01*
X153792572Y-155916070D01*
X154463472Y-156155650D01*
X155147196Y-156533212D01*
X155767186Y-157011049D01*
X156288596Y-157562059D01*
X156676584Y-158159143D01*
X156816804Y-158476419D01*
X157021479Y-159181057D01*
X157126100Y-159943907D01*
X157125471Y-160347381D01*
X157124907Y-160709002D01*
X157012143Y-161420378D01*
G37*
G36*
X147731345Y-81907304D02*
G01*
X147802950Y-82135707D01*
X147829038Y-82239555D01*
X147797200Y-82304722D01*
X147714798Y-82265789D01*
X147617678Y-82143648D01*
X147541852Y-81971866D01*
X147497700Y-81839159D01*
X147423294Y-81746506D01*
X147280208Y-81709828D01*
X147018146Y-81703333D01*
X146800047Y-81706763D01*
X146638155Y-81733890D01*
X146559466Y-81809012D01*
X146515880Y-81956362D01*
X146447478Y-82156148D01*
X146346206Y-82279049D01*
X146244799Y-82265021D01*
X146250871Y-82177635D01*
X146304965Y-81962305D01*
X146398564Y-81652969D01*
X146487860Y-81385833D01*
X146727402Y-81385833D01*
X146729929Y-81394128D01*
X146827751Y-81433372D01*
X147023666Y-81449333D01*
X147124260Y-81448470D01*
X147256942Y-81428298D01*
X147303850Y-81354086D01*
X147275146Y-81190495D01*
X147180989Y-80902189D01*
X147041977Y-80494213D01*
X146884724Y-80908273D01*
X146826844Y-81065145D01*
X146755354Y-81276330D01*
X146727402Y-81385833D01*
X146487860Y-81385833D01*
X146522275Y-81282876D01*
X146642561Y-80945515D01*
X146760622Y-80646463D01*
X146853965Y-80464162D01*
X146936074Y-80373326D01*
X147020432Y-80348666D01*
X147082483Y-80360929D01*
X147164783Y-80431588D01*
X147254550Y-80587764D01*
X147365570Y-80854998D01*
X147511627Y-81258833D01*
X147544460Y-81354086D01*
X147625540Y-81589306D01*
X147731345Y-81907304D01*
G37*
G36*
X138014551Y-50451916D02*
G01*
X137852119Y-50657671D01*
X137719067Y-50852781D01*
X137668000Y-50965893D01*
X137686909Y-51031308D01*
X137805436Y-51217903D01*
X138008414Y-51465883D01*
X138267462Y-51743821D01*
X138554195Y-52020289D01*
X138840231Y-52263858D01*
X139107594Y-52464385D01*
X139792373Y-52884518D01*
X140481263Y-53159808D01*
X141212179Y-53302913D01*
X142023038Y-53326493D01*
X142335681Y-53312405D01*
X142667630Y-53282966D01*
X142929274Y-53230617D01*
X143178344Y-53142600D01*
X143472568Y-53006156D01*
X143578276Y-52952054D01*
X144162765Y-52569052D01*
X144681754Y-52089830D01*
X145109910Y-51545682D01*
X145421895Y-50967901D01*
X145592376Y-50387781D01*
X145648309Y-50038000D01*
X147457821Y-50038000D01*
X147661511Y-50038328D01*
X148174224Y-50042253D01*
X148615682Y-50050058D01*
X148961365Y-50061044D01*
X149186755Y-50074508D01*
X149267333Y-50089749D01*
X149225202Y-50164717D01*
X149099910Y-50333958D01*
X148920540Y-50555706D01*
X148573747Y-50969912D01*
X149003571Y-51466064D01*
X149025747Y-51491518D01*
X149655203Y-52113289D01*
X150350983Y-52628020D01*
X151081680Y-53015719D01*
X151815888Y-53256392D01*
X152164759Y-53306066D01*
X152611566Y-53330147D01*
X153085888Y-53324810D01*
X153177644Y-53320363D01*
X153570283Y-53290515D01*
X153872957Y-53238000D01*
X154152147Y-53147428D01*
X154474333Y-53003412D01*
X154542274Y-52969784D01*
X155130232Y-52595242D01*
X155655418Y-52115184D01*
X156091649Y-51562192D01*
X156412741Y-50968847D01*
X156592510Y-50367729D01*
X156648217Y-50038000D01*
X159099042Y-50038000D01*
X159041161Y-50440166D01*
X158986498Y-50722916D01*
X158895962Y-51090860D01*
X158790060Y-51459018D01*
X158666271Y-51802154D01*
X158269458Y-52566113D01*
X157734170Y-53274740D01*
X157080061Y-53910462D01*
X156326784Y-54455706D01*
X155493990Y-54892901D01*
X154601333Y-55204472D01*
X154430828Y-55243893D01*
X153896414Y-55319481D01*
X153277979Y-55355042D01*
X152625494Y-55351733D01*
X151988931Y-55310712D01*
X151418262Y-55233138D01*
X150963457Y-55120168D01*
X150404714Y-54905239D01*
X149493763Y-54432674D01*
X148661683Y-53827934D01*
X147882004Y-53073439D01*
X147341377Y-52481089D01*
X147157845Y-52778051D01*
X147069793Y-52898594D01*
X146863053Y-53137791D01*
X146591289Y-53424012D01*
X146290096Y-53718674D01*
X145655398Y-54246344D01*
X144835515Y-54745146D01*
X143946977Y-55096210D01*
X142978632Y-55303755D01*
X141919330Y-55372000D01*
X141293590Y-55349018D01*
X140353483Y-55211053D01*
X139481278Y-54940616D01*
X138656322Y-54528650D01*
X137857962Y-53966102D01*
X137065545Y-53243915D01*
X136336090Y-52506496D01*
X135728820Y-53256730D01*
X135240499Y-53825680D01*
X134727441Y-54330589D01*
X134236372Y-54700645D01*
X133747076Y-54948299D01*
X133239335Y-55086000D01*
X132692931Y-55126196D01*
X132686756Y-55126144D01*
X132306206Y-55108069D01*
X131936434Y-55066400D01*
X131656666Y-55010020D01*
X131275666Y-54898886D01*
X131275666Y-53058738D01*
X131940334Y-53078145D01*
X132301745Y-53074529D01*
X132696678Y-53017825D01*
X133052205Y-52886873D01*
X133400803Y-52664454D01*
X133774948Y-52333352D01*
X134207116Y-51876346D01*
X134485584Y-51566292D01*
X134755255Y-51266202D01*
X134972909Y-51024174D01*
X135108001Y-50874187D01*
X135149179Y-50828038D01*
X135249213Y-50686787D01*
X135255918Y-50552538D01*
X135180255Y-50345020D01*
X135051974Y-50038000D01*
X138361101Y-50038000D01*
X138014551Y-50451916D01*
G37*
G36*
X147062512Y-104469322D02*
G01*
X147299968Y-104607420D01*
X147443619Y-104880833D01*
X147462120Y-105013625D01*
X147388116Y-105071333D01*
X147297104Y-105027406D01*
X147191910Y-104880833D01*
X147083855Y-104744700D01*
X146836072Y-104664018D01*
X146703067Y-104657911D01*
X146574148Y-104705056D01*
X146509117Y-104855618D01*
X146492331Y-104956579D01*
X146530610Y-105141907D01*
X146687010Y-105314995D01*
X146983617Y-105506123D01*
X147174603Y-105637275D01*
X147408163Y-105924800D01*
X147489333Y-106260650D01*
X147488543Y-106286527D01*
X147461528Y-106361199D01*
X147370124Y-106403267D01*
X147179377Y-106421833D01*
X146854333Y-106426000D01*
X146824555Y-106425920D01*
X146511411Y-106413729D01*
X146298125Y-106383994D01*
X146219333Y-106341333D01*
X146273293Y-106303097D01*
X146456743Y-106269519D01*
X146727333Y-106256666D01*
X146960833Y-106253327D01*
X147139274Y-106232262D01*
X147217804Y-106180043D01*
X147235333Y-106083395D01*
X147170572Y-105926468D01*
X146963718Y-105765895D01*
X146741489Y-105629063D01*
X146475851Y-105409730D01*
X146289575Y-105188360D01*
X146219333Y-105002559D01*
X146222995Y-104943775D01*
X146329311Y-104692139D01*
X146550859Y-104513028D01*
X146844634Y-104444800D01*
X147062512Y-104469322D01*
G37*
G36*
X139899416Y-105859659D02*
G01*
X139749235Y-105906968D01*
X139488333Y-105918000D01*
X139481212Y-105918000D01*
X139218079Y-105922526D01*
X139081730Y-105951212D01*
X139030486Y-106026792D01*
X139022666Y-106172000D01*
X138996493Y-106350271D01*
X138895666Y-106426000D01*
X138806531Y-106373652D01*
X138768666Y-106172000D01*
X138768660Y-106168839D01*
X138743447Y-105991572D01*
X138684000Y-105918000D01*
X138645051Y-105903671D01*
X138599333Y-105791000D01*
X138608885Y-105732576D01*
X138684000Y-105664000D01*
X139022666Y-105664000D01*
X139709573Y-105664000D01*
X139558764Y-105408700D01*
X139402962Y-105169557D01*
X139218356Y-104921867D01*
X139028756Y-104690333D01*
X139025711Y-105177166D01*
X139022666Y-105664000D01*
X138684000Y-105664000D01*
X138684082Y-105663999D01*
X138727496Y-105585434D01*
X138757479Y-105375357D01*
X138768666Y-105071333D01*
X138768895Y-104959054D01*
X138776139Y-104693839D01*
X138802399Y-104549895D01*
X138859475Y-104490540D01*
X138959166Y-104479092D01*
X138999395Y-104483407D01*
X139141156Y-104559771D01*
X139318512Y-104746990D01*
X139551833Y-105065212D01*
X139701509Y-105286831D01*
X139873965Y-105570914D01*
X139907637Y-105664000D01*
X139940463Y-105754749D01*
X139899416Y-105859659D01*
G37*
G36*
X128559301Y-62186697D02*
G01*
X128538297Y-62696692D01*
X128494068Y-63085602D01*
X128423863Y-63384026D01*
X128107794Y-64171472D01*
X127612523Y-65001266D01*
X126990284Y-65734344D01*
X126253909Y-66360038D01*
X125416233Y-66867682D01*
X124490092Y-67246608D01*
X123488318Y-67486150D01*
X123321105Y-67507075D01*
X122854852Y-67530214D01*
X122310529Y-67523141D01*
X121748727Y-67488912D01*
X121230040Y-67430588D01*
X120815057Y-67351225D01*
X119959226Y-67064794D01*
X119112617Y-66631718D01*
X118307887Y-66053284D01*
X117525667Y-65317520D01*
X116899740Y-64658581D01*
X116729812Y-64904790D01*
X116648639Y-65008408D01*
X116452246Y-65230632D01*
X116191956Y-65506954D01*
X115902058Y-65800280D01*
X115662802Y-66029204D01*
X115293036Y-66340515D01*
X114913348Y-66593391D01*
X114454615Y-66837357D01*
X114269126Y-66925403D01*
X113846887Y-67108482D01*
X113439668Y-67265195D01*
X113114666Y-67368886D01*
X113073576Y-67379188D01*
X112610523Y-67457427D01*
X112043133Y-67503038D01*
X111425531Y-67516141D01*
X110811837Y-67496856D01*
X110256175Y-67445302D01*
X109812666Y-67361599D01*
X109023395Y-67089266D01*
X108104264Y-66614845D01*
X107235776Y-65989886D01*
X106432761Y-65223770D01*
X105899530Y-64643000D01*
X105592264Y-65024000D01*
X105467368Y-65172476D01*
X105218143Y-65453659D01*
X104919159Y-65779520D01*
X104610720Y-66105645D01*
X104371804Y-66345320D01*
X103905060Y-66749953D01*
X103465418Y-67029512D01*
X103020693Y-67202341D01*
X102538705Y-67286786D01*
X102458401Y-67292442D01*
X102102185Y-67290723D01*
X101713775Y-67256914D01*
X101343550Y-67198489D01*
X101041888Y-67122918D01*
X100859166Y-67037674D01*
X100845412Y-67022742D01*
X100793674Y-66863371D01*
X100763273Y-66551639D01*
X100753333Y-66079628D01*
X100753333Y-65208656D01*
X101494166Y-65221931D01*
X101865390Y-65221951D01*
X102151995Y-65199271D01*
X102372840Y-65144807D01*
X102581286Y-65050126D01*
X102582914Y-65049250D01*
X102755454Y-64925609D01*
X103011931Y-64704832D01*
X103323623Y-64415471D01*
X103661807Y-64086074D01*
X103997761Y-63745191D01*
X104302763Y-63421373D01*
X104548091Y-63143169D01*
X104571852Y-63112276D01*
X107204219Y-63112276D01*
X107223364Y-63182523D01*
X107344572Y-63357951D01*
X107552829Y-63596538D01*
X107821657Y-63872504D01*
X108124573Y-64160064D01*
X108435098Y-64433437D01*
X108726750Y-64666839D01*
X108973049Y-64834487D01*
X109182057Y-64948917D01*
X109575653Y-65137565D01*
X109940829Y-65285559D01*
X110212507Y-65365073D01*
X110751649Y-65460686D01*
X111327225Y-65501764D01*
X111874882Y-65485031D01*
X112330268Y-65407212D01*
X112542459Y-65341603D01*
X113284248Y-65010463D01*
X113920921Y-64560381D01*
X114442045Y-64007287D01*
X114837189Y-63367108D01*
X114929938Y-63112108D01*
X118174896Y-63112108D01*
X118214779Y-63212660D01*
X118328862Y-63362067D01*
X118533163Y-63583098D01*
X118843701Y-63898523D01*
X119385917Y-64397771D01*
X120033926Y-64866850D01*
X120693384Y-65198412D01*
X121390218Y-65407823D01*
X122206249Y-65509752D01*
X123015950Y-65460032D01*
X123774308Y-65254346D01*
X124470365Y-64895715D01*
X125093159Y-64387159D01*
X125498316Y-63908142D01*
X125873584Y-63246322D01*
X126106233Y-62530842D01*
X126196138Y-61782755D01*
X126143174Y-61023110D01*
X125947217Y-60272960D01*
X125608141Y-59553355D01*
X125125821Y-58885348D01*
X124935698Y-58678302D01*
X124649203Y-58389068D01*
X124326802Y-58080911D01*
X123994428Y-57776946D01*
X123678017Y-57500289D01*
X123403502Y-57274058D01*
X123196819Y-57121367D01*
X123083902Y-57065333D01*
X123050863Y-57097589D01*
X122920944Y-57246538D01*
X122703453Y-57504550D01*
X122409381Y-57858327D01*
X122049718Y-58294574D01*
X121635454Y-58799994D01*
X121177578Y-59361290D01*
X120687082Y-59965166D01*
X120352083Y-60378389D01*
X119876552Y-60964702D01*
X119438671Y-61504301D01*
X119126123Y-61889205D01*
X119049928Y-61983040D01*
X118721816Y-62386778D01*
X118465824Y-62701371D01*
X118293442Y-62912675D01*
X118216162Y-63006547D01*
X118193192Y-63037641D01*
X118174896Y-63112108D01*
X114929938Y-63112108D01*
X115095918Y-62655771D01*
X115207800Y-61889205D01*
X115162402Y-61083338D01*
X115133872Y-60918893D01*
X114948841Y-60250743D01*
X114650953Y-59617344D01*
X114227451Y-58999350D01*
X113665581Y-58377420D01*
X112952585Y-57732207D01*
X112935777Y-57718156D01*
X112627358Y-57464124D01*
X112367111Y-57256608D01*
X112181985Y-57116660D01*
X112098929Y-57065333D01*
X112087121Y-57073397D01*
X111987269Y-57179755D01*
X111799537Y-57397002D01*
X111536891Y-57709119D01*
X111212294Y-58100090D01*
X110838713Y-58553899D01*
X110429110Y-59054529D01*
X109996452Y-59585962D01*
X109553704Y-60132183D01*
X109113829Y-60677174D01*
X108689793Y-61204919D01*
X108294561Y-61699401D01*
X107941096Y-62144603D01*
X107642365Y-62524508D01*
X107411332Y-62823100D01*
X107260962Y-63024361D01*
X107204219Y-63112276D01*
X104571852Y-63112276D01*
X104705023Y-62939130D01*
X104745698Y-62856794D01*
X104757235Y-62752186D01*
X104731728Y-62599744D01*
X104662349Y-62372271D01*
X104542269Y-62042568D01*
X104364659Y-61583436D01*
X104009288Y-60702620D01*
X103635851Y-59850165D01*
X103284647Y-59139879D01*
X102946876Y-58559732D01*
X102613740Y-58097692D01*
X102276439Y-57741728D01*
X101926175Y-57479808D01*
X101554149Y-57299902D01*
X101151562Y-57189979D01*
X100838000Y-57131154D01*
X100838000Y-56181021D01*
X100840617Y-55843072D01*
X100849178Y-55515835D01*
X100862280Y-55286360D01*
X100878462Y-55190427D01*
X100881859Y-55188177D01*
X100995587Y-55178982D01*
X101226869Y-55188596D01*
X101530235Y-55215283D01*
X101980546Y-55290670D01*
X102601874Y-55507979D01*
X103175880Y-55863225D01*
X103732065Y-56371906D01*
X103893683Y-56551238D01*
X104160265Y-56890087D01*
X104417206Y-57280530D01*
X104676434Y-57744606D01*
X104949879Y-58304351D01*
X105249468Y-58981804D01*
X105587132Y-59799001D01*
X106126150Y-61135669D01*
X106424241Y-60777168D01*
X106505163Y-60678962D01*
X106697581Y-60443667D01*
X106970915Y-60108328D01*
X107310343Y-59691167D01*
X107701039Y-59210407D01*
X108128181Y-58684271D01*
X108576943Y-58130980D01*
X110431552Y-55843293D01*
X110107327Y-55586480D01*
X109532235Y-55121076D01*
X108748265Y-54443609D01*
X108102267Y-53823264D01*
X107585131Y-53250446D01*
X107187752Y-52715562D01*
X106901021Y-52209018D01*
X106788260Y-51951105D01*
X106598033Y-51400635D01*
X106471765Y-50863018D01*
X106426000Y-50401211D01*
X106426000Y-50038000D01*
X108435247Y-50038000D01*
X108477706Y-50631422D01*
X108479805Y-50659111D01*
X108572137Y-51197328D01*
X108767912Y-51716094D01*
X109078220Y-52231010D01*
X109514149Y-52757675D01*
X110086790Y-53311690D01*
X110807230Y-53908655D01*
X111505460Y-54454300D01*
X111738563Y-54180711D01*
X112234774Y-53563024D01*
X112683810Y-52905972D01*
X113050607Y-52239854D01*
X113134058Y-52067194D01*
X113278339Y-51737528D01*
X113365147Y-51458331D01*
X113412546Y-51161605D01*
X113438601Y-50779354D01*
X113474046Y-50038000D01*
X115562327Y-50038000D01*
X115616331Y-50325867D01*
X115639030Y-50595970D01*
X115601056Y-51075169D01*
X115489899Y-51629126D01*
X115316080Y-52217887D01*
X115090123Y-52801497D01*
X114822549Y-53340000D01*
X114479487Y-53904049D01*
X114027154Y-54567936D01*
X113564187Y-55175665D01*
X113373442Y-55418003D01*
X113272501Y-55576535D01*
X113257859Y-55669240D01*
X113315714Y-55726731D01*
X113316434Y-55727137D01*
X113435938Y-55808299D01*
X113657046Y-55970290D01*
X113948450Y-56189809D01*
X114278843Y-56443554D01*
X114860474Y-56910580D01*
X115602365Y-57572915D01*
X116208137Y-58210944D01*
X116692413Y-58842314D01*
X117069817Y-59484672D01*
X117354973Y-60155666D01*
X117417769Y-60320072D01*
X117502548Y-60499110D01*
X117557669Y-60561476D01*
X117613768Y-60502704D01*
X117765418Y-60326105D01*
X117999636Y-60046567D01*
X118304065Y-59679009D01*
X118666353Y-59238354D01*
X119074145Y-58739521D01*
X119515087Y-58197431D01*
X119998888Y-57599112D01*
X120424234Y-57067264D01*
X120756501Y-56643473D01*
X121003921Y-56316528D01*
X121174726Y-56075218D01*
X121277147Y-55908329D01*
X121319416Y-55804652D01*
X121309764Y-55752974D01*
X121295809Y-55740804D01*
X121164594Y-55631050D01*
X120936272Y-55443080D01*
X120638670Y-55199734D01*
X120299615Y-54923855D01*
X120145582Y-54797450D01*
X119335404Y-54075469D01*
X118680441Y-53379226D01*
X118172707Y-52696613D01*
X117804213Y-52015526D01*
X117566971Y-51323856D01*
X117452993Y-50609500D01*
X117409914Y-50038000D01*
X119442394Y-50038000D01*
X119453070Y-50501122D01*
X119510753Y-51013135D01*
X119692326Y-51580307D01*
X120005163Y-52142314D01*
X120457447Y-52710994D01*
X121057359Y-53298186D01*
X121813083Y-53915729D01*
X122500038Y-54438663D01*
X122850831Y-54040141D01*
X122946489Y-53929846D01*
X123564196Y-53115567D01*
X124020748Y-52308779D01*
X124313883Y-51514188D01*
X124441333Y-50736500D01*
X124481235Y-50038000D01*
X126576666Y-50038000D01*
X126576666Y-50706414D01*
X126568851Y-50944720D01*
X126443440Y-51734766D01*
X126169824Y-52571720D01*
X125754218Y-53441900D01*
X125202842Y-54331628D01*
X124521912Y-55227222D01*
X124366138Y-55422088D01*
X124249179Y-55585635D01*
X124216445Y-55657913D01*
X124221291Y-55661636D01*
X124320169Y-55736143D01*
X124523314Y-55888654D01*
X124804458Y-56099462D01*
X125137333Y-56348857D01*
X125216743Y-56408647D01*
X126150735Y-57169577D01*
X126925046Y-57919717D01*
X127547448Y-58668327D01*
X128025712Y-59424668D01*
X128367609Y-60198000D01*
X128443713Y-60434362D01*
X128503211Y-60692991D01*
X128539192Y-60984741D01*
X128556994Y-61354961D01*
X128561291Y-61782755D01*
X128561956Y-61849000D01*
X128559301Y-62186697D01*
G37*
G36*
X115367464Y-174032333D02*
G01*
X115211563Y-174440221D01*
X114869393Y-175155190D01*
X114440154Y-175898442D01*
X113952082Y-176622559D01*
X113433413Y-177280124D01*
X113188191Y-177564582D01*
X113828762Y-178026539D01*
X113984239Y-178139765D01*
X114233485Y-178326729D01*
X114405308Y-178463106D01*
X114469333Y-178525247D01*
X114468379Y-178526300D01*
X114370564Y-178535796D01*
X114127279Y-178544325D01*
X113760092Y-178551549D01*
X113290571Y-178557129D01*
X112740285Y-178560725D01*
X112130801Y-178562000D01*
X109792268Y-178562000D01*
X110114336Y-178168959D01*
X110436403Y-177775918D01*
X110230368Y-177611702D01*
X109852594Y-177307823D01*
X109054275Y-176640434D01*
X108386437Y-176037312D01*
X107838193Y-175483267D01*
X107398652Y-174963109D01*
X107056925Y-174461650D01*
X106802123Y-173963699D01*
X106623357Y-173454066D01*
X106509736Y-172917563D01*
X106463913Y-172470969D01*
X108475741Y-172470969D01*
X108550609Y-173007033D01*
X108738507Y-173569519D01*
X109047150Y-174118183D01*
X109487033Y-174668189D01*
X110068651Y-175234701D01*
X110802501Y-175832886D01*
X111015201Y-175993791D01*
X111269503Y-176183160D01*
X111448295Y-176312530D01*
X111522168Y-176360350D01*
X111542499Y-176345791D01*
X111647330Y-176230017D01*
X111814826Y-176025824D01*
X112019428Y-175765945D01*
X112235577Y-175483115D01*
X112437716Y-175210067D01*
X112600286Y-174979537D01*
X112759031Y-174725210D01*
X112962329Y-174362571D01*
X113142846Y-174005870D01*
X113144076Y-174003259D01*
X113265766Y-173731056D01*
X113343424Y-173503064D01*
X113386860Y-173265915D01*
X113405883Y-172966239D01*
X113410302Y-172550666D01*
X113409312Y-172319698D01*
X113397625Y-171960102D01*
X113367358Y-171702284D01*
X113311750Y-171501284D01*
X113224040Y-171312144D01*
X113060126Y-171060652D01*
X112697774Y-170672253D01*
X112263600Y-170343961D01*
X111816771Y-170125659D01*
X111381935Y-170020975D01*
X110810344Y-169979412D01*
X110251213Y-170029759D01*
X109770333Y-170170573D01*
X109338062Y-170406457D01*
X108921887Y-170777359D01*
X108642704Y-171239283D01*
X108495619Y-171800921D01*
X108475741Y-172470969D01*
X106463913Y-172470969D01*
X106450372Y-172339000D01*
X106439550Y-171992292D01*
X106507271Y-171156664D01*
X106714841Y-170413194D01*
X107063944Y-169757084D01*
X107556259Y-169183538D01*
X107604310Y-169138878D01*
X108248252Y-168661124D01*
X108984499Y-168306578D01*
X109787793Y-168078359D01*
X110632875Y-167979583D01*
X111494489Y-168013369D01*
X112347376Y-168182833D01*
X113166279Y-168491095D01*
X113552795Y-168715644D01*
X114013011Y-169066228D01*
X114451640Y-169477159D01*
X114824001Y-169906075D01*
X115085413Y-170310616D01*
X115222212Y-170606119D01*
X115490432Y-171445750D01*
X115605510Y-172315954D01*
X115594672Y-172550666D01*
X115565251Y-173187794D01*
X115367464Y-174032333D01*
G37*
G36*
X150099531Y-104534779D02*
G01*
X150293006Y-104695734D01*
X150368000Y-104915122D01*
X150367108Y-104946082D01*
X150324356Y-105059760D01*
X150236378Y-105028922D01*
X150129405Y-104859666D01*
X150054801Y-104750347D01*
X149876698Y-104654166D01*
X149675418Y-104658307D01*
X149498164Y-104746481D01*
X149392142Y-104902401D01*
X149404556Y-105109777D01*
X149444217Y-105168510D01*
X149603518Y-105311733D01*
X149829519Y-105463755D01*
X149905895Y-105509831D01*
X150181476Y-105719935D01*
X150326083Y-105939869D01*
X150368000Y-106208767D01*
X150366864Y-106270364D01*
X150343748Y-106358754D01*
X150262068Y-106405134D01*
X150084904Y-106423039D01*
X149775333Y-106426000D01*
X149774758Y-106425999D01*
X149470862Y-106414776D01*
X149260976Y-106384765D01*
X149182666Y-106341333D01*
X149222563Y-106306964D01*
X149389883Y-106270727D01*
X149643336Y-106256666D01*
X149828207Y-106249437D01*
X150050178Y-106216761D01*
X150159630Y-106166664D01*
X150168530Y-106085981D01*
X150072101Y-105924871D01*
X149868545Y-105742805D01*
X149586188Y-105569294D01*
X149582034Y-105567160D01*
X149333152Y-105370226D01*
X149200442Y-105123240D01*
X149186290Y-104867075D01*
X149293083Y-104642603D01*
X149523208Y-104490699D01*
X149546190Y-104483146D01*
X149834839Y-104456002D01*
X150099531Y-104534779D01*
G37*
G36*
X138936220Y-81847076D02*
G01*
X138711999Y-82122815D01*
X138556118Y-82214610D01*
X138214396Y-82294400D01*
X137856492Y-82263558D01*
X137554459Y-82122126D01*
X137365432Y-81908244D01*
X137234558Y-81568098D01*
X137221936Y-81246157D01*
X137444784Y-81246157D01*
X137487448Y-81626000D01*
X137675512Y-81945891D01*
X137766220Y-82023384D01*
X138038013Y-82122142D01*
X138329895Y-82092841D01*
X138578298Y-81936166D01*
X138717508Y-81746959D01*
X138824881Y-81387106D01*
X138769936Y-80987513D01*
X138665543Y-80764174D01*
X138450434Y-80576772D01*
X138133666Y-80518000D01*
X137899002Y-80546766D01*
X137655262Y-80694920D01*
X137498784Y-80983309D01*
X137444784Y-81246157D01*
X137221936Y-81246157D01*
X137219772Y-81190972D01*
X137321503Y-80825113D01*
X137540182Y-80518768D01*
X137763858Y-80379378D01*
X138100736Y-80311398D01*
X138443870Y-80358133D01*
X138727974Y-80519541D01*
X138912404Y-80758810D01*
X139036904Y-81116757D01*
X139042454Y-81387106D01*
X139044682Y-81495618D01*
X138936220Y-81847076D01*
G37*
G36*
X144409667Y-106686830D02*
G01*
X144630181Y-106717570D01*
X144737666Y-106764666D01*
X144722285Y-106801567D01*
X144568864Y-106836853D01*
X144276997Y-106849333D01*
X144043233Y-106840203D01*
X143841200Y-106809661D01*
X143764000Y-106764666D01*
X143803896Y-106730298D01*
X143971217Y-106694061D01*
X144224670Y-106680000D01*
X144409667Y-106686830D01*
G37*
G36*
X153051073Y-81487539D02*
G01*
X153009666Y-81764589D01*
X152930705Y-81947658D01*
X152791119Y-82097105D01*
X152591138Y-82224137D01*
X152236913Y-82305483D01*
X151871391Y-82250402D01*
X151546345Y-82060420D01*
X151410421Y-81907368D01*
X151256390Y-81558333D01*
X151240726Y-81244212D01*
X151492479Y-81244212D01*
X151520443Y-81574198D01*
X151629050Y-81859374D01*
X151813379Y-82045235D01*
X152107777Y-82129370D01*
X152409207Y-82081424D01*
X152647855Y-81903581D01*
X152648237Y-81903094D01*
X152783229Y-81622851D01*
X152828743Y-81284728D01*
X152784621Y-80955838D01*
X152650702Y-80703298D01*
X152476277Y-80582787D01*
X152194570Y-80516198D01*
X151909173Y-80546906D01*
X151689836Y-80676832D01*
X151550080Y-80923923D01*
X151492479Y-81244212D01*
X151240726Y-81244212D01*
X151236756Y-81164591D01*
X151358214Y-80772000D01*
X151390759Y-80714531D01*
X151633708Y-80463230D01*
X151950228Y-80330626D01*
X152297692Y-80319449D01*
X152633474Y-80432428D01*
X152914947Y-80672295D01*
X152945864Y-80713094D01*
X153034804Y-80879793D01*
X153068093Y-81087359D01*
X153061763Y-81284728D01*
X153058111Y-81398605D01*
X153051073Y-81487539D01*
G37*
G36*
X141988873Y-80363893D02*
G01*
X142029815Y-80441911D01*
X142054803Y-80610082D01*
X142067274Y-80894768D01*
X142070666Y-81322333D01*
X142070666Y-82296000D01*
X141520333Y-82296000D01*
X141253740Y-82285868D01*
X141047757Y-82255576D01*
X140970000Y-82211333D01*
X140998568Y-82180835D01*
X141151846Y-82141896D01*
X141393333Y-82126666D01*
X141816666Y-82126666D01*
X141816666Y-81237666D01*
X141817672Y-81003424D01*
X141826579Y-80675964D01*
X141847944Y-80475908D01*
X141885671Y-80375921D01*
X141943666Y-80348666D01*
X141988873Y-80363893D01*
G37*
G36*
X156929448Y-112652378D02*
G01*
X156901452Y-112755303D01*
X156716965Y-113271588D01*
X156448763Y-113861668D01*
X156119602Y-114481980D01*
X155752236Y-115088959D01*
X155369421Y-115639039D01*
X155146157Y-115935623D01*
X154941693Y-116209182D01*
X154795265Y-116407310D01*
X154729002Y-116500251D01*
X154728236Y-116501926D01*
X154781140Y-116581779D01*
X154945613Y-116737533D01*
X155196988Y-116947429D01*
X155510595Y-117189706D01*
X155858785Y-117461609D01*
X156357521Y-117885747D01*
X156856598Y-118344838D01*
X157328776Y-118811679D01*
X157746813Y-119259067D01*
X158083465Y-119659799D01*
X158311493Y-119986670D01*
X158475715Y-120296427D01*
X158662203Y-120699701D01*
X158818380Y-121087336D01*
X158838857Y-121144137D01*
X158930019Y-121421375D01*
X158989255Y-121673720D01*
X159022947Y-121949700D01*
X159037475Y-122297840D01*
X159038567Y-122590950D01*
X159039222Y-122766666D01*
X159034111Y-123171004D01*
X159015738Y-123560157D01*
X158977705Y-123874059D01*
X158913245Y-124164687D01*
X158815589Y-124484018D01*
X158745972Y-124679740D01*
X158347461Y-125500251D01*
X157808347Y-126253329D01*
X157146404Y-126922998D01*
X156379405Y-127493284D01*
X155525123Y-127948211D01*
X154601333Y-128271806D01*
X154430828Y-128311226D01*
X153896414Y-128386814D01*
X153277979Y-128422375D01*
X152625494Y-128419066D01*
X151988931Y-128378045D01*
X151418262Y-128300471D01*
X150963457Y-128187501D01*
X150404714Y-127972573D01*
X149493763Y-127500007D01*
X148661683Y-126895268D01*
X147882004Y-126140773D01*
X147341377Y-125548423D01*
X147157845Y-125845384D01*
X147069793Y-125965927D01*
X146863053Y-126205124D01*
X146591289Y-126491346D01*
X146290096Y-126786008D01*
X145655398Y-127313677D01*
X144835515Y-127812479D01*
X143946977Y-128163544D01*
X142978632Y-128371089D01*
X141919330Y-128439333D01*
X141293590Y-128416351D01*
X140353483Y-128278387D01*
X139481278Y-128007949D01*
X138656322Y-127595984D01*
X137857962Y-127033435D01*
X137065545Y-126311248D01*
X136336090Y-125573829D01*
X135728820Y-126324064D01*
X135240499Y-126893013D01*
X134727441Y-127397922D01*
X134236372Y-127767979D01*
X133747076Y-128015633D01*
X133239335Y-128153333D01*
X132692931Y-128193530D01*
X132686756Y-128193478D01*
X132306206Y-128175402D01*
X131936434Y-128133734D01*
X131656666Y-128077354D01*
X131275666Y-127966220D01*
X131275666Y-126126071D01*
X131940334Y-126145478D01*
X132301745Y-126141863D01*
X132696678Y-126085158D01*
X133052205Y-125954206D01*
X133400803Y-125731788D01*
X133774948Y-125400685D01*
X134207116Y-124943680D01*
X134485721Y-124633462D01*
X134754825Y-124333973D01*
X134971704Y-124092761D01*
X135051498Y-124004136D01*
X137683176Y-124004136D01*
X137690642Y-124067694D01*
X137790943Y-124251973D01*
X137981556Y-124499713D01*
X138236977Y-124781663D01*
X138531703Y-125068572D01*
X138840231Y-125331192D01*
X138994812Y-125448684D01*
X139787775Y-125938359D01*
X140625534Y-126270890D01*
X141053531Y-126357667D01*
X141578941Y-126400663D01*
X142128816Y-126397229D01*
X142640591Y-126347826D01*
X143051698Y-126252918D01*
X143302606Y-126156584D01*
X143997114Y-125776678D01*
X144592907Y-125274680D01*
X145073982Y-124669403D01*
X145392878Y-124041595D01*
X148577515Y-124041595D01*
X149005455Y-124535572D01*
X149463681Y-125010817D01*
X150162665Y-125573268D01*
X150909000Y-126006437D01*
X151672618Y-126290540D01*
X152092288Y-126366966D01*
X152619492Y-126402663D01*
X153167788Y-126392205D01*
X153675477Y-126336935D01*
X154080858Y-126238194D01*
X154694834Y-125959846D01*
X155353425Y-125498184D01*
X155900519Y-124911018D01*
X156327656Y-124206000D01*
X156417443Y-124013416D01*
X156498755Y-123807710D01*
X156549705Y-123605919D01*
X156577354Y-123364734D01*
X156588765Y-123040848D01*
X156591000Y-122590950D01*
X156591000Y-121526233D01*
X156224470Y-120786545D01*
X156138282Y-120617736D01*
X155886805Y-120192127D01*
X155593194Y-119805873D01*
X155208470Y-119391737D01*
X154924169Y-119112074D01*
X154503729Y-118726061D01*
X154130389Y-118416755D01*
X153820590Y-118196539D01*
X153590773Y-118077796D01*
X153457378Y-118072907D01*
X153411089Y-118120816D01*
X153264306Y-118290365D01*
X153030955Y-118567928D01*
X152722334Y-118939821D01*
X152349739Y-119392356D01*
X151924469Y-119911849D01*
X151457820Y-120484614D01*
X150961090Y-121096964D01*
X149560455Y-122827286D01*
X148577515Y-124041595D01*
X145392878Y-124041595D01*
X145424337Y-123979662D01*
X145627969Y-123224268D01*
X145672390Y-122827286D01*
X145640535Y-122020191D01*
X145441129Y-121234964D01*
X145073971Y-120470954D01*
X144538858Y-119727509D01*
X144376070Y-119548688D01*
X144111339Y-119285980D01*
X143801937Y-118998942D01*
X143475562Y-118711283D01*
X143159912Y-118446714D01*
X142882684Y-118228945D01*
X142671576Y-118081687D01*
X142554286Y-118028649D01*
X142548818Y-118030926D01*
X142459852Y-118117406D01*
X142280909Y-118317318D01*
X142025125Y-118614552D01*
X141705633Y-118992995D01*
X141335566Y-119436537D01*
X140928059Y-119929066D01*
X140496245Y-120454471D01*
X140053258Y-120996640D01*
X139612231Y-121539462D01*
X139186299Y-122066825D01*
X138788594Y-122562619D01*
X138432252Y-123010731D01*
X138130405Y-123395050D01*
X137896188Y-123699465D01*
X137742733Y-123907864D01*
X137683176Y-124004136D01*
X135051498Y-124004136D01*
X135105917Y-123943695D01*
X135304368Y-123723724D01*
X134929263Y-122758362D01*
X134766383Y-122343652D01*
X134386761Y-121419389D01*
X134038002Y-120640364D01*
X133711790Y-119993253D01*
X133399809Y-119464731D01*
X133093743Y-119041474D01*
X132785275Y-118710159D01*
X132466089Y-118457460D01*
X132127868Y-118270054D01*
X132050919Y-118237394D01*
X131776038Y-118148468D01*
X131550833Y-118111859D01*
X131318000Y-118110000D01*
X131318000Y-116078000D01*
X131638878Y-116078000D01*
X131984702Y-116108714D01*
X132461844Y-116212533D01*
X132938049Y-116368819D01*
X133335885Y-116555770D01*
X133365558Y-116573800D01*
X133616620Y-116755764D01*
X133914170Y-117007595D01*
X134200039Y-117280507D01*
X134346447Y-117438484D01*
X134593444Y-117747961D01*
X134835335Y-118114230D01*
X135083439Y-118558196D01*
X135349070Y-119100765D01*
X135643547Y-119762842D01*
X135978184Y-120565333D01*
X136110344Y-120887380D01*
X136279022Y-121291463D01*
X136420021Y-121621180D01*
X136521498Y-121848955D01*
X136571612Y-121947212D01*
X136612657Y-121922435D01*
X136750104Y-121784143D01*
X136970894Y-121539374D01*
X137262397Y-121202762D01*
X137611982Y-120788941D01*
X138007020Y-120312546D01*
X138434881Y-119788212D01*
X138713519Y-119444200D01*
X139148073Y-118907989D01*
X139553390Y-118408201D01*
X139914015Y-117963877D01*
X140214489Y-117594060D01*
X140439356Y-117317790D01*
X140573157Y-117154110D01*
X140726658Y-116960364D01*
X140842567Y-116797725D01*
X140874888Y-116727201D01*
X140873933Y-116726535D01*
X140792359Y-116663296D01*
X140606379Y-116516917D01*
X140342635Y-116308418D01*
X140027764Y-116058818D01*
X139493908Y-115621020D01*
X138775681Y-114969010D01*
X138192819Y-114345737D01*
X137730811Y-113733343D01*
X137375145Y-113113969D01*
X137111309Y-112469758D01*
X137012798Y-112160007D01*
X136949063Y-111894025D01*
X136917821Y-111628050D01*
X136912581Y-111305801D01*
X136914605Y-111244111D01*
X138926030Y-111244111D01*
X138926785Y-111323099D01*
X138985682Y-111938846D01*
X139152745Y-112485849D01*
X139448207Y-113033439D01*
X139454117Y-113042585D01*
X139703967Y-113369931D01*
X140057277Y-113756238D01*
X140478399Y-114166703D01*
X140931683Y-114566521D01*
X141381481Y-114920888D01*
X141445552Y-114967568D01*
X141698127Y-115144802D01*
X141890328Y-115269115D01*
X141984735Y-115316000D01*
X142011026Y-115304360D01*
X142130902Y-115188874D01*
X142312306Y-114973813D01*
X142533124Y-114689012D01*
X142771245Y-114364307D01*
X143004557Y-114029535D01*
X143210948Y-113714531D01*
X143368306Y-113449131D01*
X143426372Y-113339683D01*
X143740774Y-112598458D01*
X143905221Y-111890907D01*
X143921829Y-111227945D01*
X143792714Y-110620489D01*
X143519994Y-110079454D01*
X143105784Y-109615758D01*
X142552202Y-109240315D01*
X142431131Y-109178741D01*
X142215617Y-109089516D01*
X141992630Y-109038187D01*
X141708278Y-109014737D01*
X141308666Y-109009147D01*
X141100598Y-109010231D01*
X140761919Y-109023180D01*
X140513189Y-109058761D01*
X140300729Y-109126872D01*
X140070862Y-109237411D01*
X139887648Y-109341515D01*
X139449429Y-109686577D01*
X139150370Y-110105930D01*
X138979546Y-110618724D01*
X138926030Y-111244111D01*
X136914605Y-111244111D01*
X136926848Y-110871000D01*
X136928739Y-110829496D01*
X137020970Y-110014038D01*
X137219591Y-109317300D01*
X137535163Y-108719009D01*
X137978245Y-108198888D01*
X138559400Y-107736662D01*
X138715296Y-107634583D01*
X139114880Y-107407721D01*
X139511754Y-107246381D01*
X139948667Y-107138879D01*
X140468368Y-107073535D01*
X141113607Y-107038665D01*
X141238650Y-107034753D01*
X141693802Y-107025823D01*
X142038263Y-107033221D01*
X142319429Y-107061149D01*
X142584694Y-107113810D01*
X142881457Y-107195406D01*
X143530099Y-107443186D01*
X144259802Y-107882000D01*
X144919561Y-108473098D01*
X144932410Y-108486844D01*
X145429228Y-109128984D01*
X145777600Y-109834284D01*
X145982775Y-110616753D01*
X146029805Y-111227945D01*
X146050000Y-111490400D01*
X146025005Y-112027849D01*
X145912105Y-112707611D01*
X145699179Y-113385657D01*
X145376331Y-114086375D01*
X144933670Y-114834154D01*
X144361301Y-115653385D01*
X144258830Y-115791459D01*
X144049156Y-116073962D01*
X143882079Y-116299046D01*
X143786755Y-116427430D01*
X143777432Y-116440960D01*
X143758724Y-116513341D01*
X143803446Y-116603895D01*
X143930422Y-116732358D01*
X144158473Y-116918462D01*
X144506422Y-117181942D01*
X144713116Y-117339654D01*
X145286459Y-117812537D01*
X145844340Y-118320335D01*
X146361705Y-118837230D01*
X146813499Y-119337406D01*
X147174668Y-119795045D01*
X147420158Y-120184333D01*
X147429191Y-120201856D01*
X147595137Y-120545249D01*
X147740188Y-120881148D01*
X147833856Y-121139186D01*
X147868405Y-121244788D01*
X147946879Y-121419495D01*
X148009072Y-121477853D01*
X148042311Y-121446318D01*
X148170005Y-121301692D01*
X148378090Y-121056154D01*
X148652090Y-120727512D01*
X148977530Y-120333574D01*
X149339932Y-119892146D01*
X149724821Y-119421038D01*
X150117720Y-118938056D01*
X150504155Y-118461008D01*
X150869647Y-118007702D01*
X151199722Y-117595947D01*
X151479903Y-117243548D01*
X151695714Y-116968315D01*
X151832679Y-116788055D01*
X151876322Y-116720575D01*
X151806593Y-116673242D01*
X151508649Y-116452743D01*
X151136622Y-116158503D01*
X150728810Y-115822469D01*
X150323513Y-115476591D01*
X149959029Y-115152819D01*
X149673657Y-114883100D01*
X149381548Y-114580061D01*
X148799162Y-113869772D01*
X148368147Y-113160038D01*
X148077606Y-112430880D01*
X147916638Y-111662318D01*
X147916440Y-111660736D01*
X147907707Y-111440327D01*
X149892869Y-111440327D01*
X150006746Y-112081951D01*
X150262681Y-112732936D01*
X150262946Y-112733460D01*
X150488810Y-113088813D01*
X150828766Y-113505063D01*
X151254179Y-113952115D01*
X151736414Y-114399874D01*
X152246835Y-114818244D01*
X152419164Y-114948142D01*
X152680440Y-115137358D01*
X152873788Y-115267407D01*
X152966501Y-115315683D01*
X152972353Y-115314782D01*
X153072192Y-115235834D01*
X153241315Y-115050395D01*
X153456015Y-114788341D01*
X153692586Y-114479545D01*
X153927322Y-114153883D01*
X154136515Y-113841231D01*
X154185214Y-113763581D01*
X154579742Y-113015289D01*
X154827397Y-112291892D01*
X154927627Y-111604268D01*
X154879881Y-110963291D01*
X154683607Y-110379836D01*
X154338253Y-109864778D01*
X153997411Y-109543906D01*
X153468613Y-109222804D01*
X152884263Y-109027549D01*
X152274953Y-108960673D01*
X151671277Y-109024707D01*
X151103828Y-109222186D01*
X150603200Y-109555640D01*
X150380729Y-109784962D01*
X150082147Y-110270499D01*
X149918765Y-110829398D01*
X149892869Y-111440327D01*
X147907707Y-111440327D01*
X147884025Y-110842666D01*
X147988303Y-110057238D01*
X148221227Y-109329600D01*
X148574752Y-108684899D01*
X149040832Y-108148285D01*
X149166966Y-108036153D01*
X149692775Y-107638399D01*
X150238472Y-107349570D01*
X150838503Y-107157870D01*
X151527316Y-107051501D01*
X152339360Y-107018666D01*
X152640878Y-107020573D01*
X153044884Y-107035375D01*
X153366399Y-107070830D01*
X153659725Y-107133999D01*
X153979161Y-107231947D01*
X153999672Y-107238870D01*
X154737496Y-107551584D01*
X155370637Y-107963583D01*
X155949028Y-108507192D01*
X156141998Y-108735366D01*
X156572435Y-109415759D01*
X156873117Y-110176065D01*
X157037326Y-110987875D01*
X157052842Y-111604268D01*
X157058343Y-111822782D01*
X156929448Y-112652378D01*
G37*
G36*
X156929448Y-137036378D02*
G01*
X156909995Y-137109463D01*
X156726714Y-137632804D01*
X156454769Y-138233190D01*
X156116051Y-138869059D01*
X155732449Y-139498850D01*
X155325855Y-140081000D01*
X155301101Y-140113844D01*
X155061680Y-140435153D01*
X154866427Y-140703597D01*
X154734869Y-140891931D01*
X154686533Y-140972911D01*
X154689369Y-140981318D01*
X154777820Y-141061193D01*
X154951738Y-141175132D01*
X155124505Y-141286655D01*
X155472237Y-141541147D01*
X155882540Y-141866566D01*
X156320324Y-142233255D01*
X156750498Y-142611562D01*
X157137974Y-142971833D01*
X157447661Y-143284412D01*
X157726977Y-143597580D01*
X158180968Y-144191781D01*
X158532634Y-144798089D01*
X158816293Y-145471336D01*
X158829401Y-145507934D01*
X158922482Y-145791146D01*
X158983398Y-146048178D01*
X159018582Y-146327876D01*
X159034468Y-146679090D01*
X159036406Y-146981333D01*
X159037491Y-147150666D01*
X159032440Y-147598883D01*
X159013938Y-147972256D01*
X158975220Y-148276506D01*
X158909440Y-148563807D01*
X158809755Y-148886333D01*
X158731867Y-149103073D01*
X158330888Y-149916369D01*
X157790196Y-150662982D01*
X157128343Y-151326317D01*
X156363881Y-151889781D01*
X155515360Y-152336779D01*
X154601333Y-152650717D01*
X154360453Y-152702973D01*
X153792834Y-152778247D01*
X153153072Y-152815666D01*
X152500277Y-152814450D01*
X151893561Y-152773822D01*
X151392036Y-152693001D01*
X151176671Y-152637283D01*
X150300060Y-152311719D01*
X149439977Y-151839520D01*
X148624575Y-151238074D01*
X147882004Y-150524773D01*
X147341377Y-149932423D01*
X147157845Y-150229384D01*
X147069793Y-150349927D01*
X146863053Y-150589124D01*
X146591289Y-150875346D01*
X146290096Y-151170008D01*
X146171117Y-151280323D01*
X145741372Y-151642462D01*
X145319044Y-151927515D01*
X144833107Y-152184958D01*
X144272797Y-152432151D01*
X143669092Y-152633571D01*
X143059849Y-152755500D01*
X142392940Y-152807919D01*
X141616237Y-152800807D01*
X141278537Y-152783420D01*
X140628995Y-152716162D01*
X140061050Y-152597434D01*
X139516308Y-152413026D01*
X138936376Y-152148732D01*
X138662612Y-151994722D01*
X138195979Y-151679157D01*
X137704216Y-151295891D01*
X137235807Y-150883494D01*
X136839237Y-150480532D01*
X136353158Y-149936743D01*
X135737354Y-150697520D01*
X135373103Y-151130296D01*
X134853241Y-151672019D01*
X134360691Y-152076380D01*
X133873218Y-152355119D01*
X133368584Y-152519973D01*
X132824555Y-152582682D01*
X132218894Y-152554984D01*
X132125330Y-152544987D01*
X131739290Y-152497951D01*
X131483875Y-152434788D01*
X131333246Y-152324858D01*
X131261563Y-152137520D01*
X131242988Y-151842135D01*
X131251681Y-151408063D01*
X131275666Y-150509769D01*
X131940334Y-150529327D01*
X132301985Y-150525775D01*
X132696815Y-150469116D01*
X133052273Y-150338189D01*
X133400830Y-150115782D01*
X133774955Y-149784683D01*
X134207116Y-149327680D01*
X134485970Y-149017165D01*
X134754034Y-148718777D01*
X134969499Y-148479055D01*
X134991998Y-148454049D01*
X137668000Y-148454049D01*
X137708222Y-148537185D01*
X137848328Y-148720157D01*
X138065202Y-148966182D01*
X138334045Y-149245783D01*
X139046309Y-149864043D01*
X139809098Y-150335000D01*
X140625534Y-150656175D01*
X140757866Y-150689297D01*
X141175523Y-150751123D01*
X141663622Y-150780784D01*
X142163072Y-150777865D01*
X142614784Y-150741948D01*
X142959666Y-150672618D01*
X143486913Y-150463774D01*
X144037628Y-150127127D01*
X144572764Y-149657822D01*
X144746417Y-149472481D01*
X145203672Y-148833583D01*
X145383690Y-148425105D01*
X148577091Y-148425105D01*
X149005243Y-148919327D01*
X149463385Y-149394522D01*
X150162470Y-149957133D01*
X150908886Y-150390389D01*
X151672618Y-150674540D01*
X152092288Y-150750966D01*
X152619492Y-150786663D01*
X153167788Y-150776205D01*
X153675477Y-150720935D01*
X154080858Y-150622194D01*
X154694834Y-150343846D01*
X155353425Y-149882184D01*
X155900519Y-149295018D01*
X156327656Y-148590000D01*
X156415133Y-148402565D01*
X156497466Y-148195521D01*
X156549087Y-147993448D01*
X156577127Y-147752775D01*
X156588720Y-147429927D01*
X156591000Y-146981333D01*
X156589265Y-146538694D01*
X156578660Y-146218883D01*
X156551093Y-145978791D01*
X156498471Y-145773535D01*
X156412703Y-145558232D01*
X156285696Y-145288000D01*
X156285171Y-145286908D01*
X156074622Y-144898772D01*
X155816309Y-144491474D01*
X155566029Y-144153016D01*
X155385803Y-143953474D01*
X155117272Y-143686158D01*
X154804423Y-143394874D01*
X154474820Y-143103348D01*
X154156030Y-142835305D01*
X153875617Y-142614471D01*
X153661146Y-142464572D01*
X153540182Y-142409333D01*
X153480376Y-142437783D01*
X153334637Y-142568401D01*
X153159043Y-142769166D01*
X153138393Y-142795103D01*
X152996630Y-142971613D01*
X152764981Y-143258768D01*
X152456788Y-143640076D01*
X152085394Y-144099050D01*
X151664139Y-144619197D01*
X151206367Y-145184028D01*
X150725418Y-145777052D01*
X150021259Y-146645007D01*
X148577091Y-148425105D01*
X145383690Y-148425105D01*
X145510147Y-148138163D01*
X145665243Y-147403034D01*
X145668362Y-146645007D01*
X145518906Y-145880893D01*
X145216276Y-145127502D01*
X144759875Y-144401648D01*
X144627886Y-144235964D01*
X144345776Y-143918984D01*
X144021483Y-143588897D01*
X143677645Y-143265162D01*
X143336898Y-142967236D01*
X143021881Y-142714575D01*
X142755231Y-142526639D01*
X142559586Y-142422885D01*
X142457583Y-142422769D01*
X142283895Y-142635072D01*
X141624536Y-143443483D01*
X140987609Y-144228140D01*
X140381619Y-144978334D01*
X139815070Y-145683355D01*
X139296468Y-146332493D01*
X138834317Y-146915040D01*
X138437123Y-147420284D01*
X138113389Y-147837517D01*
X137871620Y-148156028D01*
X137720322Y-148365109D01*
X137668000Y-148454049D01*
X134991998Y-148454049D01*
X135102106Y-148331673D01*
X135296746Y-148115680D01*
X134926869Y-147146340D01*
X134510710Y-146099608D01*
X134107376Y-145181006D01*
X133726818Y-144418869D01*
X133366164Y-143807889D01*
X133022540Y-143342756D01*
X132693074Y-143018163D01*
X132686935Y-143013312D01*
X132276659Y-142738463D01*
X131876688Y-142558530D01*
X131532386Y-142494000D01*
X131318000Y-142494000D01*
X131318000Y-140462000D01*
X131560444Y-140462000D01*
X132082950Y-140503915D01*
X132793034Y-140700078D01*
X133460747Y-141047686D01*
X134071856Y-141536844D01*
X134612128Y-142157656D01*
X135067333Y-142900228D01*
X135133681Y-143033736D01*
X135320708Y-143431648D01*
X135538106Y-143916435D01*
X135763988Y-144438772D01*
X135976471Y-144949333D01*
X136108154Y-145270825D01*
X136276885Y-145675278D01*
X136418246Y-146005448D01*
X136520352Y-146233707D01*
X136571322Y-146332425D01*
X136577673Y-146330901D01*
X136664477Y-146247300D01*
X136840112Y-146053350D01*
X137090627Y-145765896D01*
X137402071Y-145401784D01*
X137760492Y-144977860D01*
X138151940Y-144510968D01*
X138562463Y-144017955D01*
X138978111Y-143515667D01*
X139384931Y-143020947D01*
X139768973Y-142550643D01*
X140116286Y-142121600D01*
X140412918Y-141750664D01*
X140644918Y-141454679D01*
X140798334Y-141250491D01*
X140859217Y-141154947D01*
X140824152Y-141105081D01*
X140678935Y-140969982D01*
X140446329Y-140776049D01*
X140153465Y-140546666D01*
X139344391Y-139888245D01*
X138554205Y-139130837D01*
X137922313Y-138377091D01*
X137443189Y-137620300D01*
X137111309Y-136853758D01*
X137012798Y-136544007D01*
X136949063Y-136278025D01*
X136917821Y-136012050D01*
X136912581Y-135689801D01*
X136914605Y-135628111D01*
X138926030Y-135628111D01*
X138926785Y-135707099D01*
X138985682Y-136322846D01*
X139152745Y-136869849D01*
X139448207Y-137417439D01*
X139454117Y-137426585D01*
X139703967Y-137753931D01*
X140057277Y-138140238D01*
X140478399Y-138550703D01*
X140931683Y-138950521D01*
X141381481Y-139304888D01*
X141446304Y-139352151D01*
X141697273Y-139529110D01*
X141886585Y-139653204D01*
X141977385Y-139700000D01*
X142039345Y-139665940D01*
X142189335Y-139514879D01*
X142393344Y-139269173D01*
X142630428Y-138957528D01*
X142879646Y-138608650D01*
X143120056Y-138251243D01*
X143330717Y-137914013D01*
X143490687Y-137625666D01*
X143754245Y-136987425D01*
X143910741Y-136287333D01*
X143920065Y-135624147D01*
X143785544Y-135012059D01*
X143510507Y-134465262D01*
X143098284Y-133997950D01*
X142552202Y-133624315D01*
X142431131Y-133562741D01*
X142215617Y-133473516D01*
X141992630Y-133422187D01*
X141708278Y-133398737D01*
X141308666Y-133393147D01*
X141100598Y-133394231D01*
X140761919Y-133407180D01*
X140513189Y-133442761D01*
X140300729Y-133510872D01*
X140070862Y-133621411D01*
X139887648Y-133725515D01*
X139449429Y-134070577D01*
X139150370Y-134489930D01*
X138979546Y-135002724D01*
X138926030Y-135628111D01*
X136914605Y-135628111D01*
X136926848Y-135255000D01*
X136928739Y-135213496D01*
X137020970Y-134398038D01*
X137219591Y-133701300D01*
X137535163Y-133103009D01*
X137978245Y-132582888D01*
X138559400Y-132120662D01*
X138715296Y-132018583D01*
X139114880Y-131791721D01*
X139511754Y-131630381D01*
X139948667Y-131522879D01*
X140468368Y-131457535D01*
X141113607Y-131422665D01*
X141238650Y-131418753D01*
X141693802Y-131409823D01*
X142038263Y-131417221D01*
X142319429Y-131445149D01*
X142584694Y-131497810D01*
X142881457Y-131579406D01*
X143530099Y-131827186D01*
X144259802Y-132266000D01*
X144919561Y-132857098D01*
X144932410Y-132870844D01*
X145429228Y-133512984D01*
X145777600Y-134218284D01*
X145982775Y-135000753D01*
X146030744Y-135624147D01*
X146050000Y-135874400D01*
X146025005Y-136411849D01*
X145912105Y-137091611D01*
X145699179Y-137769657D01*
X145376331Y-138470375D01*
X144933670Y-139218154D01*
X144361301Y-140037385D01*
X144258830Y-140175459D01*
X144049156Y-140457962D01*
X143882079Y-140683046D01*
X143786755Y-140811430D01*
X143777432Y-140824960D01*
X143758724Y-140897341D01*
X143803446Y-140987895D01*
X143930422Y-141116358D01*
X144158473Y-141302462D01*
X144506422Y-141565942D01*
X144713116Y-141723654D01*
X145286459Y-142196537D01*
X145844340Y-142704335D01*
X146361705Y-143221230D01*
X146813499Y-143721406D01*
X147174668Y-144179045D01*
X147420158Y-144568333D01*
X147429191Y-144585856D01*
X147595137Y-144929249D01*
X147740188Y-145265148D01*
X147833856Y-145523186D01*
X147868395Y-145628798D01*
X147946750Y-145803498D01*
X148008747Y-145861853D01*
X148041989Y-145830600D01*
X148169854Y-145686343D01*
X148378149Y-145441153D01*
X148652389Y-145112833D01*
X148978086Y-144719186D01*
X149340755Y-144278015D01*
X149725908Y-143807123D01*
X150119060Y-143324315D01*
X150505723Y-142847393D01*
X150871411Y-142394160D01*
X151201638Y-141982421D01*
X151481918Y-141629977D01*
X151697763Y-141354633D01*
X151834687Y-141174192D01*
X151878203Y-141106456D01*
X151579099Y-140894930D01*
X151010371Y-140454033D01*
X150436636Y-139965526D01*
X149887393Y-139457229D01*
X149392141Y-138956962D01*
X148980379Y-138492546D01*
X148681606Y-138091800D01*
X148401384Y-137601471D01*
X148080270Y-136794534D01*
X147906959Y-135963608D01*
X147902691Y-135812884D01*
X149889309Y-135812884D01*
X150001276Y-136452550D01*
X150262681Y-137116936D01*
X150262946Y-137117460D01*
X150488810Y-137472813D01*
X150828766Y-137889063D01*
X151254179Y-138336115D01*
X151736414Y-138783874D01*
X152246835Y-139202244D01*
X152419164Y-139332142D01*
X152680440Y-139521358D01*
X152873788Y-139651407D01*
X152966501Y-139699683D01*
X152976883Y-139697424D01*
X153084445Y-139609659D01*
X153259343Y-139415603D01*
X153478708Y-139144403D01*
X153719672Y-138825210D01*
X153959366Y-138487171D01*
X154174919Y-138159436D01*
X154191892Y-138132184D01*
X154590648Y-137378058D01*
X154837942Y-136652850D01*
X154933483Y-135965318D01*
X154876977Y-135324225D01*
X154668132Y-134738329D01*
X154306654Y-134216390D01*
X154244759Y-134149825D01*
X153748565Y-133750293D01*
X153161613Y-133491154D01*
X152478320Y-133369822D01*
X151826030Y-133389816D01*
X151239999Y-133545232D01*
X150746654Y-133821348D01*
X150355454Y-134202169D01*
X150075857Y-134671696D01*
X149917322Y-135213934D01*
X149889309Y-135812884D01*
X147902691Y-135812884D01*
X147883396Y-135131403D01*
X148011524Y-134320631D01*
X148293287Y-133554001D01*
X148623374Y-132996882D01*
X149132338Y-132426036D01*
X149754069Y-131980040D01*
X150486435Y-131660044D01*
X151327304Y-131467203D01*
X152274546Y-131402666D01*
X153084044Y-131444431D01*
X153906761Y-131599636D01*
X154634897Y-131876773D01*
X155287736Y-132283454D01*
X155884566Y-132827287D01*
X156076802Y-133047601D01*
X156538702Y-133743935D01*
X156860780Y-134514602D01*
X157037173Y-135335980D01*
X157055601Y-135965318D01*
X157062017Y-136184446D01*
X156929448Y-137036378D01*
G37*
G36*
X101470447Y-177140986D02*
G01*
X101655208Y-177158118D01*
X102357945Y-177327099D01*
X103004940Y-177654001D01*
X103586484Y-178134266D01*
X104006634Y-178562000D01*
X100838000Y-178562000D01*
X100838000Y-177100398D01*
X101470447Y-177140986D01*
G37*
G36*
X128551546Y-111210491D02*
G01*
X128508118Y-111699641D01*
X128422720Y-112123829D01*
X128285367Y-112533398D01*
X128086075Y-112978689D01*
X127695949Y-113651844D01*
X127098205Y-114392332D01*
X126383904Y-115033129D01*
X125573032Y-115559378D01*
X124685570Y-115956221D01*
X123741503Y-116208801D01*
X123642706Y-116225926D01*
X122723421Y-116313227D01*
X121788721Y-116282604D01*
X120888069Y-116138417D01*
X120070929Y-115885032D01*
X119789164Y-115765320D01*
X119264352Y-115499716D01*
X118775509Y-115182599D01*
X118279355Y-114784162D01*
X117732611Y-114274598D01*
X116886424Y-113444862D01*
X116717418Y-113681931D01*
X116389945Y-114099964D01*
X115686884Y-114795293D01*
X114881378Y-115371944D01*
X113993523Y-115820635D01*
X113043415Y-116132083D01*
X112051148Y-116297004D01*
X111036818Y-116306115D01*
X110936471Y-116298396D01*
X109921473Y-116141077D01*
X108979057Y-115840901D01*
X108096736Y-115391626D01*
X107262020Y-114787015D01*
X106462421Y-114020829D01*
X105897734Y-113411000D01*
X105595094Y-113792000D01*
X105425361Y-113991347D01*
X105163282Y-114279530D01*
X104851270Y-114609764D01*
X104525727Y-114942873D01*
X104053295Y-115385907D01*
X103619667Y-115713445D01*
X103207717Y-115926974D01*
X102785397Y-116042993D01*
X102320658Y-116078000D01*
X102071322Y-116068600D01*
X101693251Y-116027930D01*
X101331136Y-115963838D01*
X101036076Y-115885913D01*
X100859166Y-115803743D01*
X100841491Y-115783418D01*
X100791848Y-115619176D01*
X100762795Y-115304981D01*
X100753333Y-114831653D01*
X100753333Y-113944707D01*
X101261703Y-114003709D01*
X101723644Y-114020435D01*
X102214203Y-113959501D01*
X102240212Y-113953357D01*
X102416010Y-113902453D01*
X102577159Y-113828677D01*
X102749925Y-113712061D01*
X102960574Y-113532635D01*
X103235371Y-113270429D01*
X103600583Y-112905476D01*
X103935820Y-112569458D01*
X104269878Y-112231180D01*
X104506561Y-111967926D01*
X104562880Y-111885288D01*
X107203766Y-111885288D01*
X107245612Y-111982236D01*
X107387471Y-112171507D01*
X107606972Y-112422923D01*
X107881099Y-112708508D01*
X108219076Y-113026803D01*
X108919176Y-113562544D01*
X109635517Y-113942530D01*
X110383551Y-114175823D01*
X110405145Y-114180353D01*
X111261822Y-114282467D01*
X112069766Y-114224879D01*
X112822956Y-114009296D01*
X113515369Y-113637424D01*
X114140984Y-113110970D01*
X114219283Y-113028679D01*
X114697047Y-112392575D01*
X114929385Y-111889532D01*
X118169070Y-111889532D01*
X118209613Y-111989244D01*
X118324329Y-112137168D01*
X118529319Y-112356213D01*
X118840684Y-112669285D01*
X119367735Y-113151872D01*
X120024866Y-113628089D01*
X120690842Y-113964569D01*
X121390218Y-114175823D01*
X122229695Y-114282340D01*
X123035590Y-114232698D01*
X123787032Y-114022915D01*
X124483054Y-113653262D01*
X125122687Y-113124013D01*
X125449809Y-112748577D01*
X125844417Y-112094034D01*
X126099170Y-111370685D01*
X126205650Y-110605423D01*
X126155438Y-109825143D01*
X126058115Y-109385268D01*
X125792703Y-108686910D01*
X125387691Y-108019110D01*
X124828937Y-107355537D01*
X124608750Y-107132167D01*
X124296346Y-106832051D01*
X123971413Y-106534432D01*
X123660630Y-106262531D01*
X123390675Y-106039567D01*
X123188228Y-105888761D01*
X123079968Y-105833333D01*
X123047392Y-105865533D01*
X122918121Y-106014429D01*
X122701273Y-106272413D01*
X122407820Y-106626186D01*
X122048735Y-107062448D01*
X121634992Y-107567899D01*
X121177565Y-108129238D01*
X120687426Y-108733166D01*
X120353626Y-109145178D01*
X119878021Y-109731907D01*
X119558602Y-110125690D01*
X119439885Y-110272045D01*
X119050729Y-110751422D01*
X118722064Y-111155865D01*
X118465402Y-111471203D01*
X118292256Y-111683266D01*
X118214136Y-111777881D01*
X118186600Y-111815128D01*
X118169070Y-111889532D01*
X114929385Y-111889532D01*
X115022770Y-111687340D01*
X115191474Y-110927027D01*
X115198183Y-110125690D01*
X115174365Y-109916867D01*
X115008793Y-109179633D01*
X114712888Y-108490388D01*
X114274254Y-107824900D01*
X113680495Y-107158937D01*
X113506243Y-106991372D01*
X113229822Y-106740852D01*
X112928692Y-106480273D01*
X112632850Y-106234434D01*
X112372291Y-106028132D01*
X112177012Y-105886166D01*
X112077010Y-105833333D01*
X112064503Y-105843006D01*
X111964386Y-105953433D01*
X111776876Y-106174294D01*
X111514880Y-106489561D01*
X111191306Y-106883202D01*
X110819062Y-107339189D01*
X110411055Y-107841491D01*
X109980193Y-108374079D01*
X109539385Y-108920922D01*
X109101537Y-109465991D01*
X108679558Y-109993256D01*
X108286356Y-110486687D01*
X107934838Y-110930254D01*
X107637912Y-111307928D01*
X107408486Y-111603678D01*
X107259468Y-111801474D01*
X107203766Y-111885288D01*
X104562880Y-111885288D01*
X104654465Y-111750903D01*
X104722190Y-111551315D01*
X104718335Y-111340369D01*
X104651498Y-111089271D01*
X104530277Y-110769224D01*
X104363272Y-110351436D01*
X104015832Y-109492164D01*
X103640077Y-108635015D01*
X103286869Y-107920464D01*
X102947467Y-107336549D01*
X102613128Y-106871314D01*
X102275110Y-106512798D01*
X101924671Y-106249042D01*
X101553069Y-106068089D01*
X101151562Y-105957979D01*
X100838000Y-105899154D01*
X100838000Y-103948398D01*
X101470447Y-103988986D01*
X102095203Y-104085375D01*
X102667047Y-104302438D01*
X103208643Y-104655179D01*
X103750153Y-105159080D01*
X103916394Y-105345260D01*
X104181365Y-105690091D01*
X104442780Y-106097829D01*
X104711190Y-106588299D01*
X104997149Y-107181323D01*
X105311207Y-107896727D01*
X105663919Y-108754333D01*
X105719942Y-108893640D01*
X105873960Y-109274236D01*
X106000821Y-109584235D01*
X106088643Y-109794750D01*
X106125549Y-109876893D01*
X106134271Y-109869913D01*
X106226324Y-109766343D01*
X106409325Y-109549936D01*
X106671905Y-109234450D01*
X107002696Y-108833641D01*
X107390328Y-108361268D01*
X107823432Y-107831088D01*
X108290640Y-107256860D01*
X110436050Y-104614934D01*
X110108034Y-104356300D01*
X109599502Y-103947510D01*
X108779241Y-103243001D01*
X108098728Y-102586978D01*
X107548601Y-101965542D01*
X107119494Y-101364792D01*
X106802044Y-100770830D01*
X106586888Y-100169755D01*
X106464661Y-99547667D01*
X106426000Y-98890666D01*
X106431307Y-98752679D01*
X108475830Y-98752679D01*
X108476695Y-99329690D01*
X108553898Y-99870867D01*
X108744939Y-100429900D01*
X109057786Y-100977819D01*
X109502632Y-101529235D01*
X110089674Y-102098759D01*
X110829106Y-102701001D01*
X111017479Y-102843580D01*
X111269943Y-103031666D01*
X111448185Y-103160586D01*
X111522168Y-103208350D01*
X111542499Y-103193791D01*
X111647330Y-103078017D01*
X111814826Y-102873824D01*
X112019428Y-102613945D01*
X112235577Y-102331115D01*
X112437716Y-102058067D01*
X112600286Y-101827537D01*
X112759031Y-101573210D01*
X112962329Y-101210571D01*
X113142846Y-100853870D01*
X113144076Y-100851259D01*
X113265766Y-100579056D01*
X113343424Y-100351064D01*
X113386860Y-100113915D01*
X113405883Y-99814239D01*
X113410302Y-99398666D01*
X113410219Y-99343147D01*
X113389216Y-98815828D01*
X113319427Y-98407836D01*
X113183699Y-98075811D01*
X112964879Y-97776390D01*
X112645810Y-97466213D01*
X112328367Y-97229284D01*
X111772529Y-96965099D01*
X111173528Y-96831285D01*
X110562733Y-96826867D01*
X109971513Y-96950871D01*
X109431236Y-97202323D01*
X108973273Y-97580249D01*
X108725731Y-97903891D01*
X108555084Y-98290653D01*
X108475830Y-98752679D01*
X106431307Y-98752679D01*
X106441048Y-98499414D01*
X106580924Y-97685370D01*
X106863995Y-96955141D01*
X107285840Y-96316192D01*
X107842036Y-95775986D01*
X108528163Y-95341987D01*
X109189950Y-95075648D01*
X110014462Y-94890111D01*
X110876991Y-94829847D01*
X111739077Y-94894418D01*
X112562259Y-95083386D01*
X113308076Y-95396316D01*
X113471792Y-95489803D01*
X114129340Y-95980659D01*
X114691675Y-96594109D01*
X115138409Y-97304538D01*
X115449156Y-98086333D01*
X115503853Y-98309896D01*
X115580622Y-98880942D01*
X115594740Y-99398666D01*
X115597616Y-99504141D01*
X115554757Y-100109326D01*
X115451968Y-100626333D01*
X115296125Y-101075935D01*
X114971968Y-101795085D01*
X114557211Y-102544066D01*
X114077187Y-103278392D01*
X113557228Y-103953579D01*
X113545076Y-103968033D01*
X113364912Y-104190664D01*
X113244903Y-104354525D01*
X113210468Y-104425056D01*
X113524350Y-104657042D01*
X114363948Y-105298557D01*
X115072922Y-105878509D01*
X115664782Y-106411479D01*
X116153041Y-106912051D01*
X116551209Y-107394805D01*
X116872800Y-107874324D01*
X117131324Y-108365189D01*
X117340294Y-108881984D01*
X117386912Y-109005152D01*
X117477301Y-109200341D01*
X117543448Y-109288165D01*
X117604290Y-109236907D01*
X117760206Y-109067940D01*
X117998049Y-108795328D01*
X118305418Y-108433671D01*
X118669912Y-107997569D01*
X119079127Y-107501622D01*
X119520663Y-106960430D01*
X121429431Y-104608164D01*
X121148622Y-104395248D01*
X120682351Y-104032404D01*
X119754453Y-103241302D01*
X118983297Y-102477480D01*
X118371009Y-101743370D01*
X117919712Y-101041399D01*
X117631532Y-100373999D01*
X117614482Y-100316957D01*
X117526149Y-99884848D01*
X117469291Y-99361736D01*
X117455799Y-99030959D01*
X119454813Y-99030959D01*
X119462208Y-99411293D01*
X119503264Y-99788269D01*
X119591923Y-100115061D01*
X119741312Y-100457000D01*
X119743579Y-100461563D01*
X120098931Y-101050314D01*
X120573098Y-101613576D01*
X121189895Y-102179668D01*
X121380253Y-102336447D01*
X121703774Y-102598832D01*
X121988346Y-102824950D01*
X122188592Y-102978505D01*
X122499518Y-103207255D01*
X122850571Y-102808437D01*
X123339075Y-102203522D01*
X123841243Y-101424096D01*
X124195636Y-100655349D01*
X124398798Y-99907263D01*
X124447274Y-99189817D01*
X124337609Y-98512992D01*
X124327209Y-98478665D01*
X124104447Y-98009095D01*
X123762874Y-97577473D01*
X123344406Y-97227546D01*
X122890956Y-97003062D01*
X122646927Y-96929629D01*
X122119225Y-96820877D01*
X121643699Y-96810009D01*
X121162020Y-96893322D01*
X120569231Y-97111602D01*
X120087254Y-97440920D01*
X119739088Y-97872801D01*
X119527390Y-98403923D01*
X119454813Y-99030959D01*
X117455799Y-99030959D01*
X117446840Y-98811306D01*
X117461725Y-98297240D01*
X117516880Y-97883221D01*
X117542511Y-97775293D01*
X117809294Y-97046121D01*
X118212172Y-96405144D01*
X118738784Y-95861105D01*
X119376767Y-95422746D01*
X120113760Y-95098809D01*
X120937403Y-94898036D01*
X121835333Y-94829169D01*
X121972948Y-94830773D01*
X122875588Y-94924398D01*
X123712544Y-95155224D01*
X124469745Y-95513446D01*
X125133120Y-95989256D01*
X125688598Y-96572848D01*
X126122106Y-97254414D01*
X126419575Y-98024148D01*
X126480855Y-98270059D01*
X126589537Y-99142023D01*
X126586535Y-99189817D01*
X126533536Y-100033651D01*
X126312373Y-100946516D01*
X125925569Y-101882194D01*
X125372644Y-102842259D01*
X124653119Y-103828286D01*
X124559014Y-103946657D01*
X124375565Y-104186056D01*
X124254687Y-104356566D01*
X124218842Y-104427212D01*
X125013165Y-105023828D01*
X125808224Y-105660705D01*
X126476044Y-106249035D01*
X127029770Y-106803205D01*
X127482551Y-107337600D01*
X127847533Y-107866607D01*
X128137862Y-108404612D01*
X128366686Y-108966000D01*
X128424955Y-109143441D01*
X128492636Y-109414100D01*
X128534321Y-109711138D01*
X128555811Y-110082134D01*
X128562912Y-110574666D01*
X128562989Y-110605423D01*
X128562991Y-110606039D01*
X128551546Y-111210491D01*
G37*
G36*
X154293834Y-82279973D02*
G01*
X154012998Y-82256169D01*
X153796363Y-82210029D01*
X153641167Y-82122834D01*
X153489501Y-81972440D01*
X153461433Y-81940268D01*
X153294542Y-81671602D01*
X153246666Y-81367314D01*
X153251315Y-81269226D01*
X153500666Y-81269226D01*
X153503513Y-81416158D01*
X153543513Y-81690107D01*
X153649535Y-81868764D01*
X153845389Y-82002798D01*
X154072256Y-82085643D01*
X154343129Y-82126666D01*
X154601333Y-82126666D01*
X154601333Y-80518000D01*
X154258818Y-80518000D01*
X154079390Y-80533445D01*
X153768705Y-80664173D01*
X153570383Y-80914798D01*
X153500666Y-81269226D01*
X153251315Y-81269226D01*
X153255580Y-81179239D01*
X153355047Y-80805138D01*
X153571187Y-80546776D01*
X153911994Y-80397002D01*
X154385462Y-80348666D01*
X154855333Y-80348666D01*
X154855333Y-82315726D01*
X154293834Y-82279973D01*
G37*
G36*
X135125845Y-80348590D02*
G01*
X135367481Y-80495089D01*
X135510205Y-80711254D01*
X135519410Y-80972331D01*
X135507298Y-81012574D01*
X135432964Y-81130588D01*
X135284283Y-81230736D01*
X135030577Y-81329466D01*
X134641166Y-81443228D01*
X134446573Y-81506651D01*
X134315863Y-81598434D01*
X134281333Y-81732131D01*
X134314599Y-81915440D01*
X134470895Y-82074267D01*
X134757886Y-82126666D01*
X134758088Y-82126666D01*
X135025174Y-82071946D01*
X135221169Y-81931273D01*
X135297333Y-81739619D01*
X135312014Y-81683338D01*
X135424333Y-81618666D01*
X135519998Y-81656593D01*
X135546455Y-81783054D01*
X135479532Y-81953397D01*
X135328248Y-82120521D01*
X135075471Y-82248590D01*
X134750101Y-82299660D01*
X134435261Y-82259138D01*
X134196666Y-82126666D01*
X134142154Y-82065141D01*
X134032461Y-81813689D01*
X134068172Y-81565012D01*
X134235357Y-81357711D01*
X134520087Y-81230387D01*
X134625908Y-81206449D01*
X134942450Y-81119309D01*
X135136348Y-81029738D01*
X135244041Y-80922224D01*
X135247011Y-80917428D01*
X135278293Y-80753849D01*
X135184479Y-80625158D01*
X135007090Y-80542759D01*
X134787648Y-80518054D01*
X134567673Y-80562444D01*
X134388688Y-80687333D01*
X134265096Y-80809033D01*
X134152638Y-80847423D01*
X134112000Y-80742788D01*
X134184765Y-80581305D01*
X134369150Y-80425993D01*
X134611422Y-80322908D01*
X134819908Y-80296511D01*
X135125845Y-80348590D01*
G37*
G36*
X150672420Y-80349243D02*
G01*
X151000836Y-80362902D01*
X151219741Y-80392101D01*
X151299333Y-80433333D01*
X151296774Y-80444444D01*
X151198867Y-80496734D01*
X151003000Y-80518000D01*
X150706666Y-80518000D01*
X150706666Y-81407000D01*
X150705661Y-81641242D01*
X150696754Y-81968701D01*
X150675389Y-82168757D01*
X150637662Y-82268745D01*
X150579666Y-82296000D01*
X150546203Y-82288963D01*
X150499423Y-82226612D01*
X150470844Y-82077058D01*
X150456560Y-81812966D01*
X150452666Y-81407000D01*
X150452666Y-80518000D01*
X150156333Y-80518000D01*
X150117443Y-80517268D01*
X149934429Y-80489295D01*
X149860000Y-80433333D01*
X149864899Y-80422421D01*
X149981001Y-80383784D01*
X150229192Y-80358030D01*
X150579666Y-80348666D01*
X150672420Y-80349243D01*
G37*
G36*
X158937982Y-99960196D02*
G01*
X158599970Y-100838000D01*
X158419013Y-101173340D01*
X158198980Y-101495299D01*
X157912232Y-101835724D01*
X157525629Y-102237790D01*
X157062545Y-102665953D01*
X156335566Y-103197426D01*
X155555907Y-103595760D01*
X154686000Y-103882717D01*
X154138671Y-103983811D01*
X153478109Y-104040703D01*
X152780364Y-104049423D01*
X152109033Y-104009234D01*
X151527713Y-103919397D01*
X151412400Y-103892377D01*
X150486143Y-103580865D01*
X149590322Y-103113333D01*
X148744107Y-102501421D01*
X147966671Y-101756773D01*
X147426044Y-101164423D01*
X147242512Y-101461384D01*
X147154459Y-101581927D01*
X146947719Y-101821124D01*
X146675956Y-102107346D01*
X146374763Y-102402008D01*
X145740065Y-102929677D01*
X144920181Y-103428479D01*
X144031643Y-103779544D01*
X143063299Y-103987089D01*
X142003996Y-104055333D01*
X141392003Y-104033356D01*
X140446279Y-103896171D01*
X139569676Y-103625589D01*
X138741970Y-103212730D01*
X137942935Y-102648712D01*
X137152347Y-101924652D01*
X136425028Y-101184552D01*
X135815623Y-101937425D01*
X135764770Y-101999923D01*
X135266675Y-102571195D01*
X134807829Y-103012898D01*
X134361626Y-103348143D01*
X133901456Y-103600043D01*
X133713735Y-103682096D01*
X133500493Y-103753707D01*
X133279994Y-103789129D01*
X132998395Y-103795880D01*
X132601856Y-103781477D01*
X132410293Y-103770129D01*
X132039973Y-103735974D01*
X131735245Y-103692350D01*
X131547959Y-103645926D01*
X131312251Y-103549338D01*
X131336292Y-102645554D01*
X131360333Y-101741769D01*
X132025001Y-101761327D01*
X132386651Y-101757775D01*
X132781481Y-101701116D01*
X133136940Y-101570189D01*
X133485497Y-101347782D01*
X133859621Y-101016683D01*
X134291783Y-100559680D01*
X134570332Y-100249528D01*
X134839668Y-99949794D01*
X135032244Y-99735627D01*
X137794458Y-99735627D01*
X137849387Y-99838093D01*
X138022639Y-100055592D01*
X138277991Y-100326043D01*
X138584155Y-100619829D01*
X138909843Y-100907333D01*
X139223769Y-101158939D01*
X139494643Y-101345029D01*
X139743821Y-101482045D01*
X140155364Y-101676816D01*
X140541771Y-101829677D01*
X140651056Y-101865404D01*
X141016336Y-101956743D01*
X141409909Y-102003601D01*
X141901333Y-102015483D01*
X142399254Y-101995536D01*
X143045546Y-101891738D01*
X143609606Y-101684180D01*
X144133035Y-101355872D01*
X144657431Y-100889822D01*
X144890304Y-100637082D01*
X145339102Y-99986212D01*
X145453632Y-99707475D01*
X148771898Y-99707475D01*
X148775469Y-99763603D01*
X148781040Y-99773915D01*
X148925966Y-99971109D01*
X149167073Y-100235504D01*
X149468824Y-100533345D01*
X149795684Y-100830880D01*
X150112113Y-101094357D01*
X150382577Y-101290022D01*
X150700407Y-101468109D01*
X151106327Y-101658008D01*
X151498172Y-101810052D01*
X152064357Y-101951466D01*
X152774358Y-102022558D01*
X153478747Y-101992109D01*
X154113488Y-101858922D01*
X154767654Y-101581191D01*
X155400120Y-101151167D01*
X155924079Y-100610140D01*
X156328333Y-99976066D01*
X156601679Y-99266901D01*
X156732916Y-98500600D01*
X156710845Y-97695119D01*
X156675331Y-97465460D01*
X156468141Y-96739956D01*
X156115536Y-96035402D01*
X155611657Y-95343342D01*
X154950649Y-94655315D01*
X154126655Y-93962865D01*
X153609644Y-93565476D01*
X151152581Y-96587904D01*
X150862322Y-96945289D01*
X150319899Y-97615792D01*
X149873891Y-98171871D01*
X149595050Y-98524597D01*
X149516250Y-98624277D01*
X149238928Y-98983760D01*
X149033879Y-99261071D01*
X148893056Y-99466960D01*
X148808411Y-99612178D01*
X148771898Y-99707475D01*
X145453632Y-99707475D01*
X145629298Y-99279951D01*
X145759509Y-98524597D01*
X145728354Y-97726450D01*
X145534451Y-96891808D01*
X145452895Y-96661343D01*
X145216369Y-96159922D01*
X144890966Y-95669983D01*
X144447312Y-95144308D01*
X144445009Y-95141798D01*
X144193701Y-94885199D01*
X143892215Y-94603247D01*
X143569266Y-94319719D01*
X143253569Y-94058393D01*
X142973840Y-93843046D01*
X142758793Y-93697455D01*
X142637144Y-93645400D01*
X142589192Y-93685147D01*
X142441875Y-93843643D01*
X142208453Y-94110709D01*
X141900066Y-94473113D01*
X141527854Y-94917624D01*
X141102958Y-95431013D01*
X140636517Y-96000049D01*
X140139673Y-96611500D01*
X139902572Y-96904858D01*
X139339879Y-97604577D01*
X138876455Y-98187107D01*
X138505405Y-98661631D01*
X138219834Y-99037334D01*
X138012849Y-99323401D01*
X137877554Y-99529015D01*
X137807056Y-99663363D01*
X137794458Y-99735627D01*
X135032244Y-99735627D01*
X135056863Y-99708248D01*
X135191435Y-99558806D01*
X135390739Y-99337946D01*
X134917092Y-98119473D01*
X134743730Y-97683101D01*
X134390371Y-96850786D01*
X134043670Y-96107627D01*
X133713017Y-95472199D01*
X133407803Y-94963077D01*
X133137417Y-94598837D01*
X133060950Y-94515604D01*
X132716197Y-94211047D01*
X132333281Y-93959752D01*
X131958972Y-93788982D01*
X131640043Y-93726000D01*
X131402666Y-93726000D01*
X131402666Y-91694000D01*
X131723545Y-91694000D01*
X132051928Y-91723132D01*
X132503630Y-91816927D01*
X132964670Y-91956662D01*
X133360973Y-92122931D01*
X133424804Y-92159228D01*
X133670916Y-92334778D01*
X133963731Y-92580219D01*
X134252907Y-92854273D01*
X134413389Y-93022332D01*
X134644674Y-93296012D01*
X134848765Y-93592897D01*
X135055184Y-93957860D01*
X135293455Y-94435772D01*
X135475475Y-94823933D01*
X135732066Y-95394042D01*
X135982297Y-95971758D01*
X136191248Y-96477666D01*
X136213519Y-96533454D01*
X136368552Y-96915042D01*
X136503275Y-97235534D01*
X136603899Y-97462729D01*
X136656635Y-97564425D01*
X136663005Y-97562877D01*
X136749824Y-97479146D01*
X136925459Y-97285083D01*
X137175958Y-96997535D01*
X137487373Y-96633347D01*
X137845754Y-96209365D01*
X138237153Y-95742435D01*
X138647619Y-95249403D01*
X139063205Y-94747113D01*
X139469959Y-94252413D01*
X139853934Y-93782148D01*
X140201180Y-93353163D01*
X140497747Y-92982305D01*
X140729686Y-92686419D01*
X140883048Y-92482351D01*
X140943884Y-92386947D01*
X140909305Y-92337436D01*
X140764788Y-92202389D01*
X140532929Y-92008310D01*
X140240850Y-91778666D01*
X139873611Y-91485026D01*
X139345513Y-91022938D01*
X138837870Y-90536235D01*
X138380400Y-90055131D01*
X138002818Y-89609843D01*
X137734842Y-89230586D01*
X137552701Y-88921169D01*
X137330324Y-88493420D01*
X137181801Y-88104994D01*
X137093094Y-87703959D01*
X137050164Y-87238382D01*
X137044671Y-86952666D01*
X139008478Y-86952666D01*
X139035879Y-87355695D01*
X139173187Y-87935024D01*
X139436674Y-88489936D01*
X139838567Y-89044027D01*
X140391093Y-89620894D01*
X140481272Y-89704884D01*
X140830973Y-90016186D01*
X141190722Y-90318669D01*
X141495385Y-90557116D01*
X141535090Y-90586218D01*
X141782398Y-90761520D01*
X141970748Y-90885180D01*
X142062051Y-90932000D01*
X142158974Y-90874928D01*
X142329456Y-90696596D01*
X142548293Y-90423609D01*
X142796421Y-90083195D01*
X143054779Y-89702579D01*
X143304302Y-89308987D01*
X143525928Y-88929646D01*
X143700594Y-88591783D01*
X143810397Y-88348834D01*
X143898279Y-88106691D01*
X143947640Y-87866631D01*
X143969446Y-87571548D01*
X143974660Y-87164333D01*
X143965985Y-86783918D01*
X143911575Y-86329347D01*
X143792465Y-85963224D01*
X143591738Y-85639636D01*
X143292479Y-85312670D01*
X143215521Y-85239819D01*
X142839257Y-84946842D01*
X142440879Y-84758003D01*
X141974275Y-84656631D01*
X141393333Y-84626054D01*
X141177803Y-84626972D01*
X140842066Y-84639741D01*
X140595174Y-84675345D01*
X140383413Y-84743684D01*
X140153066Y-84854658D01*
X139966151Y-84962078D01*
X139530881Y-85317931D01*
X139231009Y-85759459D01*
X139059289Y-86299944D01*
X139008478Y-86952666D01*
X137044671Y-86952666D01*
X137038974Y-86656333D01*
X137039018Y-86591386D01*
X137043977Y-86127540D01*
X137060854Y-85785219D01*
X137094903Y-85521773D01*
X137151379Y-85294551D01*
X137235537Y-85060902D01*
X137401333Y-84709814D01*
X137816352Y-84107366D01*
X138351366Y-83576901D01*
X138976144Y-83146073D01*
X139660460Y-82842535D01*
X139978394Y-82766297D01*
X140471862Y-82702706D01*
X141042081Y-82669392D01*
X141640388Y-82666395D01*
X142218118Y-82693754D01*
X142726608Y-82751509D01*
X143117195Y-82839701D01*
X143344547Y-82922615D01*
X144029399Y-83272642D01*
X144660762Y-83740891D01*
X145200572Y-84295820D01*
X145610766Y-84905890D01*
X145720387Y-85120711D01*
X145933792Y-85628756D01*
X146062996Y-86127665D01*
X146119938Y-86674575D01*
X146117397Y-87164333D01*
X146116555Y-87326622D01*
X146104378Y-87585220D01*
X146072722Y-87980181D01*
X146020229Y-88297811D01*
X145935322Y-88598424D01*
X145806423Y-88942333D01*
X145630855Y-89350540D01*
X145319799Y-89957202D01*
X144934212Y-90581382D01*
X144447045Y-91269385D01*
X144344060Y-91407842D01*
X144134071Y-91690185D01*
X143966800Y-91915124D01*
X143871422Y-92043430D01*
X143862099Y-92056960D01*
X143843391Y-92129341D01*
X143888113Y-92219895D01*
X144015088Y-92348358D01*
X144243139Y-92534462D01*
X144591088Y-92797942D01*
X144797783Y-92955654D01*
X145371126Y-93428537D01*
X145929007Y-93936335D01*
X146446371Y-94453230D01*
X146898166Y-94953406D01*
X147259335Y-95411045D01*
X147504824Y-95800333D01*
X147514084Y-95818298D01*
X147679847Y-96161224D01*
X147824556Y-96496101D01*
X147917818Y-96752833D01*
X147950161Y-96854827D01*
X148023825Y-97039489D01*
X148077770Y-97112666D01*
X148114395Y-97078670D01*
X148245109Y-96931212D01*
X148455820Y-96683287D01*
X148732073Y-96352660D01*
X149059414Y-95957098D01*
X149423387Y-95514365D01*
X149809535Y-95042228D01*
X150203405Y-94558451D01*
X150590540Y-94080802D01*
X150956485Y-93627044D01*
X151286785Y-93214944D01*
X151566984Y-92862268D01*
X151782627Y-92586781D01*
X151919259Y-92406248D01*
X151962424Y-92338436D01*
X151944310Y-92325142D01*
X151820754Y-92231464D01*
X151609150Y-92069758D01*
X151341666Y-91864579D01*
X150874380Y-91495983D01*
X150058097Y-90789741D01*
X149390719Y-90112346D01*
X148863480Y-89450295D01*
X148467617Y-88790082D01*
X148194367Y-88118203D01*
X148034965Y-87421153D01*
X148008771Y-87066355D01*
X149980724Y-87066355D01*
X150092508Y-87700109D01*
X150346449Y-88347161D01*
X150463801Y-88548853D01*
X150778451Y-88967711D01*
X151202906Y-89431393D01*
X151713149Y-89914570D01*
X152285167Y-90391914D01*
X152497044Y-90555194D01*
X152760282Y-90749651D01*
X152954101Y-90882546D01*
X153047167Y-90931683D01*
X153061598Y-90928145D01*
X153176476Y-90833980D01*
X153357356Y-90632640D01*
X153582319Y-90352285D01*
X153829451Y-90021074D01*
X154076833Y-89667167D01*
X154302549Y-89318723D01*
X154550505Y-88875576D01*
X154844945Y-88153376D01*
X154994301Y-87459621D01*
X155000466Y-86806883D01*
X154865333Y-86207734D01*
X154590794Y-85674744D01*
X154178740Y-85220488D01*
X153631066Y-84857535D01*
X153282996Y-84719665D01*
X152711574Y-84607347D01*
X152108953Y-84598203D01*
X151539232Y-84697150D01*
X151335342Y-84766574D01*
X150830117Y-85046901D01*
X150435791Y-85436172D01*
X150158617Y-85915257D01*
X150004844Y-86465028D01*
X149980724Y-87066355D01*
X148008771Y-87066355D01*
X147980648Y-86685428D01*
X147981005Y-86578706D01*
X148063135Y-85734848D01*
X148285010Y-84978609D01*
X148644355Y-84315752D01*
X149138893Y-83752043D01*
X149240289Y-83661514D01*
X149765434Y-83261198D01*
X150312586Y-82969849D01*
X150915541Y-82775974D01*
X151608090Y-82668077D01*
X152424027Y-82634666D01*
X152725544Y-82636573D01*
X153129551Y-82651375D01*
X153451066Y-82686830D01*
X153744391Y-82749999D01*
X154063828Y-82847947D01*
X154439805Y-82992326D01*
X154827599Y-83171129D01*
X155137090Y-83343431D01*
X155570990Y-83672634D01*
X156008920Y-84095335D01*
X156390736Y-84551790D01*
X156667666Y-84989544D01*
X156791844Y-85264267D01*
X157010218Y-85980287D01*
X157123953Y-86756540D01*
X157124162Y-86806883D01*
X157127201Y-87537684D01*
X157014114Y-88268378D01*
X156995752Y-88337568D01*
X156812540Y-88862175D01*
X156540195Y-89463709D01*
X156200705Y-90100482D01*
X155816058Y-90730808D01*
X155408241Y-91313000D01*
X154767171Y-92159666D01*
X155041479Y-92371333D01*
X155319508Y-92587302D01*
X156113957Y-93224812D01*
X156779840Y-93795615D01*
X157331008Y-94313227D01*
X157781314Y-94791163D01*
X158144607Y-95242938D01*
X158434741Y-95682065D01*
X158761784Y-96341241D01*
X159033563Y-97215106D01*
X159154025Y-98125232D01*
X159141168Y-98500600D01*
X159122416Y-99048101D01*
X158937982Y-99960196D01*
G37*
G36*
X140924388Y-81858447D02*
G01*
X140684924Y-82145950D01*
X140454899Y-82251740D01*
X140123333Y-82292234D01*
X139742216Y-82231623D01*
X139442047Y-82041300D01*
X139255926Y-81730017D01*
X139196955Y-81337599D01*
X139446000Y-81337599D01*
X139449043Y-81447801D01*
X139505303Y-81712062D01*
X139653818Y-81918848D01*
X139826174Y-82047518D01*
X140123333Y-82126666D01*
X140286986Y-82107122D01*
X140557481Y-81961852D01*
X140736149Y-81696675D01*
X140800666Y-81337599D01*
X140784615Y-81118405D01*
X140668215Y-80790705D01*
X140445366Y-80587640D01*
X140123333Y-80518000D01*
X139942186Y-80537422D01*
X139671369Y-80678272D01*
X139503552Y-80947927D01*
X139446000Y-81337599D01*
X139196955Y-81337599D01*
X139192316Y-81306732D01*
X139247814Y-80950460D01*
X139426812Y-80624180D01*
X139701841Y-80400792D01*
X140044457Y-80302330D01*
X140426219Y-80350829D01*
X140725730Y-80525096D01*
X140937250Y-80805294D01*
X141044741Y-81147798D01*
X141043517Y-81337599D01*
X141042390Y-81512289D01*
X140924388Y-81858447D01*
G37*
G36*
X126279597Y-174203027D02*
G01*
X125884227Y-175130432D01*
X125324749Y-176082729D01*
X124602012Y-177057970D01*
X124571191Y-177095843D01*
X124386046Y-177326940D01*
X124255446Y-177496085D01*
X124206000Y-177568944D01*
X124224036Y-177587831D01*
X124348030Y-177686444D01*
X124563870Y-177847662D01*
X124841000Y-178048414D01*
X124990789Y-178156380D01*
X125239959Y-178340381D01*
X125411892Y-178473448D01*
X125476000Y-178532274D01*
X125475147Y-178533080D01*
X125378242Y-178540771D01*
X125135765Y-178547680D01*
X124769303Y-178553532D01*
X124300446Y-178558053D01*
X123750783Y-178560967D01*
X123141901Y-178562000D01*
X120807803Y-178562000D01*
X120978949Y-178321647D01*
X120983282Y-178315585D01*
X121140790Y-178117086D01*
X121281048Y-177972613D01*
X121354747Y-177901604D01*
X121412000Y-177807544D01*
X121408079Y-177799143D01*
X121316481Y-177706455D01*
X121121763Y-177535776D01*
X120848404Y-177308073D01*
X120520882Y-177044311D01*
X119879028Y-176509876D01*
X119087028Y-175754268D01*
X118455343Y-175016948D01*
X117979883Y-174292968D01*
X117656561Y-173577380D01*
X117547824Y-173144898D01*
X117475374Y-172608773D01*
X117463837Y-172401598D01*
X119459678Y-172401598D01*
X119494324Y-172844050D01*
X119574409Y-173205444D01*
X119615722Y-173318451D01*
X119936757Y-173952150D01*
X120411746Y-174586365D01*
X121045510Y-175226781D01*
X121842870Y-175879082D01*
X122006290Y-176000653D01*
X122260132Y-176185349D01*
X122441901Y-176312098D01*
X122520204Y-176358672D01*
X122528829Y-176355159D01*
X122620890Y-176263028D01*
X122781300Y-176068809D01*
X122987107Y-175803187D01*
X123215361Y-175496850D01*
X123443112Y-175180483D01*
X123647409Y-174884773D01*
X123805302Y-174640407D01*
X124152514Y-173954520D01*
X124369421Y-173262131D01*
X124454009Y-172586954D01*
X124405694Y-171950356D01*
X124223892Y-171373702D01*
X123908020Y-170878357D01*
X123785389Y-170751829D01*
X123446100Y-170484306D01*
X123051374Y-170252626D01*
X122789812Y-170130940D01*
X122510725Y-170034900D01*
X122223704Y-169991079D01*
X121848428Y-169981367D01*
X121431702Y-170009410D01*
X120821103Y-170161649D01*
X120298460Y-170436489D01*
X119882286Y-170823030D01*
X119591097Y-171310371D01*
X119524389Y-171536458D01*
X119469893Y-171943822D01*
X119459678Y-172401598D01*
X117463837Y-172401598D01*
X117443444Y-172035416D01*
X117455615Y-171489380D01*
X117515471Y-171035221D01*
X117702206Y-170443167D01*
X118063014Y-169780791D01*
X118553896Y-169199277D01*
X119157683Y-168714770D01*
X119857206Y-168343417D01*
X120635296Y-168101362D01*
X121265243Y-168002508D01*
X122184505Y-167983056D01*
X123067392Y-168111563D01*
X123895409Y-168383146D01*
X124650059Y-168792924D01*
X125312844Y-169336013D01*
X125570645Y-169610989D01*
X126024204Y-170234595D01*
X126336335Y-170910858D01*
X126516875Y-171664585D01*
X126575662Y-172520581D01*
X126570089Y-172586954D01*
X126510014Y-173302460D01*
X126279597Y-174203027D01*
G37*
G36*
X141961417Y-106688993D02*
G01*
X142162880Y-106719568D01*
X142240000Y-106764666D01*
X142186040Y-106802902D01*
X142002590Y-106836480D01*
X141732000Y-106849333D01*
X141502582Y-106840340D01*
X141301119Y-106809764D01*
X141224000Y-106764666D01*
X141277959Y-106726430D01*
X141461410Y-106692853D01*
X141732000Y-106680000D01*
X141961417Y-106688993D01*
G37*
G36*
X149504636Y-80403143D02*
G01*
X149701555Y-80593648D01*
X149775333Y-80859421D01*
X149756689Y-81022800D01*
X149666143Y-81166281D01*
X149470987Y-81273646D01*
X149139207Y-81370621D01*
X148924184Y-81428176D01*
X148671956Y-81527032D01*
X148542106Y-81642892D01*
X148505333Y-81795388D01*
X148580178Y-81965988D01*
X148788007Y-82083464D01*
X149096372Y-82126666D01*
X149156485Y-82124725D01*
X149353988Y-82060650D01*
X149504104Y-81873201D01*
X149636879Y-81695394D01*
X149755752Y-81620179D01*
X149826577Y-81655822D01*
X149816015Y-81809166D01*
X149744008Y-81960218D01*
X149589263Y-82147833D01*
X149376839Y-82253250D01*
X149055666Y-82296000D01*
X148738043Y-82250884D01*
X148457903Y-82088847D01*
X148299064Y-81820967D01*
X148286147Y-81690064D01*
X148385842Y-81474652D01*
X148630323Y-81296490D01*
X149004263Y-81169730D01*
X149238997Y-81104704D01*
X149493203Y-80976103D01*
X149591440Y-80823094D01*
X149527223Y-80652096D01*
X149511721Y-80635192D01*
X149318406Y-80537355D01*
X149062787Y-80515388D01*
X148817459Y-80566358D01*
X148655018Y-80687333D01*
X148629291Y-80723350D01*
X148506613Y-80827115D01*
X148388719Y-80863250D01*
X148336000Y-80808767D01*
X148379945Y-80665274D01*
X148548792Y-80481761D01*
X148799687Y-80349319D01*
X148887862Y-80324524D01*
X149221198Y-80307052D01*
X149504636Y-80403143D01*
G37*
G36*
X156929448Y-63969044D02*
G01*
X156909995Y-64042130D01*
X156726714Y-64565470D01*
X156454769Y-65165856D01*
X156116051Y-65801726D01*
X155732449Y-66431516D01*
X155325855Y-67013666D01*
X155301101Y-67046510D01*
X155061680Y-67367820D01*
X154866427Y-67636264D01*
X154734869Y-67824597D01*
X154686533Y-67905578D01*
X154689369Y-67913985D01*
X154777820Y-67993859D01*
X154951738Y-68107799D01*
X155124505Y-68219321D01*
X155472237Y-68473814D01*
X155882540Y-68799232D01*
X156320324Y-69165922D01*
X156750498Y-69544229D01*
X157137974Y-69904499D01*
X157447661Y-70217079D01*
X157726977Y-70530247D01*
X158180968Y-71124448D01*
X158532634Y-71730755D01*
X158816293Y-72404003D01*
X158828115Y-72436994D01*
X158921701Y-72721266D01*
X158983050Y-72979131D01*
X159018631Y-73259493D01*
X159034909Y-73611259D01*
X159037118Y-73914000D01*
X159038353Y-74083333D01*
X159037494Y-74307343D01*
X159029351Y-74708194D01*
X159006531Y-75011475D01*
X158961584Y-75266733D01*
X158887060Y-75523519D01*
X158775507Y-75831382D01*
X158514841Y-76424150D01*
X158010944Y-77238479D01*
X157373316Y-77952318D01*
X157065612Y-78226792D01*
X156243969Y-78816082D01*
X155356962Y-79253112D01*
X154389666Y-79545850D01*
X153852959Y-79627164D01*
X153205488Y-79664233D01*
X152526472Y-79654863D01*
X151880970Y-79600016D01*
X151334043Y-79500653D01*
X150444575Y-79209115D01*
X149529040Y-78749277D01*
X148678630Y-78139493D01*
X147882004Y-77372773D01*
X147341377Y-76780423D01*
X147157845Y-77077384D01*
X147071855Y-77195416D01*
X146866108Y-77433957D01*
X146595174Y-77719608D01*
X146294856Y-78013530D01*
X145698219Y-78513078D01*
X144871175Y-79024796D01*
X143975546Y-79386197D01*
X143002615Y-79600602D01*
X141943666Y-79671333D01*
X141267419Y-79645249D01*
X140331037Y-79504566D01*
X139464488Y-79233548D01*
X138645943Y-78822671D01*
X137853572Y-78262412D01*
X137065545Y-77543248D01*
X136336090Y-76805829D01*
X135728820Y-77556064D01*
X135685834Y-77608936D01*
X135186285Y-78182765D01*
X134725998Y-78626493D01*
X134278368Y-78963220D01*
X133816789Y-79216043D01*
X133629068Y-79298096D01*
X133415826Y-79369707D01*
X133195327Y-79405129D01*
X132913729Y-79411880D01*
X132517189Y-79397477D01*
X132325626Y-79386129D01*
X131955306Y-79351974D01*
X131650579Y-79308350D01*
X131463292Y-79261926D01*
X131227584Y-79165338D01*
X131251625Y-78261554D01*
X131275666Y-77357769D01*
X131928511Y-77376982D01*
X132167901Y-77381222D01*
X132458510Y-77369609D01*
X132714921Y-77325552D01*
X132958380Y-77235865D01*
X133210131Y-77087365D01*
X133491421Y-76866867D01*
X133823494Y-76561185D01*
X134227595Y-76157137D01*
X134724971Y-75641537D01*
X135015635Y-75337857D01*
X137668000Y-75337857D01*
X137690383Y-75392948D01*
X137816633Y-75554993D01*
X138029635Y-75781494D01*
X138301197Y-76046170D01*
X138603127Y-76322741D01*
X138907235Y-76584928D01*
X139185330Y-76806451D01*
X139409219Y-76961029D01*
X139658570Y-77097975D01*
X140070498Y-77292784D01*
X140457105Y-77445677D01*
X140739935Y-77521736D01*
X141253870Y-77600491D01*
X141816378Y-77634859D01*
X142357891Y-77621541D01*
X142808839Y-77557237D01*
X142854557Y-77545829D01*
X143406873Y-77333030D01*
X143969100Y-76995315D01*
X144500390Y-76565354D01*
X144959892Y-76075821D01*
X145306757Y-75559386D01*
X145400228Y-75346992D01*
X148585853Y-75346992D01*
X149201760Y-75972796D01*
X149589416Y-76345046D01*
X150171024Y-76809734D01*
X150764942Y-77160797D01*
X151413505Y-77426052D01*
X151456775Y-77440424D01*
X151886920Y-77559984D01*
X152303260Y-77620971D01*
X152795928Y-77637147D01*
X153171268Y-77621549D01*
X153973988Y-77477802D01*
X154696538Y-77185417D01*
X155335435Y-76746550D01*
X155887194Y-76163359D01*
X156348332Y-75438000D01*
X156423325Y-75289840D01*
X156501209Y-75105722D01*
X156550348Y-74917343D01*
X156577313Y-74683438D01*
X156588673Y-74362745D01*
X156591000Y-73914000D01*
X156589265Y-73471361D01*
X156578660Y-73151550D01*
X156551093Y-72911458D01*
X156498471Y-72706202D01*
X156412703Y-72490899D01*
X156285696Y-72220666D01*
X156285171Y-72219575D01*
X156074622Y-71831439D01*
X155816309Y-71424141D01*
X155566029Y-71085683D01*
X155385803Y-70886140D01*
X155117272Y-70618825D01*
X154804423Y-70327541D01*
X154474820Y-70036015D01*
X154156030Y-69767972D01*
X153875617Y-69547138D01*
X153661146Y-69397238D01*
X153540182Y-69342000D01*
X153480376Y-69370450D01*
X153334637Y-69501068D01*
X153159043Y-69701833D01*
X153139077Y-69726913D01*
X152997989Y-69902594D01*
X152766936Y-70189018D01*
X152459278Y-70569671D01*
X152088376Y-71028041D01*
X151667588Y-71547616D01*
X151210276Y-72111883D01*
X150729799Y-72704329D01*
X149966661Y-73644985D01*
X148585853Y-75346992D01*
X145400228Y-75346992D01*
X145418415Y-75305667D01*
X145544309Y-74913821D01*
X145630057Y-74521895D01*
X145639435Y-74458237D01*
X145669909Y-73644985D01*
X145532805Y-72850798D01*
X145229126Y-72079350D01*
X144759875Y-71334314D01*
X144627886Y-71168631D01*
X144345776Y-70851651D01*
X144021483Y-70521564D01*
X143677645Y-70197829D01*
X143336898Y-69899902D01*
X143021881Y-69647242D01*
X142755231Y-69459306D01*
X142559586Y-69355551D01*
X142457583Y-69355436D01*
X142263806Y-69592359D01*
X141746927Y-70226225D01*
X141218497Y-70876733D01*
X140689283Y-71530430D01*
X140170056Y-72173867D01*
X139671583Y-72793592D01*
X139204634Y-73376154D01*
X138779977Y-73908103D01*
X138408383Y-74375987D01*
X138100619Y-74766355D01*
X137867454Y-75065757D01*
X137719658Y-75260741D01*
X137668000Y-75337857D01*
X135015635Y-75337857D01*
X135295608Y-75045347D01*
X134926300Y-74077507D01*
X134512220Y-73035847D01*
X134108571Y-72116203D01*
X133727682Y-71353147D01*
X133366703Y-70741411D01*
X133022784Y-70275727D01*
X132693074Y-69950829D01*
X132686935Y-69945979D01*
X132276659Y-69671130D01*
X131876688Y-69491196D01*
X131532386Y-69426666D01*
X131318000Y-69426666D01*
X131318000Y-67394666D01*
X131560444Y-67394666D01*
X132082950Y-67436581D01*
X132793034Y-67632745D01*
X133460747Y-67980353D01*
X134071856Y-68469510D01*
X134612128Y-69090323D01*
X135067333Y-69832894D01*
X135133681Y-69966402D01*
X135320708Y-70364315D01*
X135538106Y-70849102D01*
X135763988Y-71371439D01*
X135976471Y-71882000D01*
X136108154Y-72203492D01*
X136276885Y-72607945D01*
X136418246Y-72938115D01*
X136520352Y-73166373D01*
X136571322Y-73265091D01*
X136577673Y-73263568D01*
X136664477Y-73179967D01*
X136840112Y-72986017D01*
X137090627Y-72698563D01*
X137402071Y-72334451D01*
X137760492Y-71910526D01*
X138151940Y-71443635D01*
X138562463Y-70950622D01*
X138978111Y-70448333D01*
X139384931Y-69953614D01*
X139768973Y-69483310D01*
X140116286Y-69054267D01*
X140412918Y-68683330D01*
X140644918Y-68387345D01*
X140798334Y-68183158D01*
X140859217Y-68087614D01*
X140824152Y-68037747D01*
X140678935Y-67902648D01*
X140446329Y-67708716D01*
X140153465Y-67479333D01*
X139344391Y-66820911D01*
X138554205Y-66063503D01*
X137922313Y-65309758D01*
X137443189Y-64552967D01*
X137111309Y-63786424D01*
X137012798Y-63476674D01*
X136949063Y-63210692D01*
X136917821Y-62944716D01*
X136912581Y-62622468D01*
X136914605Y-62560778D01*
X138926030Y-62560778D01*
X138926785Y-62639765D01*
X138985682Y-63255512D01*
X139152745Y-63802516D01*
X139448207Y-64350106D01*
X139454117Y-64359252D01*
X139703967Y-64686598D01*
X140057277Y-65072905D01*
X140478399Y-65483369D01*
X140931683Y-65883187D01*
X141381481Y-66237555D01*
X141446304Y-66284817D01*
X141697273Y-66461776D01*
X141886585Y-66585871D01*
X141977385Y-66632666D01*
X142039345Y-66598607D01*
X142189335Y-66447546D01*
X142393344Y-66201840D01*
X142630428Y-65890195D01*
X142879646Y-65541317D01*
X143120056Y-65183910D01*
X143330717Y-64846680D01*
X143490687Y-64558333D01*
X143754245Y-63920092D01*
X143910741Y-63220000D01*
X143920065Y-62556813D01*
X143785544Y-61944725D01*
X143510507Y-61397929D01*
X143098284Y-60930617D01*
X142552202Y-60556981D01*
X142431131Y-60495408D01*
X142215617Y-60406183D01*
X141992630Y-60354854D01*
X141708278Y-60331404D01*
X141308666Y-60325813D01*
X141100598Y-60326897D01*
X140761919Y-60339847D01*
X140513189Y-60375428D01*
X140300729Y-60443538D01*
X140070862Y-60554077D01*
X139887648Y-60658182D01*
X139449429Y-61003244D01*
X139150370Y-61422597D01*
X138979546Y-61935391D01*
X138926030Y-62560778D01*
X136914605Y-62560778D01*
X136926848Y-62187666D01*
X136928739Y-62146163D01*
X137020970Y-61330704D01*
X137219591Y-60633967D01*
X137535163Y-60035675D01*
X137978245Y-59515554D01*
X138559400Y-59053329D01*
X138715296Y-58951250D01*
X139114880Y-58724388D01*
X139511754Y-58563047D01*
X139948667Y-58455546D01*
X140468368Y-58390202D01*
X141113607Y-58355332D01*
X141238650Y-58351420D01*
X141693802Y-58342489D01*
X142038263Y-58349887D01*
X142319429Y-58377816D01*
X142584694Y-58430477D01*
X142881457Y-58512073D01*
X143530099Y-58759852D01*
X144259802Y-59198667D01*
X144919561Y-59789764D01*
X144932410Y-59803511D01*
X145429228Y-60445651D01*
X145777600Y-61150951D01*
X145982775Y-61933420D01*
X146030744Y-62556813D01*
X146050000Y-62807067D01*
X146025005Y-63344516D01*
X145912105Y-64024278D01*
X145699179Y-64702323D01*
X145376331Y-65403041D01*
X144933670Y-66150821D01*
X144361301Y-66970052D01*
X144258830Y-67108125D01*
X144049156Y-67390628D01*
X143882079Y-67615712D01*
X143786755Y-67744096D01*
X143777432Y-67757626D01*
X143758724Y-67830007D01*
X143803446Y-67920562D01*
X143930422Y-68049025D01*
X144158473Y-68235129D01*
X144506422Y-68498609D01*
X144713116Y-68656321D01*
X145286459Y-69129204D01*
X145844340Y-69637001D01*
X146361705Y-70153896D01*
X146813499Y-70654072D01*
X147174668Y-71111712D01*
X147420158Y-71501000D01*
X147429191Y-71518523D01*
X147595137Y-71861916D01*
X147740188Y-72197814D01*
X147833856Y-72455853D01*
X147868395Y-72561465D01*
X147946750Y-72736165D01*
X148008747Y-72794519D01*
X148041989Y-72763267D01*
X148169854Y-72619010D01*
X148378149Y-72373820D01*
X148652389Y-72045500D01*
X148978086Y-71651852D01*
X149340755Y-71210681D01*
X149725908Y-70739790D01*
X150119060Y-70256982D01*
X150505723Y-69780060D01*
X150871411Y-69326827D01*
X151201638Y-68915087D01*
X151481918Y-68562644D01*
X151697763Y-68287300D01*
X151834687Y-68106858D01*
X151878203Y-68039123D01*
X151579099Y-67827596D01*
X151010371Y-67386700D01*
X150436636Y-66898193D01*
X149887393Y-66389896D01*
X149392141Y-65889629D01*
X148980379Y-65425212D01*
X148681606Y-65024467D01*
X148401384Y-64534137D01*
X148080270Y-63727200D01*
X147906959Y-62896274D01*
X147902691Y-62745551D01*
X149889309Y-62745551D01*
X150001276Y-63385217D01*
X150262681Y-64049603D01*
X150262946Y-64050127D01*
X150488810Y-64405479D01*
X150828766Y-64821730D01*
X151254179Y-65268782D01*
X151736414Y-65716541D01*
X152246835Y-66134911D01*
X152419164Y-66264808D01*
X152680440Y-66454025D01*
X152873788Y-66584074D01*
X152966501Y-66632350D01*
X152976883Y-66630090D01*
X153084445Y-66542326D01*
X153259343Y-66348269D01*
X153478708Y-66077070D01*
X153719672Y-65757876D01*
X153959366Y-65419838D01*
X154174919Y-65092103D01*
X154191892Y-65064850D01*
X154590648Y-64310725D01*
X154837942Y-63585516D01*
X154933483Y-62897985D01*
X154876977Y-62256892D01*
X154668132Y-61670995D01*
X154306654Y-61149057D01*
X154244759Y-61082491D01*
X153748565Y-60682960D01*
X153161613Y-60423821D01*
X152478320Y-60302488D01*
X151826030Y-60322482D01*
X151239999Y-60477898D01*
X150746654Y-60754015D01*
X150355454Y-61134836D01*
X150075857Y-61604363D01*
X149917322Y-62146600D01*
X149889309Y-62745551D01*
X147902691Y-62745551D01*
X147883396Y-62064070D01*
X148011524Y-61253298D01*
X148293287Y-60486668D01*
X148623374Y-59929549D01*
X149132338Y-59358703D01*
X149754069Y-58912706D01*
X150486435Y-58592711D01*
X151327304Y-58399869D01*
X152274546Y-58335333D01*
X153084044Y-58377098D01*
X153906761Y-58532303D01*
X154634897Y-58809440D01*
X155287736Y-59216120D01*
X155884566Y-59759954D01*
X156076802Y-59980268D01*
X156538702Y-60676602D01*
X156860780Y-61447269D01*
X157037173Y-62268646D01*
X157055601Y-62897985D01*
X157062017Y-63117112D01*
X156929448Y-63969044D01*
G37*
G36*
X126482281Y-76339248D02*
G01*
X126424614Y-76517155D01*
X126020661Y-77477705D01*
X125456559Y-78456665D01*
X124737786Y-79444286D01*
X124643760Y-79562580D01*
X124460271Y-79802234D01*
X124339364Y-79973158D01*
X124303509Y-80044310D01*
X124308227Y-80047892D01*
X124406343Y-80121611D01*
X124608793Y-80273425D01*
X124889402Y-80483714D01*
X125222000Y-80732857D01*
X126062391Y-81404281D01*
X126900102Y-82190033D01*
X127574296Y-82972297D01*
X128087958Y-83754603D01*
X128444076Y-84540481D01*
X128567544Y-85019176D01*
X128648053Y-85615379D01*
X128678582Y-86257618D01*
X128671458Y-86459270D01*
X128656370Y-86886378D01*
X128578656Y-87442144D01*
X128448272Y-87929466D01*
X128096050Y-88758905D01*
X127604195Y-89521528D01*
X126987638Y-90204128D01*
X126261308Y-90793498D01*
X125440136Y-91276431D01*
X124539052Y-91639720D01*
X123572985Y-91870158D01*
X123306503Y-91898864D01*
X122831070Y-91913699D01*
X122290805Y-91901374D01*
X121744078Y-91864881D01*
X121249259Y-91807212D01*
X120864720Y-91731359D01*
X120060422Y-91457173D01*
X119205766Y-91020678D01*
X118395655Y-90439567D01*
X117610334Y-89701520D01*
X116984407Y-89042581D01*
X116814479Y-89288790D01*
X116733306Y-89392408D01*
X116536913Y-89614632D01*
X116276623Y-89890954D01*
X115986724Y-90184280D01*
X115747469Y-90413204D01*
X115377703Y-90724515D01*
X114998014Y-90977391D01*
X114539282Y-91221357D01*
X114353793Y-91309403D01*
X113931554Y-91492482D01*
X113524334Y-91649195D01*
X113199333Y-91752886D01*
X113158243Y-91763188D01*
X112695189Y-91841427D01*
X112127800Y-91887038D01*
X111510197Y-91900141D01*
X110896504Y-91880856D01*
X110340841Y-91829302D01*
X109897333Y-91745599D01*
X109108062Y-91473266D01*
X108188931Y-90998845D01*
X107320442Y-90373886D01*
X106517427Y-89607770D01*
X105984197Y-89027000D01*
X105676931Y-89408000D01*
X105552035Y-89556476D01*
X105302809Y-89837659D01*
X105003825Y-90163520D01*
X104695387Y-90489645D01*
X104456470Y-90729320D01*
X103989727Y-91133953D01*
X103550084Y-91413512D01*
X103105360Y-91586341D01*
X102623372Y-91670786D01*
X102543068Y-91676442D01*
X102186852Y-91674723D01*
X101798442Y-91640914D01*
X101428217Y-91582489D01*
X101126554Y-91506918D01*
X100943833Y-91421674D01*
X100926718Y-91401846D01*
X100876793Y-91236871D01*
X100847539Y-90921226D01*
X100838000Y-90446102D01*
X100838000Y-89557606D01*
X101372953Y-89614895D01*
X101651062Y-89639278D01*
X102000791Y-89640433D01*
X102304204Y-89586707D01*
X102592600Y-89463359D01*
X102897282Y-89255650D01*
X103249549Y-88948842D01*
X103680703Y-88528194D01*
X104008875Y-88201084D01*
X104346639Y-87860816D01*
X104586330Y-87595632D01*
X104652657Y-87499001D01*
X107288886Y-87499001D01*
X107309222Y-87572019D01*
X107432624Y-87748829D01*
X107643272Y-87988283D01*
X107914834Y-88264923D01*
X108220978Y-88553289D01*
X108535374Y-88827924D01*
X108831689Y-89063370D01*
X109083591Y-89234169D01*
X109331092Y-89369153D01*
X109712077Y-89550360D01*
X110051217Y-89685232D01*
X110365906Y-89770136D01*
X110893289Y-89852183D01*
X111453175Y-89884955D01*
X111981684Y-89865586D01*
X112414935Y-89791212D01*
X112702527Y-89699412D01*
X113433559Y-89356725D01*
X114059625Y-88897038D01*
X114570181Y-88336655D01*
X114954678Y-87691878D01*
X115010895Y-87530214D01*
X118279860Y-87530214D01*
X118329088Y-87620585D01*
X118477781Y-87805273D01*
X118702090Y-88053268D01*
X118977833Y-88336632D01*
X119287555Y-88628258D01*
X119993505Y-89170370D01*
X120717764Y-89555398D01*
X121474884Y-89791823D01*
X122314361Y-89898340D01*
X123120256Y-89848698D01*
X123871699Y-89638915D01*
X124567721Y-89269262D01*
X125207354Y-88740013D01*
X125418400Y-88509441D01*
X125838068Y-87887510D01*
X126130499Y-87192113D01*
X126282852Y-86459270D01*
X126282284Y-85725000D01*
X126156084Y-85042588D01*
X125927872Y-84399767D01*
X125585922Y-83781418D01*
X125118143Y-83169181D01*
X124512445Y-82544695D01*
X123756740Y-81889600D01*
X123651649Y-81805002D01*
X123402425Y-81614591D01*
X123240872Y-81517074D01*
X123137615Y-81497716D01*
X123063275Y-81541783D01*
X122986257Y-81626327D01*
X122803988Y-81839779D01*
X122546657Y-82149421D01*
X122227249Y-82538995D01*
X121858752Y-82992242D01*
X121454155Y-83492902D01*
X121026444Y-84024716D01*
X120588606Y-84571425D01*
X120153630Y-85116770D01*
X119734503Y-85644491D01*
X119344212Y-86138330D01*
X119284502Y-86214357D01*
X118995744Y-86582027D01*
X118702088Y-86959323D01*
X118476230Y-87253959D01*
X118331158Y-87449676D01*
X118279860Y-87530214D01*
X115010895Y-87530214D01*
X115202571Y-86979011D01*
X115303314Y-86214357D01*
X115246359Y-85414220D01*
X115240716Y-85381983D01*
X115059658Y-84695037D01*
X114762459Y-84044379D01*
X114336855Y-83411638D01*
X113770580Y-82778445D01*
X113051371Y-82126429D01*
X113023175Y-82102922D01*
X112713161Y-81848235D01*
X112452315Y-81640515D01*
X112267308Y-81500602D01*
X112184809Y-81449333D01*
X112172721Y-81457777D01*
X112072491Y-81565106D01*
X111884460Y-81783185D01*
X111621584Y-82096002D01*
X111296821Y-82487547D01*
X110923128Y-82941809D01*
X110513463Y-83442778D01*
X110080782Y-83974443D01*
X109638042Y-84520793D01*
X109198201Y-85065819D01*
X108774216Y-85593508D01*
X108379045Y-86087852D01*
X108025643Y-86532838D01*
X107726970Y-86912457D01*
X107495981Y-87210697D01*
X107345634Y-87411549D01*
X107288886Y-87499001D01*
X104652657Y-87499001D01*
X104736596Y-87376712D01*
X104806090Y-87175238D01*
X104803459Y-86962392D01*
X104737355Y-86709356D01*
X104616427Y-86387310D01*
X104449326Y-85967436D01*
X104084122Y-85062858D01*
X103712281Y-84215477D01*
X103362673Y-83509772D01*
X103026465Y-82933663D01*
X102694822Y-82475067D01*
X102358913Y-82121901D01*
X102009902Y-81862084D01*
X101638955Y-81683534D01*
X101237241Y-81574169D01*
X100922666Y-81515154D01*
X100922666Y-80565021D01*
X100925284Y-80227072D01*
X100933845Y-79899835D01*
X100946947Y-79670360D01*
X100963128Y-79574427D01*
X100966525Y-79572177D01*
X101080253Y-79562982D01*
X101311535Y-79572596D01*
X101614901Y-79599283D01*
X102125610Y-79689041D01*
X102725672Y-79910691D01*
X103284416Y-80266660D01*
X103833548Y-80773732D01*
X103920516Y-80867608D01*
X104158810Y-81147879D01*
X104378206Y-81449673D01*
X104591185Y-81796037D01*
X104810231Y-82210017D01*
X105047826Y-82714662D01*
X105316451Y-83333019D01*
X105628589Y-84088136D01*
X105788495Y-84480223D01*
X105952317Y-84879395D01*
X106084349Y-85198309D01*
X106174000Y-85411402D01*
X106210677Y-85493109D01*
X106219401Y-85486144D01*
X106311469Y-85382623D01*
X106494498Y-85166276D01*
X106757118Y-84850856D01*
X107087960Y-84450118D01*
X107475652Y-83977818D01*
X107908824Y-83447710D01*
X108376108Y-82873549D01*
X110521886Y-80231880D01*
X110194827Y-79972773D01*
X109602036Y-79492675D01*
X108822472Y-78818031D01*
X108180287Y-78200466D01*
X107666250Y-77630258D01*
X107271127Y-77097683D01*
X106985687Y-76593018D01*
X106742549Y-75978362D01*
X106555623Y-75173196D01*
X106541289Y-74936131D01*
X108555592Y-74936131D01*
X108644115Y-75526673D01*
X108822129Y-76059938D01*
X108959527Y-76311877D01*
X109286967Y-76762779D01*
X109730462Y-77256655D01*
X110269400Y-77771259D01*
X110883167Y-78284344D01*
X111096705Y-78450516D01*
X111349507Y-78643682D01*
X111527954Y-78775600D01*
X111602833Y-78824350D01*
X111619751Y-78813524D01*
X111721195Y-78704548D01*
X111887008Y-78504530D01*
X112091740Y-78245945D01*
X112309942Y-77961268D01*
X112516163Y-77682973D01*
X112684953Y-77443537D01*
X112843698Y-77189210D01*
X113046996Y-76826571D01*
X113227513Y-76469870D01*
X113228743Y-76467259D01*
X113350432Y-76195056D01*
X113428091Y-75967064D01*
X113471527Y-75729915D01*
X113490550Y-75430239D01*
X113494968Y-75014666D01*
X113477944Y-74478917D01*
X113414712Y-74062223D01*
X113289211Y-73726983D01*
X113085388Y-73430441D01*
X112787189Y-73129847D01*
X112609476Y-72976372D01*
X112279045Y-72746163D01*
X111925096Y-72591550D01*
X111474735Y-72476230D01*
X110884672Y-72420543D01*
X110292220Y-72493833D01*
X109746377Y-72687318D01*
X109274394Y-72987642D01*
X108903523Y-73381447D01*
X108661017Y-73855376D01*
X108561271Y-74352760D01*
X108555592Y-74936131D01*
X106541289Y-74936131D01*
X106507156Y-74371627D01*
X106594186Y-73596074D01*
X106813752Y-72868955D01*
X107162892Y-72212689D01*
X107638646Y-71649693D01*
X108151720Y-71239555D01*
X108874535Y-70845899D01*
X109674815Y-70580841D01*
X110528825Y-70449670D01*
X111412831Y-70457676D01*
X112303099Y-70610149D01*
X112535875Y-70674155D01*
X113194872Y-70921744D01*
X113777653Y-71262629D01*
X114346893Y-71731186D01*
X114477004Y-71858345D01*
X114981426Y-72490519D01*
X115361346Y-73213711D01*
X115607076Y-73999018D01*
X115708927Y-74817534D01*
X115696537Y-75014666D01*
X115657211Y-75640355D01*
X115647016Y-75700488D01*
X115456424Y-76434232D01*
X115142933Y-77222886D01*
X114724133Y-78032126D01*
X114217611Y-78827626D01*
X113640957Y-79575064D01*
X113445607Y-79812639D01*
X113346648Y-79963010D01*
X113334970Y-80051234D01*
X113396291Y-80108443D01*
X113468044Y-80152558D01*
X113705182Y-80319626D01*
X114023685Y-80561076D01*
X114391803Y-80851292D01*
X114777786Y-81164658D01*
X115149882Y-81475559D01*
X115476343Y-81758381D01*
X115725416Y-81987509D01*
X115832127Y-82092995D01*
X116385483Y-82710324D01*
X116859235Y-83359183D01*
X117229483Y-84003717D01*
X117472327Y-84608074D01*
X117493233Y-84674779D01*
X117564942Y-84863085D01*
X117618186Y-84946741D01*
X117676855Y-84891605D01*
X117830419Y-84718961D01*
X118066258Y-84443169D01*
X118372119Y-84078828D01*
X118735748Y-83640538D01*
X119144892Y-83142900D01*
X119587298Y-82600514D01*
X119622279Y-82557456D01*
X120135360Y-81923377D01*
X120548442Y-81406875D01*
X120869900Y-80996550D01*
X121108111Y-80681001D01*
X121271449Y-80448825D01*
X121368291Y-80288623D01*
X121407013Y-80188993D01*
X121395990Y-80138534D01*
X121381955Y-80126275D01*
X121250242Y-80016010D01*
X121021466Y-79827586D01*
X120723517Y-79583901D01*
X120384281Y-79307855D01*
X119620563Y-78653013D01*
X118964744Y-78003378D01*
X118447101Y-77374524D01*
X118056527Y-76748512D01*
X117781914Y-76107402D01*
X117612154Y-75433257D01*
X117552253Y-74861854D01*
X119561538Y-74861854D01*
X119635081Y-75461479D01*
X119837537Y-76077677D01*
X120179990Y-76660166D01*
X120676187Y-77238253D01*
X120775849Y-77336721D01*
X121124164Y-77657887D01*
X121518937Y-77997314D01*
X121892519Y-78296163D01*
X122584705Y-78822663D01*
X122935498Y-78424141D01*
X123110337Y-78219801D01*
X123688577Y-77437582D01*
X124121403Y-76660741D01*
X124402687Y-75901799D01*
X124526300Y-75173278D01*
X124520993Y-74570237D01*
X124413156Y-74060781D01*
X124187792Y-73613977D01*
X123830522Y-73188811D01*
X123485690Y-72890151D01*
X123015582Y-72626127D01*
X122477994Y-72481462D01*
X121835333Y-72442089D01*
X121648890Y-72448725D01*
X121060560Y-72545472D01*
X120559450Y-72766781D01*
X120111310Y-73126245D01*
X119840024Y-73454372D01*
X119658703Y-73834206D01*
X119570050Y-74290182D01*
X119561538Y-74861854D01*
X117552253Y-74861854D01*
X117536138Y-74708136D01*
X117534877Y-74173491D01*
X117631119Y-73411080D01*
X117854873Y-72739571D01*
X118213928Y-72138360D01*
X118716073Y-71586842D01*
X118774402Y-71533801D01*
X119430011Y-71054145D01*
X120168967Y-70714433D01*
X120998945Y-70511935D01*
X121927623Y-70443918D01*
X122340790Y-70459872D01*
X123084588Y-70563935D01*
X123791928Y-70752801D01*
X124401225Y-71012316D01*
X124423095Y-71024278D01*
X124794741Y-71275407D01*
X125200796Y-71621270D01*
X125596079Y-72016876D01*
X125935409Y-72417229D01*
X126173605Y-72777338D01*
X126397517Y-73297510D01*
X126586815Y-74038790D01*
X126666930Y-74826170D01*
X126652133Y-75173278D01*
X126633530Y-75609655D01*
X126482281Y-76339248D01*
G37*
G36*
X143327562Y-104560241D02*
G01*
X143520188Y-104709425D01*
X143594666Y-104915122D01*
X143590959Y-104969842D01*
X143534174Y-105064044D01*
X143438104Y-105024559D01*
X143340666Y-104859666D01*
X143338663Y-104854456D01*
X143222327Y-104693244D01*
X143014462Y-104648000D01*
X142827665Y-104673038D01*
X142650470Y-104784879D01*
X142602032Y-104948851D01*
X142688877Y-105123321D01*
X142917526Y-105266656D01*
X143009164Y-105305023D01*
X143149035Y-105398549D01*
X143139713Y-105467679D01*
X142976600Y-105494666D01*
X142842061Y-105511986D01*
X142648867Y-105641197D01*
X142578666Y-105875666D01*
X142630522Y-106069630D01*
X142787367Y-106215925D01*
X142996565Y-106268424D01*
X143204129Y-106215369D01*
X143356072Y-106045000D01*
X143448755Y-105902390D01*
X143557997Y-105833333D01*
X143625089Y-105875733D01*
X143617626Y-106002029D01*
X143535225Y-106161372D01*
X143395942Y-106301590D01*
X143167038Y-106405999D01*
X142898059Y-106414607D01*
X142653398Y-106325823D01*
X142461575Y-106164825D01*
X142351110Y-105956792D01*
X142350523Y-105726901D01*
X142488335Y-105500331D01*
X142551804Y-105432928D01*
X142601372Y-105327814D01*
X142530668Y-105235964D01*
X142462469Y-105150629D01*
X142410293Y-104937068D01*
X142448818Y-104716293D01*
X142573100Y-104566312D01*
X142772717Y-104494532D01*
X143063001Y-104483351D01*
X143327562Y-104560241D01*
G37*
G36*
X143710501Y-82279973D02*
G01*
X143429665Y-82256169D01*
X143213030Y-82210029D01*
X143057834Y-82122834D01*
X142906168Y-81972440D01*
X142878099Y-81940268D01*
X142711209Y-81671602D01*
X142663333Y-81367314D01*
X142667982Y-81269226D01*
X142917333Y-81269226D01*
X142920180Y-81416158D01*
X142960179Y-81690107D01*
X143066201Y-81868764D01*
X143262055Y-82002798D01*
X143488922Y-82085643D01*
X143759795Y-82126666D01*
X144018000Y-82126666D01*
X144018000Y-80518000D01*
X143675485Y-80518000D01*
X143496057Y-80533445D01*
X143185372Y-80664173D01*
X142987050Y-80914798D01*
X142917333Y-81269226D01*
X142667982Y-81269226D01*
X142672247Y-81179239D01*
X142771714Y-80805138D01*
X142987854Y-80546776D01*
X143328661Y-80397002D01*
X143802129Y-80348666D01*
X144272000Y-80348666D01*
X144272000Y-82315726D01*
X143710501Y-82279973D01*
G37*
G36*
X137063171Y-81982808D02*
G01*
X137041235Y-82174378D01*
X137004102Y-82269988D01*
X136948333Y-82296000D01*
X136898333Y-82283138D01*
X136838908Y-82172969D01*
X136821333Y-81925772D01*
X136821333Y-81555544D01*
X136383787Y-81513501D01*
X136179736Y-81483893D01*
X135909063Y-81377558D01*
X135763857Y-81186178D01*
X135737062Y-81000957D01*
X135914319Y-81000957D01*
X136059333Y-81195333D01*
X136223480Y-81303672D01*
X136525000Y-81364666D01*
X136821333Y-81364666D01*
X136821333Y-80518000D01*
X136495789Y-80518000D01*
X136248049Y-80549302D01*
X136030122Y-80672833D01*
X135920362Y-80827614D01*
X135914319Y-81000957D01*
X135737062Y-81000957D01*
X135720666Y-80887618D01*
X135751482Y-80684991D01*
X135895669Y-80492759D01*
X136169576Y-80383343D01*
X136586172Y-80348666D01*
X137075333Y-80348666D01*
X137075333Y-81322333D01*
X137075090Y-81364666D01*
X137073347Y-81668916D01*
X137063171Y-81982808D01*
G37*
G36*
X148870670Y-106094674D02*
G01*
X148697005Y-106320166D01*
X148637298Y-106357833D01*
X148371684Y-106423813D01*
X148087627Y-106386278D01*
X147865996Y-106251874D01*
X147864443Y-106250144D01*
X147751257Y-106028177D01*
X147682574Y-105705957D01*
X147669439Y-105475978D01*
X147912666Y-105475978D01*
X147923147Y-105751639D01*
X147970939Y-105976490D01*
X148067500Y-106116544D01*
X148242133Y-106228081D01*
X148444632Y-106231819D01*
X148608899Y-106093628D01*
X148719083Y-105828727D01*
X148759333Y-105452333D01*
X148752640Y-105288839D01*
X148675395Y-104943069D01*
X148518817Y-104724330D01*
X148291844Y-104648000D01*
X148153208Y-104673624D01*
X148014339Y-104806576D01*
X147936776Y-105068312D01*
X147912666Y-105475978D01*
X147669439Y-105475978D01*
X147662064Y-105346846D01*
X147693397Y-105014204D01*
X147780242Y-104771395D01*
X147872599Y-104653703D01*
X148129965Y-104478991D01*
X148410632Y-104447637D01*
X148674702Y-104558264D01*
X148882278Y-104809491D01*
X148962380Y-105022970D01*
X149010156Y-105390640D01*
X149004764Y-105452333D01*
X148977320Y-105766353D01*
X148870670Y-106094674D01*
G37*
G36*
X140651936Y-104466859D02*
G01*
X140892719Y-104608156D01*
X141044121Y-104823474D01*
X141075992Y-104965254D01*
X141043730Y-105072891D01*
X140952370Y-105048533D01*
X140841910Y-104880833D01*
X140819213Y-104835466D01*
X140692194Y-104721807D01*
X140462000Y-104690333D01*
X140267817Y-104704150D01*
X140174349Y-104778631D01*
X140139456Y-104961205D01*
X140137832Y-104978788D01*
X140144666Y-105155271D01*
X140230793Y-105275187D01*
X140435789Y-105396696D01*
X140749415Y-105589511D01*
X140986690Y-105843557D01*
X141106578Y-106156388D01*
X141160500Y-106426000D01*
X140514916Y-106426000D01*
X140477574Y-106425880D01*
X140162304Y-106413475D01*
X139948236Y-106383808D01*
X139869333Y-106341333D01*
X139923293Y-106303097D01*
X140106743Y-106269519D01*
X140377333Y-106256666D01*
X140415170Y-106256569D01*
X140696625Y-106244037D01*
X140843220Y-106205301D01*
X140885333Y-106132964D01*
X140850620Y-106034901D01*
X140729810Y-105871203D01*
X140577568Y-105726390D01*
X140452531Y-105664000D01*
X140434157Y-105659305D01*
X140308960Y-105583623D01*
X140129829Y-105444807D01*
X140062554Y-105382587D01*
X139896066Y-105119265D01*
X139886049Y-104854688D01*
X140026509Y-104621607D01*
X140311448Y-104452775D01*
X140390065Y-104434138D01*
X140651936Y-104466859D01*
G37*
G36*
X145920559Y-80350180D02*
G01*
X145979602Y-80376816D01*
X146017401Y-80458877D01*
X146038623Y-80624836D01*
X146047933Y-80903164D01*
X146050000Y-81322333D01*
X146048338Y-81637870D01*
X146038572Y-81964581D01*
X146017148Y-82165938D01*
X145980779Y-82267793D01*
X145926177Y-82296000D01*
X145865423Y-82262575D01*
X145823050Y-82141276D01*
X145795653Y-81904956D01*
X145778010Y-81526490D01*
X145753666Y-80756981D01*
X145259356Y-81526490D01*
X145155566Y-81685375D01*
X144910683Y-82029632D01*
X144728699Y-82230663D01*
X144603189Y-82296000D01*
X144570363Y-82294312D01*
X144511269Y-82267417D01*
X144473560Y-82185294D01*
X144452495Y-82019420D01*
X144443333Y-81741273D01*
X144441333Y-81322333D01*
X144443319Y-80975750D01*
X144453495Y-80661858D01*
X144475431Y-80470288D01*
X144512564Y-80374678D01*
X144568333Y-80348666D01*
X144590436Y-80351325D01*
X144642843Y-80401189D01*
X144674900Y-80535786D01*
X144690949Y-80783263D01*
X144695333Y-81171767D01*
X144695333Y-81994868D01*
X145213079Y-81171767D01*
X145353750Y-80952778D01*
X145593051Y-80612047D01*
X145769834Y-80413233D01*
X145890412Y-80348666D01*
X145920559Y-80350180D01*
G37*
G36*
X145781531Y-104534779D02*
G01*
X145975006Y-104695734D01*
X146050000Y-104915122D01*
X146049108Y-104946082D01*
X146006356Y-105059760D01*
X145918378Y-105028922D01*
X145811405Y-104859666D01*
X145736801Y-104750347D01*
X145558698Y-104654166D01*
X145357418Y-104658307D01*
X145180164Y-104746481D01*
X145074142Y-104902401D01*
X145086556Y-105109777D01*
X145126217Y-105168510D01*
X145285518Y-105311733D01*
X145511519Y-105463755D01*
X145587895Y-105509831D01*
X145863476Y-105719935D01*
X146008083Y-105939869D01*
X146050000Y-106208767D01*
X146048864Y-106270364D01*
X146025748Y-106358754D01*
X145944068Y-106405134D01*
X145766904Y-106423039D01*
X145457333Y-106426000D01*
X145456758Y-106425999D01*
X145152862Y-106414776D01*
X144942976Y-106384765D01*
X144864666Y-106341333D01*
X144904563Y-106306964D01*
X145071883Y-106270727D01*
X145325336Y-106256666D01*
X145510207Y-106249437D01*
X145732178Y-106216761D01*
X145841630Y-106166664D01*
X145850530Y-106085981D01*
X145754101Y-105924871D01*
X145550545Y-105742805D01*
X145268188Y-105569294D01*
X145264034Y-105567160D01*
X145015152Y-105370226D01*
X144882442Y-105123240D01*
X144868290Y-104867075D01*
X144975083Y-104642603D01*
X145205208Y-104490699D01*
X145228190Y-104483146D01*
X145516839Y-104456002D01*
X145781531Y-104534779D01*
G37*
G36*
X126573517Y-149049975D02*
G01*
X126332206Y-149922054D01*
X125934428Y-150818377D01*
X125377635Y-151744768D01*
X124659278Y-152707052D01*
X124637852Y-152733450D01*
X124459533Y-152961458D01*
X124340295Y-153128865D01*
X124304962Y-153201065D01*
X124309493Y-153204719D01*
X124406915Y-153278786D01*
X124608922Y-153430700D01*
X124889341Y-153640811D01*
X125222000Y-153889473D01*
X125506226Y-154107627D01*
X126105821Y-154605628D01*
X126669233Y-155122428D01*
X127169416Y-155631203D01*
X127579323Y-156105131D01*
X127871905Y-156517390D01*
X128033075Y-156805163D01*
X128242661Y-157226106D01*
X128413632Y-157618057D01*
X128470705Y-157767527D01*
X128547750Y-158002856D01*
X128598024Y-158234886D01*
X128627352Y-158506764D01*
X128641561Y-158861641D01*
X128642427Y-158946397D01*
X128646476Y-159342666D01*
X128646733Y-159425710D01*
X128643140Y-159903286D01*
X128626526Y-160264490D01*
X128591680Y-160555348D01*
X128533394Y-160821890D01*
X128446460Y-161110143D01*
X128213331Y-161693920D01*
X127751968Y-162483326D01*
X127159315Y-163195049D01*
X126452831Y-163814494D01*
X125649977Y-164327066D01*
X124768213Y-164718170D01*
X123825000Y-164973211D01*
X123215083Y-165060460D01*
X122155625Y-165081234D01*
X121116181Y-164936050D01*
X120108992Y-164627046D01*
X119146294Y-164156357D01*
X119122190Y-164141798D01*
X118865282Y-163960255D01*
X118535562Y-163694249D01*
X118172927Y-163377218D01*
X117817277Y-163042598D01*
X116971090Y-162212862D01*
X116802084Y-162449931D01*
X116789783Y-162466831D01*
X116636942Y-162656134D01*
X116415146Y-162910379D01*
X116167932Y-163179479D01*
X115820606Y-163518288D01*
X115033792Y-164114738D01*
X114159790Y-164573781D01*
X113213867Y-164889651D01*
X112211292Y-165056577D01*
X111167333Y-165068792D01*
X110927516Y-165050136D01*
X109930604Y-164887944D01*
X109010489Y-164588876D01*
X108150932Y-164144922D01*
X107335695Y-163548071D01*
X106548539Y-162790312D01*
X105985304Y-162181966D01*
X105817565Y-162392149D01*
X105246128Y-163085374D01*
X104737232Y-163646847D01*
X104275908Y-164084317D01*
X103844076Y-164409431D01*
X103423660Y-164633837D01*
X102996580Y-164769180D01*
X102544758Y-164827107D01*
X102050116Y-164819266D01*
X101965659Y-164812655D01*
X101609040Y-164771419D01*
X101305038Y-164716732D01*
X101111947Y-164658579D01*
X101049388Y-164627387D01*
X100967329Y-164567598D01*
X100915538Y-164473538D01*
X100885478Y-164311454D01*
X100868611Y-164047590D01*
X100856400Y-163648192D01*
X100832467Y-162748630D01*
X101576067Y-162760148D01*
X101601451Y-162760509D01*
X101966558Y-162754322D01*
X102280114Y-162715992D01*
X102564664Y-162631275D01*
X102842757Y-162485933D01*
X103136938Y-162265724D01*
X103469755Y-161956407D01*
X103863755Y-161543742D01*
X104341484Y-161013488D01*
X104659227Y-160655546D01*
X107288705Y-160655546D01*
X107331101Y-160751584D01*
X107473124Y-160940034D01*
X107692405Y-161191275D01*
X107966039Y-161477512D01*
X108328993Y-161819641D01*
X109017149Y-162342861D01*
X109723951Y-162713912D01*
X110468218Y-162943823D01*
X111306373Y-163053225D01*
X112107078Y-163009907D01*
X112850255Y-162808015D01*
X113539095Y-162446671D01*
X114176785Y-161925000D01*
X114319181Y-161778555D01*
X114797209Y-161147379D01*
X115012333Y-160682214D01*
X118279974Y-160682214D01*
X118329163Y-160772589D01*
X118477820Y-160957277D01*
X118702102Y-161205271D01*
X118977833Y-161488632D01*
X119235554Y-161733634D01*
X119938321Y-162286362D01*
X120660790Y-162684246D01*
X121420730Y-162937830D01*
X121436863Y-162941603D01*
X122254049Y-163054796D01*
X123027540Y-163016196D01*
X123745957Y-162839999D01*
X124397921Y-162540401D01*
X124972054Y-162131599D01*
X125456975Y-161627789D01*
X125841305Y-161043168D01*
X126113666Y-160391931D01*
X126262678Y-159688275D01*
X126276961Y-158946397D01*
X126145136Y-158180493D01*
X125855825Y-157404760D01*
X125623893Y-157007252D01*
X125256557Y-156516923D01*
X124797612Y-155999030D01*
X124274955Y-155484858D01*
X123716485Y-155005690D01*
X123675276Y-154972991D01*
X123414551Y-154774779D01*
X123246133Y-154672137D01*
X123139264Y-154650440D01*
X123063189Y-154695067D01*
X122987874Y-154777999D01*
X122805356Y-154991849D01*
X122547804Y-155301812D01*
X122228206Y-155691635D01*
X121859546Y-156145063D01*
X121454809Y-156645843D01*
X121026980Y-157177722D01*
X120589046Y-157724445D01*
X120153990Y-158269760D01*
X119734799Y-158797413D01*
X119659226Y-158893004D01*
X119344457Y-159291149D01*
X118995950Y-159734716D01*
X118702263Y-160111859D01*
X118476381Y-160406326D01*
X118331290Y-160601862D01*
X118279974Y-160682214D01*
X115012333Y-160682214D01*
X115117243Y-160455365D01*
X115278902Y-159703558D01*
X115281805Y-158893004D01*
X115217423Y-158444909D01*
X115002714Y-157718765D01*
X114648402Y-157019095D01*
X114147268Y-156335034D01*
X113492094Y-155655715D01*
X112675660Y-154970273D01*
X112157933Y-154571891D01*
X111992055Y-154777112D01*
X111961380Y-154814996D01*
X111825410Y-154982694D01*
X111600765Y-155259628D01*
X111299535Y-155630898D01*
X110933812Y-156081603D01*
X110515686Y-156596842D01*
X110057248Y-157161716D01*
X109570588Y-157761323D01*
X109312294Y-158080097D01*
X108847715Y-158656307D01*
X108422926Y-159186818D01*
X108049151Y-159657391D01*
X107737616Y-160053788D01*
X107499546Y-160361771D01*
X107346168Y-160567103D01*
X107288705Y-160655546D01*
X104659227Y-160655546D01*
X104923968Y-160357311D01*
X104646723Y-159617155D01*
X104277994Y-158665054D01*
X103882409Y-157729364D01*
X103505488Y-156940941D01*
X103140165Y-156289659D01*
X102779372Y-155765391D01*
X102416043Y-155358012D01*
X102043110Y-155057395D01*
X101653507Y-154853414D01*
X101240166Y-154735944D01*
X100922666Y-154678326D01*
X100922666Y-152716398D01*
X101555114Y-152756986D01*
X102115223Y-152837986D01*
X102709043Y-153049486D01*
X103266162Y-153400637D01*
X103814668Y-153905718D01*
X104031485Y-154148860D01*
X104280621Y-154471803D01*
X104519416Y-154839825D01*
X104760492Y-155276090D01*
X105016468Y-155803765D01*
X105299965Y-156446013D01*
X105623604Y-157226000D01*
X105788439Y-157630628D01*
X105952595Y-158030891D01*
X106084915Y-158350566D01*
X106174853Y-158564189D01*
X106211860Y-158646292D01*
X106220691Y-158639414D01*
X106313026Y-158536113D01*
X106496291Y-158319963D01*
X106759113Y-158004712D01*
X107090116Y-157604110D01*
X107477923Y-157131903D01*
X107911161Y-156601842D01*
X108378454Y-156027674D01*
X110524213Y-153385763D01*
X110194448Y-153125715D01*
X109803689Y-152813473D01*
X109017779Y-152152050D01*
X108364333Y-151545739D01*
X107830701Y-150979146D01*
X107404236Y-150436880D01*
X107072287Y-149903549D01*
X106822205Y-149363760D01*
X106641342Y-148802121D01*
X106560814Y-148396654D01*
X106541656Y-148086969D01*
X108560408Y-148086969D01*
X108642122Y-148650999D01*
X108834805Y-149208537D01*
X109147818Y-149754026D01*
X109591654Y-150302545D01*
X110176807Y-150869176D01*
X110913773Y-151469001D01*
X111102146Y-151611580D01*
X111354609Y-151799666D01*
X111532851Y-151928586D01*
X111606835Y-151976350D01*
X111627026Y-151961898D01*
X111731666Y-151846356D01*
X111898966Y-151642452D01*
X112103313Y-151382980D01*
X112319093Y-151100735D01*
X112520693Y-150828511D01*
X112682500Y-150599102D01*
X112892621Y-150266025D01*
X113248994Y-149541662D01*
X113470116Y-148825150D01*
X113552891Y-148135258D01*
X113494222Y-147490756D01*
X113291014Y-146910414D01*
X113097421Y-146617837D01*
X112746081Y-146255863D01*
X112328683Y-145948045D01*
X111901437Y-145741659D01*
X111466601Y-145636975D01*
X110895011Y-145595412D01*
X110335879Y-145645759D01*
X109855000Y-145786573D01*
X109422729Y-146022457D01*
X109006554Y-146393359D01*
X108727370Y-146855283D01*
X108580286Y-147416921D01*
X108560408Y-148086969D01*
X106541656Y-148086969D01*
X106516000Y-147672253D01*
X106576974Y-146930698D01*
X106737797Y-146225938D01*
X106992532Y-145611918D01*
X107352705Y-145087969D01*
X107881828Y-144580378D01*
X108523575Y-144166694D01*
X109256825Y-143857769D01*
X110060452Y-143664456D01*
X110913333Y-143597606D01*
X111054322Y-143599124D01*
X111996188Y-143694708D01*
X112857619Y-143938668D01*
X113637461Y-144330575D01*
X114334559Y-144869999D01*
X114476659Y-145009347D01*
X114993057Y-145656692D01*
X115372100Y-146385515D01*
X115609261Y-147175697D01*
X115700014Y-148007119D01*
X115690969Y-148135258D01*
X115639833Y-148859660D01*
X115424190Y-149713202D01*
X115357913Y-149892667D01*
X115061702Y-150553734D01*
X114676670Y-151259803D01*
X114232489Y-151959415D01*
X113758834Y-152601114D01*
X113291160Y-153183228D01*
X114122776Y-153803433D01*
X114292437Y-153931128D01*
X115142859Y-154615973D01*
X115849750Y-155274082D01*
X116428729Y-155924663D01*
X116895418Y-156586925D01*
X117265436Y-157280076D01*
X117554403Y-158023324D01*
X117600973Y-158108231D01*
X117678612Y-158107991D01*
X117733610Y-158042265D01*
X117885410Y-157857375D01*
X118120130Y-157570077D01*
X118425157Y-157195850D01*
X118787875Y-156750170D01*
X119195670Y-156248517D01*
X119635929Y-155706367D01*
X121522186Y-153382401D01*
X121237333Y-153166367D01*
X120497372Y-152583455D01*
X119675924Y-151866057D01*
X119000081Y-151181161D01*
X118460826Y-150518545D01*
X118049143Y-149867984D01*
X117756014Y-149219255D01*
X117630027Y-148746420D01*
X117550371Y-148168626D01*
X117545250Y-148049812D01*
X119560951Y-148049812D01*
X119631883Y-148597992D01*
X119821414Y-149177873D01*
X120136884Y-149743099D01*
X120587886Y-150307570D01*
X121184013Y-150885186D01*
X121934855Y-151489847D01*
X122105280Y-151616732D01*
X122357941Y-151801504D01*
X122537176Y-151928165D01*
X122612188Y-151974672D01*
X122624441Y-151968150D01*
X122720473Y-151866504D01*
X122883090Y-151665680D01*
X123089294Y-151396608D01*
X123316083Y-151090216D01*
X123540459Y-150777433D01*
X123739421Y-150489187D01*
X123889968Y-150256407D01*
X123898738Y-150241964D01*
X124247401Y-149547279D01*
X124461410Y-148851648D01*
X124540377Y-148175276D01*
X124483912Y-147538364D01*
X124291624Y-146961115D01*
X123963125Y-146463733D01*
X123862765Y-146356392D01*
X123377175Y-145975447D01*
X122821982Y-145721395D01*
X122226711Y-145594886D01*
X121620889Y-145596569D01*
X121034040Y-145727094D01*
X120495691Y-145987112D01*
X120035367Y-146377271D01*
X119791471Y-146702603D01*
X119636239Y-147064403D01*
X119563472Y-147499110D01*
X119560951Y-148049812D01*
X117545250Y-148049812D01*
X117524172Y-147560782D01*
X117554048Y-146985519D01*
X117642615Y-146505469D01*
X117868211Y-145901639D01*
X118271855Y-145225928D01*
X118797481Y-144657844D01*
X119435099Y-144204178D01*
X120174719Y-143871722D01*
X121006349Y-143667267D01*
X121920000Y-143597606D01*
X122198364Y-143603568D01*
X123121646Y-143718960D01*
X123961492Y-143981566D01*
X124718488Y-144391614D01*
X125393225Y-144949333D01*
X125759354Y-145349090D01*
X126173012Y-145947253D01*
X126452765Y-146589411D01*
X126611307Y-147307436D01*
X126661333Y-148133203D01*
X126661052Y-148175276D01*
X126660912Y-148196317D01*
X126573517Y-149049975D01*
G37*
G36*
X128576472Y-135492344D02*
G01*
X128488171Y-136180190D01*
X128335242Y-136780895D01*
X128151688Y-137241747D01*
X127694118Y-138054491D01*
X127104218Y-138782929D01*
X126397938Y-139413840D01*
X125591230Y-139934005D01*
X124700045Y-140330202D01*
X123740333Y-140589211D01*
X123621958Y-140610233D01*
X122713435Y-140697186D01*
X121784622Y-140666325D01*
X120886720Y-140522118D01*
X120070929Y-140269032D01*
X119789164Y-140149320D01*
X119264352Y-139883716D01*
X118775509Y-139566599D01*
X118279355Y-139168162D01*
X117732611Y-138658598D01*
X116886424Y-137828862D01*
X116717418Y-138065931D01*
X116389945Y-138483964D01*
X115686884Y-139179293D01*
X114881378Y-139755944D01*
X113993523Y-140204635D01*
X113043415Y-140516083D01*
X112051148Y-140681004D01*
X111036818Y-140690115D01*
X110936471Y-140682396D01*
X109921473Y-140525077D01*
X108979057Y-140224901D01*
X108096736Y-139775626D01*
X107262020Y-139171015D01*
X106462421Y-138404829D01*
X105897734Y-137795000D01*
X105595094Y-138176000D01*
X105425361Y-138375347D01*
X105163282Y-138663530D01*
X104851270Y-138993764D01*
X104525727Y-139326873D01*
X104105321Y-139729500D01*
X103703358Y-140054118D01*
X103328853Y-140270848D01*
X102945226Y-140395758D01*
X102515897Y-140444916D01*
X102004285Y-140434388D01*
X101889818Y-140426167D01*
X101528196Y-140386322D01*
X101222989Y-140333270D01*
X101030618Y-140276179D01*
X100958784Y-140240142D01*
X100879161Y-140179676D01*
X100829016Y-140083381D01*
X100799958Y-139917894D01*
X100783599Y-139649851D01*
X100771548Y-139245888D01*
X100747429Y-138328021D01*
X101258751Y-138387366D01*
X101711973Y-138404855D01*
X102214203Y-138342924D01*
X102230509Y-138339074D01*
X102408827Y-138288081D01*
X102571528Y-138214768D01*
X102745104Y-138099091D01*
X102956051Y-137921001D01*
X103230864Y-137660453D01*
X103596036Y-137297401D01*
X103874270Y-137019052D01*
X104224577Y-136665733D01*
X104475851Y-136392986D01*
X104568392Y-136267869D01*
X107204039Y-136267869D01*
X107246352Y-136365166D01*
X107388351Y-136554804D01*
X107607666Y-136806900D01*
X107881372Y-137093512D01*
X108244326Y-137435641D01*
X108932482Y-137958861D01*
X109639284Y-138329912D01*
X110383551Y-138559823D01*
X110406873Y-138564712D01*
X111265339Y-138667573D01*
X112072310Y-138610803D01*
X112823458Y-138395628D01*
X113514458Y-138023275D01*
X114140984Y-137494970D01*
X114397752Y-137206410D01*
X114824602Y-136547610D01*
X114912559Y-136314139D01*
X118097076Y-136314139D01*
X118844371Y-137056972D01*
X119312213Y-137489479D01*
X119967688Y-137976822D01*
X120633313Y-138326205D01*
X121336063Y-138553830D01*
X122139290Y-138669004D01*
X122913359Y-138635066D01*
X123633072Y-138462951D01*
X124286991Y-138166863D01*
X124863680Y-137761003D01*
X125351700Y-137259574D01*
X125739612Y-136676776D01*
X126015981Y-136026812D01*
X126169366Y-135323885D01*
X126188332Y-134582196D01*
X126061439Y-133815947D01*
X125777251Y-133039340D01*
X125581558Y-132677754D01*
X125263096Y-132229828D01*
X124830617Y-131741296D01*
X124610292Y-131517752D01*
X124297332Y-131217027D01*
X123971994Y-130918977D01*
X123660921Y-130646793D01*
X123390758Y-130423664D01*
X123188146Y-130272781D01*
X123079728Y-130217333D01*
X123075940Y-130220206D01*
X122997003Y-130309060D01*
X122826713Y-130510793D01*
X122577689Y-130809978D01*
X122262554Y-131191182D01*
X121893927Y-131638978D01*
X121484432Y-132137935D01*
X121046688Y-132672622D01*
X120593317Y-133227611D01*
X120136940Y-133787471D01*
X119690178Y-134336773D01*
X119265653Y-134860086D01*
X119110768Y-135051629D01*
X118875984Y-135341981D01*
X118533795Y-135767027D01*
X118251704Y-136119795D01*
X118097076Y-136314139D01*
X114912559Y-136314139D01*
X115096509Y-135825868D01*
X115210200Y-135051629D01*
X115162402Y-134235338D01*
X115133523Y-134069600D01*
X114944847Y-133397499D01*
X114639422Y-132757411D01*
X114205284Y-132131406D01*
X113630465Y-131501556D01*
X112903000Y-130849930D01*
X112613055Y-130612910D01*
X112355513Y-130408278D01*
X112172557Y-130269599D01*
X112091746Y-130218328D01*
X112079539Y-130227051D01*
X111979410Y-130335096D01*
X111791624Y-130553808D01*
X111529117Y-130867171D01*
X111204830Y-131259173D01*
X110831699Y-131713799D01*
X110422664Y-132215036D01*
X109990663Y-132746868D01*
X109548635Y-133293282D01*
X109109518Y-133838265D01*
X108686250Y-134365801D01*
X108291770Y-134859877D01*
X107939017Y-135304480D01*
X107640929Y-135683594D01*
X107410444Y-135981207D01*
X107260501Y-136181303D01*
X107204039Y-136267869D01*
X104568392Y-136267869D01*
X104637804Y-136174022D01*
X104720148Y-135982048D01*
X104732598Y-135790275D01*
X104684865Y-135571910D01*
X104586662Y-135300163D01*
X104447703Y-134948243D01*
X104411865Y-134856425D01*
X104006280Y-133854237D01*
X103630872Y-133004228D01*
X103277350Y-132294813D01*
X102937424Y-131714405D01*
X102602803Y-131251419D01*
X102265197Y-130894270D01*
X101916315Y-130631370D01*
X101547867Y-130451135D01*
X101151562Y-130341979D01*
X100838000Y-130283154D01*
X100838000Y-128332398D01*
X101470447Y-128372986D01*
X102095203Y-128469375D01*
X102667047Y-128686438D01*
X103208643Y-129039179D01*
X103750153Y-129543080D01*
X103916394Y-129729260D01*
X104181365Y-130074091D01*
X104442780Y-130481829D01*
X104711190Y-130972299D01*
X104997149Y-131565323D01*
X105311207Y-132280727D01*
X105663919Y-133138333D01*
X105719926Y-133277599D01*
X105873974Y-133658234D01*
X106000888Y-133968294D01*
X106088780Y-134178884D01*
X106125764Y-134261109D01*
X106134507Y-134254146D01*
X106226625Y-134150628D01*
X106409700Y-133934282D01*
X106672362Y-133618863D01*
X107003238Y-133218125D01*
X107390958Y-132745823D01*
X107824150Y-132215713D01*
X108291441Y-131641549D01*
X110437219Y-128999880D01*
X110108618Y-128740773D01*
X109597515Y-128329860D01*
X108777700Y-127625564D01*
X108097583Y-126969757D01*
X107547796Y-126348537D01*
X107118973Y-125748002D01*
X106801748Y-125154249D01*
X106586755Y-124553378D01*
X106464628Y-123931484D01*
X106426000Y-123274666D01*
X106431307Y-123136679D01*
X108475830Y-123136679D01*
X108476695Y-123713690D01*
X108553898Y-124254867D01*
X108744939Y-124813900D01*
X109057786Y-125361819D01*
X109502632Y-125913235D01*
X110089674Y-126482759D01*
X110829106Y-127085001D01*
X111017479Y-127227580D01*
X111269943Y-127415666D01*
X111448185Y-127544586D01*
X111522168Y-127592350D01*
X111542499Y-127577791D01*
X111647330Y-127462017D01*
X111814826Y-127257824D01*
X112019428Y-126997945D01*
X112235577Y-126715115D01*
X112437716Y-126442067D01*
X112600286Y-126211537D01*
X112759031Y-125957210D01*
X112962329Y-125594571D01*
X113142846Y-125237870D01*
X113144076Y-125235259D01*
X113265766Y-124963056D01*
X113343424Y-124735064D01*
X113386860Y-124497915D01*
X113405883Y-124198239D01*
X113410302Y-123782666D01*
X113410219Y-123727147D01*
X113389216Y-123199828D01*
X113319427Y-122791836D01*
X113183699Y-122459811D01*
X112964879Y-122160390D01*
X112645810Y-121850213D01*
X112324082Y-121610952D01*
X111768925Y-121349321D01*
X111170265Y-121217206D01*
X110559738Y-121213623D01*
X109968974Y-121337591D01*
X109429608Y-121588127D01*
X108973273Y-121964249D01*
X108725731Y-122287891D01*
X108555084Y-122674653D01*
X108475830Y-123136679D01*
X106431307Y-123136679D01*
X106441048Y-122883414D01*
X106580924Y-122069370D01*
X106863995Y-121339141D01*
X107285840Y-120700192D01*
X107842036Y-120159986D01*
X108528163Y-119725987D01*
X109150986Y-119471859D01*
X109979028Y-119279009D01*
X110847523Y-119213744D01*
X111718047Y-119275636D01*
X112552173Y-119464258D01*
X113311476Y-119779183D01*
X113375129Y-119814757D01*
X113749841Y-120074442D01*
X114151371Y-120420080D01*
X114536531Y-120808712D01*
X114862129Y-121197383D01*
X115084976Y-121543134D01*
X115253954Y-121921213D01*
X115485044Y-122688961D01*
X115598356Y-123490707D01*
X115594884Y-123782666D01*
X115588970Y-124279986D01*
X115451968Y-125010333D01*
X115296125Y-125459935D01*
X114971968Y-126179085D01*
X114557211Y-126928066D01*
X114077187Y-127662392D01*
X113557228Y-128337579D01*
X113545076Y-128352033D01*
X113364912Y-128574664D01*
X113244903Y-128738525D01*
X113210468Y-128809056D01*
X113524350Y-129041042D01*
X114363948Y-129682557D01*
X115072922Y-130262509D01*
X115664782Y-130795479D01*
X116153041Y-131296051D01*
X116551209Y-131778805D01*
X116872800Y-132258324D01*
X117131324Y-132749189D01*
X117340294Y-133265984D01*
X117385542Y-133388480D01*
X117471083Y-133590876D01*
X117528975Y-133689317D01*
X117590009Y-133638407D01*
X117745519Y-133469877D01*
X117982978Y-133197839D01*
X118290145Y-132836692D01*
X118654777Y-132400832D01*
X119064631Y-131904657D01*
X119507465Y-131362565D01*
X121431981Y-128994130D01*
X121149897Y-128780232D01*
X120465983Y-128242963D01*
X119617124Y-127505888D01*
X118918870Y-126802083D01*
X118364104Y-126123458D01*
X117945707Y-125461921D01*
X117656561Y-124809380D01*
X117547824Y-124376898D01*
X117475374Y-123840773D01*
X117454901Y-123473148D01*
X119455259Y-123473148D01*
X119472672Y-123849271D01*
X119591832Y-124457530D01*
X119835096Y-125028268D01*
X120215561Y-125588808D01*
X120746325Y-126166473D01*
X120811837Y-126229535D01*
X121172648Y-126556988D01*
X121564491Y-126887665D01*
X121913411Y-127158691D01*
X122502880Y-127587435D01*
X122852252Y-127190527D01*
X123360772Y-126557232D01*
X123851278Y-125787232D01*
X124199110Y-125026768D01*
X124400097Y-124287771D01*
X124450067Y-123582171D01*
X124344850Y-122921898D01*
X124213406Y-122581453D01*
X123894570Y-122100343D01*
X123466173Y-121711158D01*
X122953982Y-121423721D01*
X122383762Y-121247851D01*
X121781280Y-121193370D01*
X121172302Y-121270100D01*
X120582593Y-121487861D01*
X120506933Y-121527988D01*
X120041464Y-121867785D01*
X119713411Y-122301047D01*
X119519201Y-122834069D01*
X119455259Y-123473148D01*
X117454901Y-123473148D01*
X117443444Y-123267416D01*
X117455615Y-122721380D01*
X117515471Y-122267221D01*
X117669152Y-121755297D01*
X118014344Y-121080475D01*
X118493278Y-120486927D01*
X119090726Y-119989199D01*
X119791460Y-119601838D01*
X120580254Y-119339392D01*
X120636270Y-119326755D01*
X121218731Y-119243568D01*
X121874919Y-119218401D01*
X122527928Y-119251179D01*
X123100855Y-119341828D01*
X123687017Y-119519671D01*
X124451297Y-119886361D01*
X125123219Y-120373823D01*
X125686257Y-120966787D01*
X126123884Y-121649985D01*
X126419575Y-122408148D01*
X126480855Y-122654059D01*
X126589537Y-123526023D01*
X126586010Y-123582171D01*
X126533536Y-124417651D01*
X126312373Y-125330516D01*
X125925569Y-126266194D01*
X125372644Y-127226259D01*
X124653119Y-128212286D01*
X124559450Y-128330229D01*
X124375784Y-128571032D01*
X124254745Y-128743826D01*
X124218842Y-128817259D01*
X124255112Y-128845742D01*
X124403900Y-128957929D01*
X124638451Y-129132846D01*
X124928187Y-129347629D01*
X125392068Y-129699495D01*
X126239199Y-130402984D01*
X126939341Y-131081713D01*
X127503437Y-131749438D01*
X127942429Y-132419918D01*
X128267261Y-133106910D01*
X128488874Y-133824171D01*
X128545143Y-134125632D01*
X128580799Y-134582196D01*
X128596634Y-134784958D01*
X128576472Y-135492344D01*
G37*
%TD*%
M02*
